<mxfile host="app.diagrams.net" modified="2024-03-29T17:41:38.789Z" agent="Mozilla/5.0 (Macintosh; Intel Mac OS X 10_15_7) AppleWebKit/537.36 (KHTML, like Gecko) Chrome/123.0.0.0 Safari/537.36" etag="A3siNwnwoHmI7v4MkOfC" version="24.2.0" type="github">
  <diagram name="Page-1" id="Mkd1c_LNWjhLbUfexCcR">
    <mxGraphModel dx="1933" dy="2038" grid="1" gridSize="10" guides="1" tooltips="1" connect="1" arrows="1" fold="1" page="1" pageScale="1" pageWidth="850" pageHeight="1100" math="0" shadow="0">
      <root>
        <mxCell id="0" />
        <mxCell id="1" parent="0" />
        <mxCell id="Sk6FEX_UIBld3xIUa4Sr-16" style="edgeStyle=orthogonalEdgeStyle;rounded=0;orthogonalLoop=1;jettySize=auto;html=1;exitX=0.5;exitY=1;exitDx=0;exitDy=0;" edge="1" parent="1" source="Sk6FEX_UIBld3xIUa4Sr-10">
          <mxGeometry relative="1" as="geometry">
            <mxPoint x="510" y="440" as="targetPoint" />
          </mxGeometry>
        </mxCell>
        <mxCell id="Sk6FEX_UIBld3xIUa4Sr-10" value="" style="rounded=0;whiteSpace=wrap;html=1;" vertex="1" parent="1">
          <mxGeometry x="570" y="159" width="180" height="174" as="geometry" />
        </mxCell>
        <mxCell id="Sk6FEX_UIBld3xIUa4Sr-5" style="edgeStyle=orthogonalEdgeStyle;rounded=0;orthogonalLoop=1;jettySize=auto;html=1;exitX=1;exitY=0.5;exitDx=0;exitDy=0;entryX=0;entryY=0.5;entryDx=0;entryDy=0;" edge="1" parent="1" source="Sk6FEX_UIBld3xIUa4Sr-2" target="Sk6FEX_UIBld3xIUa4Sr-3">
          <mxGeometry relative="1" as="geometry" />
        </mxCell>
        <mxCell id="Sk6FEX_UIBld3xIUa4Sr-2" value="Generate Pseudo-experiment with&lt;br&gt;background-only model" style="rounded=0;whiteSpace=wrap;html=1;" vertex="1" parent="1">
          <mxGeometry x="150" y="210" width="120" height="90" as="geometry" />
        </mxCell>
        <mxCell id="Sk6FEX_UIBld3xIUa4Sr-6" style="edgeStyle=orthogonalEdgeStyle;rounded=0;orthogonalLoop=1;jettySize=auto;html=1;exitX=1;exitY=0.5;exitDx=0;exitDy=0;" edge="1" parent="1" source="Sk6FEX_UIBld3xIUa4Sr-3">
          <mxGeometry relative="1" as="geometry">
            <mxPoint x="570" y="255" as="targetPoint" />
          </mxGeometry>
        </mxCell>
        <mxCell id="Sk6FEX_UIBld3xIUa4Sr-7" value="N times" style="edgeStyle=orthogonalEdgeStyle;rounded=0;orthogonalLoop=1;jettySize=auto;html=1;exitX=0.5;exitY=0;exitDx=0;exitDy=0;entryX=0;entryY=0.5;entryDx=0;entryDy=0;" edge="1" parent="1" source="Sk6FEX_UIBld3xIUa4Sr-3" target="Sk6FEX_UIBld3xIUa4Sr-2">
          <mxGeometry relative="1" as="geometry">
            <Array as="points">
              <mxPoint x="400" y="150" />
              <mxPoint x="130" y="150" />
              <mxPoint x="130" y="255" />
            </Array>
          </mxGeometry>
        </mxCell>
        <mxCell id="Sk6FEX_UIBld3xIUa4Sr-3" value="Using signal + background model to find best-fit value of mu" style="rounded=0;whiteSpace=wrap;html=1;" vertex="1" parent="1">
          <mxGeometry x="340" y="225" width="120" height="60" as="geometry" />
        </mxCell>
        <mxCell id="Sk6FEX_UIBld3xIUa4Sr-4" value="" style="shape=document;whiteSpace=wrap;html=1;boundedLbl=1;" vertex="1" parent="1">
          <mxGeometry x="580" y="220" width="120" height="80" as="geometry" />
        </mxCell>
        <mxCell id="Sk6FEX_UIBld3xIUa4Sr-8" value="" style="shape=document;whiteSpace=wrap;html=1;boundedLbl=1;" vertex="1" parent="1">
          <mxGeometry x="590" y="206" width="120" height="80" as="geometry" />
        </mxCell>
        <mxCell id="Sk6FEX_UIBld3xIUa4Sr-9" value="UL from experiment i" style="shape=document;whiteSpace=wrap;html=1;boundedLbl=1;" vertex="1" parent="1">
          <mxGeometry x="600" y="186" width="120" height="80" as="geometry" />
        </mxCell>
        <mxCell id="Sk6FEX_UIBld3xIUa4Sr-12" value="" style="rounded=0;whiteSpace=wrap;html=1;" vertex="1" parent="1">
          <mxGeometry x="350" y="450" width="320" height="200" as="geometry" />
        </mxCell>
        <mxCell id="Sk6FEX_UIBld3xIUa4Sr-13" value="" style="curved=1;endArrow=classic;html=1;rounded=0;entryX=0.778;entryY=1;entryDx=0;entryDy=0;entryPerimeter=0;" edge="1" parent="1" target="Sk6FEX_UIBld3xIUa4Sr-12">
          <mxGeometry width="50" height="50" relative="1" as="geometry">
            <mxPoint x="370" y="650" as="sourcePoint" />
            <mxPoint x="350" y="600" as="targetPoint" />
            <Array as="points">
              <mxPoint x="420" y="650" />
              <mxPoint x="520" y="510" />
            </Array>
          </mxGeometry>
        </mxCell>
        <mxCell id="Sk6FEX_UIBld3xIUa4Sr-14" value="UL" style="text;html=1;align=center;verticalAlign=middle;whiteSpace=wrap;rounded=0;" vertex="1" parent="1">
          <mxGeometry x="581" y="670" width="60" height="30" as="geometry" />
        </mxCell>
        <mxCell id="Sk6FEX_UIBld3xIUa4Sr-15" value="No. Exps" style="text;html=1;align=center;verticalAlign=middle;whiteSpace=wrap;rounded=0;" vertex="1" parent="1">
          <mxGeometry x="260" y="500" width="60" height="30" as="geometry" />
        </mxCell>
        <mxCell id="Sk6FEX_UIBld3xIUa4Sr-17" value="" style="shape=image;verticalLabelPosition=bottom;labelBackgroundColor=default;verticalAlign=top;aspect=fixed;imageAspect=0;image=data:image/png,iVBORw0KGgoAAAANSUhEUgAABV4AAAKKCAYAAADFtUA8AAAKrWlDQ1BJQ0MgUHJvZmlsZQAASImVlwdUU+kSgP97bzoJLSECUkJvgnQCSAmhhSJIBxshCRBKiIGgYENkcQXWgooI2NBVioJrAWStiGJhUWxgXZBFQVkXC6Ki8i5wCO6+8947b86ZM18m88/M/5/73zMXAIoiVyxOgRUBSBVlSEJ8PBhR0TEM/ABAgAYgAUOgweWli1nBwQEAlWn7d/lwH0AT9o75RK5///+/ihJfkM4DAApGOY6fzktF+SSqL3liSQYAyD7Ur7c8QzzBrSjTJGiDKHdPcMIUD01w3CRjwGRMWAgbZRoABDKXK0kAgMxA/YxMXgKah+yOsqWILxShLEbZNTU1jY/yMZSN0RjUR57Iz4z7Lk/C33LGyXJyuQkyntrLpBA8heniFG7W/3kc/1tSU6TTNQxRJSdKfENQq4yeWXdymr+MRXHzg6ZZyJ+Mn+REqW/4NPPS2THTzOd6+svWpswPmOZ4oTdHlieDEzbNgnSv0GmWpIXIasVL2Kxp5kpm6kqTw2X+RAFHlj87MSxymjOFEfOnOT051H8mhi3zS6Qhsv4FIh+Pmbresr2npn+3XyFHtjYjMcxXtnfuTP8CEWsmZ3qUrDe+wNNrJiZcFi/O8JDVEqcEy+IFKT4yf3pmqGxtBvpAzqwNlp1hEtcveJoBG6SBFFQlgAEC0F+eAGQIVmRMbISdJs6SCBMSMxgs9IYJGBwRz2IOw9rS2haAifs69Ti8o0/eQ4h+fca3XgcAl6zx8fEzMz7/WwCcOAsA6eGMz6gfAPnrAFzdyZNKMqd8k3cJi74FFAANqAEtoAeMgTmwBvbAGbgDL+AHgkAYiAZLAA8kglS08+VgFVgH8kEh2AJ2gDKwFxwAVeAoOA4awRlwEVwBN8AtcA88Aj2gH7wCw+ADGIMgCA9RICqkBmlDBpAZZA0xIVfICwqAQqBoKBZKgESQFFoFrYcKoWKoDNoPVUO/QKehi9A1qBN6APVCg9Bb6DOMwGSYBmvChvBcmAmzYH84DF4MJ8DL4Gw4D94El8KV8BG4Ab4I34DvwT3wK3gEAYgcQkd0EHOEibCRICQGiUckyBqkAClBKpE6pBlpQ+4gPcgQ8gmDw1AxDIw5xhnjiwnH8DDLMGswRZgyTBWmAdOKuYPpxQxjvmEpWA2sGdYJy8FGYROwy7H52BLsIewp7GXsPWw/9gMOh6PjjHAOOF9cNC4JtxJXhNuNq8ddwHXi+nAjeDxeDW+Gd8EH4bn4DHw+fhf+CP48/ja+H/+RIEfQJlgTvAkxBBEhl1BCqCGcI9wmvCCMERWJBkQnYhCRT8wibiYeJDYTbxL7iWMkJZIRyYUURkoirSOVkupIl0mPSe/k5OR05RzlFsgJ5XLkSuWOyV2V65X7RFYmm5LZ5EVkKXkT+TD5AvkB+R2FQjGkuFNiKBmUTZRqyiXKU8pHeaq8hTxHni+/Vr5cvkH+tvxrBaKCgQJLYYlCtkKJwgmFmwpDikRFQ0W2IldxjWK54mnFLsURJaqSlVKQUqpSkVKN0jWlAWW8sqGylzJfOU/5gPIl5T4qQtWjsqk86nrqQeplaj8NRzOicWhJtELaUVoHbVhFWcVWJUJlhUq5ylmVHjpCN6Rz6Cn0zfTj9Pv0z7M0Z7FmCWZtnFU36/asUdXZqu6qAtUC1XrVe6qf1RhqXmrJalvVGtWeqGPUTdUXqC9X36N+WX1oNm2282ze7ILZx2c/1IA1TDVCNFZqHNBo1xjR1NL00RRr7tK8pDmkRddy10rS2q51TmtQm6rtqi3U3q59XvslQ4XBYqQwShmtjGEdDR1fHanOfp0OnTFdI91w3Vzdet0neiQ9pl683na9Fr1hfW39QP1V+rX6Dw2IBkyDRIOdBm0Go4ZGhpGGGwwbDQeMVI04RtlGtUaPjSnGbsbLjCuN75rgTJgmySa7TW6ZwqZ2pomm5aY3zWAzezOh2W6zzjnYOY5zRHMq53SZk81Z5pnmtea9FnSLAItci0aL13P158bM3Tq3be43SzvLFMuDlo+slK38rHKtmq3eWpta86zLre/aUGy8bdbaNNm8sTWzFdjuse22o9oF2m2wa7H7au9gL7Gvsx900HeIdahw6GLSmMHMIuZVR6yjh+NaxzOOn5zsnTKcjjv95WzunOxc4zwwz2ieYN7BeX0uui5cl/0uPa4M11jXfa49bjpuXLdKt2fueu5890PuL1gmrCTWEdZrD0sPiccpj1G2E3s1+4In4unjWeDZ4aXsFe5V5vXUW9c7wbvWe9jHzmelzwVfrK+/71bfLo4mh8ep5gz7Ofit9mv1J/uH+pf5PwswDZAENAfCgX6B2wIfzzeYL5rfGASCOEHbgp4EGwUvC/51AW5B8ILyBc9DrEJWhbSFUkOXhtaEfgjzCNsc9ijcOFwa3hKhELEoojpiNNIzsjiyJ2pu1OqoG9Hq0cLophh8TETMoZiRhV4LdyzsX2S3KH/R/cVGi1csvrZEfUnKkrNLFZZyl56IxcZGxtbEfuEGcSu5I3GcuIq4YR6bt5P3iu/O384fFLgIigUv4l3ii+MHElwStiUMJrolliQOCdnCMuGbJN+kvUmjyUHJh5PHUyJT6lMJqbGpp0XKomRRa5pW2oq0TrGZOF/cs8xp2Y5lwxJ/yaF0KH1xelMGDR2M2qXG0h+kvZmumeWZH5dHLD+xQmmFaEV7lmnWxqwX2d7ZP6/ErOStbFmls2rdqt7VrNX710Br4ta0rNVbm7e2P8cnp2odaV3yut9yLXOLc9+vj1zfnKeZl5PX94PPD7X58vmS/K4Nzhv2/oj5Ufhjx0abjbs2fivgF1wvtCwsKfxSxCu6/pPVT6U/jW+K39Sx2X7zni24LaIt97e6ba0qVirOLu7bFritYTtje8H29zuW7rhWYluydydpp3RnT2lAadMu/V1bdn0pSyy7V+5RXl+hUbGxYnQ3f/ftPe576vZq7i3c+3mfcF/3fp/9DZWGlSUHcAcyDzw/GHGw7Wfmz9WH1A8VHvp6WHS4pyqkqrXaobq6RqNmcy1cK60dPLLoyK2jnkeb6szr9tfT6wuPgWPSYy9/if3l/nH/4y0nmCfqThqcrDhFPVXQADVkNQw3Jjb2NEU3dZ72O93S7Nx86leLXw+f0TlTflbl7OZzpHN558bPZ58fuSC+MHQx4WJfy9KWR5eiLt1tXdDacdn/8tUr3lcutbHazl91uXrmmtO109eZ1xtv2N9oaLdrP/Wb3W+nOuw7Gm463Gy65XiruXNe57nbbrcv3vG8c+Uu5+6Ne/Pvdd4Pv9/dtairp5vfPfAg5cGbh5kPxx7lPMY+Lnii+KTkqcbTyt9Nfq/vse852+vZ2/4s9NmjPl7fqz/S//jSn/ec8rzkhfaL6gHrgTOD3oO3Xi582f9K/GpsKP9PpT8rXhu/PvmX+1/tw1HD/W8kb8bfFr1Te3f4ve37lpHgkacfUj+MjRZ8VPtY9Yn5qe1z5OcXY8u/4L+UfjX52vzN/9vj8dTxcTFXwp0cBRBU4fh4AN4eBoASDQAVnSFIC6fm6UmBpr4BJgn8J56auSfFHoA61EyMRewLABxD1TAHzY3aiZEozB3ANjYynZ59J+f0CcGhXyz7PCfowbbFOeAfMjXDf9f3Py2YyGoL/mn/BevkCG/0/QreAAAAimVYSWZNTQAqAAAACAAEARoABQAAAAEAAAA+ARsABQAAAAEAAABGASgAAwAAAAEAAgAAh2kABAAAAAEAAABOAAAAAAAAAJAAAAABAAAAkAAAAAEAA5KGAAcAAAASAAAAeKACAAQAAAABAAAFXqADAAQAAAABAAACigAAAABBU0NJSQAAAFNjcmVlbnNob3TiPrJAAAAACXBIWXMAABYlAAAWJQFJUiTwAAAB12lUWHRYTUw6Y29tLmFkb2JlLnhtcAAAAAAAPHg6eG1wbWV0YSB4bWxuczp4PSJhZG9iZTpuczptZXRhLyIgeDp4bXB0az0iWE1QIENvcmUgNi4wLjAiPgogICA8cmRmOlJERiB4bWxuczpyZGY9Imh0dHA6Ly93d3cudzMub3JnLzE5OTkvMDIvMjItcmRmLXN5bnRheC1ucyMiPgogICAgICA8cmRmOkRlc2NyaXB0aW9uIHJkZjphYm91dD0iIgogICAgICAgICAgICB4bWxuczpleGlmPSJodHRwOi8vbnMuYWRvYmUuY29tL2V4aWYvMS4wLyI+CiAgICAgICAgIDxleGlmOlBpeGVsWURpbWVuc2lvbj42NTA8L2V4aWY6UGl4ZWxZRGltZW5zaW9uPgogICAgICAgICA8ZXhpZjpQaXhlbFhEaW1lbnNpb24+MTM3NDwvZXhpZjpQaXhlbFhEaW1lbnNpb24+CiAgICAgICAgIDxleGlmOlVzZXJDb21tZW50PlNjcmVlbnNob3Q8L2V4aWY6VXNlckNvbW1lbnQ+CiAgICAgIDwvcmRmOkRlc2NyaXB0aW9uPgogICA8L3JkZjpSREY+CjwveDp4bXBtZXRhPgo5PXnvAAAAHGlET1QAAAACAAAAAAAAAUUAAAAoAAABRQAAAUUAAQSFpUN5+gAAQABJREFUeAHs3QV81MgCBvAPKe6F4hQtFCjQ4m6F47DDneLucujhzpXjcHd3d3cvbqVQXAsUKBTnZWZflqxU2fa67Zf3e7vJZDJJ/lng+nV2JlrCpHY/wEUKnPM4j4MHDmDGjOnw8vKSZdWqV8fYceNhY2ODjx/94Zw3L759+2ZVYnmVa16zbn2ornnv3r3o2L4dEiZMiJQpU6JGzVpo3rwFYsWOJdurVLEi7ty5Haq2eVDUErjheQvRo0fHyZMn4dakcdS6+TC82xgxYsI2sR1yZnJBq5r9kNYuozzbxKX9sOXw0jA8M5umQOgF4saNK/9dcclfCIWLFkO0aNHw0f8jxo4eFvpGeeQvC/TuOwBXLl1U/p4+Dt/Xr2V7WbNlR4OGTRDTJiY+ffyIcWNG4Pv37798LmtrIFasWIgXPz4cHXOhbPkKENtimThhHN74+lrb7fB6KRAmAuK/88TPDOnSZUD5Cr8hma2tPM/WzRtw9szpMDknG6UABShAAQpEdIFoDF5/PiJPr58B4o8fujxa/DCoLoP+GohVK1eqm1bz7uzsjFVr1obqevft24cO7dpixqzZKF++vEEbG9avQ98+fQzKuEGBgAQYvAYk82vlRZxcMbrLQoNGvB5cRftRlZVwxLp+SWRwE9yI1ALde/ZBkqRJ9fco/s1dtmQRvG7d1JdxJfwFho4Yoz+puf8OWr1iGa5du6KvE5VWqteoBZf8BQ1u+djRw9iza4dBGTcoEJUFsmXPgcZNmhkQPHnyGHNmTouSv7AxgOAGBShAAQpEWQEGr5pHv33nLtjb28verWqx+MHj+Yvn6NalCzzOnVOLreo9dqzYcK3gGqprvn79huzROm36DFRQereK5Y3vG2zesgkjhrFnUqhQo+hB127cRMyYMXH8+HE0d2saRRUsf9sFc5XFuG5LZMPv/d/izNVDGD2vK75++2L5k7FFClhIoGv33rInlPg39uXLF9i1cwdu3bxhodbZTGgFWrZpjzSp08rerWobumfkgzWrluPZ06dqcZR7r1q9JgoULCTv++3bNzh35hQOHTwQ5Rx4wxQITCBrNgc0cWshq4ge8re8PLFh7Wqr+7ZgYPfIfRSgAAUoQIGQCjB4NSOWKHFiZMiQAX7v/HD3rreZGiyiAAUoQAEKUIACkVMgVuzYSJwoET5//ow3b95EzpvkXVGAAhSgAAUoQAEKUCAcBBi8hgMyT0EBClCAAhSgAAUoQAEKUIACFKAABShAAQpELQEGr1HrefNuKUABClCAAhSgAAUoQAEKUIACFKAABShAgXAQYPAaDsg8BQUoQAEKUIACFKAABShAAQpQgAIUoAAFKBC1BBi8Rq3nzbulAAUoQAEKUIACFKAABShAAQpQgAIUoAAFwkGAwWs4IPMUFKAABShAAQpQgAIUoAAFKEABClCAAhSgQNQSYPAatZ4375YCFKAABShAAQpQgAIUoAAFKEABClCAAhQIB4EIF7x6ennpb9sha1b9OlcoQAEKUIACFKAABShAAQpQgAIUoAAFKEABCliLAINXa3lSvE4KUIACFKAABShAAQpQgAIUoAAFKEABClDAagQYvFrNo+KFUoACFKAABShAAQpQgAIUoAAFKEABClCAAtYiwODVWp4Ur5MCFKAABShAAQpQgAIUoAAFKEABClCAAhSwGgEGr1bzqHihFKAABShAAQpQgAIUoAAFKEABClCAAhSggLUIMHi1lifF66QABShAAQpQgAIUoAAFKEABClCAAhSgAAWsRoDBq9U8Kl4oBShAAQpQgAIUoAAFKEABClCAAhSgAAUoYC0CDF6t5UnxOilAAQpQgAIUoAAFKEABClCAAhSgAAUoQAGrEWDwajWPihdKgeAJNG/REk2buuH582do2KB+8A6KxLWiR4+O7Tt3wiZmLIwYMRQHDxyMxHfLW6MABShAAQpQgAIUoAAFKEABClAgoghYVfBaOF0q5LZLhtQJ4iNatGjS0P24B/y/fI0onlZ3HTFtYqOc2wBEU/538cAaPL1z2erugRf8UyBevHg4c84DNjY2OH78OJq7Nf25M4zWxJ/FHz9+hKr10B4b0uMOHjqMNGnTwve1LwoVzB+qa+VBFKAABShAAQpQgAIUoAAFKEABClAgJAJWEbzGVHqsraxTCYXSpjS5twKzV+H5+w8m5SwInkD8xCnQfcF5WXnf4lE4uXFG8A5krQgpMHnqVFSq9Lu8tqqVf4enp2eQ15kgaUqUdxuItA4usu6VIxtxeKV7oMfFTZgUlTuMR3rHgoifODm+ff2C53ev4eSmmbh2bEugx+Yr3wD5K7dAivQOiBHTBu9eP8ODq6ewbUYffPb3C/DYXzlnrdq1MXbceNn2xAnumDGDn/MAobmDAhSgAAUoQAEKUIACFKAABShAAYsIWEXw2sYlFwaVLiRv+MOXLzhw9xHefPose9mNOHQGooxL6AQYvIbOLSIelSBBApw7f0H2Br979y4qupYP9DKTprJHhRbDkK2gq0G92x77sXKkm0GZdkN8ZtpN3g8RhJpbds0bjLPb5pvbhRJ1uqJ0oz5m97179RSzu5XHx/dvTPb/yjnVxi5evoK4cePC398feZ1yq8V8pwAFKEABClCAAhSgAAUoQAEKUIACYSJgFcHr6rq/o4gyzMDHb9+QfcpiJXANE4so2WjMWHHxR/dJ8t5Pb5mLB9dPR0mHyHDTAwYOhBjfVSw9unXFtm3bArytAlVa4rdWw83uDyp47TTjOJKkzCCPvX/tFM7vXoqkqTKiZL0eiKb0ThfLogE18fDGGbmuvmRxKY8Gfy2Sm6KH7NE1/8L3+QMUrtoaqbLkkeVPva9iXq/f1EP076E9p74BZWXgX4PQrHlzWRSUj/Y4rlOAAhSgAAUoQAEKUIACFKAABShAgdAIWEXweqpNPTmu68G7D+G2YU9o7pPHUCDSC5zzOI+EiRLBz88PLvnyBnq/FVsNQ8EqrWSdRzfP4dAKdzQaukJuBxa8iuEB2k7aL+v5PLyl9FAtpx/fVbQn2hXLbY99Sq/ZZnJdfWk2egPS5SgoN5cPawzvi4fkevToMdBryVXEiptAbk9pUxBvXz5RD5NDEoT2nPpGlJU4ceLiwqVLEJNtiSEYxFAMXChAAQpQgAIUoAAFKEABClCAAhSgQFgJROjgdXTd6vK+B5QsgDgxYsDzpS+WXr5pYLHi8g18+vrdoExsFEufCkXTpVEm47KV+y4+f4Gj957g7ONnJnW1BSUypEZW26Tw8fPH1lveSBY3NspmSo8KWdIjgTJh0XWf11h44RoevX2vPSzE666urihdpqw8btnSJbhx44ZJG/kLFECNGjVl+a5du3D0yGGTOqEpSJUpFzLmKWlyqOfp3Xj15I5JuSgQgZtjcfE8fuD4uqlInj4bchavhkxKO58/+UP0fDy6eqIc69NsA79QmC1DbhTPV0mee8m2SYgZwwYl8v2GsgX/QFq7jHj84i427F+Is9d0QZ56qizpHOFapBYyp82BFEnT4uPnD/B6cBVXb5/DnpPr8P37N7Wq/r2IkytyZMqH129fYNPBRRDbJVwqIVfm/Hjqcx9HPHZg+7GV+vrGK7GVHsQ1y7ZA/pwlkCRhClzyPIFdJ9fi/Ye3/78HYOP+Bfj89ZPxoXKIgIpF6yJPtkLIlsEJnz7747r3eew6vhq3H143qa8tSJ0mDQ4dPiKLjhw+hFYtdT1ftXW066J3aoZcRbB77iC8eOCphJ4J8ecy3TkCC16rd/0XTmXqyKbEcASirrp0mHoEydJkkps/vn/H+IbZ8PWL7j5jx0uE3kuvyX2+z+5jWodi6mHIlLc0Gg1Zpt8+s3Ueds8fot8O7Tn1DWhW9uzbD3t7e+XZf0cOh2yaPQGvVq9RAy7OuvFvRa1Vq1bi+jXdvQR8FPdQgAIUoAAFKEABClCAAhSgAAUoENUFInTwGmfaqCCfj/HkWrFjRsfY8sVRO2dWs8cuunAdww6dxlcleDG3LPijAspnTocHb/zQdechbKhfxaSaGPLAYfJik/KQFOTNmxer166TYdu7t29RtGhhJcD8rG8iYcKEOH7qFGLHii1DItE7z8vLS7//V1ZcWwxG4WptTZoIbHItUV8cJxYxhqe5r6m/83mC6Z1K6MM2kxOEsqBZtZ4Q/xeL21+lMHfoHsSKGduktY6jq+LG3QuyfGSnBSiWt4JJHbXg2cuH6DKuBnx8n6pF8n1Cz9VwzlEM/h/9sO/MJlQt2dhgv9g4cHYzRszuaFKePEkqzPxrO5IlsjPZd/T8TpRwFuEx0LB/EYjza5c0KewxoecqpLRNpy3Wr8/dMA7Ld0zRbxuvdOjQAT169ZbFc+fMxvhx44yrBLod3OC169yzSJgsFUSwOrZ+Znz/9lW2a27oguVDG8L7ki4MdixWFbV6z5R1z2xTgtV5umBVTK7VY+FFiGBWXV499saMzj9/MRDac6rtad/nL1qEEsVLyCK3Jo1x8uRJ7W6z61u2bUf27Nn1+yZP+hdTpwT8LPQVuUIBClCAAhSgAAUoQAEKUIACFKBAlBaI0MHr2nZN5cNpkNsBMZWvBz/xe499dx4YPLCRh88aTK71d8XiqJ/LQdbx+fARWz29EU3Zqp49M5IqvVfFMvvcFYw8bDj+pNyhvKjB6zslBI0RPRriKb1cxXmvPHuFuDYxUSCtHWJGi4bMkxaph4T6vUvXrujStZs8/vjx42juprtfUbBp8xY45swp940aNRKLFiyQ65Z4yVHkd7j85iabihUnHtJmzy/Xgxu8isoicLurhGqit2u2AhXk7PSifP+SMTixYZpYtdiiDV5fKEFpCiXgFD1GHz7zxucvH2GfOhvixo6PzmOr49odD3nef/9cp/QcLQz/T+9x695l3HuqC61FmagvFhGuVu3mqP+qvChTg1exLpb3/m9x9voRJFB6hOZ3LKUrVF5bDi2Hu4899dtiZdW4M0rP2tSyTFzn2asHkTZFRuRxKGJQzzh4TRAvMda5X4CNEkKK5dFzb5y/eRwJ4ydBsTwV9eWj5nXBvlMbDNpSNxYvXYYiRXTnCc34pcENXvusvAUbpVevmAhrcusC8vRikq3u888jeoyYeP/GB/ETJ5flW6f1wsV9q+S6Nrhf794e149vleW/tRmJAr83l58n0QM5pk1s+L97jX+aOcn94iW059Q3oFnRjoO7eNFCjBwxQrPX/CqDV/MuLKUABShAAQpQgAIUoAAFKEABClAgcIEIHbw6ZNX1WvVo1xDJ48XBumte6LFL14PO3G2ljB8PZ9rWl7vu+r5F5WVb4PdZ14tUhK47m/whx4oVvV1dZq2A78efPUzV9tTgVd3uqZxvrXJedRFBbL3c2bDwvGW+arx2/QbkyZNHNj90yGAsX7ZMhrEilBXLiRMn0KxpE7keFi9itvjuC87LpoMbvIqJkWZ1LYPXT+/J4xLZpkbnWafkxErGXyO3xDVrg1fRnvi6/8i5HfFFuQ6xRFOC8Drl28ieqGoP1tqureH71gf7lV6rP4xmY+tYbwjquLaRxxqHmdrg9dHzu2g9zBWflHBXLL8Vq4u+zSfK9a1HluGfJX3lungpmtcVozotlNtXb59Ft79r64cyqFaqCXo0GSv3iRfj4HVI+1ko7aLrWT1n/Ris2PkzuE6aKDmWjT6BOErYKULkGj1y6+9b36Cysn3nLmT9/5+X0qVK4snjx9rdQa4HN3gdsPa+fM5ifNdZXcvKdhsNWa4MF1AKH/18sWNWf9TsNUOWH1n1Dw4r/xdLhRZDUahaa7m+dFBd3Lt6wmDs1l1z/kKxmp2QMHlqOVzF2HqZZF3xEtpz6hvQrFSrXh0T/tE9wz27d6NTxw6aveZXGbyad2EpBShAAQpQgAIUoAAFKEABClCAAoELRKrgtUvhPPizmK73ZuvN+7D79n2Du6/pmAWTKul6LQ46cBJi2AHjRRu8zvG4ihHKsARhucSLFw/HT56CeBfjTvbo1g3/Tp4sw8S3b96gaJHC+PJFFzCGxXWEJng9tWU29i4YbnA5LcZvRZqs+fDl43uMb/Tza9kGlUK5oQ1efd48Q70/dc84lM3J3rHbpujGCt5yeCkmLu2nb0obvHYbXwuXvQyf/67p3rIHqofSC7b3xIb649QetqKgycDiyrizulBarbDxn8tIlCCp3NQGr/HjJsKWSboQXwyTIIZLMF60QfGfyjnPKec2Xo4oPaZT2qWUIXP2bLpfWBjXCWw7OMFrTCX87av0eBXLw5tnsah/DWRxKYcGf+mG3Vg2pL4yzMRniEm0xHJh7wpsm/6nXK/ZewZyFqsm10Vo7/PQCx2nHUXS1BmVdV2I22biXtjZ55B1RtdOL+/lV84pGzJ6SZc+HfYfOCRLPc6dQ4P69YxqmG4yeDU1YQkFKEABClCAAhSgAAUoQAEKUIACQQtEquD1n99Kos7/x3bN+O9CfDfq6RhbmaDrVlfdV+xFj9XBB0+ZCGmD13wzl+OVv25yIJOKFixwdnbGytVrZNiqNitC2BrVq5mddEutY4n30ASvImC7e/mYwenVYE2M/Tm6TgaDfb+6oQ1eJy0fKCe9Cm6bjpmckS97MaSxy4hkymRXiPZDHlo0TwX5bjxeqzZ4Ldc2nclpxJAAohfqnUc3ZG9YtcKq8WflEAi+716iVq+8arH+fUDLyXKiL1GgDV7zZS+Kf3qtkfVEqHxNmfgrmhwcQ9eTV+xIpAw5oA5XsHjrRCzcPEHW176I8YCT2ybH169fkTNHyIPv4ASvcRMkQc/FV+Rp7187CTGGqzo+q5iYbc3YlkidNQ9ajt8u61w+uA6bJ3eT63X7L4BDQZ25GL9VBLYVWw6TY8WKbdF7urX7TqTMnFvWH1M3oxx+4FfOKRsyekmSNAlOnzknSy9duoQ6tXST1xlVM9i0S2GH5HbKZ+f/y11vb3z48EHd5DsFKEABClCAAhSgAAUoQAEKUIACFDArEKmC17X1KqNQ2pQQ47Pmmr7M7A3f6dZMjhe73/sBmm/ca1JHDV7FcASWGMfV5AQBFHTr3gOdOnfW7x09ahQWLpiv3w6rldAEr1PbF8Gb5w8NLqlqZ3fkLddAlo2qZRpYGlQO4YY2eNWO4xpYMxlSZcWozguQ1u7nV9bN1T/ssR1DZ/6caEwNXsXX+qt0MQ0wV4w5pUyAlRYPnt1Gs0Gl9U3unH5bTvglxn0V478aL61q9EXjyl1ksTZ4FUMeiB6twV32nFyHMfN1Yab2mN179yFjxoyyyCVfXvj5+Wl3B7kenOBVNDJwve65v3jgiQfXT8OlYhM5mdrE5nnx2d/PoAfs8fVTcWCpboiF39uPlXVFG2vHtVIm2polx4Q9tm4KDi7TTQTWacZxJEmZQQauInhVl9CeUz1e+166TFnMmTtXFh0+dBCtW7XS7uY6BShAAQpQgAIUoAAFKEABClCAAhSwmECkCl73utWEg20SORlW4TmrzSJd7dgYCWPHgseT56ixcptJHTV4ffzuPYrMNd+GyUEWKOjQsSN69Oylb2n40KFYunSJfjusVkITvE5qlR9+r58ZXFJ4Ba+iN6noVRrYElv5Svzq8WeQMF4SWe3V2+e4cOMEnr16qB8f1a1qd7nv6PmdGDyjtb45ffCqTLxVpavua+/6ncpKQMHrnhl3EUOZXMrz3iW0H1VZe4hcb169F9yq9pDr2uC1Ta3+aFipkyw/fnGPMmHXDZNjtQUe14/C44Zhb2Oxf8269cibV9fTtmWLFjh65LD2sCDXgxu89l11W06AJcb5jfH/ycA2TuyMq0c2ynM4lamN6l0nyXUxbuvZHQvleok6XVG6UR+5/uWzv26CLuUzNEWZoEsdg7fHgouIl9hWBrh/N/5pH9pzypMZvWgntFu7dg0G9Ps5zIRRVW5SgAIUoAAFKEABClCAAhSgAAUoQIFfEohUwevimhVQJmM6fPz2DQ6TdeNOGuvc79FCFm2+6Y3O2w8a74YavD5444fi83VfATepZOECMbmWCM7EJFHqIoYaqFr5d3h5ealFYfJubcFrtW458d7/baAWVUs2Rs+mul6Ua/fOwfTVwwzqx7aJgx3TdK6WCl7VMVyfvXykDCVQ2OB8YkNMriUm2RKLNnjVTtg1bmEP7Doeus/ckKHD0LiJrv2J/0zAjOnT5bmC+xLc4FUNR9V2H908h4X9/1A3UbZJPxSrpeu5vXpMc9w6s1fuy1O2Lqp1maivJ1bm96mMJ16XZJn47Pdb7S17wYre1KJXtbqE9pzq8dr3adNnoELFirKoX98+WL9unXY31ylAAQpQgAIUoAAFKEABClCAAhSggMUEIlXwOrxMYTR3zilxzI3PmiZhfJxsXU/un3LqEv4+rhvrUasZ3sFrnDhxcUIZnzN+/Piy59+okSPx16BB8pJ8X/uieLEiEW5yrf+yx2twgtd+Lf5FxaJ1pKFre3tl0rJv2keMvA5FMbG3LuC0VPA6d8heZE6bA9++fZVDFHz+ajg28MyB2+Fgn0dehzZ4zZLOEXMG75Hla/bOxozVww2uNbgbLvnzY+UqXQ/tHTu2o1sX3bAGwT0+uMFr05FrkSGnLhT9rtzrlLaFDXo/t5t8AMnTZZOn1X5OkqXOjA7TfvbCvXRgDbZM0fUAFpXtcxVFkxG6Z+J5Zg/WjNH9gkTsC+05xbHGi3airHx5nII1VmtnxbJYseL6pqZNmYJjx017HesrcIUCFKAABShAAQpQgAIUoAAFKEABCigCkSp4FRNriQm2xDLu2DlMO63rTScLlJd+JfKjY0Fd+NV68z7svn1f3aV/D+/gVfsV8SmTJ2HK5MkYNGQImjbVTQJ2XJmtvrlbU/31WXolMvZ4/avNdJQrWF1StRleAbcfXjdg04aglgpetWO4zlo7Cqt2z9CfM3mSVMrQB2f129rgVQxPsG3KTTk+rAhrq3fNCePQVj0wZgwbfP32Rd00eb96/QZsbGzw4P4DlC9XxmR/YAXBDV7FBFlioiyxGPd2TWyXDp2mH0e06NEhxoCd3a2cwSk7zzqFxCnSyrJZXcvA56Gu17EoqNNnLrIXqST3LR5YS44fKzeUl185p9qG+n7pyhWIX3a8fPkSRQsXUosDfdeGtaLi5En/YqoSvnKhAAUoQAEKUIACFKAABShAAQpQgAKBCUSq4DWmEvica9sASePGhpgcq/Xm/RCTaImlmkMmTKtSRq4/8dON3/pDN8G9LFNfwjN41Y43ef3qVfzxhy4sFNeyZ99+2Nvby8saNXIEFi1cKNct/RIZg9farq3Rqd5QSXXd+zyGz+6AZy8fwkYZk3Rg62ko5fJzDFZLBa9iXNmtk67LcV7FiWevGw0xEZZ96qwY0n6WfrxZsU8bvIrtP0q7oVvj0WJVuc5H+Gtac31YHD16DLjkKIEmVboiR6Z8qNQxi6xn7mXuvHkoVbqM3FW50m9BDlORLnsBJLRNJevHihsfVTtNkOsvH3nh0Ap3uS5ebp8/pIy7+k6/3WflLTlGqyjYs2AYzm5fINtpNmYTEiZNKettm9YbF/at1B8jVorU6IDybgNl2TufJ1gyuA7evHiEgpVbwrXFYFn+0c8XE9xyy3XtS2jPqW2jVu3aGDtuvCyaPWsW3P/WrWvrmFtn8GpOhWUUoAAFKEABClCAAhSgAAUoQAEKBCUQqYJXcbPVs2fC1Mpl9PctxnsVS5wYMfRlLTbtwb47utnZ9YX/Xwmv4NXZ2RkrV6+R47p++vwJxQoXxrt3P8Ot5LbJcejIESXgiqV8Vf47qletAk9PT+PLDfF2gUrN8FvbUcE67u7lY1g2pL6sW7haW304pv0KudpQeE2uFZyhBsQYrusnXEDcOAnUy4P/p/eIGzu+3PZXJs5S91kqeBUNVy7eAL2b/Qws9SdXVsQEX8kS2cki4+BVFP775zrkyVZY7hcvYsgC0fNVvWa1rEKHjGLV7OLg4ICt23fIfUePHUXLZs3M1lMLO804jiQpM6ibAb4vH9oQ3peO6PeLHqh1+s6TPVv1hZqVhzfOYMlfdUyGeBCTcTUftxWpMuXS1P65+kP5nC8f1hDic2e8hPac2nb2HziEdOnTyT9P+ZRxlT9+9NfuDnCdwWuANNxBAQpQgAIUoAAFKEABClCAAhSgQCACVhW8rr56C713Hw3kdnS7CqVNiTnVysuer9rKz99/QEtliIFLT320xQbr86q7okKW9Ljr+xalFoTdxDseFy4iQQJdMBjQLPRVqlTBxEmT5fWF5KvRBjdktFGwaitUbGk42ZRRFf3mw5tnsah/DbldqFprVGgxVK7/28IZ79+80NcTK1U6/o18rg0hwrPRdYIO8wwODmLDrWoPNK/eS9aq2tURHz7+DKgDOlSMnTqy00KktNV9tV2t5/PmGTqPqYYlI4/JHrCHPbZj6My26m6491gBF8eScgIvEfIaLyvGnFTaTIf7T73QfHAZ490okLM0ejUdjxTJUiN6tOh498EX+89sxotXT9C6Zl9Zv3r3XPD78Mbk2D/KNEOHeoPlsAPGO1+/9cG+0xtMJgozrrdrzx5kypRZhosu+fIGOoZpx2lHkTR1RuMmTLZF+G4chmZ2Los6f86ETRxdmC0OEs/+1rl9WDu2pRyv2KQhpSC6MrRCw8HLkNGpuMHuz/5+WDGiKURoG9AS2nOK9nLmyoWNmzbLpg8eOIC2bVoHdBqT8k1btsLR0VFfHprJy/QHc4UCFKAABShAAQpQgAIUoAAFKECBKCNgFcFraJ+GXfx4yGVni+/KmALXnr/Eiw/B6+EW2vPxuIgnkDGNA7JlcFJ6vPrB4/rxYIW2lrgLMXar6K2qBqy93P5GlRINZU/WwHqtinPbJk6pDCuQF0kTpsATn/u4+9gTL5XAODiLNmBcsngRRgwP3WRdwTmXqJMoeRpkylsSr5/cgwjqxYRbwVlE79f0joXk8XcuHDaYoCuo40NzziXLlqOw0qv869evKKKM7fr2jWnwHdR5uZ8CFKAABShAAQpQgAIUoAAFKEABCoREIFIHryGBYF0KhKXA+gkXkSShrRxyoE5vl7A8FRYsWozixYvj3du3yO/iHKbnsobGYyjDjIiJx6IrY0AvXDAfo0cFb6gNa7g3XiMFKEABClCAAhSgAAUoQAEKUIACEVeAwWvEfTa8MisTaFmjD5yzF8PqPbNw6tJ+OUZrvDgJ0b/lJBTPV1HezZSVg7Fh/3wruzNeLgUoQAEKUIACFKAABShAAQpQgAIUoEBIBRi8hlSM9SkQgIA6nIC6W0yQJYYcUJdHz73R9K+S6ibfKUABClCAAhSgAAUoQAEKUIACFKAABSKxAIPXSPxweWvhK1C+UA20rfMXUiRJZXDij5/9sfnQYsxaOzLASacMDuAGBShAAQpQgAIUoAAFKEABClCAAhSggNULMHi1+kfIG4hoAtGjx0CyRCmQKH4SPHzmLYcciGjXyOuhAAUoQAEKUIACFKAABShAAQpQgAIUCFsBBq9h68vWKUABClCAAhSgAAUoQAEKUIACFKAABShAgSgowOA1Cj503jIFKEABClCAAhSgAAUoQAEKUIACFKAABSgQtgIMXsPWl61TgAIUoAAFKEABClCAAhSgAAUoQAEKUIACUVCAwWsUfOi8ZQpQgAIUoAAFKEABClCAAhSgAAUoQAEKUCBsBRi8hq0vW6cABShAAQpQgAIUoAAFKEABClCAAhSgAAWioACD1yj40HnLFKAABShAAQpQgAIUoAAFKEABClCAAhSgQNgKRLjgNWxvl61TgAIUoAAFKEABClCAAhSgAAUoQAEKUIACFAh7AQavYW/MM1CAAhSgAAUoQAEKUIACFKAABShAAQpQgAJRTIDBaxR74LxdClCAAhSgAAUoQAEKUIACFKAABShAAQpQIOwFGLyGvTHPQAEKUIACFKAABShAAQpQgAIUoAAFKEABCkQxAQavUeyB83YpQAEKUIACFKAABShAAQpQgAIUoAAFKECBsBdg8Br2xjwDBShAAQpQgAIUoAAFKEABClCAAhSgAAUoEMUEGLxGsQfO26UABShAAQpQgAIUoAAFKEABClCAAhSgAAXCXoDBa9gb8wwUoAAFKEABClCAAhSgAAUoQAEKUIACFKBAFBNg8BrFHjhvlwIUoAAFrE9g4qTJyOOUBwcPHcCIYcMCvIH8BQpg/Hh3fP32BXXr1MHbN28CrMsdFKAABShAAQpQgAIUoAAFKBC2Agxew9aXrVMgSgm0bNUaJUqVxItnz9C3T59Ie++/FauLAjlLw8f3CWatHRVm92kT0wblC9dC1nQ5kTihrTzP81ePMGf9mDA7Z3Ab/qNMMxTPV9Gk+sLNE3DtjodJOQtCL1C8WHEsWLxYNjBcCV2XLtGtm2sxTpy4uHDpEqJHj47Dhw6idatW5qqxjAIUoAAFKEABClCAAhSgAAXCQYDBazgg8xQUiCoCGzZuRK7cTvj86TNy53KMtLc9vvsyGbz6f3qPKl2yh8l92qfKiukDtiJunAQG7YflOQ1OFMTG2K6LUSh3OZNa/yzpi61HlpmUGxdEixYN9qmzyeInPg/w6bO/cRVu/1/g6IkTsEthpxh9glPOnEG6zJo9F2XLlZX1Klf6DV5eXkEewwoUoAAFKEABClCAAhSgAAUoYHkBBq+WN2WLFIiyAgxeLffoZw/ahazpc8kG3/u/xXXv8/jy5QuevXqIySv+styJQtmS6PGbI2NeebRt0lT4o7SbXA9u8JrSNh1WjDkpj5mycjA27J8fyiuJ3IdVqVIFYpgBsaxcsQKDBwX97O3t7bFn3355zPnz51G/bh25zhcKUIACFKAABShAAQpQgAIUCF8BBq/h682zUSBSCzB4tdzj3TvrPqJHi45b96+g3chKlms4DFpKZ5cZi0celi0zeLUs8NbtO+Dg4IAfP36ggIsz3r17F6wTbN+pBPdZs4b4uGA1zkoUoAAFKEABClCAAhSgAAUoECwBBq/BYmIlClAgOAIMXoOjFHSdpImSY537BVlx8dZ/sXCze9AH/Yc1GLyGDb4YXkAMMyCWkydPwq1J42CfqEzZMpg9Z56sv3DBfIweFXZjEQf7oliRAhSgAAUoQAEKUIACFKBAFBNg8BoBHni9+vXhpMxW/fjxI8yYPh1p06VF/QYN4epaAXFix8Hdu3fg7u6Oa1evyqtNkCAB+vbrL9dXrlyJt2990ahRYxQvURLx48XHTc+bGDN6JB7cfxDg3TVv0RLlypeH+Erq7Tu3sWvHDmxcvwFdunVTJmWJhi1btuD6tWsBHh/Rd3Tr3gPJkyfH6dOnsG/vXjRq3Bjly7siTdq0iuddLJg/FwcPHDS5jYaNGiFnzlx4+PABli1dinbtO6BUyZJImCgxLl+5hNUrVuLY8WMmx1miIKSfA3FOMYHO77//jqrV/0Ba5d6SJk2CV69ew/PmDeX+DmDbtm1mL+2PGjVRQJn9/PnzZ5gyeTLE9u+/V4ZjTkel7Dn27N6F2bNmmT1WFIqedC1bt4azs7O8hlMnT2He3Dn4d9KkIMd4LVS4MOrWrYscjjkRL2483L9/F6dPncIs5Xzfv383OGfevHlRp2495Z5eyefWUpkoKEaMGFi7Zg3mz5uLLl27oWq1qspX8L9i5fLlWLp0icHxv7ohvg5frVRj5HUoqtxnDJy5ehDbjizHn83cgxzjVYzRWqZgdeTKkh8pkqaB96MbuHTrFDYfWqLc5zeTSyvi5IocmfLJchG8VivVRK5f8jyJC8r/1cX3nQ82Hliobsp3MV5qfsdSKF2gKtKmyIhkiVPgpe9z3HpwGWevHsbZa4cM6qsbBXOVRXZ7J7x68xzbj61Ui/XvZZXrF+09fHYHB89t1ZcbrwQ3eA3uPYr2tx5eqkxe9tT4VL+0Xde1rfJ3ZCJc8TojTTKmcYBr4ZpyrNrPXz7iyu2zWLJ1EsTQDmIR+8sUqK6s/cDy7VNhnyabsl1NsS6Jj8qYtOJ5Lt4yEV+/fZH1zb1UKFIbRfO4IlPaHPB6cBVHPLbjxKU9qFGmBaIpf36PXdyFR8+8zR2KDh07okfPXnLfXwMHYPWqVWbrBVR4w/OW/PMp/i0oX65MQNVYTgEKUIACFKAABShAAQpQgAJhJMDgNYxgQ9Ls7j17kTFTJnz48AED+/fTj+enbUMEUjkcdBPRiNBLfI1ULJs2bkDlKlVhY2OjrY6vX7+iSeNG8Dh3zqBc1Fu7dh0cc+nGjtTuPHrkMEqULCWLZs2ciQnuf2t3W9X61WvXYRMrlgyPkyW3RUq7lCbXP3GCO2bMmGFQvm//QaTPkB7+/v7we++HFMlTGOwXGyKonDJ5kkn5rxaE9HMgznfx8hXEjRs3wFOL5+/m1kROdqWttGnLVjg6OsrJeo4cOgzXChW0u+X6CaWnXbOmuvBPu1MEtBOVgFWEvtrly+fPePHihQy3A5pca9jwERDhtrnlhc8LNKhX1+AXBn379UOr1m3MVcfNmzeRPbvhxFY9e3THVuWXBpZYRLg2tusSJeiNadCcCNwev7iHzEqQFtBEV25Ve6B5dV1gZnCwsvHs5UN0+7sWnr96bLBrQs/VcM5RzKDM3Ia5c2769woSxktirrosO3ZhN4bNamcSEKrn9P/ohypdc5gcv2LMKaS0TYsHz26j2aDSJvvVguAGr+r51OMCex8wpTlOXt4bWJUQ79s13Rs2MW1w9PxOPH35AHVcTT9b2qEdRFDbod5geR4xDm2XBsNNzvni9RM0HVgCn79+MtgnPjfjlM+Pi/I5Ml72nFwHEciKZfrqYVi7d45xFbm9as1a+csNsVG18u/w9PQ0Wy+gwrPnPJAocWL5Cw3134+A6rKcAhSgAAUoQAEKUIACFKAABSwvwODV8qYhblEN3MTEOaLnWsyYMfHxoz+ePHmC2LFiI1Xq1LI8e7assm1t8Kqe7I7Sa/WxUt85nzPix48vi8UP6eKHde0yb/58lCylC1BEUHZWCeZiKWGss4uLQZBmieA1bsKkaDR4mfb0Qa5fPboZJzfNDLJeUBXU4FWt5/PSBzdu3EAm+0yyR7EoF/efxyk3vn372ftQDV7V48RzOHvmjBJeJFF6JTvJ5yD2dezQHnv37FGrWeQ9pJ8DcdKr12/I0P3tmze4e++eElreR8KECVCgYCHEixdPXtd1paf0H3+IXns/FzV4VUvEfV68eAkJE8RHzly51WLUqVUTly5d0m+nSpUah44c0Tvcvu2Fe3fvI2++vLC1tdXXMxe8duzUCd179JR1xHiVly9fxtt3b5Ent5MMh8SON75vULCAi74dbfAq/nzcU+5RfP7VRfyCQczYniOHLjS8cOEC6tXRBVpqndC8ix6na/72kGOsiuOvKj0h7z31Qv4cJZQgMp2+SXMhaOf6w1CrfCtZ59u3rzh15QBe+D6BU9ZCMqwVO169fY66f+aX42+qjYnJqfLn1P3iI37cRPoQ9tFzb6W37E21Gl68fgwRAmqXndNvI1bM2PB58wx3lF6VD5UelKIN0dMyUYKksqrH9SPoPbGh9jCoQWh4Ba/BvUdxkbPXjcbD53cMrvdXN9Tg9fVbH4hnLBZh9vTFfWU7BdLaZcTth9fRZrjuFxHa4FXUFc/T48YRJXD3V2wryBBXlM9ZPwYrdk4Tq/qlX4t/UbFoHbktwnrRy9UmRiz5TLRhfmDBq8eFixDfcBCLCE6Ne4TLHYG8qOPDiiq1atbAFeXPHBcKUIACFKAABShAAQpQgAIUCD8BBq/hZx3gmdTATa0gvuLt/vd4dRNJlK+P9+zZWz+btXHwqv0KaqzYsXDixCnlq/GJ5PHaH9aT2SbDiZOnZWgmgraKylAGT58+kfVc8ufHipWr9IGaJYLXpKns0XH6Mf19BGfF88werBnTIjhVA62jDV7FV+7btmmtr7902XKIr7uLpVfPHtiyebN+nzZ4FWFmuXJlId7FInqFTp+hC4VFAFihfDn9cZZYCennQJzzX6X37ZrVa3Ds6BGDSxC9UfcfPIQ0adLI8hJFi+L5i+f6OtrgVfQ0rVCunOxxLSq0bNUa/fr3l3VFuCxCZnWZNXsuyiomYpk7ZzbGjxsn18X5Nm7eog9AjYNXsf+8EuyK3rkidG3u1lT5nOrGrhRDB2zdvh1ZsugC1aFDBmP5Ml1grw1e1eBo3YYNcmgOcWLRI1e0s3jpMhQpUgR+fn5wUULgX13EUAK/F28gm5m5diRW79Y9d/GLERFW5steVO4zDl7tkqXB8jEnZWDr++6lEuBVxEsl2FOXdnUGon7FDnLTXFin1hPh7gqlHbGIkHXD/vnqLrPvoifm3lMbcN37vMF+cb3zhuyTX5kXO2r0dMJbv9f6OuEdvOpPrKyE9B61x4Z2XQ1exfGih2q/SU1w4abucyjK0qbMhII5S+uHctAGr1++fkGLIWVkb2dRN0XS1Fgx9pR81k+U4LbxwJ+9lRPES4yNEy/LfWLYArdBpSDCXrFkSeeIWYN26UP9wIJX9Rcr4u/rPLl//kJENhSMF/H3ldqb3ZK9wYNxalahAAUoQAEKUIACFKAABShAAUWAwWsE+BhoA7ejx46iZbNmgV6VNnh9/PgxypQy/Cqr9uvcFV1dlbExdeMHDhg4EGJsV7GIsWQn/jPB4DwieM2vjPspFksEr3ETJEGtP2cZnCOojZsntuPszkVBVQtyvxq8ih5iIogTwzioi7hHca9iMXbQBq8jR4zA4kULZT31RfusihQuiFcvX6m7fvld23ZwPgdBnbBZ8+YY+NcgWc04dNEGr23btDIZ7/bajZuy57Vxb1k1CPr0+ROccuY0uITMmbNg5+7dssw4eK3422+YOm263CfGcxXDYGgXMWu76J0nlrve3qhYwVWua4NXh6xZZNnYceNRq7auV6v6i4VBgwejqVszOaRC7lyOst6vvKg9SM31BBVfvRdfwReLcfA6qO10lJVjggJtR/wmx/TUXofolbptyk05fIHoydr0L8M/u2pdS4aS5ZUxTAe2miKb7jupqTJO7QH1NOHe41V/YmXFkveobTewdW3wOnxW+0DHrRXtaIPXNXtnY8Zqw6EGpg/YihwZ85l8DhpW6oQ2tXS/vJi6agjW75tncFnDO8xFCedKsiyw4NXT67as8/jRI5QpresNbdBQEBtiDOQuXbvKWuKXeYGN2xxEU9xNAQpQgAIUoAAFKEABClCAAqEQYPAaCjRLH6IN3MqWKYVHDx8Fegpt8Lp9+zZ0//8P1upB2sCtVcuWOHL4kNw1f8EC/RiuBfK76HtyqseJsTdFaCsWSwSvarv/xbsavD57/gwli/3siSauRXwF/8Il3VduN6xfh759+ugvURu8OmZ3MBiGQFTq1ftPZcItXQ/Qli1aQIyLa6klpJ8D9byiN2ltJYjMrUzQlkEZnzZ+goRyV5IkSZAxY0a5bhwia4NXNdBU2xPv6lectYGP6E195ep1Wc1ceCp2nPM4L3tbGwev2gDIuJexbFBzrLbXqhq8asc4VkNW0XNWHX5DTEAkJiLS1lPbDel7zBg22D1D98uKw8pESENntjVpYq27B5IlsjMJ3BYOP4gMyqRaYhHHRlP+py6i96lY8ucsibix48uvrVfokFGWGb+EJpQU7RfPV1HpUZlLTogVP57uc2CrXKdDRl0v4FFzO2Pf6Y3600XVHq+iF2q1boa/ONCjaFa0wWvvf+orwwwY9uAf3HaGnGzr+4/vcG2XQX9k/5aT9GO4irFzRYCvXcrkr4rB7XS9qIMTvGp/GaFtJ6h1MT6y+DMkFjEutRifmgsFKEABClCAAhSgAAUoQAEKhJ8Ag9fwsw7wTGrgpg2SAqys7NAGr+YCUtEbUPQKFEsXZVzNXbt2yvUdu3bJr3MHdJ6iytfRFy1ZKuuaa1fusJIXNXi9fu0a/qhezeSq1Z5kxsG1GryK8URzOeYwOa5e/foYOWq0LB87Zgzmz5trUie0BSH9HIjz1G/QQOnV+hfixIkb6GmNr1UNXo0DUrWRU6fPImmypNAG17mUsVg3bNSFdls2bUKvXrrxWtVjxPuBg4flGLrG7U6cNBlVqlSRVWso481eU8adNV7UY7XhqRq8ap+HGn5r63Xo0AE9evWWwxioYaxx+8HdFsGpCFDFIiY9EsGY8TJn8B75lXHjHq+iN6sIVYO7iOBVjBtqvIQ0eC3lUhlieAQxrmtgy7iFPbDr+Bp9lagavGrHcdVjmFnRBq8N+xeRE6Npq2mHpCjX9ufYv1P6bkSuLAVgHMiqxzpkzIOZA7bLzcCC1xuet+TY29pfRqhtBOf9b3d3/FGjpqwqJm5cs+bnsw/O8axDAQpQgAIUoAAFKEABClCAAr8mwOD11/wscrQauPn7+yOvMtlTUIs2eBU9mERPJu0SUPC6/8AhpEufLsBegdqv4FsieBU98FJkMJx1Xnud5tbf+/rg/RvdWIjm9ge3TA1eL1++hNo1dcGD9tiggteAxlSsVr06JvwzUTalHeNU23Zo10P6OShQsCCWLV+hH5dX9E4VE6q98PHBd2XCsHTp0qJ4Cd1X2cePG6uMyfpz5nQ1eDU3ZIC4fnPBq5iUTUzOJpa1a9dgwP970smC/7+o4b5x8Dp/0SKUKF5C1iqtDI3xRBkiw3jZvnOXfuIstReuueC1Z+/eaN++g8HnWPRCFoFsQL9UMD5XYNsiMBPBmViW75iCuRvGmVRXgzXj4HXvrPv6cT03HVxkcpy24LvSY3fBpr8NJthS94ckeM2WITdmDNyuHzP0zqMbuHXvEnx8n+Hb929IkzwDXIvUkk2PX9QLO4+tUk8TZYcaEBNdDZzaQu8Q0Io2eBWToWnH6xXHBBS8zlbGcM2aPleAvZrFPlFHLIEFr5euXJG/VAnt53rt+g3IkyePPE8LNzccO27YY1fu4AsFKEABClCAAhSgAAUoQAEKhJkAg9cwow1+w2rgJsYhzZfHKcgDQxu8rly1GmISLbGY+xp91WrV8M/Ef+V+SwSvEWFyrdAGr9relBLk/y9ijFwxVq5YtJOa/X+3fBOTRYmv/6vLNyUEFe0FtYT0c7B67Trky5dPNms8hqsobNKkKQYPHSr3WyJ4TZUqNQ4fPSrbM550SxYqL0eVia7sUtiZjLU6YuQo2TtX1HNr0hgnT55UD9G/q8d++fwZuXI6ynJLBa/ieYjnoi7ieYjnYm4Rs92vc78gd209sgz/LOlrUm3JyCNIa5fJZKiB9RMuIklCWzmRUu3eumdjcnAwCkISvI7qvABF81SQrRqP4SoKyxaohkHKV+LFYhy8uvdYARfHkvKr8OIr8caLej8Pnt1Gs0GljXfrt9PZZcbikbphN4SXcAtqCck9BtVWcPerY7wePb8Tg2e0DvKw0AavIzrOl8M+iBO4trdX/vwbftYK5iqLcd2WyPMHFrzuUia3y5Qps6xXsnhxPHv2VK4H9+WY8ucsRfIUsrqYnEv8QokLBShAAQpQgAIUoAAFKEABCoSfAIPX8LMO8EwhDdxCG7xqv3basX077N271+CaRo4eg3r16smyqB68CoRSJUrg6dMnBkZaw7q1a+HixYsG+8WG2ktN3XHhwgXUq6ObDEotM/ce0s/B6TPnkCRpEvi89EGxwoVNmhQ9c0UPXbFYIngV7dy85SV72Hp5eaFypd9EkcGi9jQ27vHaTBkPd+DAv2RdMambmNTMeFGPffnyJYoWLiR3Wyp4XbNuPfLm1Y1zKhoOqne52nP1itcZdB1v2mN6+9RbiBMrrknwqk62JIYPqNQ5q9lhBIzv29x2SELJVePOIEXS1Hjy4j4aDzQcz1i03aneUNR21YWMxsGrGhCK6zU33uyeGXflRGBBBa/Jk6TC6vFn5a2s2zsX01YPleuBvWgnKROTVonJq8J6Ca/gtX3dQahXoZ28nR7udXHR84TBrbWs0QdNKneVZYEFr0OHDUejxo1lvW5dumDHDt3wBAaNBbKh/pl6/eo1ChfSTZwYSHXuogAFKEABClCAAhSgAAUoQAELCzB4tTBoaJoLaeAW2uBVfO18wcKF8hJv3ryJalUq6y9X9AY8q0yMFD++bnxKSwSvYqiBpKkyIZqm96f+hAGsfFCGGfD38w1gb/CL1cAhtD1exZnWr1uHfn37GJz0/MVL0kj0mMyr9CATX9U3Xi4r48rGjhVbXyzCWRHSBrWE9HOgTmQlxj/Nk1t8rflnrzox5uu58+dhY2MjT2up4FUNe8VXnwu4OOPdu3f626peowbc3SfIbePgNUeOHNi8dZvc9+TJE5QuqRt2QD24Tp26GD12rNw8d/YsGjaoL9ctFbyu27ABTsrkY+oS0FAS6n41zBRjdFbr6igDVnVfYafyGNNFN4yA8VADblV7oHn1XrLqws0TsHirblgK9Vjtu5jE6+u3L9oi/XpIgld1oq/PXz+hcmcHg96VsWLGxubJ1yDexWIcvHauPwy1yreS+xoNKIqnPg/kunjRTgAVVPAq6u+f/VC84e5jT7QcWk6uB/YSI0ZMiGBXLNuPrYT7ot5yPSxfwit4dczkjGn9t8hbueR5Et3d6+hvK3r0GFj7t4fsGS0KAwtexS8LxC8NxCLGZxXjtAZ3sbe3x559+2X1ffv2oUM700nigtsW61GAAhSgAAUoQAEKUIACFKBA6AQYvIbOzaJHhTRwC23wKi760JGjSJ06tbz+E8rXwseNHaOEhLEwZtw4ZM6cRX9flghe9Y39ByuWCF5FuNi/X18ZwIpgeu78BSiufN1XLAcPHEDbNua/qhxeweumTZvhmCuXvJ4tmzdjxIhh8H3ti/QZ0mPVmrVIbptc7hMvlgpetbOkP1bGaRXhvQhfxTiSK1augo3yWRKLcfAqytTxX8W6GKqgS+dOMiwWk7oJWzUkrlr5dzlWraj3XwWvvxWrh77N/xGXIIPETmOqyfA1YxoHTB+wTfZ2FfuMg1cRJq6fcAEJ4yWREyut3DkNC5QAVp1ASwxjUKtcK9Qo2wxiDFhz48eKdkMSvKrDBYjjRG9Tcb4PH99B9EKd9Od6pE6RQeySi3HwWr5QDQxsPVXu83pwFV3G1VB+meAvJ4b6WxmGQPTqFUtwgtclI48qwy9klPUPnt2Cpdsm4b1yHV+/fjUZG1VWUl7UnsPCZ/icDjh77Ygc9kDdb+n38ApexXUvGHYA9qmzyVs4cHYzFmx0RyybWOjZdBxyZs6vv7XAgldRSf1lR1C/LNA3+P+VWbPnomy5snJLTDAoJhrkQgEKUIACFKAABShAAQpQgALhK8DgNXy9zZ4tPINXMYHW4iVL9SGX9oLevnmDRIkTyyIGrz9lRHAkglfRg1csooepa/lyZieIEvvDK3gtpAwvsHTZcnFK/SICz1ixdeGn+Dp93Li64MxSwasYK/XYiZOwtbXVn1OMyaoGrmqhueDV2dkZK5RxhtXxb0WwLWzVwFUce/TIYbRUhiVQl/8qeBXPevnoEzIAVa/loxJIqkGkWmYcvIpylxzFlfE7l8mv6GvriV6nIphVl4Am7hL7QxK8ZrN3wqyBO9Rm5bu4rrixdb3X333wlUGw2GEcvIr73Dr5hr6uqCNCUHGdorfvD6Vnt1gPTvAq7tu958+Ju0RbYhHtuLb7Gf7qSnWvonew6CVsbuk32Q2nr+h6bJrbH5qy8AxexQRaU/tv1vc21l6vz5tnSJ44pSwKKnjt0bMXOnTsKOsOHTIYy5cFPX6u6HF/UZmYS/xZM9fDXHstXKcABShAAQpQgAIUoAAFKECBsBNg8Bp2tsFuWZ1A5f3793DO+/Pr0AE1IHqm7ty9W+6ePOlfTJ0yxaDqHzVqQoxFKpaOHdrL3oXaChkzZsKcefOQPn16+YO5CBJv376NMaNGYpESyorF/e/xmD1rlvYwq1q/cvW6DAdIelcAAEAASURBVCAD+pq/p9dteT/btm5Fj+7d9Pe2b/9B2WPUz88Pohdpw0aN9PvEiuhRWrt2DTy4//Mr2QYVlI3QjvEa0s+BOG+Tpm7o37+/SfAphpIYMXyYPpgdO2YM5s+bq79UtbdsQL3oTpw6LcNVMZmPmNRHu4hhDNauXw8HBwdtMTzOnUNMZWgD0fvVXPAqKove2suWr0TSZEkNjhUh7Ly5c5SeueMMynv/2Qdt27WDdsKt7j16omOnTjK0zZkju6zfuk0b9OnbD6Kd7NmyGrQhNkI6xqs4RgSl43ssR55shcWmfjl2YTdsYsZEodzlTHq8qpVslVBNTHrlYG/651kEkddun5NfMb9x94J6iMG7XbI0WDn2tCybtHyg7B1rUMFoo2zB6viz2QSTYFh8zX3ammH6YHbcwh7YdXyNwdE5MubDP73XGBwrhi0YPqs9ujQYIUPg+0+90HxwGYPjzG3kdSiKPsp1iOtXQ+bAglcR/NYp3wb1K7VH4vjJ9MeItsMyeD3ssR1DZ7Y1dwsGZWJsXDFGrlhq93LG63cv5Lr60svtb1Qp0TDAcFk4DO8wF1nS5ZT3Jlyv3fbAzHUjMHOAbrxWMcSCGGohoEWEqB7KONHilxvm/jyaO079cyP2DejXD2vXGj5zc8ewjAIUoAAFKEABClCAAhSgAAUsL8Dg1fKmVtViypSp9DNlawPbFs2b49jRI1Z1L5a4WG3w6pIvrwxvK7hWQHI7O+zbuwcPHzy0xGks2oYIZgoqvV+dlHFeb3l54fDhQzL4tOhJzDQmJvYSNiJs3bZtG0SP6eAuYhiE4iVLImVKO5xUhry4ovTOE+PmRsQlXpyEcHEshpjRbXDq6sEQfRVejOOaOb0jsqXPjfcf3uLRi7vwfnQzwLFdf+X+bWLaIFsGJ2RKmwOPnnvjitfZYJ9HXKeD0nNWHHvl1mncU4JWLpYVSJLQFr7vXspGizi5YnSXhXJdDGNx3ft8oCfr0rUbunTtKuvUr1sH55XxmwNb1LGoxXAgZUqVDKwq91GAAhSgAAUoQAEKUIACFKBAGAoweA1DXGtreonytfXCSoAnlgL5XUIUpFnbvQZ0vcbBa0D1WE4BCoSPQGybOMpwFD8nqwvuWUWQL8a6jYjLkPazUNqliry0Kl1zBCvMP3vOQw4FI8bmbta0SYC3VbJUacybP1/ub1C/nuyJHmBl7qAABShAAQpQgAIUoAAFKECBMBVg8BqmvBGv8XLK2KQjR4/BWmWG7IUL5uPVy1dyjM0/+/RB8xYt5QVfvXIZNZUZ6qPiwuA1Kj513nNEFpjab5PBZFQhudZybdOFpLpF6+ZxKIK+zf7B+gPz5fAOfh/eyOEG6lVohza1+stznb12CH3+bWzR87IxClCAAhSgAAUoQAEKUIACFIg4AgxeI86zCJcr0Q4nIE4oeoWpkx2JbTHea6XfKgQ6hqmoF1kXBq+R9cnyvqxVYFr/LXDM5Byqy/8vg1ftcALi4tVJy9QbEeO9NhlQHD6+T9UivlOAAhSgAAUoQAEKUIACFKBAJBNg8BrJHmhQt5PbyQnTps9AqlSpICa2URcxu/zNG9fRqlVL2QtWLY9q77v37EXGTJnkMAtiuAUuFKDAfyuQMY0DkidJHeKL+P79KzxuHAvxcZY6wD5VVgztMAfpU2VB9GjR9c1++foFFz2PY/jsjhC9YLlQgAIUoAAFKEABClCAAhSgQOQVYPAaeZ9tkHdml8IOadOllb1bfV76BFmfFShAAQpQIOQCiRIkRfLEKfFC6d367r1vyBvgERSgAAUoQAEKUIACFKAABShglQIMXq3ysfGiKUABClCAAhSgAAUoQAEKUIACFKAABShAgYgswOA1Ij8dXhsFKEABClCAAhSgAAUoQAEKUIACFKAABShglQIMXq3ysfGiKUABClCAAhSgAAUoQAEKUIACFKAABShAgYgswOA1Ij8dXhsFKEABClCAAhSgAAUoQAEKUIACFKAABShglQIMXq3ysfGiKUABClCAAhSgAAUoQAEKUIACFKAABShAgYgswOA1Ij8dXhsFKEABClCAAhSgAAUoQAEKUIACFKAABShglQIMXq3ysfGiKUABClCAAhSgAAUoQAEKUIACFKAABShAgYgswOA1Ij8dXhsFKEABClCAAhSgAAUoQAEKUIACFKAABShglQIMXq3ysfGiKUABClCAAhSgAAUoQAEKUIACFKAABShAgYgswOA1Ij8dXhsFKEABClCAAhSgAAUoQAEKUIACFKAABShglQIMXq3ysfGiKUABClCAAhSgAAUoQAEKUIACFKAABShAgYgswOA1Ij8dXhsFKEABClCAAhSgAAUoQAEKUIACFKAABShglQIMXq3ysfGiKUABClCAAhSgAAUoQAEKUIACFKAABShAgYgswOA1Ij8dXhsFKEABClCAAhSgAAUoQAEKUIACFKAABShglQIMXq3ysfGiKUABClCAAhSgAAUoQAEKUIACFKAABShAgYgswOA1Ij8dXhsFKEABClCAAhSgAAUoQAEKUIACFKAABShglQIMXq3ysfGiKUABClCAAhSgAAUoQAEKUIACFKAABShAgYgswOA1Ij8dXhsFKEABClCAAhSgAAUoQAEKUIACFKAABShglQIMXq3ysfGiKUABClCAAhSgAAUoQAEKUIACFKAABShAgYgswOA1Ij8dXhsFKEABClCAAhSgAAUoQAEKUIACFKAABShglQIMXq3ysfGiKUABClCAAhSgAAUoQAEKUIACFKAABShAgYgswOA1Ij8dXhsFKEABClCAAhSgAAUoQAEKUIACFKAABShglQIMXq3ysfGiKUABClCAAhSgAAUoQAEKUIACFKAABShAgYgswOA1Ij8dXhsFKEABClCAAhSgAAUoQAEKUIACFKAABShglQIMXq3ysfGiKUABClCAAhSgAAUoQAEKUIACFKAABShAgYgswOA1Ij8dXhsFKEABClCAAhSgAAUoQAEKUIACFKAABShglQIMXq3ysfGiKUABClCAAhSgAAUoQAEKUIACFKAABShAgYgswOA1Ij8dXhsFKEABClCAAhSgAAUoQAEKUIACFKAABShglQIMXq3ysfGiKUABClCAAhSgAAUoQAEKUIACFKAABShAgYgswOA1Ij8dXhsFKEABClCAAhSgAAUoQAEKUIACFKAABShglQIMXq3ysfGiKUABClCAAhSgAAUoQAEKUIACFKAABShAgYgswOA1Ij8dXhsFKEABClCAAhSgAAUoQAEKUIACFKAABShglQIMXq3ysfGiKUABClCAAhSgAAUoQAEKUIACFKAABShAgYgswOA1Ij8dXhsFKEABClCAAhSgAAUoQAEKUIACFKAABShglQIMXq3ysfGiKUABClCAAhSgAAUoQAEKUIACFKAABShAgYgswOA1Ij8dXhsFKEABClCAAhSgAAUoQAEKUIACFKAABShglQIMXq3ysfGiKUABClCAAhSgAAUoQAEKUIACFKAABShAgYgswOA1Ij8dXhsFKEABClCAAhSgAAUoQAEKUIACFKAABShglQIMXq3ysfGiKUABClCAAhSgAAUoQAEKUIACFKAABShAgYgswOA1Ij8dXhsFKEABClCAAhSgAAUoQAEKUIACFKAABShglQIMXq3ysfGiKUABClCAAhSgAAUoQAEKUIACFKAABShAgYgswOA1Ij8dXhsFKEABClCAAhSgAAUoQAEKUIACFKAABShglQIMXq3ysfGiKUABClCAAhSgAAUoQAEKUIACFKAABShAgYgswOA1Ij8dXhsFKEABClCAAhSgAAUoQAEKUIACFKAABShglQIMXq3ysfGiKUABClCAAhSgAAUoQAEKUIACFKAABShAgYgswOA1Ij8dXhsFKEABClCAAhSgAAUoQAEKUIACFKAABShglQIMXq3ysfGiKUCBsBAo7xQ3LJplmxQIU4F9l/3DtH02TgEKUIACFKAABShAAQpQgAKhE2DwGjo3HkUBCkRCAQavkfChRoFbYvAaBR4yb5ECFKAABShAAQpQgAIUsEoBBq9W+dh40RSgQFgIMHgNC1W2GdYCDF7DWpjtU4ACFKAABShAAQpQgAIUCJ0Ag9fQufEoClAgEgoweI2EDzUK3BKD1yjwkHmLFKAABShAAQpQgAIUoIBVCjB4tcrHxoumAAXCQoDBa1ioss2wFmDwGtbCbJ8CFKAABShAAQpQgAIUoEDoBBi8hs6NR1GAApFQgMFrJHyoUeCWGLxGgYfMW6QABShAAQpQgAIUoAAFrFKAwatVPjZeNAUoEBYCDF7DQpVthrUAg9ewFmb7FKAABShAAQpQgAIUoAAFQifA4DV0bjyKAhSIhAIMXiPhQ40Ct8TgNQo8ZN4iBShAAQpQgAIUoAAFKGCVAgxerfKx8aIpQIGwEGDwGhaqbDOsBRi8hrUw2w+NQPMWLdG0qRueP3+Ghg3qh6aJCHlMhw4dUKdufdx7cA8tmzWLkNfIi6IABShAAQpQgAIUiDgCDF7/w2ch/uO9YJEiePTgIQb9NfCXrsTZ2RnNWrSQbQweNAhv37z5pfYseXDpMmXRvXs3kyb37NmD6dOmmZSzwDICRYsWRZv27WVj3bt2jVCfCcvcoeVbUYPX3PlLoVy1pvjx4wdmjumCL58/Bftkleq0hUPugvB7+xrz/+kT7ONYMewEcucviWoNu5ic4MKpfdixZpZJubUVMHi1ticW+a83Xrx4OHPOAzY2Njh+/DiauzWNNDddslRpzJs/X97PwP79sGbNmkhzb7wRClCAAhSgAAUoQAHLCzB4tbxpsFvcsWsXsmTJCn9/f+R1yh3s48xV7NylC7p26y53Va9aBTdu3DBX7T8p66KEfl26mgavFy5cQL06tf+Ta4oKJ+3WvQc6de4sb7Vypd/g5eVl0dtOlSo17OxS4MOHDxZv26IXGoLG1OC1bqv+KFe1sTyyT4vSeOf7MtitDJ6yCanTZcG3r1/RuW6+YB/3X1dMnT4LYseJB99XL+D78ul/fTkWPX+V+h1RtUFHkza9b17C+H6NTMotWRAtWnTYZ80lm3z6yBsfP/hZsnnZFoNXi5NGigbjxo6PlLZp8eP7d9x7atm//4MCmjx1KipV+l1Wq1r5d3h6egZ1iFXtP3X6LJImSyr//XPJlxffFWMuFKAABShAAQpQgAIUMCfA4NWcSjiVRZXg1TFnTtSpU0ev2kT56mG0aNHA4FVPEiYrYR28btq8BeLZflJ6gzop75FhicrB65TVHohpEwv3b1/DmN71IsPj1N9Dukw5UKx8Lf12mcoN5d9B4RG8ikB78ORN8tzbV8/ElhVT9ddhqRUGr5aSjFzt1HFtg471hsibqtenAHx8w+cXKgkSJMC58xfkn7G7d++iomv5yAWr3E075dskvXr/Ke9r4gR3zJgxI9LdI2+IAhSgAAUoQAEKUMAyAgxeLeMYqlYsGbwWL1YcHTp1ktfRtWtnvHr5KlTXFB4HXb1+Q379kMFr2GozeA25L4PXyBm8Gn8Spq65gBgxY4LBq7EMtyOTwH8VvA4YOBBifFex9OjWFdu2bYtMrPJeYsSIgUuXr8AmViy88HmB4sqwUVwoQAEKUIACFKAABShgToDBqzmVcCqzZPAaTpdskdMweLUIY5CNMHgNksikAoNXBq8mH4pfLGCP118E5OGhFvivgtdzHueRMFEi+Pn5QXwNP7Iu7u4TUL1GDXl7tWrWwJXLlyPrrfK+KEABClCAAhSgAAV+QYDB6y/g/eqh2uC1aOFCaNuuPUqXLoUkSZLh2rWrWL16NQ4dPBDgaWrWqo1s2bKa7J86ZYocd8xkh1IgwrjkyZPj9OlT2Ld3Lxo1bozy5V2RJm1aiK8ELpg/FwcPHDR3qMXKQhq8isk52nfoiPwFCiBD+gx45/dO+qxcvhwXL14M8rrSpkuLJk2aIlduJ2TIkAGfP33C/fv3sGDefBw7fszs8clsk6FPn37IkSM7bBWvjx8/4dWrVzihTBKydPFi+Lz0MXvcf1EoJjER4+gWLFQYyW1tlV44l7Bq+QoUKFQo0DFehYuYcTpfPmekSGGHGDGiw1v5DFxWjl+2ZCmePTP8Wqr4+mjffv31t1i5cmX5w7UY226N8lnVLrdv38bCBbrJR7TlLvnzo379+siaLRtsbZPLZyHGnj137pys/+3bN231cF8PKHh1LuwK52IVkDKNPZ49vodLZw/iwJalZq8vsDFeRS/Lmm49ESt2XHnsxiUT8cHvrUE7TgXLoLhrLaTP5Ii3r1/g+sUT2LFuLkr+VhdJkqaAt+clnD+xx+CY0GxkdMijfP2+pv7QEhVqK18Njo4P79/i3LFd+nKxcun0AVw5d9igTN3IkDW3cr01kTGrExImTornTx/A6+o5iK/Vf/9u+DyrN+qCBImT4eLJfShRsS4yZMmJh3dvYs38sYitjEdZq1lPpFLGx33y0AsL/u2P98oEZeqS3akQ8pf4XZnw7DtWzR6NkpXqw7moK+xSpVfqe8s2D+9apVYP9D0kPV7jxEsAYSMmXEuczA5xlHFwX/k8xYM713Hy4GbcVZ6H8VK4dDVkyekiixMmSoZ8RXRftX50zxN3bhr+nbV7wzz4PH1o3IR8FuWru8mJ2lKnz4ovXz7Jcx7euRK3r583qG/NQw3kcSiCCoVrwTGzC168eoQz1w5j66GlKF2gKpImSgGv+5fhccP839P5HUuiiFN55MiUD7FjxYWnUvfYhZ04cXGvgY+6UbNcSyROoPz7escDF28eR9lCf6BYngpInyoL7jy6jo37F+Ky12m1utn3kJ5TbaSua1vEj5cIV7zO4Oy1Q8iYxgGuhWuiUO5y+PzlI67cPoslWyfhvf/Pvw/EPZVRHArlLouUydIiQbzEePTsLm7eu4jDHttw97HpuKnqPYrzuuQojtxZC8pL2HhgId6+91UvR/7ZXLx1on5buyKGAqpYtC7yZCuEbBmclOFk/HHd+zx2HV+N2w+va6uarKdOkwaHDh+R5UcOH0KrlrqeryYVjQrqKf8uODnlwePHjzBj+nSIf5/qN2gIV9cKiBM7jvLfJ3fg7u6Oa1evyiO1/x6tXLkSb9/6olGjxiheoqTiHB83PW9izOiReHD/gdGZfm6KXrnlypeHvb09bt+5jV07dmDj+g3o0q0bokePhi1btuD6tWs/DzBaK6L0cl28dJksFRNsiYm2uFCAAhSgAAUoQAEKUMBYgMGrsUg4bqvBqxgj09fXFyntUpqcfdHChRg1coRJuSg4qPxwk0b5Icd4CWxyravXrsuvxokfJpIltzV7zrAerywkwWvWrFmxYuVqJE6S2Pg25Yzzc2bPhvvf4032qQUdleEXxKRj0aNHV4sM3vcq4XPH9u0Myuo3aIDhI0bK8ekMdvx/IyL14hE/MK7fsFEGoMbXKgJU8YOsWIwn1xIu3Xv0ND5Ev/3lyxd069oFe/f8DPjEs9i+0zCQ0x9gtPLy5UuIXyZol5Wr18DFRRdGacvVdXFMvbq1A/1BWa0bVu/mgtebV04je27DexHnF2OhiomZxCRa2iWg4FWMnzp48kakSJVBVheB6uShbbSHQjupl3aHCOaS2NrJMVgfeN/A6J4/x0zW1gvJek23HqhYs1WwDrmoBK8zx3Qxqdug7V8o/XsDk3JR8O7NK0wY6IZnj+7q909Zcx4xY9rot9UV//fv5Ff/1UBalPu+fIb+rcurVdCk03AZSIuCgJ7JratnMHFQKxnO6g80sxLc4FXbW9VMM7Jo76aFWLfQ3WD3wInrkC5jdoOygDYWKgHzqUNbDHanzpANPYbPU4LsZAbl6sZ+JfQXYbW6WGvw2rhyF7Sq0Ve9Df37rftXkC5lJojJoUTo2vuf+vp9YiW2TRwMbT8LhZXQ1dwigtehs9rgy9cvBru3T72FOEqYKdpMkTQV0qfMYrBfbExY0gfbjiw3KQ/tOdWGdk33ho3y2T96fieevnwA0RvVeBH33W5kJVmc0jYdVow5aVzFYHvW2lFYtXuGQZl6jwaFAWyUa5vOZE+aFPaY0HOVMimX6T5Ree6GcVi+Y4rJcWpBhw4d0KNXb7k5d85sjB83Tt0V6PvuPXuRMVMm+UtjEWBOnDTZpL74JV8Oh2yyXPvv0aaNG1C5SlU5hJH2oK/K381NGjeCh/KLPe0ifpm7du06OObSTXqn3Xf0yGGUKFlKFs2aORMT3P/W7jZYjxMnLi5duSLL7t27hwrlyxns5wYFKEABClCAAhSgAAWEAIPX//BzoAav6iV8/OiPc2fPIkHCRMiTJ48++BvQr5/yQ8IatZr+XYSDeZV6YrFLlUrpQWgr14MTvMqKyovouXnjxg1kss8ke5iI8i+fPyOPU26EVe/D4AavIiw9f/ES4sbV9Q58/eo1rl69jGTJkimTOuXS+wwZPAgrlN6vxku//v3RslVrffFdb2+I3pWJlK9AZs+eQ4a5osds3dq19HXED1IXLl3SB7VPnjxRetdew3elJ2bmLJmROXMW+YOhc16du/7A/2jlzFkPfSgtgsuLFy4qP7zay+vUXpJx8KqOwffjxw/cU3q5Pnz4AG/evFXuMQscHR31h9ZUvkZ59Yru65NiBufp02fq9+XO46T0MostA3DjH2xv3ryJoUMG6+uKla3bd8DBwUHp5fpZ6VnrjfvKD6piye3khNSpU8t18UuIvLlz/2czRJsLXsWFiV6W3p6XlWv3R1ZHFxmAivLLSi/Q6SM7ilX9Yi54tVF6uA6buhlJk+vu84LS43PWuG76Y8RKSaUHaKMOuolwxHO5f/sq/N75KufLj9jK5/J/7J0FnBRH08brwxIcgiZ4cHfX4MHdgjsHBxzucjjB3d2Cu7sEl+AQ3N09JO/X1UMPvbuzd3MCd8DT+eWmp3XmP8vuzDPVVSoFlvDKFpzFK3z89/Fzyozy3xSf4/WLZ9R0csvC4K6Njt9BDdv+Li1QuYHkc+44PRUWugmEBewPMYzzZEG1ba3cphCqC693b10RL39+FC+CvjPnenT/NoWPEJm+CxtOlnVtXIS4jJMuvPK+mvPduzeUJFVmU9A9sHMNTR/uKuZxH5XsCq/xfk5JXYYa581C8P071+jxw3tSBE8q5mQLYU7rFk+klXM/ilElqzSjlOlzyrrvhPWdEmGZz4Pb12W5+vPH1AHSklXtRxAWsoOmbaUQIUPJIu7DVs7hIkSiJCkymuULhfCqrK4DIrxW7jSNIkWLrab3dfvo9hVaNszxM+9rJ4sG+TKVEOLpJFnzn/j3dVhYgT5+Jl7YpC9MEcNFMXtYCa8zvLdT/NhJZJvnr57Q/uNb6d//3kshNkpE43dw+6FV5D2pmTkOZ5xFydv3r9Hpy0eE9WlyShzX+N57I6w7S7VM4WKt7d851QEo4fXxswfCkje6LH7w9C7dEcfAlr1xYiaU1qSNvIvIurgxf6ZZfXfK/LU7F6R16z1hERzjh58oT/piYoWC8fkY80dPWrplqpqGPKv3oRhRjH9/ieKkkONy5ZEzu+jVm5dmu/f//uPChy1qlww5JgVibnjz3mU6KiyDI4aPIiyDi5rl/aZ60pb9y8yx9AxbgLIlKCe/+HdVwiu/9GOL21BidQDfE/FvMP/OxBa/EVyePKlx3XXhVc1/SVit3hLtM4pVHOHDh5fF58+fp1IlflVN5HbqtGmUN19+mef7nUNCmA0jxNiM4sWg/pLWN+GVB1D3M3zcqVOmkGPiDwiAAAiAAAiAAAiAAAjoBCC86jQ+c14XXtmKsuAv+enJY2MpYP4Cv9CkyZPlg4adwA0tPD2lZSefgl3hdfu2bdS4UUPzrOfMnUfZsmeX+23beNGqlSvNusDMqAcV34Jr6VaZp0+dpArly5uCXOHChWns+AmSz7OnTylL5kwOhxhdLGPfvXevfIhiq5eWni0crDe5MY/PFqMdO3Qw+7LrhV69veW+1TJJHre4WGI/Z/Yss09QZSpUrEgDBxnWvmfOnKGypUuZh9JRiPUNGn60qHIWXkuWLEm87H/4sGHSD5/ZUWSKFStOo8eOlUX79u2j2jV/06vN/IqVq4QAnkosQ31LacXWt9SmXTt6cP+BZMeWS3oaOnQYlS5bVhaxhTdbegdFshJeWQQd1q0uXThtWE1FiRaLeo9dLd0FcF37OnnppRBIVXIWXr8PH0GIrqspUhRDbNm3bQXNHNVVNTe3g2fslBaOPOa4fs3Npf0suPWdsIHCho8o2waW8GpO/CEzeuERKSizJe+AdlWcqx32Y8VJSD1Hr5L//t68eUV9W5Wnh/dumm3qtOxHOX4xrueWVbNo8TTjc6qE19s3LpG3ZxmKHisO9RHnxomters3Ky4FxqGz/5Rli6YNoq2rZsu8Lryy6Dqkcy1z2T4Lvb0EYxZx//v3PbWukV28QHor+1n9sSu8RhauHao16UZLZw6l+7evOQwVMUo0GjhlixRCX79+SW3EnFZJt5pl9wur5o+xamaWefWdTslSG8vDdXbcIIoQSPtMWCdF5vf/vKM2NXPK8wyI8Nphwd+CW1hzft8yb148oaG10/jWzNd6tuZkq0oWXb1+r2Qu8Q/7fQSaLQTHHyLFlGM4C69FclSkzvVHmnWdRtYkFhE5sRg5vssaShIvtdxnEVNfGq8Lr7xsftCMNrId/2ERmMVgTp1G1aYDJ7fKPP8JyJxqECW88v6792+Jj/vYub2qmuIIC9+sqfITuwTgFClCVGpYvpNwPzCC7j82Xj7ICvGHhdDFvx+VQigLuRXbZVBVDlu/+njtKayI82cqKceYvHQAzV9v/A5wAYvFc/vvlRbDr9++pHJeaVwsirkdr4pgUZRT/nx56fatWzLv2x8lvKp2kyZOdFjNEiVqFGrTph316N5NNnEWXrt17UIL//hD1oX5Lgzt3bvfXAnCVrLqN4fdCO3dd+DDd9drKipcGdy5Y/Dl38T5C/6QdTyQHeH1z/37hYsf47s9WRJXC2p5QPgDAiAAAiAAAiAAAiDwTROA8BqEl18XXgcPGkhThNCqp1Vr1grLzOSyqHjRosTWHO6SX4VXfgjhoBevXr0yh2QfqvzQwYl9rA0fNtSsC8yMXeF11549FCuWYYll9QC3YsVKc6lg9WpVpbWwOk5dyJs1cwb17dNHVfm4ZV+pni0NS8SxY8bQyBHDfWwflJXKgpSPwVlY5bITwlKXLYU4WdXLCjd/jgjLWfah55Po71fh1c1UsjhixIh0+Ogxmd+0cSM192jmU/NPVmclvF48fYSGiCXzeqpYtx0VLltXFm1YMpmWzzGEIC7QhdeO9QsI0XUVhY8UVbbdsW4BLZjUV+b1P7pl5TXhO3RA28p6NRUpV0/4P20ry4KD8NpaLINPntYQGpkNM9ITW/iOnL9fCBghpBVsp/q/yGolvB7es56mDGkny8YtPSGFjuMHt9P4/i1kmRJGdba68HruxH4a0aOBPiVVb9qd8hWrKsuWzPidNq+Y6VCv76jxLwsrXXYX4d/Uus800w1Fs/LWYqRfhFf+nAyZuUseDlsE92peyuXQ6nkNomz5PohjQ9rSEeGPNyDCa5mWIymiHyxeH9+5QmvHd3Q5Lr8U6NacbInZbnh1h+7Fc1elDnWM3x9n4XXxkCNSlGXL1HKt00gRU+/MPmNHtFssi5Ztm06j53c3q5Xw+q8Q59mq9a3wraoSi7WTuhsvAZytSAMypxpfF169Jzal7YdXqyp/bXs0Hi/8v5aWfa1cBnCFX4TX8GEj0aqRp+V4Z68cI4/+rp89jyo9TRcJ7cU1OyyunXPaJfygs9skfoGkrFOd21jt68Lr7j27qX6dOlbNzDJdeL0lxN0CQuTVU2/vPlS9hvFvu6h4UXtFrLLgpFZ7cN7qPofvgfheiJMd4XXJsmWmS58c2bPSo4ePZF/8AQEQAAEQAAEQAAEQAAFFAMKrIhEEW1145SVqvFRNT7rFZ7t2bWnl8uV6tUPer8Lr3Xt3KW+uXA5jcJCmY8eNZeXLli5xsAR1aBjAHbvCqxIO2R1Crg+WuPrUtevUpW7djYdqZyvJlavXiMBYKeTDX5pUKV3Y6uPoeV5+yMsQOfGS+LFjR9OCBfOJ3RwEt3Tg4GERbCkKvXz5kqxcH8wUAbJy5swpD9ud8MquE8oKdwIJEiag2ELkDhEypGyfWliwhg4Thp4/e0aZM2W0PHX/Cq8c/ISDyMWLn0C6jeDlo5wyZDCstvYKS+U6tWpazvmpC62E1zlje9CezUsdpmbLwwFTNsuyvw5sFf5PW5r1Snhl4eHNqxempao7S1fuqLsZWDR9MG1d6WhRzZaco/44LOcIDsLrAGHpyZa/nNivqlpyz/v/J/7jlCBpGmlBy9apHhXSyTIlvDJP5spJiaC6iwBlfcvuDeaN7y3b6cLrNOFK4KBwKaAnXeDcu3U5zRptWMbpbVRezWlXeGWr5fzFqonAX4koqrCuDSN8jHKKFSeBsNCNLPMtq2Wlf4SbBuekH5dvFq/psxeipp0MEZ+DnN0UgccUW8WVjyVOgmRyml0bFtK8Cd4BEl6dj/dz7OtuBgZMa0Wb9i1xmJZ9obJQyclZeN088RqFEII++2/de3yT+Xnjtuq7JE9Gw0/q+St/UdP+hkjN9Up4vX73ItXpnp+LzMQ+XNeNvSD32W8q+09VKSBzqjGU8MrBs0q38n2FgOrHfm5/EQJrvB8TiwBbccXLNOOzl0QEvYoRxXgxWdwjsYsAzf39IrxmSJ6ThrVdJKdlFwinLx422SqukYSlLQvbnDgw14yVhjguCz78URagvNIklQhOaTfpwusvBfLRzRsfLeitxtCF17Vr11Br8dJUT3Xq1qWu3Yz7Aw7wxStYOE2bPt304corZXjFjJ5YrGXRlpMd4XXe/AWUJathoW7nuPW5kAcBEAABEAABEAABEPg2CEB4DcLrrIRXdw8ovBxcBZiYMGE8DRMRfd0lvwqvHFyrbBnDWkYf8/yFi3LX6kFGbxeQvF3h9dzfF+SDtJWPNp6fA2DwQxSnBfPnm0sQeV/5PmUfcemEz1C/pB27dps+R1W/169f05EjR6hb186+PhCqPp96qziyD7z8efO4TMduCNgdASdn4ZWtWefMnUupUvvMxp2oy2P6VXhNnSYtTRTBVmLGMJYQ8xhW6YBYuskBUYIiWQmvQ7rUcokiz8c2ftlJeYjOFqpKeHU+fudgUXp9lYZd6JeSxjmPFT5jTwrfsc5p3NLjUoQLDsKrEkadj9HdfovKGWQQMiW8bl09lxYJ36ac1Fi6yDpi/kHp11YXY3Xhtb+wCL4uLIP1FFL4hGRBlROLwcO61dOrHfJ+EV7ZbUL2AqVNAdRhIG2nba1c9OrFM63EyPpFeC1XqzUV0/zuugzmVHD66B4a7d3kixNea5ZoSfXLdZBn02pwBdPNgH56m8Zfka4DdOHVTsApfYz7T+5Q1Q6G9SKXK+FVH1Nvv3XSDbm7bOs0Gr3AeDEQ0DnV+Ep4ZdcHyo+rqnO3bVKpK1Uq1Mj05+quXUlhvfv6zQuXar8Ir3pbl4EsClgsZ9HcOW3cvIUSJkwoi3lVDbtRspOU8GrXUlYXXq0EUt0Vj6dwK7Rhw3p5GOq+y908/LKSX1pyshpXVmh/tu/YST/FiSNLUiZP9sl842tTIgsCIAACIAACIAACIPCFEYDwGoQXTD0AsGVlmtQpXY6E/ZiOmzBRljsLi86N/Sq8csT7isJnqnMKLsIr+2g7ecoQVpwDYKljZiFv2Qcr4PXr11HLFi1UlbnM/umTp5Q1i6P/V7ORm0xIYfXZysuL6gkrGbVUXzXlh7W1a9aQV2vXB07V5nNtlTB94/oN6R/YeV62BmarYE7OwuuGTZsoUaKfZR1bWp8QAcVu3rxpup4oI/ytclAzdkWRQQTRskp+EV5Z6N2zd58ZKI0taY+fOEF379wxrZGrVqsmp+EAc+w6IiiSlfDq3bIs3b5uvJDQj0ktkb93+yr19PhoVacLr/x5efHssRmd3p3Va23PPpSzoPHvcVj3evT3yYP6VDIfnIRXde4ciOvQbkPQcDngDwX/E25N5gqrVbZ8NYXXVXNokQgOxckUXj9Yb3KZb8JrtybFHHzKch9OSgy/cfUc9WttvHQwahz/2hVeqzXuRvl/NT6XfC1vXjtP929dk0HPeMSU6XJS9Nhx5eDt2NevuNbOyS/Ca23PvuJzUE4OcensMbpz07D6dB5T7bNAf3TvpgAJr1FjJyB2DWE3vRMBmp7cvW63uWW7hhU6UY3ixvd1k36/0t9XjZUWemMr4TXVz5loTKeVshkHnNp9dJ3exSV/695VWrtngVmuhNeDp7ZRx5G1zHKVsRJeAzqnGlsJr2yl23WM+5cCqn3tUl5Ut0xbuct+cI+f309X7/xNT58/kmU50xWmpPGNF2dsQcuWtM5JF1OrCAH6gRCi3aVGFTpT9eLNZfWff20SwbzOumsqy4+c2S2tkZ0bLVqylNKnTy+L69erR7t3ub5Ecu7D+0p45Zec6dP6/EKQ2+vC6+hRo2j0KMNSnOs4uRNet27bQXHjCd/C4nuJfb86J93lkh3h9fjJk8RBOd2N5zw+9kEABEAABEAABEAABL49AhBeg/CaK+HVneVFlapVqW+//vIIBw4YQNOmTnF7tF+b8Monevb83zI41tWrV6lIoYIu5/7rryVo5OjRstw5EIfyDxvQSMNp0qalypWrUKlSpcxAHTxhPbGMcc/uXS7H9DkL1AOfO1cMzIYZcdKFV/2B9ZYQWwsV/MXFSufQ4SMUKXLkQBNem3l4kFcbQ0RYtWIFtW3bxgGV7uYiuAmvY/s2ExaojtfaJ+tKXXidLHxwnv1rLw2cuk0GfuKTHif8mJ44uN3h/IuWb0Dla3vJstljutOfW5Y51POOEhWDg8Xr8PkHhNgQjnwKKuVyAqIgsITXET3q07kTBxym4CX4w+fsk2Wnju6mMd5NHer1HbvCqxKF34tl7b1blKIHdx2XP7fqPYVSpMshhw4M4bVw2TpUsW57OZ5vfmr18wmIj9egCK5VInc1aldniDyF7uPq055jG/XTkXklgurWqeG+j0irRxkv5HYeWUu9JjR26edTgX+E14DOqY5HCa+7j66nHuMbqmK32zWjzxG7GWBftrW65qGHYvm/nro1HEsFs5WVRYEhvBbLVZk61h0uxxs0w4s2/Gm4HdDntJPv2as3/VazpmzKfuLZj6qdpIRXn1726ePov2N+EV4X/LFQBpbksawsVEuVLk3Dho+QU/kmvIYIEULep3BjdkeUPdtH62o5AP6AAAiAAAiAAAiAAAiAgCAA4TUIPwZKeOVDKFSwAF2/5mhF5N2nL1WrbgQd8c1y5EsSXpXvVndL5NUlUQGe3FnAdOrcmeo3MB5g27drRyuWfxSr9AAZuuioxvbPdtz4CVS4SBHZdZ5Ypt+rp7EU1Xks9pvavYfhW47rzp49S4MGDnRuFuB938RlPTibzqBho0bUoWMnOb+V72C28j1+6pR08+DTQ7AKbvbPu3eUWvjR9Smx31z2n8vJ6mFXt+72SXgtXaYMVahQwZxq+fIVDtfdrPBnxsri1covZ5JUmaltv5lyFmd/okp4/Vf4OOQl9pzSZi1AHl3GyDxHo+/UoCC9fP5E7vOfNJnzUvNu4+X+wV1radowYxm2apA8bTZq7W34Hv7UwusN4Ve0n1dFNbXlttfY1RTrp4TSitWzSibpRsCyoVNhYAmvK+aOovWLJzmMrjPcvnY+/TG5n0O9vsP+ctlv7uMHt6lLI+PftF7PeT3QlbMfX9W2/+RNFDX6j3LXnfDKfmF7jl4l22xcNpWWzTLELTWGvk2cMiO16z9bFh3YsZqmjzD+neptrPJfmvCaJklWGtXB+L5esnkKjV3Yy+G0kiVMRxO6rJVluvDKBUrAvHLrPNXv5fpCzmEgpx3/CK8BnVMdgjpuO8KrHuhqza55NHS24/cBjzm99zZK8GNSObw74bVi4YbUvEov2aZGl5x054HjPYas+PAncdyUNLnHJrm3aPMkGr/QW6+2nc+UOTOxuMlp3bq11MrT01bfzyW8/i5cNpUtZ6wu8GjahDZv3uxwfH37D6AqVarIMt+E15TCFzqv/OC0fds2atzId0FdNsYfEAABEAABEAABEACBb4oAhNcgvNy68Lpm9WqX5evKTylbxGYRAY6eP3/u9mi/JOFVj3rMIhwv0bNKaik711k9IO0/cIii/hBVdnUOatG4SRNq1954WD118gSVFwGkrBL7G713/55VlUtZ5cqVqd8AQ0DlQGcsWlol3RKX691ZpFr19UvZlKlTKV/+ArKLs4DK1qoHD4ngKB8CV+nCa81atalHz56yn5WArD94+iS86vOzH132p+suzZg1m3J9COZWrWoVOnL4sEPTTVu2UoIECWSZT8KrbsXLjTcLlwkezdxbNjpMYmPHSni18s3q2WMipcqYW444VQR6OqQFerISXrlhgza/U5a8v8o+t679TX1aGQ//XMBLvUfM3SuCm4UiFmbb1MxJ/7x7K9vyHxbjWJTj9KmE1yGzdlP4iFHo+dNH1KFuPjmXuz/6Evwd6xbQgkl93TWVAbb4nDgFlvD68N4t6takqMOcXn2nU7LURpCb8SLY2XER9MxdGjh1K0X+IaYMvte8YnopIDu3/T6csKCdu08W3711hXo1L+XQJIVwM9Cq92SzzJ3wqltHHxeWzuOFxbO7xG1Hzj9EvGXh3os/BxYBu7h/qNBh5GeF8wERXiPHiEOhwth3NfCPcDXw7OFtntbfKUyo72jVqLPEQbRev31J5bzSyGBZasA+HtModwbj+joLr2M7r6KUiYx/Cx79S9HZK8dUN4dtqJCh6f2//ziU+Vd4Dcic6gD8Irx+J67HujF/y658fnyeekqRMAON67LaLHInvObJWIy8m02V7bqOrUt7/3IUGc0BRCak+O5hK1u+Nu/ev6UyLVNZBuziPlZs9bGU/3F+mcwvle2kzyW8cnDH6TNmyEM6d+4clS5prArhAnYzdOjIUQofPrys90141e+7nF/+ygHwBwRAAARAAARAAARAAAQEAQivQfgx0IVXFld7dO9GfyxYIG/+x42fSL+IJeCc9uzZQ/Xq1PbxSPUHgDKlSkorS6sOp06fkdHqg9LH6+ixY6lYseLy8NiNwO+DB9EFEUiL09WrV8xl77qvNfaD+1uNasT+XkOHDk2Tp04zhTx357J3/wGKFi2aHJcDY7E1iopgnCp1ahozZhw9fPSQKlf8aEHJVrRsDcM+dSdPmmj6PGWfdRMmTTbH82rVktYIX69W6XMJr/Hix6MtW7fLQ2A+VYWgySIzi65r1q6lWLFim4enC6/6Ek22Jm4u3AAoP3wsVrNorZJPwmuHjh2pYSNjqS/Pyw+ely5dshTS24i6pk2byWEvX75EzZs1owsXLkgfulNFgLRs2bOrKSm4Ca98YId2raNpQmBlP6UFy9SmyvUMUZ8jz7etmcs8ds64E145Ov2gadsoYhTjM7lh6RRaPnuE2bee1yDKlq+k3H/6+D7NGt2N7t+5TmVreFLmPIZgy5WfSnjtOmIJxU1gRCHftmYebVw2jZ48vGMen55hYXDo7L0yABZ/d7HV77wJvU3L1yjRYlOpah6UVQjN7AOW3SdwCizhlcdif7mzRneX14QDUnFgKk7sZ5VFUJ9S4w7DKWNOw9L1/p1rtHTmMLpz46Lsck/4cP3vv39lXrka4J35E/vSns2L5Tmmz16IGrYbQqGEcKiSO+GV69V58+dn3nhvOrJ3o2UgLm5bskozKlXd8LXJ5zJ+YEszuFuIECEpY66iVKJyY2FxnMi0qA6I8MpzBkXyqNKT2Acpp5v3LstATfcf36aqRZtShUINzENyFl7jxEpEs/vskvW8DH/wdC/afvijCJnwp2T0mwjeVSBzKfIcVM5BmPWv8BqQOdWJ+EV45T7K1QDnvSc2pV3H1ovfxveUIXlO6u85i77XxHJ3wmucmAlpdt/dPARxoLGe4xrSxRunHERuWfnhT9n8tanVb/3l3t2HN6mbEGs5GBgn/uxlSpGHapZsSSkSZaDiHolludUf/aWc/ttj1VaVfS7hlefTA2ju3btXrEgZIH6LwtCAQYOIV6yo5Jvwql7+8u9vurSpLX/71FjYggAIgAAIgAAIgAAIfLsEILwG4bXXhVd1GO+FlRNbXShLRfZRWrxYERc3BAsXL6EMGTKobj5up06ZbC51Dw7Ca5SoUWjPn/ukgOp84M6WrQsWLqJMmTKZzZgHC68qMa9yZUrT+fPnVZG5ZTFv+oyZDu15WTyLRuybjZNz4K5evb2pxm+/mWNwe3ExHMZgC9k8IvKxu8TCLS9nVOn+g/uUO0cOtRuo24mTppgCPQ/MxxtaPEA6J+eHX90NgewnuIYSXPhzx0Iac2XOPgmv7Jf1oPAFq18PNa+zlS+33S+CZunByvhhlYOocXorrDtVnU/C6/iJk6hQoUJqGtq0caMQjg1B1ywMQMbK4lUNx1z+JwQ5tkpVac7YHkKMW6p25dad8MqVvOy8x6gVgnMIyXlI55p06dxfsh/7KPUeu9YMxCULP/xhH6PG90KITya8Oltw6vMf27+FJg5spRdJ4bJR+6HyXFQFW7byvy8+P5XYX21gC698LdRnlYjzH+ebPrITHdj+UYhTx6Fv2bJ30LTt8lj1cs7r1rIV67WnwmXqmE1YOOVgYeozwMHFwnwITOWT8FqjaQ/KW6yKOY6eYUH/oGYxzXXdRy6jn+InNZvxvGwBy1auKnGZR4V0cvdLFF7Zf+m0XlsoVrS46pTMLQuqoYXFKlthOguv3KhO6Tbyf9WBg0+9ffuKvvsuHIXQPgvOFrH+FV4DMqc6Rr8Kr9WKeVDjil1Udym6/ic+92wlzImDabFLAk7uhFeum9BlDSVLmJ6zLqlgY1f2I9ovoXRJP74IY7GXLWD5eqnEZUWaJVS7LttkyZLR6rXrZPnuPbupfp2P/4ZcGn8o+JzCK7/UnTV7juVvF7+c5ZeXnHwSXvPkzUfTxEtDTqtWrqS2bbxkHn9AAARAAARAAARAAARAwJkAhFdnIp9xnx9M+AGFxa0F8+dRvfoNpJigDoEfACpVrEhXrlxWReZW+dc0C3zIzJ41k/p4G/7aTp46I8UuZ8FRdT9/wbD6snJ9oNoExpatNSdPmUrx4sV3ePhp3KiB8JW23WGK3t59pK9bJUarShZAqwsrT2ffuKqet9GjRaepM2ZQypQp9WKZf/nyJQ0eNJDmz5tn1rEP0R49elHkKMaDl1khMiz27N+/n1p6Nqcnj5/oVQ75oUOHUemyZc0ytmLu3q2ruR/YGbbSqVixksOwDx8+pDWrV1HtOnVledHChR0+R+yiYcb0mZRSWP7qiYXbzl06U/PmzSlRop+JGWVMb4g7ejuVZ+ugbsJSO3uOnA7X0Vl45fbs+2+8sORW7iHUGOpzvnb9ein+HhCMa/5WQ1U7bHVLJa6oU6smscVSYCUlvFaq34EKlTaszGeM6Ey1WvRxEOn+E8LDNFF+eLchLujzdxuxlOIkSCaFMuXjVa/XA2k5W8yysNay50RKlCy9FNn4M8dWp9NHdqFWPSfLY7h45igN6VJLHzLQ8uwntVwtLyH6JXEQM62EV540eqw41LLXZIoRO77LMfCx37l5iRZOHkhnjxvXSFl+bl45k5ZM/132Uf5Wd65fIK1KuXDEvAP0XVgh1u9YRcyfU83m3pS7sGGdPnNUV6rVvLcpgHI9C5NTh7Wno3s38a6vKXrsuNKvboxY8Ryu7di+HiKY2k6zf73WAymrsETWv39Y9GSL23dv31L+X6vJtu1q53Hw22sOIDIsDJer1YryFq1C34cL78DWSnjlviWretCvlRo7HJsak4OacYC26UK05fQlCq983LxkvVujsZQ1dX4p7LGAev3OReo/rSWN7rhcLnvnwFscgMs5sZ/Y3k0nU9RI0Z2rZECqgye309A5HejZi8dmvbIi3X9iC3Ue7SoGqoBeS7dMpTF/9DT7qYx/5lR9lfDql6Bgzar0oIqFGjqIySx6/rFpAr0TL6vqljHc3ZRqmZJevXmupnLYcnAwj6o9KW/G4lKo1YVpK+GVO5ctUId4bnY74JweP3tAWw4so3ELeztXOexvEG5g+DeEXQllypDeXD3i0EjbUe19+81RXfi3Z7148cZp1MgRNOZDoE1Vr78AZXc07JZGTwkTJhIrZ/geJJ58EcsvdS9evEgD+vWlmUKU5TTk98HEgTut0opVq+V9BX/P5cuTh+7etV4dYNUXZSAAAiAAAiAAAiAAAt8WAQivweh6s+Vg4cJFKFbs2LRlyyYfBcVgdNif5VDYQjVDxoyUNWtWunXrFu3evUtGEbY7ObNNLyyEMwvx79mzZ9LS9bQIIOUusVVulsxZKIF4OAsZMgSdO3de9Dnqo+CqxtLFQRYyM4l52aLzUya2HM0nglclTJiQNmxYb/uzw35Vswtr3AgRItKWzZuEq4ern/Iw5djstiFjpsz08sVz2iTm9EnE1g+GLT5Pnz1nCmDssqDYh2BneruA5JXwajVG4lSZKGmqLEJE3EdXzh+3ahKoZeyS4MXTx3IpPQt345Yac+7dukwusQ/UyQI4GAvG7IOWBeNXL54R+7C98vcJ0wdpAIeX3XXh1eu3HPTm1QtKmiYr/SzmPHfywCe9JhxoK0W6HBRTCMznTx0wl/4Hxnn5NgaL28nSZKPIUWPS3dtX6OrfJ+nhvZsO3b5U4VU/iYjho9CLV0/lCy4WubdMvC6r560fQ1OWDtSbOuRZWEwhgnHFi5WY7j25RdeEcHvzruvLSodOAdz5nHOyVSv7tI0tLIPPXD5iLv0P4CnY6h4tcizhViA9RY0Yg24/uEYc0Ozh07u2+rI7n+UrVsq2+stfW50/cyN2y6OEU12wrVe3Lu0R9xrO6ceffqIdO41yn/y9O/fDPgiAAAiAAAiAAAiAwLdJAMLrt3ndbZ81LxH/Puz3tturhmzlYldQU32+hq2zODhTWNv269vnazi1ID+HwkJkHTd+gnkcVStXoqNHj5r7gZHxSXgNjPH9O4buV3bB5P60Y+08aQkZNpyx1Niv4758/kQKun7tF5TtrYTXoDye4DT31yC86jyL5KhIneuPlEV9JnvQtoOGgKe3QT74E5g+cxblzp2bnouXnZlFgNAvIc2eO4+yf/A5niVzJtMvvH7sgwYPpvIVKgqL93eUOeOnf7Gqz408CIAACIAACIAACIDAl0cAwuuXd80+6xHzUj5e0ueflCyJ//r5Z67g0oeDhnHwME78UJYxQzriJYxIAScwYtQoKlGipBzo7NmzxEHkAjsFtfA6bM5eOiGWua9fPIluXzfcfvAy9zqe/aTQyj5FvWrkkMGfqjbqSgVKVPcXAjt+UP018CfsBOHVPdwvVXhdPOQIbT2wgpZunUZ3HlyXJ5gtTUHy9pgsl7mzH9OyXmnNYGfuCaAGBOwTKFioIPXtP4AWL1okXO5Mo0cPH0lXOe07dKC69Qy3Fhwwsny5cvYHRUsQAAEQAAEQAAEQAAEQcEMAwqsbMCg2CCi/a/7h8S0Kr127dRd+VQ3fgeOEADtyxHD/oEMfCwIrV6+h5MmTy6XIFcqXI59cRVh0t1UU1MLr+GUnzeNk34GcdN+i88b3pl0bF8nyao27mf5FZYEf/rDfVPaf+iUlCK/ur9aXKrwqn6p8ZuzflZPug7TXhMbEPlGRQCAwCejuBHhcXqGjAm7yvrugplyHBAIgAAIgAAIgAAIgAAJ+JQDh1a/EvrH26dIJ33ki+IRf0/v3/0pfo37th/YgEJQEglp47TF6hfAjmsAhoBILsM8e36fJQ9p3A+YXAABAAElEQVQ6+BaNFjMOJUzmPvCZTxzPHNsjfbH61Ca41dVo2oPyFqsiD6tVjez0TgSYQjIIfKnC66gOyyiZ8M+qB3FiAfbmvcvkPbHpZ/Vnis/St0MgTdq0NHbceIot/OnrL7beiwB9586eoQYN6ksr2G+HCM4UBEAABEAABEAABEDgUxKA8Pop6WJsEACBL4pAUAuvCla4CJEougjk9Pb1C7p784oqxhYELAl8qcKrOpmw30egmFFi0+t3r+jeo1uqGFsQ+OQEYsaISXHixpEBKR88fPDJ58MEIAACIAACIAACIAAC3x4BCK/f3jXHGYMACLghEFyEVzeHh2IQsCTwpQuvlieFQhAAARAAARAAARAAARAAARD4CghAeP0KLiJOAQRAIHAIQHgNHI4Y5fMSgPD6eXljNhAAARAAARAAARAAARAAARCwSwDCq11SaAcCIPDVE4Dw+tVf4q/yBCG8fpWXFScFAiAAAiAAAiAAAiAAAiDwFRCA8PoVXEScAgiAQOAQgPAaOBwxyuclAOH18/LGbCAAAiAAAiAAAiAAAiAAAiBglwCEV7uk0A4EQOCrJwDh9au/xF/lCUJ4/SovK04KBEAABEAABEAABEAABEDgKyAA4fUruIg4BRAAgcAhAOE1cDhilM9LAMLr5+WN2UAABEAABEAABEAABEAABEDALgEIr3ZJoR0IgAAIgAAIgAAIgAAIgAAIgAAIgAAIgAAIgAAI2CQA4dUmKDQDARAAARAAARAAARAAARAAARAAARAAARAAARAAAbsEILzaJYV2IAACIAACIAACIAACIAACIAACIAACIAACIAACIGCTAIRXm6DQDARAAARAAARAAARAAARAAARAAARAAARAAARAAATsEoDwapcU2oEACIAACIAACIAACIAACIAACIAACIAACIAACICATQIQXm2CQjMQAAEQAAEQAAEQAAEQAAEQAAEQAAEQAAEQAAEQsEsAwqtdUmgHAiAAAiAAAiAAAiAAAiAAAiAAAiAAAiAAAiAAAjYJQHi1CQrNQAAEQAAEQAAEQAAEQAAEQAAEQAAEQAAEQAAEQMAuAQivdkmhHQiAAAiAAAiAAAiAAAiAAAiAAAiAAAiAAAiAAAjYJADh1SYoNAMBEAABEAABEAABEAABEAABEAABEAABEAABEAABuwQgvNolhXYgAAIgAAIgAAIgAAIgAAIgAAIgAAIgAAIgAAIgYJMAhFeboNAMBEAABEAABEAABEAABEAABEAABEAABEAABEAABOwSgPBqlxTagQAIgAAIgAAIgAAIgAAIgAAIgAAIgAAIgAAIgIBNAhBebYJCMxAAARAAARAAARAAARAAARAAARAAARAAARAAARCwSwDCq11SaAcCIAACIAACIAACIAACIAACIAACIAACIAACIAACNglAeLUJCs1AAARAAARAAARAAARAAARAAARAAARAAARAAARAwC4BCK92SaEdCIAACIAACIAACIAACIAACIAACIAACIAACIAACNgkAOHVJig0AwEQAAEQAAEQAAEQAAEQAAEQAAEQAAEQAAEQAAG7BCC82iWFdiAAAiAAAiAAAiAAAiAAAiAAAiAAAiAAAiAAAiBgkwCEV5ug0AwEQAAEQAAEQAAEQAAEQAAEQAAEQAAEQAAEQAAE7BKA8GqXFNqBAAiAAAiAAAiAAAiAAAiAAAiAAAiAAAiAAAiAgE0CEF5tgkIzEAABEAABEAABEAABEAABEAABEAABEAABEAABELBLAMKrXVJoBwIgAAIgAAIgAAIgAAIgAAIgAAIgAAIgAAIgAAI2CUB4tQkKzUAABEAABEAABEAABEAABEAABEAABEAABEAABEDALgEIr3ZJoR0IgAAIgAAIgAAIgAAIgAAIgAAIgAAIgAAIgAAI2CQA4dUmKDQDARAAARAAARAAARAAARAAARAAARAAARAAARAAAbsEILzaJYV2IAACIAACIAACIAACIAACIAACIAACIAACIAACIGCTAIRXm6DQDARAAARAAARAAARAAARAAARAAARAAARAAARAAATsEoDwapcU2oEACIAACIAACIAACIAACIAACIAACIAACIAACICATQIQXm2CQjMQAAEQAAEQAAEQAAEQAAEQAAEQAAEQAAEQAAEQsEsAwqtdUmgHAiAAAiAAAiAAAiAAAiAAAiAAAiAAAiAAAiAAAjYJQHi1CQrNQAAEQAAEQAAEQAAEQAAEQAAEQAAEQAAEQAAEQMAuAQivdkmhHQiAAAiAAAiAAAiAAAiAAAiAAAiAAAiAAAiAAAjYJADh1SYoNAMBEAABEAABEAABEAABEAABEAABEAABEAABEAABuwQgvNolhXYgAAIgAAIgAAIgAAIgAAIgAAIgAAIgAAIgAAIgYJMAhFeboNAMBEAABEAABEAABEAABEAABEAABEAABEAABEAABOwSgPBqlxTagQAIgAAIgAAIgAAIgAAIgAAIgAAIgAAIgAAIgIBNAhBebYJCMxAAARAAARAAARAAARAAARAAARAAARAAARAAARCwSwDCq11SaAcCIAACIAACIAACIAACIAACIAACIAACIAACIAACNglAeLUJCs1AAARAAARAAARAAARAAARAAARAAARAAARAAARAwC4BCK92SaEdCIAACICAvwkUShvW333REQSCgsCWE6+DYlrMCQIgAAIgAAIgAAIgAAIg8BURgPD6FV1MnAoIgAAIBFcCEF6D65XBcbkjAOHVHRmUgwAIgAAIgAAIgAAIgAAI2CUA4dUuKbQDARAAARDwNwEIr/5Gh45BRADCaxCBx7QgAAIgAAIgAAIgAAIg8BURgPD6FV1MnAoIgAAIBFcCEF6D65XBcbkjAOHVHRmUgwAIgAAIgAAIgAAIgAAI2CUA4dUuKbQDARAAARDwNwEIr/5Gh45BRADCaxCBx7QgAAIgAAIgAAIgAAIg8BURgPD6FV1MnAoIgAAIBFcCEF6D65XBcbkjAOHVHRmUgwAIgAAIgAAIgAAIgAAI2CUA4dUuKbQDARAAARDwNwEIr/5Gh45BRADCaxCBx7QgAAIgAAIgAAIgAAIg8BURgPD6FV1MnAoIgAAIBFcCEF6D65XBcbkjAOHVHRmUgwAIgAAIgAAIgAAIgAAI2CUA4dUuKbQDARAAgW+AQOjQoWnx0mUUIXwEGj58KK1etcrWWc+aM5fix4/v0Hbe3Dk0aeJEWQbh1QENdr4AAhBev4CLhEMEgQAQqFO3LtWr38BhhDt37lC1KpUdyqx2mjVrRpUqV6Wr169S/Tp1rJqgDARAAARAAARAAAQkAQiv+CB8cgL5C/xCrVu3cpln06ZNNG7sWJdyFIAACAQdAe8+fala9eryAPLlyUN37ty2dTBH/zpO4cOHd2i7du0aat2ypSxTwms9r0EUMfIPdOLQdtq2eq5De992VN+/Tx6idYsNQde3Pqj/tARKVvWgdFkLuEyyYu5IOn10j0v5l1TwtQivGTNmpDr16kn0Pbp3p2dPn35Jl8HtsXqK75aCBQu61A8dOox279rpUo4CewQiRoxIM2bNohD/938OHW7cvEmezZs7lH3pOwMGDaKKFSs5nMabN68pXZo0DmVWO3nz5aep06bJqq6dO9GiRYusmqEMBEAABEAABEAABAjCazD5ECRJkoTChQtH9+7dty10BJND9/Uw+OHIs6Wr8Hrs2DGqUqmir/0D0iBEiBCU5sMN9KVLl+jFixcBGQ59QeCrJvBDtB/oz737if/dnD51ksqVLWv7fJXw+uTxExo1coTsd/jIYTpz+rTMK+F1zKJjFDJUKLp09hj93rmm7fG5oep7+8Yl8vYs46e+QdX4//4vBCVIklpOf+fmZXrz6uv6Duo4eD4lTJrWBe/KuaM/uTgeJVpsivJDDHr75hXdvn7R5RgCWvC1CK8tPD2pZavWEkeZUiXp7NmzAUUTLPqzZX66dOlcjmX4sKE0ftw4l/LALIgd+0eKGTMGvXr1ii5cuBCYQwf5WHHixqFt212F69evX1P6tL4LkgE9gc95P8xz5ciRUx6yh2cLih4tOtkVXrnT/gOHKOoPUeXnIFOG9PTff/8F9PTRHwRAAARAAARA4CskAOE1mFzUk6fOUJjvwtCpkyeofLlyweSoAucwUqZKRZUqfbQoqFmrNv2fsKT4HMIr31SvXb9BnsjYMWNo5IjhgXNSGAUEvkICo8S/keLFf5VnVvO3GnRg/37bZ6mE1yuXL1PRIoVd+n2rwuuP8RJTj1ErJI+1CyfQqvljXNh8yQWZ8/xKiVNklKfAImjGnEVk/nMIr12GLaZ4iVLQP+/eUsuqmQMdI4TXQEcaqAOWLFmSMmU2rnvMWLGoWLHicvzPIbyuWLmK+N7mrfjspRXbryl9F+Y76tCpo3lK5cqVp4iRItHnEl6D6n545eo1lCJFCj8Jr02aNqW27dobn7uhQ2j8+PEmN2RAAARAAARAAARAQBGA8KpIBPE2qG40g+K0T505S+xHEsJrUNDHnCBgTYCtXE+cPEWhw4She/fvUZ6chhWQdWvXUgivrky45GsXXvWzjvdzSuoy1FhuC+FVJxO0+dy5clOzD0vEW7ZsQY8ePgraA/oEs6dKnZqWr1gpR4bwGriAV69dR8mSJYPwaoE1ZMiQdPzESfm7ef/BfcqdI4dFKxSBAAiAAAiAAAh86wQgvAaTTwCE109zIWDx+mm4YtSvj0DtOnWpm/D/yKlf3z40c8YMmbf7B8KrNSkIr9ZcAqMUFq+BQfHrGAPC66e7jhBefWY7ZMhQKvNhpVqF8uXo5IkTPndALQiAAAiAAAiAwDdHAMJrEF3y9OnTi2ioVczZK1epIv0qctCLdevWmeWc2bJlE23ftt2hTO2kSZuWKotx0qVLSz8I31RXr16lgwcOiKBVY+jff/9VzeS2tVcbihYtGm3cuJGqVatGqYWFyNmz56hfP28KHy48dejYkX5OnIQuXvib2rVrS48fPTb75xBv8UuWKi39V3n37kXVa/xGRYsVowQJEtClixfkmPPnzTPb+5Txi8VrhAgRqErVapS/QAGKFSumDN5z69Zt4X/yFC1ftpT++usvl6nKimVxWbJkkeU//PADFSlaVObPnTtHx44edWg/adIEun7tukMZ77D1H0e6zZYtOyVNmlQsJ3xDp4U14Nx5c+nI4cMu7fWC0mXKyGv7448/Utiw39OTJ0/FHNdo4cIFbq+j3j8459Xn9n//+x/179eP0gh/b5UqVabMgvfbt2+lFbN375707u07l9Pgz1fEiJFE0JNddFF8ZupKvtno3bt3dPTIEXJ3LVwG8mNB4rgpqXCOCvRznBQUI2ocevNO+OS7fopOXTxMm/YtEZ9px38n+vBJ46eh3Bl4+er/aPaakRQqZGjKk6EY/ZK1LMWJmZBu3b9Cy7bOoEOnd+jdKHzYSFS5SGNZtmnfYrr94DplSJaDCmYvT6l/zkwPn96j3UfX0codsx3mjxY5FhXJUZFSJ85CMX/4iUKGDEVXbp6jM1eO0pb9y+jJ84cO84T7PiJVKdpElh05u5uOn9/nUK92YkWLQ7/mri53dx5eTZduuvp4XLh4CWXIkEG2SZM6peU1VONZbf0jvM4a040Kla5NydJmk98tl8/9RZtXzHDrr9MnH6/RY8WhohUaykN78ewRscWlcypYprYMBBUzdjy6c/MKHf1zI+3bvpJKVfMQ7k9C0IGda+jGZVc2zuP4tp89f2lKnCqTbBYx0g+UIUchmb959TxdEueop43LptKDOzf0Ipnn4ykkjjdZmqzCajYJ/fPPW7p+6QztXL+ALp5x/B77PnwEqlC7rex3ZM9GKlm1KbH/03Mn9tO88b0pY66iVFiMFUEcy5lje2jeBG+H+fIVq0pxf05BD+/epB1i/OIVG1LKDLkpXPhIdO3CSdq1cTGdPb7XoY/Vjl8tXqPFjEMFStagREnTUeSoMSiEsB67d/sqXf37BG1ft4CePLzrMM334cR51jHOkyuy5C5OYcNHpP/97z/avWmJQ1v2p7t15SyHMrUTMUo08bmrRYmSp6cYseLSsycP6ao4z7ULJ9LTx/dVMwoOrgbYoq6FZ0vKmSsXxRbL6Tk9efKYTp0+Q3NmzzJ9KJsH/SFTvkJF8duVxLmYxoweLf1RulRoBQULFZTR2lOlTEn3HzygPbt30wSxhJqD7rFf07+O/UUbNqw3e/DvdMdOneX+ggUL6NmzJ1RD3CPkzpNX3lucO3+OBvTva/lby53Yp2gt4YIoQ4aMFCNGTPG9F4IuX7lCJ04cp7mz59Ddu3fMudxlPrXwqp8jH0OJEiXk8nv26blo4UKHw7p48SLNmG4EXXKoEDvsQ5QDnWUQAc/ix49PD4SV5InjJ2iccPPCKw30pH5vHz16RFcEj/oNGgg2IWmxCOI0beoU6Tu/VOlS4rvhPS0Q919z5szWu8t7usD4zfWL8Mr3Tr/++iuVKiN+I+PEoahRo9AjcS95/txZcf+zjdasWeNwjLyjzlNVfI77YTWXvvWPqwHuz/fHs+bMlUNxgC0OtIUEAiAAAiAAAiAAAjoBCK86jc+Yb9e+AzVuYggmvk27ZcsWatbEEHH0tj179abfaloHp3n48CFVr1pV3KxfNrvwgxovI3ZOz589E+Wh6fvvw5pV/KCTN3duc7/fgIFC4K0s9/ft2ydvNM3KDxn2B1m7Vk0poDjX6ft2hVfdWlXvr+enTplMgwYO1ItoxarVlFI8MNpJ7du1oxXLlzk05SV1M8XDHovUVoktAdki0DnxA8eGTZulGO1cp/b9Y0mo+gaHrf65ZZ+5zVu0cDksDq6UL28e6SdNrzx7/m8paPPLgZ9++km6m9Dr//nnH2rcqJF4yN+lFwco37f5dMqVvojbMe4+vEGeg8rRgyfWD/Z1Srch/p9T7W75aEqvTRQm1Hcu43n0L0Vnrxwzy5PES02Tum+Q+0NmtqNKQoRN+FMys15l5q4dTVOXD5K7pfPVJK+ajp9l1Y63796/pU4ja9Kxc3vNYhaC1435Wwq0fC7VO+cw6/RMp3ojqGhOw89y0/4l6PyV43q1zP8llkuGDRtW+Mt8R6lT2fv3ow/iV+H1gRD5okaLJQNt6eOwiDZpcBs6tm+zXizz7oTX2HETiSXui8X3mHFtlswYIgVcNQAH8+owaD7FF0vhndPpo3soVUbju27D0im0fPYI5yZ+3u86fAnFTZjcVr8ZIzrT/h2rHNr+GD8peXlPpYiRf3AoVztbV82hRdM+flbiJEhO3UY4Co+qLQuZMWLHl361Vdnh3etoylDDLyGX9Rm/nqLHjiuCVL0W/7+kSFGiq6bmds0f42n1grHmvlXGL8Lrr5WbUJkanlbDyLJ/37+nyUPa0l/7t5htdOths9BN5vnTR9Shbj6X2qz5SlIdz34unztuyHNOG9GRjuwx/u0GtfDKv4HLVq4k9rnpLnFAH6ugkdt37pLfs879fAuuxVbvbP3unPgFZSwh/LIveg6YV7ZMabOJ/lvNv6clSpZy+X5/L9iy32jnF5cewgUCvxR2l/h3oVVLT9q8aZO7JrL8Uwuv+jn6eCCiku+/cmbP5tKMX8oOHDTYhQ035PNs16aNePG+1uzXsVMnatCwkbmvZ/hFcvLkjt8xbbxa0+pVH79LAus31y/Cq/od0Y9Vz/P1r127psOLPf2+Qm9rlQ+s+2Grsf0rvPK98/GTJ+WQfH9TRLy4QAIBEAABEAABEAABnQCEV53GZ8wX+KUANWnSzJyRA0RwwCmOpnpKWFbqabl4kPlDWJHoafjIUcSBJTixxQX7S70vrCXSpklLPwkrA04sqGbNktkUQnXhlQPg/BjnJ4cHuls3b1KUqFEpXLhwsn/+fHnp9q1bMq8Lr1yg5nzz5o2YI4sp6K5asYLatnX/EMV97Qqv+oMUC8FXr1ylu3fuUMzYsSlr1qxSxOPxOHox+3RTiSM4586dR+6GCx/eFGHZmuT61Wuqmdz26eMtrWdVIUd1371nL4USQg0n7nNcWPdwYInM4hqpcisB9fchQ4itbTlxwI0L588L6+GLFFtYvqZOk0Za6w4cMEBaqshGAfiTOFNBKlC9nZ9G2DyjD109tddPfZwbOz8g8efg1KmT9PrVaxnkRPFhax+2iNWTeghUZcyWLX0S//wzJUyUSBbzeFkyZbQUElQ/v2xHtF9C6ZJmp9dvX9LfV0/Q1TsXZHcuS/BjUpl//eYFlWqVUljN/c9laF14vS/E2RhRYksB9Mbdy/TunzdyjLDfhacWA8vQ6UtHzP668Prg6V2KLixZ/xOC4u371+jxs/v0U8wE9EOkmDR//ViavHSA7Fe9eHNqVKGzbHf+6nG6fuciPX/5hBLFSUkZU+Qyx67bowBd+3AeXNij8XgqkMUQQZzruJ6/V9aNvSAF40fP7lGldpm42CFFjBiRDh81hGP/+qnzq/CqDuC5sDa8LCwcY8VJSLF+SiiL+Vp0rF+AuE5PVsIri46dhiwQ/zZDy6bzJ/aVVqF6vxY9JlDqjMZ3wvv3/wiL0SPSevnnlBmkpatqG1jCa8kqzShl+pxy2O/EagIlwrI15YPb19V0cvvH1AHSklUVslXqoGlbhfWn8R3EfS6fP07hIkSiJCKIlSpfKITXbUKA5aQLr8zuxpVzYs5kDud24+o5iiMEXbakZYG1dfWsakpTeFUF796+pgunj8g5EyRJIz9DXDdhYCsHIVS1V1u/CK+V6neQ1s58vCwOs7XtqxfPKHa8n01ePO6AdlXp2kXjNzF8pKjUrONINR3FT5Jaiu08xiUnK+Cb184Tfxb0xIHAGrb93SxiC+S7Ny5T9B/jm6I8j9XbszTdvXklyC1ed+3ZI8TO2PJ4+YXWWWE1eP/ePUqQMKH8XWNf6VkyZyJeKeOcvPv0pfTp0sli/s1ULxJ9El6ripUwffoa39vM4eTJE/Tk8WPKkjWbfCmj5vBJeFVtLl26SLdu36aMwoo1vPgd5nRe/CaWKvGraiK3Xbp2pbr16svv36tXrtCNG9fp6dNnYvVNYvO3mxty0FEOPuou6fcLn8LHK0euHzdugjl9GrHKiAVx5uQsJrMo2qtnD7MtZ/h+je/bVOI2zChh/ASUUqw+4sRjFStSxHxhrguvLMyyqMcCsEosZl+4cEEGhOIyZ7/5gfWb6xfhVd3f8WfyijheXu0TMWIE+RlS95ZnxIqlsmXLqNOgoLgfNifXMv4VXnkIdd58nVKnTKGNiiwIgAAIgAAIgAAIiGfyiFFjuqoNIPPZCfjFx2vChImEZeUm+TD88uVLKlXyV7p546Z5zIMGDyZeZshJF8CU8MrLvH8VbgLixotLW7cZS6TZmqVQwQIUKXJkOnTYEJD69etLM6dPl+PowiuLY9WrVqGjH5bt/yisFzdu3iwfQvhBIKN42GPh0V1SN6jODwnO7WOKJYe9vL2FResA+cCh1/NyvZ3ioZSFPrb2Yasfq6RbqbCF5sgRw62amWWz586j7Nmzy32dHRfEjv0jbdm6VYrMvJQ+c8YMDue5e+9e4mPmh6d8efK4LI8sVbo0Xfj7b+He4aw5n38zOco2pUJ1uvmp+5qx7ejYFkcB308DiMa68MrXupyweuKHaU7sdmLj5i3yc/ng4QPK9YGjrBR/9IdAflCtJj5DKumfr4Vi2Wa3Lp1VVYC2FQs3pCfPHtDWgyvkddEH86jSkyoVbiSL+k31lEv59XrO68Ir7+86so76TvGgf4R4x4lFzUqFGtG2QysdrGZ14ZXbseDaekhFuv/4Nu/KlC1NQXlMB09tk/tZUuWnFAnT06LNk8Xn6vWHVsYmU4rcNKTNH3Jn+6FV5D3p40sbdqUwuYdhDbbhz4U0aIbji488GYuRd7Opsu+05YNpztqPD/9qktTihc2y5cvlLrvvqFyxgqqyvfWP8HpFCK6DOlQ356jaqCsVKGHsH927SVi+epl1nHEWXhMmTUvt+s+W1ov8727myC4u1qMsZA6esUNeKxYUezYvLZaw35HjJk6Zkdr2myXruCCwhFc5+Ic/upXm2oUTaNX8MXq1S96r73RKltoQRbesmkWLpw0227D7gD4T1kmR+f0/76hNzZzCQvmtg/C6dfVcWiTE3FLVmguXA8bnZM/mpTRnbA/6pXRNqlK/kxzPq2YOevPyhcwri1feefXyGXVvWlyKoLyfPnshatrJEDvv37lGPZqV4GLL5BfhlUXQxEJIXjlvFL15ZRyHGjRjziLUuIPxXX3u5AEa0b2+qnLY+sXHKwvOQ+fuFQJiePnvblw/Dzp5+KN1fdqsBciji3Ftbl37m/q0Kh+kwisvbT8iXvpxYtE1W9bMDufOomu9+vVp+rRp0lrSodJph19GtmzVWpb6JLzu3X9ACrT8b6lJ44amaxy+L9i2bbt8AcmD+Ca8duvahRb+YXxfsYXs3r37zb4pkiU1XwbzWCxI8ovn4cOGubxwK1asOI0eO5abEa+0qV3zN5m3+vOphVfnOVesXEUpU6WS9wBpxdanxKthDh05SnxNmS2v7Nix3fje537s2mHCxMlyCF2c1oVX5Tt0ybJllDatIajXESuM9or7Dl7mzsvdne+FAus31y/C64hRo4TrhUUuK1eYwdbtO0wrbA7e6OxaQTH8HPfDai59GxDh9U+x4ovvSzklS5JYHxZ5EAABEAABEAABEIDwGlw+A3650eRl8Dk/RByvXq0qHT50yOE0eNnTsePHpUUo39iq6ORKeF27dg21btlS9jn39wUpOmzdspWaNjFEKCWMTpgwnoYJK05OujDGN/p8w6+n3t59hN/XGrLIN6tONb5vwqs+vlVePWxwnbsbXb8Ir2zRsv+AwZItgosWKewy7dChw6h02bKyvJV4mNWXBfJSM2bPorNvD2IuA/uxIGHa3JS7knEN7XbdPncQ3TxviOp2+zi304XXlUKoY1/AetooXC2w9SoL0+wnVE/6Q6DzQxf7rTtx6rQU0vllQsb0xoOl3j+w82ypumb0OTnsqp1zaPgcQ5DS59GFV7ZcrdLeUfzQ2+p5XXhlS9fK7TLT4+f39SZ+zi8ZcoyiRopON+9doVrdDOtNNcj8AfuJ/bi+EYJtSc9kDiKzsvrl4yjTKjW9evNcdTO3usCxbOkS6tihg1lnN+Mf4bVbk2L08N7Hl0Y81+hFR01h0bNKJofpdeGVfZfycny2AGUxg0VaK/cEyrKSB1q3eKKL79d2QnhV/liDWnhli84hMw0x8O6tK9SreSmH8+edel6DKJtYLs+Jl+Lzsnjd4pU5sGjN7hM8e0yU7WaO6kr7tq0gFqo7Dp4vy9iq846w9uSkC68LhWi7TYi3euo1drVpjdy+Tj5iH7pWyS/Cq1V/vWzYvP1SJH325AF1rFdArzLzfhFefyn1G1Vp0Fn2ZT+5ztawXNF/8iaKGv1H+XlqXjE9bT7+0pzrc2fY7+m27TvltGzpyRaf/k12hFdduHS2SOR5GwqxsENH4zvSJ+H1llglU0CsltGTfn9QtHBh06JTb+Muz+IzC5a+WeLrx/8pLF6dj88vwiu7blCBC+fNnetiDctj79i1m9gvPH+XpUyeTIrTuvCq7nHYVUGFihXl4SgRu3uPHlSrdh2X393A+s31i/DqzEnfr1O3LnXt1l0WObtF0Nt9jvthfT6VD4jwqgviObJnpUcPrb8j1VzYggAIgAAIgAAIfFsEYPEaTK63X2409eWH7FeVLQlUYgs8TmwRwZYmbJ3KN+eclPCqO/9XIqjuIkAdC7s36N6tq+yrC69t23jRKuF3Tk+6wLl0yRLq1NG9cKPmtCu88jLoGr/9Rj+LJek//hRHiJvfy6kTCcvfyFEiy3w6sZSf3TQ4J/24fLN4LSyW+I0bP0EOwcvk2DJVsVVcI4hjUX7VFsyfTz26f7Q63b5jp+nm4dDBgzRq5AhppeN8TF/yvi68egrffHqAFT4vJYbzw2Nyp8Au6iHQyhqW+6oHWau+XB+QlDJRRsqQPJdY4p+QfogYQ5iq/k8OlzNdEblli9U+kzxcptCF15HzutKK7TNd2lgV6MLrgZNbqdOo2lbNLMtYQOWAXnFiJBABtuKKz6Dxbzpjijz0fZiwZOUuoHLhxtSsirG0teeERtIylwfn4FsrR56iEMLaj33Dthla2XJOjsjMkZk5uRMGLDtqhX4VXl8+f0LtajsKyDxcx0HzKGEyQ3j3qJBOCBH/mbMo4fXt61cURnwPsBUjp7F9mzlYL5odRIbFR+XDtW2tXKYlp2rDgaWqNzXEgKAWXnXrUrY8vSlcBqhz/D8yPgccSCtOAsNf8K4NC2WgLF14HdGzAZ07vt9BZB3XvwWdOLhdunPoNWa1PPVh3evR3ycPyrwuvLLg6Bxwrlyt1lTsQ+Cy0d5NiP3iWiX/CK/snzdb/lIU88cEFOWHWOLzHlIOHS9xSinAv375XFr2Ws3nF+G1QZvfKUveX+UwbNHKnz9ntjGFuwvlV3do1zo08Y/dVtN+tjL1YpS/ExcvXkxTJ0+Wy9P9egB2hFfdzQC7ieEVH3riZfUnhG9XTj4Jr/qLXdVfF9waCCvdXTt3qCpz+/PPiYWrnnLCjUICEUQstgy0xpWphTUp+6Zn10mZhRsadyk4C6/DR4wUwUmNlyhs0cruG5zvLfiFpXIHUaN6NeJ7CCW86vdxSmTVfye92rSlZh4eDvd7zCmwfnP9KrzyuVUU4nAacR8aP348Ch8horxsUaJEoYQJE8p83z59aNbMGTLv/Efdg9p54eDf+2HnOXk/IMLrvPkLhDuFrHLYXwrkc1iFZjUXykAABEAABEAABL4tAhBeg8n19suNpmpr99DZ3xT7nVLCK9/s8k0vJzWWLrKq4Ai6GKsLr+WEb67TwkeXnnjZIwuqnFgM5iAa7pJfhFd2m8B+U9VDirsx3fm584vw2rZde2rStKm7KVzKd+/aSfVFdGKVnH24cTk/MLHv3YkTJsoI1Krtl7rVhdcSxYtJ/3L6uUycNIV+KfiLLFIWOqpePQTqSylVHW+niiWzefPll0Xurqfe3k4+fuwk1K/FdIoTM5GPzXceWUu9JjR2aaMLr85+XF0aawW68Kr7cdWauGS/E6Jq3+ZTKXPKfC51esGT5w+pQtv0epFw8xFWWu+ywHrq4iEZMIwbVCvmQY0rdpFtO4z4jQ6d3uHQT+3wAyM/OHLybUmv6uO89avw6s6ik5eY81JzTrpVJu8r4ZXzejq0ax1NHdZeLzLzPUavpB/j/iwtyTwqpDXLVSZ5uuzUurfhiiGohVdd4FTH59OWBVAWQnXhdUD7anTtwknSXRwokTVy1Bg0cJqxxFmJsTy+El45uFSLyhlcpsxTpBL95tFLli+Z8bsIXDbTpQ0X+EV4/T5cBPLqM930rWo5oCh88+YVeVXPZlntF+FVtbUcyKKQLap7DZ1lUfP5ioYOG04ckElPHPzukliR0U/4J+d/q3aSHeFVCXo8XuNGDUw3A/r46jvcJ+F14oQJNHTI73o3aaHJlpqcnF/YsTXrHGEFmip1Goc+zju+rYQIzsKreqnofE7u9vmFN9+TKeFV9xuq7lN0MbZZs2bk1bad/I7TX3iq6xXQ31y/CK8s4Hft1s0hWKvVefq0Mkrdl9oRXlVbqzmsytT9sFVdQIRX/cU7Wyz/+++/VlOgDARAAARAAARA4BslAOE1mFx4dfNo50ZTWcGwhefq1Yb1krvT+O+//1EPcRPPN+lKeJ05YwZxcChOal7detM34dXd2/zzIpAUJ7YUZT9y7pJd4bVnr970W82achi27uBgFFevXpH+7rgwV67cFE9YU3DKni0LPX70WOb1P34RXvUlfEeOHPHVsmiH8HnnbPFZWCyj7Nm7txkQRT8WttipU6c2nTxxQi/2Vz5M2AgUJWZcP/V9dPsqvXfyHeqnAURjXXgt+Et+unH9hsMQdoTX48INRqUK5R368Q5bG7PVMScOwMIPiwFJLEYuHHyQIoaLIodhS9FjZ/fS3Uc3TB+ttUsZfg93H11PPcY3dJlOF15Z7GTR007ShddhszvS6l1zfe02trPwGSgsczm9e/+WDp7cQXceXKOXIvgXp/IF68pzefbiMZVr4yogDvCcSdnTFpJty7ROTS9ePSXlgoADiJVsmULWWf1h/8U7d++WVewvmv+N+zX5VXi9fvks9W9TyWWa+m0GU9a8hh9Rtjq8cPqw2UYXXtnHKadQocPI7cRBrS1dDfSZsIGix4ojLWfZgtY5sZsBdjfAKaiF19qefSlnQWNJ+aWzx+jOTcMVgPMxq/2Th3dKtwIOwuuHYFRsSdpz9CrZVHGMGCUaDZ5uiO9Wwiv7wG1VzbDaUnPwNqtwbVBfuDjgtGn5dFo6c6jMO//xi/Cquy9gwZf9/T56cJvevH4ph82WrxR9x65bhHVz6xoBF177TtxI0WL+JMf+c8sy50N32d+8Yobwh3zSpfxzF7Bv8C5CyFL+I/X5L1++RKXFby27dvEp2RFeBwwaJKwUjX+P/OKUX6A6JyXk+SS8jhY+PkePGunQlZfGuxNe2V99okQ/y/YsMJ4Qvw83RaDPV69eybIywrVP2LBh5X4GEdDKXQrOwiu7jGDXEZwWL17k7hTM8mlTpsiXmlbCa5t27ahp02YO1q38wpgFWd0KlgdT1yugv7l2hVd+gTd33nxhSf5/8lw4YCv/jt9/8ID+E0JkXMEgd568sm7woIE0RVhwWyV1X/op74et5g2I8KpcTemCuNUcKAMBEAABEAABEPg2CUB4DSbX3S83mkrgcA6k4NupBJbwygEunC1t9KjovIyQlxO6S3aFV8WELXyKFSviIvJNnzmLcufOLacJDOG1foOG1Kmz4QPQJ2sMd+ell7MVT1ERwKxWrVrSkkc9iKggZnpb/+SDQ3At/wqvHJm5SKGCLqetBzZj/7BWYgJbVuuJH9TdpVJ5f6M2tQyxaLEIWDVuYW+Hpt+F/p7Wjb0gy+wIr6VbpaKXr585jOFuRxdeB89sS+v3/OGuqSyPHT0ezeu/V+Yv3TxLjfsUEw/WjhYzC38/TNEjxyJ3wmvqxFlodMflcowZK4fS1gMraFbfnXJ/yeYpNHZhL5l39+f02XPSx+7r168pfVqfrc+sxlDfS+78IxdKG1Z2U+Lpo/u3qWtjQ2jXx2vRYwKlzmi4IHB2DaD6sujK1rDRY8WnVr2Nh/f3IuBZ5waFXPyPcvAtDqLFyWoZfRYhKjb4ICoGtfBauGwdqljXsNz1ybJU58X5wBJe2a2DlThdsExtqlyvg5x27rhetHvTYudDkPt2hVfdGpc/BxzMy/nzPnTOnxQufKRAE17biKBlST8ELfP6TQQWcwroZXVCW064uq+xavc5yli4K1OmLFWtWs10acPz6q6D3B2HHeG1cZMm8sUaj9GlUydLgVC9XA0s4VV/McoiXSGxWsLZUpCDfXJwLxZiv1ThdY4I2pntQ7BJDgTK9252UmAJrwH5zeXjtCu8Lly8hDJkyCBPzcqHa82atahHr16yPrCEV/W749f7YXkQTn/8K7zyiiwWuTmxAQDfjyKBAAiAAAiAAAiAgE4AwqtOIwjzSmQ8c+YMlS1t+AJzdzgqgBG/WU+bOpWvEY3VOIElvA4fOoTGjx+vhpXb/AV+ocnCSoPT7NmzqI+w+nSX2E8c+4u7ffs25c9rCCzObfVAV5s3byaPpk2cm5jBKLjCnfDKfuPWb9wo+06aOJGG/G4sd3QZTBRkEpGVF/yxUFZZBY6y6mOnLGaMmLRzzx7pLuG9sOxKlSK5nW4+tvmShVd3wp5aqueO0Y8//UQ7du5y4OJTEJVO9UZQ0ZyGBVfhpglchJ30yXLS8HaG9VFQC6/Fc1elDnUMK8LOo+vQ/hNbHM4zdKjQQiS+KH21uhNeuYMKwMWBwA6c3EYlcleT41QWQcEeijKfkvpe4TbObiJ86qfq1AOwXeH1HxGErmXVzKq7ue09bo3098nWW86uAZTwevvGJfL2NJZg12zuTbkLV5D9rdwX1G09gLLnLy3rxw9oSccPbDXn4kxNj96Uu4gRrOZTCK+65enGZVNp2azhDvPrOywQs1DM6cCO1TR9hBHMSG9jlQ8s4ZXH7tywMD15eMdhGp3hoI416Mr54w71aid67LjSbQHvH9y1lqYNM8RaVa+2RcrVowp12srd6SM70YHtq1WV3IYWvw8jFxySlnM+Wbx2HrpIuipg0d2zsiGuOwyk7VRv0o3yFTf+PfjkE1jrQlbCKy/9r1DB+Lxx2+XLV9CK5b5b0OrjBjSv+2R29+9Nn8OO8Kr/hrMPd/blrqccOXJIH95cFljCqx6wiwM18u+unvg+4bhwa8QvLn0TXnn1y5at22V3q+PXxw2M/IoVKyll6tTEL4ZTp0rp45C9entLP/XcqFHDhrRju+Huw8dOojKwhFf//uaq41smrkvqNGmlRS3fvziL46rdgYOHKUrUKOTOj7vuOsOO8Pop74fVMetb/wqvKYUfYnYnwWn7tm3CVYfr6hl9HuRBAARAAARAAAS+PQIQXoPJNVc3rA8fPqSc2a2XVapD1Zfgz50zh3r36qmqXLYcYEtZDgaW8Gq1FFm3VmSRlMVSd2nXn39SrJix5E28it7r3JYtRjmaMSerB8vcws3A9FmzzG7uhFfd9+zWLVupaZNGZh/nDLc9dvwE8ZYtKTNnzGgZsIv76Vydx7HaV9fXnaho1censlBiGX3kGHF8auJS9+y+WGL/7o1LuV8KAsPVAM/HvnHZR65K+lJ3d4J83Hhxaes2Y5m06scBzMaMHq12HbbdGo2jglkNca6RdxG6eOOMQ/2ErmspWQJj6XlQC6+/iOPsLo6X08xVw+T/+sHWL9eBapZoKYt8El5rl/KiumUMQUv1v3D9lLSgVfvutrqPxzq1atLevYYFrrv2zuV+FV65/4SBreiv/R9F5giRfqDfZxqfC6to9lbCK4+jotFzfsuqWbR42scXLKky5CbPnhO5im5ePU99W38UzTiQ09C5e4U/wnCy/lMIryFDhZK+aXmC4we303gR6Mpd4rYj5x8i3vLye6+aOekfsfzfKrGLBeVuITCF171bl9Os0d0cphw+/4BkxBax7IqARXN3afyyk7Lq0f07wqK5sGWz/CVqULVGXWTdzvULaP7Evg7tdDHcJ+G1efcJlCaT8fKuJR+XG1Y8eNI0WamN8CnLyUqglxUf/ii2VsLrSPF98+uvJczmm8VSeY9mTc39z5FhcWv/AUOYvnXrFhXIZyzfdje3HeH1e+HW4cixY9Lqne8ZMmfMQG+168wvJfnlJKfAEl5r1qpNPXoa9y9WQf369h9AVapUkXP6JrxyI2WRa4eJHDQAf6ZMnUr58heQI7gL7qmGZ2tXtnrlxO4hin1wqaPq9a1+bxFYwiuP75/fXHVcI4T7iBIlDPdR7vz/ctvDR45SxEiR5P1TujSpHQRa/nwdPnpU3l9xW5+EV3W/9Cnvh/kYnJN/hVf931d74Qric7+IcT4P7IMACIAACIAACAQ/AhBeg8k1UTd8fDizZ82kyZMm0507ty2PjoXBQ+IGl/2esVXYkiWLqWf37qblK4tYnq1aUWlhOcs+YHnZIKfAEl55rGVLl1BnMS5b3Sr/YlxuZ5nV6LFjheuA4txc+Gy9Sr8PHkQX/r7wYf+KebOurIC5olfPHrRo4UJ5juwHdOTIUTLSsewk/rgTXrlenTcfa4/u3Wj9+vX07OlT1dVhq99A87k0a9aEjhw+LNuEDBmSihcvTs2atxA+6RIRB2nQEwvFp4R1zojhw+jwoUOyil0wNGjYiDyaN5f7d+/eobwf3CPofb+UfGAJr+yfuIKIYH3hwgVi6+Y169abPgzdLXP1q/BasXBDal6ll0R75vJR8p7UjO4+vEFsPdq14VjKl+mjeBLUwmusaHGFP9Z98lifv3pCnUfVptOXjsj9yoUbU7MqPWSe//gkvIYPG4lWjDgpLWNVh/7TWtLmfUvVrtstX4d9+w9K67ITJ45TxfLl3ba1qvCP8MoC3uBOv9EN4e81fMQo1H3kMuIAUJwWTO5HO9bOd5jKnfDKPly9x68Txx5CficO61bXwTesLsyeO7GflswYIgSAMFRL+FSNHSeROcenEF558NGLjgpBK7Q4tv9o3nhvOrJ3I7168cycV8+UrNKMSlU3vi9ePntM4we2pItnjsomLBRnzFWUSlRuTLF+SmQGwgpM4ZV/U2aP6U4swPJ8LFqnSJdDzn9C+JQd19dDP1yX/KDp2ylSlOiy/NzJA7Ryzkh69fKZFIkf3L0py3VXA2/Fd8Gkwa2JA4VxKl/bi4qWbyDz/Mcn4ZWtZtl6ltO1i6dpxsjOdOfGZclZFjr96ThoHiVMZrxsuSoCkI3t15yeP3koW3Gwr/zCIrZQ6VrihdtL6tGshKXF6+cSXtOkTUvz//iDNqxdR0OHDaXbQmDlxC4Hfv99qBlBnf2Mc8Aqn5L+u8b+19kPu1UaOnQYlRY+VTndE0EhO3XoSNevXaXWbdoSB49UKbCEV93VAFtlNvfwMF/I6b81PK8d4XWPCDYWI7rx/cHukHh1ztOnz+jdP29dXBWpc/HvtkPHjtSwUWPZnX2RsuB26dIleU9kNeaiJUspffr0soq/X5uI+wK2DOXEL5rZn30d8ULy5YuXpiuewBRe/fObKw9O/NEDh3KQM37ZuW2rsXLg3r27pusEZQXM/djquE+f3tInP1sj/7Fosfkbz/U+Ca+f436Yj8E5qXmZFYvpdhO/BOHfT35hkS5tarefAbvjoR0IgAAIgAAIgMDXRwDCazC5ps4WnPphWVnUsHDJD4DsW0olvukLFTqUQxkHcghs4ZUfzHnpH2/5f/0YrJYLquNTW7bW2fPnPtPyQZXzVreWZX+r7HdVJRZO+f9QwhqME98csxUFJ5+EV+8+fala9eqynfMfXk7JDwh6Uv7MVBnP+f6f99LKVS9LkSyp2pVb5SOTd5jL27dvzONTDVs096CNGzao3S9uqz8M+9fHq37SvEwzdBgjOBKXu7N25Tq/Cq/sw3Xp0GMU9vsI3F2m129fUtjvwht5EXBK1QW18MoHNKLdYkqXzBC4eJ8DbIUKGVqKqP8Jwe79v/9QmFDf+Si8cr+hbRZSxhS5OCuDiJXwTCpeZryX+779UQ/O/PnNmyuXFF9866Pq/SO8qr68VJyFSZWePr5Pner/onbNrTvhlRvoVpQs5rWvm8+0gOQAWl69p0lLUnOwDxkWBdmXKKdPJbzWaNqD8hYzLPc+TGtupg3vSAd3rjH3OcMC9E/xP36/sGDLFrAqkBi34TLljzUwhVcem9N/4jPzf0J4Vf6pef4eHr8S+2T1KWXIUZiadBzh0oQ/U7rriG4jlgrftMnMdjx+CPFyS/22cDAetvz1SXgNEzY8DZu1x/K6sqDaoV5+c3zORIkWi3qJgGPfhTUsnLmM5+XEc6nEAnH3psUshdfxEydRoUJGEDtuv0m4smnu0Ux1DbSt7vqGB+XVEv8Kv8+8/F4lXplRvFgRIY5eV0Vyq/vadKiw2Jk6ZTINGjhQ1vCLwo2bt1C0aNFcWvJ3NTPi3/vAEl55klVr1lLy5MnN+fic+DdefQ74vPllsx3hlf2qjxlrrBwwBxQZ/uwlT5pELwpwPly4cHRQ+J/lY3NOVkvtY8WKTRxIjPuppHyU62PcuH6D+LeVU2AKr+acfvjNVX14q1wB6WWc19066Ja9qh3fl7IVLycW19lggJNPwuvnuB+WB+H0xz/Ca568+Wja9OlyJJ2F09DYBQEQAAEQAAEQ+MYJQHgNRh8A9rHWrn17Spo0qYOYaSW88mGzEDV9xixKkCCBy1nwg8bFixepn7e3EDn3yHpl+Tlt6hTi4FGclL9VfZkfL7fnhwNeLsVWHJz6DRhIlStXlvmOHTpQv/79TQGUC/kBok3r1sTWN3YSW0BMnjKV4sWL7/Dg4ryMbciQodICRz3889gshC5btlREv34jrUS4LFvWzNKygvPOiR8U27RtR9WF+BpeWJboQrGV8Mr9PVu2pKbNPByOTY3LQRy2bdlCbdu2UUVyyxYtqYXPNyUM65XcZ0C/vjIQil7+peVVRGU+7vxieauywlLnoUQJqwddFWGZo2VHjhLF4WGb+7PVUNWqVUzXGGpMtfWrj1fulzhuSurbfAbFiuboloF9oLYYUJpm990jLWB3HllLvSYY1ktqPt7qS/dLtUxJr94816vd5n+Ok4Km9Nws6wfN8KINfy5y21ZVsLVq76YTKVNKx2XDb969pt4Tm4pjaU0pE2WkJ88fUoW2huWU6qtvf8lSmro3Nnwwbz+0Slr66vU+5fUH5zXCWt6rdSufmjvU+VV4ZStOFnISJk3rMM51Yf36u7CCtVrOrixHb9+4KHy8GpZ5eud2/WYRi6yczvy1l0b1amRWx4qTkJp3GycCcsUVok4IKbjdvnlRuiVo3XuqbMf+V9kPa2Annq9crVaUt2iV/2fvLOCjOL44/v4tUtwdgjsBggSXQnB3Kd4WLRKguAZpoXhwd3d3d4q7B3cpWlqg/3lzzDGnuUuOXBJ+w4fb3fH97ubkt2/eo++iRpPjqzGsCa9cVqFOaypXs7mJIKjavH37mk4LtwUzhGjLSbcgHdSxprQgTpDEg/zGr5flw3o0lFazuisH3c/pgAnC4lz4Z+V+j+xeS0XL1JHt1Mvrl8/p9y516fH92yrL7ja7dwlq0KovRY8Vx3iu5sJrtJhxqF3fydJHq94Zi/BzxvUWVr0thVVvKvGA7Q351vPWq5jssw/dWs26UUbPfCasrAmv3JDF6+ZCGM6Wq4gU90w6Ewd/PX1IW1fPoq2rZlkVXnft2UtJkiQxNguKWw5jYzs7bNk6f8EiSpw4sdV58mqRTr4diCPWmyf1AMU839oxr7AZIL4nqMQi2fTpM0WQJC8pmPF1u3//vvgu0El835glPxN5FUhd8V6tku5L3Zr7lypVq9Efw4bJ6uyWgb/TqMSWgjNnzJL+UlUeb1no7d6jO7UR1rypU6chtrT0ymGwVtbrme/7+PiQ36BBFDdOXONnvbXPI/N2QTnm8+4lVtHky1/A5LuCNeGV+2e2Y8eOp2LFi1u9pg+E9eiMadOJv6NxUg86dT+yHXw7yhU0utsi5SvX/DyD+5krJ/HphQX/iZMnUR5vbxPx39wfPruP6C4emusPVLmLixcvivusv9HlQmABTL/092H93NR+UITXVWvWUubMmaW4X7RwYeJVTUggAAIgAAIgAAIgYE4Awqs5kTB4zF/mc+fKLaPJ/vXiBV26dEn8GDtpU8AKyinqwquKyssijZfwg3pQ+II8edLgjzUofQfWhn+YFSxQkDyEwHxIiHZq6X9g7VxRzuJ2/nwFKEHCBMLXbACdOn2S2MetvcRLRDNlzERJkiYRwuQ9Onf+HJ0TLgi+9qR+BPIS0EYNfpBL8yqUr0hv3r6RPoFtuX9wBbdUSTNQeg9PevvuFR07v99hAdUVYzvbR4I4SShT6pwUVVjqHju/lx49s29haN6/HlTMmm9b8/rmx8tWrCBPz+xW/fSZ19WPlfCq57FLEn5Qw6mkp8HSSS/nfXYxkLtQWWFV/o5OCH+vtpbgm7cLzjFbPj5/8kB2wYG3OHgUJ//+LejcCcODKpkRCl7YjUKGbN7CBUNCenAvgG5cPkNPHtp/D3J22rrw2rF+PilO5shXUowZXwYjUy4CnO3XkfosEGcU58eC9MnDO+jRvZuONAt2HRbDk6fOSOmz5pEC3b2bVylAuB9gkVklcx+v7G6GVzaoB4HXr9v316n6Cc6WrSG983pT6jRpZOCi62I5+4mTJwL9HArOmKpt/Hjx6emzp/JhJz+wVJHb2b1R96QwbgAAQABJREFUd7HU3pWJHyDnEwG8okePQdu2bpFuiFzZf2jqi1lmEmJdXiFifiusyi9fvkynxXeL588+33uumK+7PnNZpM0rvh96Cj+vl4U7od27d7n0+6g9Ns5+H+7vN4Dq1a9v0qWjrgb0h8HmArRJhzgAARAAARAAARD46glAeP3qbwHHAFgTXh1riVogYCBg/iMQXFxPgK1mV444Rd9+G0EKtnW65nV6EH7YwNHBWVwaOGAAzZ4106E+VGAVvbK+9NKW8KrXd8e+78AZlCGrgVOnhgWl8MtL2CNFjOz0dHj5vy7cOd2BmxqYC69umkaoG9ZceGX/4uMnTDTOs06tmnRcBAz6GlKTps2oR8+e8lT9+gvLxTmzw9xpx40XN0hz5hUrvGQ+rCV85gZ+xfQAbqo2u0TI4Rm4j9chQ4dSteo15L1hHoxO9YUtCIAACIAACIAACDABCK+4DxwiAOHVIUyoZIcAfgTagROMIhZZ48VKSFlS56Ifq3WjZAlTyd5Gzu1Ga3bPDUbPrm3qTuHVM29xati6P+3ftlwsI59Dr148lcvSqzXqKIIpNZInysGZfutsWD7dd+wak6BbzpBoVS3wH+zO9BcSdSG8WqdsLrzq0d05QBUHqgpviR+g7NyxgyZMGC+DH/L5VapcmX4fMlQup2drQC8RJOqD8MEblhIHtmJ3QEFJW7dulf7ng9LWnW3wmetO+hgbBEAABEAABEAABD4TgPD6mQX27BCA8GoHDoocIoAfgQ5hcrpSfk8fGtx2pkm7K7fOUstB5cUS4dAjjrhTeNXdCTAotkzlpeYqcYClfm0rGn2Y9hu3VvoXVeXObCG8OkMrdNc1F17ZByQHgmJfmtWrVQ2XLmQuXblqvCh8npyUawXe792rJy1auJB3w1Rit0iLliwN0py3CZ/urVpY+gAPUmch2AifuSEIG0OBAAiAAAiAAAiAgB0CEF7twEHRZwJ+AwZSXRGcilPO7J4ywvDnUuyBQOAE2DciBx7bv38/NWnUMPAGqOEQgbxZv6ch7efIuq/fvqAjZ3fR4Gnt6P2Hfx1qH1KV3Cm8eqTLRi27jhRR7U0DFX388J5uB1wif7+W0gpWseCAX/FEEC5nE/d3/MDnwEHOtndXfSU0v3n9gjo1KOiuaYS6cc2F11A3wS8wofUbN8mAnexbViUWYB8+ekjt27YNUR/ranxXbNnvqE8pnyB1df78Bbp27bMgHaRO3NAIn7lugI4hQQAEQAAEQAAEQMAKAQivVqAgCwRAAARAwLUE3Cm86mcSK04CipcwKT16cJs48j0SCNgi8DUKr4pFzFixyMPDg169fEUBAddVNrYgAAIgAAIgAAIgAAIgAAJOEoDw6iQwVAcBEAABEHCeQGgRXp2fOVp8rQS+ZuH1a73mOG8QAAEQAAEQAAEQAAEQcDUBCK+uJor+QAAEQAAELAhAeLVAgoxQTgDCayi/QJgeCIAACIAACIAACIAACIQBAhBew8BFwhRBAARAIKwTgPAa1q/g1zd/CK9f3zXHGYMACIAACIAACIAACICAqwlAeHU1UfQHAiAAAiBgQQDCqwUSZIRyAhBeQ/kFwvRAAARAAARAAARAAARAIAwQgPAaBi4SpggCIAACYZ0AhNewfgW/vvlDeP36rjnOGARAAARAAARAAARAAARcTQDCq6uJoj8QAAEQAAELAhBeLZAgI5QTgPAayi8QpgcCIAACIAACIAACIAACYYAAhNcwcJEwxfBJAEJU+Lyu4f2sIEaF9yuM8wMBEAABEAABEAABEAABEAABEHAVAQivriKJfkDASQIQXp0EhuqhggCE11BxGTAJEAABEAABEAABEAABEAABEACBMEAAwmsYuEiYYvgkAOE1fF7X8H5WEF7D+xXG+YEACIAACIAACIAACIAACIAACLiKAIRXV5FEPyDgJAEIr04CQ/VQQQDCa6i4DJgECIAACIAACIAACIAACIAACIBAGCAA4TUMXCRMMXwSgPAaPq9reD8rCK/h/Qrj/EAABEAABEAABEAABEAABEAABFxFAMKrq0iiHxBwkgCEVyeBoXqoIADhNVRcBkwCBEAABEAABEAABEAABEAABEAgDBCA8BoGLhKmGD4JQHgNn9c1vJ8VhNfwfoVxfiAAAiAAAiAAAiAAAiAAAiAAAq4iAOHVVSTRDwg4SQDCq5PAUD1UEIDwGiouAyYBAiAAAiAAAiAAAiAAAiAAAiAQBghAeA0DFwlTDJsEZs+dRx4eHiaTnz9vLk2eNEnmQXg1QYODMEIAwivRyNFjKLtndtq5awcN6N/f5pX75ptvaP3GjRQxQiQaMKAf7dyx02ZdFIAACIBAeCTQpGkzatiwET18+IDq1a1j9xTHT5hIGTNmovXr19HwYX/YrasXrl2/gaJHj65n0R9Dfqd169aZ5OEABEAABEAABEAABNxBAMKrO6h/ZWMOGTqUEiRKRLt37qKZM6Z/NWd//OQpihYtmsn58o+JDu3ayTwlvJat2ZwyZMtLjx/cpvkTbIs4Jh19OlBtX714RtNHdLFWBXkhTKBCndaUPW9xi1FXzRtN547vs8gPaxlfu/BaqGAhmjF7trxsfkJ0nTvHsG/rOu7ctZuSJktGz589J++8uW1VCzf5Xl5e1LhpU3k+fXr3phd//RUuzm3c+AmUNGkSk3P5+N9/1PCHH+jNmzcm+ThwnECMGDFopvh7+uZ//zNpdPvOHWrbpo1JHg7CHoGoUaPSkaPHKGLEiLR//35q0qih3ZPg74vVqteg/8TfVrEiRej+/Xt266vCC5cuEz/o0pP/mNHkP2aMnoV9EAABEAABEAABEHALAQivbsFuOWi6dOmIv6A+fPjI4S+alr2ETE7ixEkoYcIE8sfmlStXAh307LnzFDFSJDp9+hTVqFYt0PrhpYISXllwGTN6lDyto8eO0vlz5+S+El77+K+mJMnT0Lu/31KHenmdOv0+/qtE27T04f17+qVWTqfauqvy//73DaVMl1UOf//Odfr7zSt3TeWLjNt16AJKld7Tou/V8/xpw1KDtbNFoYsyvosWnRInTU0sCN28csZFvZp287ULr3sPHKCECRLSu3/ekWeWLKZwrBxVr1GDfh8yVJaMHD6MJkyYYKVW+Mn6pW1bate+gzyhyhUr0IULF8LFyZ06c4a++y6KxbkUKVSIHjy4b5HvygxnP3NdOfaX7itZ8mS0Y+dui2Hevn1LOTyzWeS7MoOFumzZDGNcu3aNXr0KX59FrmQV1L7GjB1LZcuWk80rli9Hly5dsttVnLhx6OChI/Q/IcQfP36c6tSqabe+KuT32ahRooqHXEnpp5+by2wIr4oOtiAAAiAAAiAAAu4mAOHV3Vfg0/hnzp6nSJEj0dkzp6la1aqhZFbWp7Fq9RrKLAQHR4WHr114Dbh+nUqX8rGA+bUKr0lSpKU+Y1ZJHusXT6Q1C8ZasAnLGbkLl6O0mbzkKcSOm4C8CpSS+yEhvFZt2IHKVP9Jjte7VVl6fP+2y1F+zcJrhQoVpJsBhrpwwQLq07uXQ3xPnj5DUaJEoZAQkxya0BesFF6F1xYtW4oHjgkluXz5C1CGDBnkfkgIr85+5n7By+vyriNHikxdunU19lu1ajWKETNmiPyt8APv9Rs3ybHHCYFw9KiRxnlgJ/gEeOn/0eMnpIgaEBBApX1KOtTpwsVLKFeuXLJuyRLF6dbNWw6140r8d8luBzhBeJUY8AICIAACIAACIBAKCEB4DQUXgacA4TWUXAgXTkNZvEJ4NYUa3oVX/WxTpMlMPYYvkVkQXnUyYXOff9DzD3teBpsnlxe9fPnSoRPp2as3NW7SRNb1bd8uXPsdZFcMrT4tEW/X7hd6+uSpQ4zCUqUePXsS+63kBOHVtVdO/Y2FxEMKCK+uvXbmvel/J86872XPnp2WLl8hu9u0aaNTLicgvJpfBRyDAAiAAAiAAAiEBgIQXkPDVRBzgPAaSi6EC6cB4dU6TAiv1rm4IhcWr66gaL0Pdi/AbgY4HTx4kBo1+MF6RSu5vET9xKlT0gchL7XlJbdIYZeALihBeHXtdYTw6lqe7uzt6LHj0nqZXTjkypnDqans3L1H+FROSv/++y9lzZzJ4bYQXh1GhYogAAIgAAIgAAIhSADCawjC1ofKkSMH1axV25hVq3Zt+aOcA5Fs2GBYJqUKt23bYjUaNvvC6tixs6w2b+4cunz5Mvn4lJKBCTJnySyCuTyjrVu30vhxY+nDhw+yXqvWrSl+/Ph07OhRq1ZX3bp3l0EQtm7ZQgc+iQy8XKxrt+5qOlS+fHn5Zfrjx4+0ZPFiYz7vXL161SKAlu5qgAOR1Bf/S5b0kQFnePnZjOlTrZ6fScdh8CAowmuXZsWpbLVmlDVXEYoWIzbdunae9m1dSmeO7rFKwJ6P128jRKBqjToKFxYGv4Qr54ykN69emPTjmbc4FfKpTilSZ6YXzx7R+ZMHaMOyqVSkTC2KHScBXb90io4f2GLSJigH+YpVorRZDEsHY8SMSznzG5Yc3rlxia5dPGnS5eYV02wukc9VqAzlzFeSkqfOJO7TyHT35mU5v4M7DK4L9I4q129L0WPFpZMHt1Hh0rXII20Wuh1wkZZM/50iR45G1Rt3pMTCP+6921doxqju9FoEKFMpo6c3scuA//77SIsmD6YiZesIlwE+lDBxClH/uuxz96ZFqrrNrbMWr/ESJqPiFepT6vTZKZbg/82339LDezfoxuXTtHPDQnr+5IHFWJXq/UIxYseT+ekEY/b5y+n4/s3CZ+Ffcp9fPor3gIWTBxqP9R32u1uyciMZ5C1JinTix+47ee/t3riQrp4/rlclV7ka8EicjmqXaUnJE6amODHj08vXz+nB0zu05+h62ndyE/37/l+TcVOK+kVylaf/xL/FmydalGdNm4e8MhYULlD+piVbJxvbVi/5I8WMFoeOnN1JpQvUJK53IeAEzVw1jCJH+o4aVfSl9B6edOnGKfJf2IdevzX9G1Ed8Xunb8dO8rBXzx60eFHg11+15e2WbdspZcqUxO+bmTKk14tCzX7ceHGpS5dulClTRoonPif+/vsdPX36lA6IoDhzRQCkx08eW50rB8NJnz6dRdlYf/9AA0+VKFlCfBbWoSyZM9Ojx49p3969NFH4wa1br570JX7yxEliqzeV1GcnWx0PHjSIsgk/oDVr1qLcefLQu3fv6MSJE+TXvy/98+4f1cRkmyt3bqpTpw6lS5+e4sWLL+q9I/ZVflR8JnLwR/VZadLI7OBLC6/B/cxV083m6Um1xPeM7Nk9Ka441xs3btCRw4dNvhOounwNeXn3ScEvbbq0VLp0WXE9HhEvwT/65xEaMGCgZPzw0SMaKqLF/3nkiGpK8UXf7X195fGsmTMoSdJkVLduXcqaNStx/YMHD9BY/zE2r4mxI7HjjPDKPlrLlStHFStXoWQigF2cOLHF/fqMLl28IL5T7LD6HaeKcGWQR9wrnOLGjUulSpeW+xcvXqQTwqeoniZPnmhzmXu5cuXJp1QpypI1i3wf4QcqfJ+uWL5M78Jl+9988y1VKd6YcmcuQonjp5D9PnvxkC5cP0kbDyymOw+uW4xVscgPFDtGPPF+d5L+PLfLorxumdYU4dsIdPjcTroUcEqWF8jhQxlT5qTLN0+J9+a0VMK7Cj16do8WbBxHV26eoR+rdaVcYg4PntyimauHi3pnLPrljCRCNN0lxFNOe3bvoh+bGSzEZYYDLwMH/0a1xfdiTo0bNjB+Hw2sKYTXwAihHARAAARAAARAwB0EILy6g7oYs/OvXah5ixYOjb5t2zZq1cIQLEBvwD80Fyw0/Pgf9sdQIWg2kBYCeh3eX7JkCfXs3k1m6yKotUBXl65clfXWr19HHdq1k/v6cjyZYeflyZMnVCCft0kNNSYHlYobPx4lSpjIpJwPwmPQGWeF139FsJ43QiiLFdfgR1CHtH3NXCkY6nm8b0t4jRAxkvCjupISJPaQTVhQHdPvZ5PmtX7sTiUqWlrtsV/Q2PESEvdx6/oFGtyxpkm7oBz0HLmMkqfK6FDTmUIEPbRrjUndSFGikW+/KZQqQ3aTfHXA4u2oPs2IGarkv+Q4RYgQUR0at29fvyQWpZUgzQUsaHb/ySAG83GDNn5SkOb9i2cOU8Zspvc0518+e4RG9v5RirN8bC05I7yWq9WCWCy2lTiA2pRhnejkoW0mVWydp0mlTwetqlkGq0nikZ58/aZRDCFSW0vm954rhNeWtXpT7VK23/92/rmG/Ca3MplOLZ/m1Kp2H5lX69fc9OQvUxH618bDqFyhurK8RPPkxrbrx16m7yJFMR6rnadCtIgc8TuKFiWmyqKb969Qkz7Fjcf6zqIlS8nLy0tmORIkRm/L+9NnzaLChQrLbLaWZavZ0JTqCKHMT4hrHNTGWrJntaas08zbBRZcq1fv3tSocRPzZlLsSpQokfR7zp8bVSpXMtbRPztZFGzzyy/GMrXDAQ2LFikshOO3Kktudd+RJgWfDvjzq3atGjbFNtXmSwuvwf3M5Xn27deffmjQQE3ZZMvnWU+IzwEBn8W6NevWU8aMlu/R/KDg0aOHlChRYmMf78V7UeFCBYxuJAoUKECz5syV5RwQSf2dGBuIHR6zSsWKQoh9qGdb7DsjvCrfyRadfMrgB8yNGjUwEXxXrVlLmYXI70j6tXNnWrVyhUlVDoLK58oPAKwlPv9G4uEy+8B3VUoULzlN77uVonwX3WaX5X5JL8Y0vd/Ve9+Rszuo6+iGFm23Tzb4AF+xfbp86MQVRnVeStkz5Leo++HDe7rzKID4gZlK/HCsRuec9OrN5wd8qqxVq1bk28lgGDB1ymQh1g9RRQ5t+QF9v/5+su5i8YC/V4/PD//tdQDh1R4dlIEACIAACIAACLiLAIRXN5Ev/n1xatGilXF0tsLhH7z8Q/HsmbPGfN5ZKb74L1q40CSPD3ThlS1lY8aKJX0PslXSX8//EgJnQmmZunzZMurWtYtsr0TQ06dPkaPCK1vWjh8/0Th+NmE9wwEx2OKIf9joia1G+vU1iCMqX42pjnl+HOk6dcrUxBGNOf37zz+UXVguOWJtpPqxto0SIw7V7zPPWpHNvLN7V9PBVZ/Pz2ZFJwucFV5V9/+8e0tXhJVh1KjRKWV6T6MQMmdsb9q/zfRHoDXhNaKwcO0/djXFiZ9EdnlCWHxOGtJedS+3RYQFaP1WfeU+X8ebV8/Sq5fPKV3m3BRZLItWyVXCa4XarShzjgKy28hRoxlF2L+Ele3je7fUcHK7aNpv0tpSz/xt6jYhBhsE+3fib+TqhePiXnlP6bPmEZHGo8qqLJCO6v3ZqkYXJB/cDRCifxKKKO5blZ4+ukfRoseiyCISMqeezUsR53HShVc+ZsvX6xdP0T/CmjJdltxGQffw7nU0Y2RXrmI1OSO81mzWhUpWaiT/rtjK9cmDO9JCOXGKNEZePMhvnevI66UG/LnzcGkdy8cJknpQzNjxZdFNYS39ryY8vf/43oQPV4ourI+HTN8uLGsjyDZ8PdjKOWr0mJROBAhT+YuFlfAOIf5zCq7wmjNjARrRyeD3lq/hpZun6fy1YxQjWmzKmCqH/GG/+9h66jfR9GGTK4RXtnRly1ldwLh25wLFj5WIYkaPI8+vRicvevbykdzXX44Jy0u2ROTEFqssSDmTdLFu9qyZNHDAAGeaf9G6uisEHujevXt0TgiebCWdJm0aSpMmrbRc9cph/cEHC7Y5hF9GTgkTJxaWpAYLbHvCKwu9AwYOkm34PeiMCCzJqzTy5PWWgchkgXixJ7xyHb4OZ8+eobdv3hJ/jkYQD1U4sfUqW8TqSYl6bA17XYiON4UFKCe2DE2SxPB+yYJZDhHp3t711a/ll3A1ENzP3JGjxxAHguPE58FWwCyeembzlCtNOP/lixeUN09u43nqwit/f3gnrN7ZvYZKr1+/Ft8rnhvbjxwxnCaMHy+LdeFV1efvAnfv3JVWtLFix5LZfF8VE4K4vaSukSM+Xs+evyBX6PD3nwBxLW/dvEkxYkSX9xALpJzOnz1LVapUNg7Jwd8KFTLMIWq0aEYRlgXhWzduGuvxzoABfnROtNfTnn37jCI0z/HY0T/FCoH3lNfbm6KJ/jg564pE79/a/ky/nUbBk61Pz179k548f0ApEqehnJkKUaQIkalCu0z09u9XJs2DK7w+en5ffOa9pWRiVYJKz18+oacvHlGaZIbl/yPmdKW1eyy/c82eO4/y5zcIuM74d1XjZBHW0itXrZaHV69eoXJlyqgiu1sIr3bxoBAEQAAEQAAEQMBNBCC8ugm8+bBB8fGqC6/cHwua9cTSLF5OqFKlypWlkLN2jcGCUImgzgivqi+1dTbCshqT2/Pyv+Y//6S6ornz5pN3vnzyuFNHX1qz2vBF21jByZ04iVNS6/H7nGp16cgWWvJbU6faOFI5KMLr27evqXeLMvRaiKCcsuUuQq17jpfi64vnj6lr0+IyX72YC6/fRYsuRNe1RvGNl+DPGtNTVTduh87cLS0cWfAYP6iNcGWwW5ax4DZw4iaKEi2GPHaV8GocWOw46+O1hFgCX6up4cEBz2do1/r0/l/DMmK2XO03dh3FT2QQ8If1aGhcGq+E13u3r5Ff28qyzgBxbpzYqrd3q7JSYBw+Z7/MWzJ9CG1fM0fu68Iri67Dujc0ukSImyCJGHOtFHE/CuGwQ/18Jpa2soNPL84Ir+zaIK0QO1fPH0N/vzH9Ae1VoBQ17zJS9mouMOvjOevj1XfgDMqQNa/sYtua2bR0+lBjd7HjJaYBEzdIkZl5d2xQQJ5ncIXXtvUGULXvDX9vfSf+THuObTCOyTtsURU/diI6dsH07zi4wiuLFW2HVKV4QmRd8ofhgREvk20xsKwUYteNuSDnMXh6O9p6cLnJnPhAiTz8cCy7EOacTfxePHyE4Rpu2byZ2rT+/ODN2b5cXV+3LrO2LJiXkpcVLmbmzpkd6NAsbLVr30HWsye8Hjh0WAq0/B7UovlPRncz/ABxx46d8qEhd2JPeGXLy6rCGpaXeXNiVw6bt26T75f8eVjw02eLLBQvHYUF4+NHj+V5mAurw4ePoEpVqsiqgwYOoFkzZ6pmFtsvLbyaD+jMZ26qVKlpk3AVxA9yWSytWKEc3bl9x9jlkKFDpTsiztDFaSW86j41TwvxnR+yMqsswv0Eb9UDCF1cNBdehw/7gyZNNDzM/Fa4S9m4eYu8NjxmYMvGnRFeR40ZI9wdLRHuKfZw18bELgi279xlXAFUWFjkWrO01S2L2Xp69CjD36exI7MdDqjG154T35e1hHW0cmkRMWJE2rR5KyVPkVyW161T2+LBtCxw8iWysNbfIKz2ObHoWqer4f1adfOteGhWJn9N2nRwqXwYqfJ5Gxzh9Z/376hs67SyO35v5IdV/KCsdOvU8jvlsmEnpIsYa6sT5NgbNxHz5VSsaBG6d/eu3Hf0he+b8xcNf9fs8qLQJxE3sPYQXgMjhHIQAAEQAAEQAAF3EIDw6g7qVsYMrvDKP16LFysa6JdbJYK6Q3jlH20cYOHNmzdGArp4zNYzbEUTnBQlemyq/uskp7q4eGA9/blxllNtHKkcFOF1+azhtGXlDJPue41aTslSZpB5/dtWovvCx6hKuvDatVlxIbquoWgxDZZ7u4RPUGs+PXUxkK0if+tUS3Unt6WqNhX+Tw2+LEOD8Dpi7gEpBL8Xyxo7NihI/wqLYD2xn9rWPcbKrGP7Nsnl+HyghNej+zbS1GGdZfn45aelIHHqyE6aMPgXmTd2yQnpemDTsim0cu5omacLrxdPHxJuDH6U+eqlXsveVLRMHXm4bOYftHWV9ftHZ716nj9tWOrcvanG4+2I+YeEJWA0sibAq3rOCK98nwybZRAs2CK4X5uKqhvjtqnvEPIuarCcYzcHzDe4wutvbWdRPs+ScgwWEVhMcCQFV3jVl9NunXSTvhF+bdfvWygYGO6NjeOvSsuxcYv70bKtUy2mpNyw3L1zR77XWlQIJIMFme07dslavFKAhZnQktoKtzJt27WX03FEgLI3b0eEV92azdwikfv+6eefqUvXbnIYe8Lr6pUrqXNnw3uVmtPmLVspVerUUhDLljWzyg50GyNGDDp6/ISsF5gwHpqFV14Gz0Iop3p16wj/rH/KffWiWzezGMmiJCclvD54+ICKFCwo83bs3C1XpeguhDZs2kRp06YzsSTVhVe2pM2dy0u2Vy/65/zhQ4eowQ/1VZHF1hnh1aKxltG4SRPq2au3zOno24HUw2etihQG1wuBkJMj970KFsUrdHILf7jmrizYX/HESVNkfxs2rKf24iFEcJP+oIj9tHYZ9YPDXQZHeL314Co17l1MjjWlzxZKmzyz8Ot6m+p1N1ix+nddKf1lHzu/hzqPrGcxpz3CLzS7leLvphnTGwRYi0qBZCjhn78z5hQrrRxJEF4doYQ6IAACIAACIAACIU0AwmtIE7cxXnCF11MiYnbN6tVs9P45253Cq/6DTs2IlwOeOHVaHnJQiq5dDJaNqjwsb4MivP5SKyexL0896b4/Z4zuRod3rjUWK+GVf9ywlaSyVLVl6coNdTcDS2YMpe2rTa3YeDn+mEVH5RihQXhVYilbl7KLAQ4EpdL/6H9yVwXu4iX6fVsbhEIlvO7bupzmjjO4v1Aiq+4iwH/xMenPds/mJTR/Qn/Zny68TheuBI4IlwJ60q12D2xfSbP9e+nFxv2gCK+Jk6cm72IVKWGSlBQ7biIRdO9b2V+KtJml9Sn7qGXrU2vJGeE1hwhS1rKbQWh+8/oF3RGBxxRbxZUtqJXov2fTYpo/0S/YwmuLmj2pTmmDtSf/uB+/2I+OnttN7z/8a+2UjHnBFV7nrfenaSuHyP6UyLp06xQxvuGar/O/SFFE0LXZa0eJoDHDjOOqHSW8Bly/TqVL+ahsh7exReCfw0cMf1eOvl873HkwKxYpWoymTZ8ue2ELvnHj/GnhwgX0TAQqcjY5IrzqbgbYHQBbXuqJrSxZdOFkT3ht26aNSeAtrq+WONsTfAoVLkLFxIPKFB4pZYAltg7llDNnTrnlwJJsmWkrhWbhVV8KzyInW3+qpM7T0zO79J/LD0NVoDclvN66eYtKligumyiRVXcRsEos/84sloHzyppSQmjkpAuvHJizdauWMl9/Ud9x2Pr2++JF9SKTfWeFVz6/GjVqCHcR2cnDI4VwHxND9hc7dmxKlSqV3Ge3Huzewzw5a/F68fIV+eCOLa354Yk1tiwyc+LAoaV9DA+YzMd19lg9KPooVl8s2DBOLO2fK0TQz1bMtvoLjvCqVgNw30pkvXHvMjXt+70cbpjvAhlki4MSthxU3mIK+8W9x5byzIqtpYOS1HcoZ1YZQHgNCmm0AQEQAAEQAAEQ+NIEILx+acIO9q9+lJwVfu6qVa3qUCvdikT342qvsTuFV/Mf0GqeStDQA3qpsrC8VT8abAk1JT2jyNPr479aRKJPI/wpvqc2NQ0//PXz5iXoP3X6Q2bpVpmcoYRXvT7vmweL0str/9SDvq9gsDgaN7C10c2AXmf88lNShHO38KoLnPr8bO1zcLJODQvJYiW8bl87j5YIv7GcrImsoxYckX5tdTFWF14HC4vgW8IyWE/s4oBFXE4cZGtEr6Z6sXHfGeH1O+HT13fADPJIY99K7++/35BvPW/jGPqOM8KrXlfvw9b+ueP7yN+vRbCFV/alumToMYpoFviM/Qmu3zOf5m/wJw7aYp6CK7yy6MriKydrIuuqUWcoRtTYpIux+hwuXLoshRZ7Qab0+ub7xYp/T1OmGixpd+/aST/9+KN5Fbce79qz1+jnVE1E+rA8dox69exuslxdlVvbOiK89u7Thxo2aiybN//5R6ObAb0/xdv8c0MPrlW+bBm6cuWK3owmTZ5K35cwiEMZ0qU1KcsqfJxOEoF+dN+lJhU+HQRmlRmahVf1XcLaeVnLy5o5k/BR+q/R4lX3p6lcHOgiqwoyp4uxuvCquy/Qx+OHDvzwgd0f2PIVzPWdEV5ZwO/Zq5fw8234LNXH0/d//+03mj7N8Len5zsjvOp19T5s7bOf3Lx5ctkqdiq/Te1+VMPnJ5M2fwvfq5cCTtL4pX5ie8qkTB0ER3hVrlm4r2EdF1Eu4UtWF1kHtZlJBXL4kC7GqnF5yy4/lPDNK534fdPZpIRuDpbnnTe3Q80hvDqECZVAAARAAARAAARCmACE1xAGbms49WMpqMKrHujC1hic707hNTjuDeydk17GFj0JPJyzrngtfKe+/uux3o1L9p0VXtmPZtvalj/UsnuXoFbdx8g5KatDNUFdeGULr1cvnhmj09uyem3UdgAVKGGwjh7RuyldPnNEdWfchhbhNYtXIWrbZ5KcF4vJ504Y/LEaJ2q28/DuDdq03PAD2yi8iqBQS0RwKE5G4fWT9SbnBSa89hI+d588tLQumrDiDDen2zcu0qAONeS++Yszwmu/cWspUdJUsgu2eg64fJqePr5Hfwu/v5y8i1aUAvG7t2+EX9ngC6+N2g4U94HhIc+1Cyfo/p3PLizkgGYv7Af4+IEtwRZeudsEcZIIf8WjKEf6fMQ+CvXEvgWHzPClHUdW69kUXOF16oohUtTlTj8LryOFdetwOU5gwuupM2ekwGPPktJkwmYH+nL+pUuXUI9uhqX0ZtXcdsg+Fdv7+lLTZs2kX099InzO69etI98OBncEepn5viPC628iwnmNGjVlU152zkKneXJEeC3xfTG6feu2SVNbwisHRtt34KAxcBcviT91+jQ9uH9fCo/cCQt5nHh5Pi/Tt5VCs/CqxCq2Ely7dq2tU5D5Hz/+R3169ZS+W5XFKwvZLGhzUtatuvXmQuFTNZdYZm9LePUfM5r8he9V86QsIHmZftYsth8uOSq85smbl+bNXyAtUHksdgHCvn4fPX4sg8IlF4E72bKZ09Ahv9PUKVPkvv6ii6mBuRooXKQoTZ8xQzZ/8OA+7dmzR+/KYv9GQIDRz61FYRAy8mb9XrzvD6IkCTwsWp+/fpzaD61usWogOMLrmStHqN1Qw/cEo3WrEHpbDjasKBnYZgYVzFHKpvC6ZNlyypEjh5xrs6ZNae+e3RbztpfBgVfZ1QUn/hvnv3VHEoRXRyihDgiAAAiAAAiAQEgTgPAa0sRtjBdc4dXWDwvz4eyNoy+FtWd9qqxgOPqzZ5Ys5kNYHLtC7LXo1EZGWA6uxeJG6+qeFmdWuFRN+qF1P5lv7k9UF17ZB+eFkwfo92k7ZOAnbjBe+DE9fWSnbKteSlf7kao18pWHc8b2pv3bVqgi41aJiu62eI0WIzYNm71XzsueZalx4tqOq4TXUX2a0cXTh7WeiXgJ/si5B2Xe2eN7aayf5dJaLnRUeNUte58+uke9W5YVYsgHkzGHz91PUaPFJFcJrz5VGlONJr/KMczvK5OBzQ7MfbyyYKcvuf3w4YMUcsyaWT1kNwqZU3tR+cJ16fu8Veg7EUiGE1u8lm+b3iRYDFt8seUXp9pd8tBjYSGrp/4tp1CRXOVkVonmyY1FSnwIrvDKAYtSp04j+w1KJPtx4ydQqdKlZftuXbsQr1IIrSmbp6cIHFSbKlasaAxyxXNt2qSJRSAj83NwRHht3qIFseUqJxagWYg2T2olhD2LV2eE11atW5Nvx05ymDWrVlGnTh1NhtTd3oRl4VU98HPWMttVwuvixYupV4/uJmz5QM0rMOtFR4XXxUuXGV1DWPPh2qBBQ+rTr5+ch63vR84Ir/r3o8AsouWgNl74vZLfM1Vidw/8nuloYp+vBbL7UNUSTSlNskzGZrorFZWpHjBZ8w0b9bsYtHaMYSWH7v96VOellD1Dfgqu8Nq3X3/6oUEDORVHDQPUvHlbsVIlGjFylMzasX2HDMCnl9vah/BqiwzyQQAEQAAEQAAE3EkAwqs76WtjK0H0/PnzVKWSZZAbrapxV3c1YOuHhbHypx32p8o/MPWlg6pOoYKFaMbs2fLQrvD6ycdbYJYrql8Ir9Z9Qpq7GmBevVuVpcf3TS246rfsQ0XK1JY4eak3L/lWSQmvbCHJ/mE56cGm2Iq2248l6PXL56oJZctdhNr0miCPj+xZT9NHGAQQVSGjpzd18DP4XPwSwiv7MO3rv0YOt3nFNFoxe6Qa2up23NIT9I2winz66D71bO5jtY61TFcJr6vmjaGNSyebDKEz3Ll+AS2aMsikXB3ET5ycBkzYKA+tsVb19IBm5n58uQ773R298E9p3WVXeG3QnsrU+Fl269euCt27dVUNYbFNm9mLOg+eI/MP71pLM0Y5ZoFpLrwqS1A1wIkTJ6h2TesWwKqOre2cgXspWcJUsvhnv1J09bZBGOCM8oXqUufGBt+rLQeXt1heO7m3iKKdIqts+yWE1379/aj+Dz/I/jloDgfPcSYpYYvbcKAYPcigrX5YnMya9fPDrUEDB1osrbfV1lX54ydMJJ9SpWR38+fNo359+9jt2hHhVXe7sGb1aurU0fAgSHWcX0QwZ1+tnFwlvLIPW/ZlyylzxgwWYpePjw+Nn2iwrg9MeG3fwZfa/PKL7Kt1yxa0detWuf+lXpTlqSOfuSq4GAt6nuLeYTcCjiR1fwbX4vX48eNUp5bBmlmNGzFiRDp99px8QHPt2lUq++kBhCrXtytEwDR2CcEPItk3qC1RUrkuePzkMRXMl0/vQu4PHzGSKlWuLPdtfT9KkyYtbdy8WdaZPGkSDftjqEU/esa5CxeFn+0IdPfuXSpe1GBNq5c7sq9bgnJ9dueRwzObI00t6nCQQg5WyOlCwAlqPdj0u+PKEaeJXbvoLgJUJ5lS5aTxPQwW0V9CeM2VOzctXLRYDheUQGPdunenZj/+JNvbejijzkXfQnjVaWAfBEAABEAABEAgtBCA8BpKroT6EaFHDw5sakERXlXgDQ6gYh7xefqsWVS4UGE5rD3hdeq0aVS0WHFZL3u2bBaRfc3nHZLCK7saiJM4Nf1PCyhiPh/z4zfCzcDbV5+FSfPyoB4rCx9HfbzyOH/u2UDTRhisENW4w+fso6jRY8kfoh0bFqC/X79SRUYfr7rwyoU/dvyD8hQxWP/dvXmZBrQ3LBnksoiRo9CoeQekmMnCLAdq+ldYL6vEYhyLcpy+hPCq+0c9JaxxJwirXHtJX4I/uu/PdOHUAavVI0SMRHw+KrlKeH3y8C71amGwVFR9+w6cQRmy5pWHE35rR6cOb1dFFltlPWxPOC5Wvj7V/bmHbLt740JaMGmgST8NWvenQqUMYqY94bWQT3Vi/7ScZo3pSexuwlbi6zB6wZ/EW75/fPk+ePfWanWdrbnwqiJPq4YnT56kWjWqq0Ontl2bjKQyBWvJNs0HCP+dt84a27OPQfY1yGnc4n60bOtUY1nsGPFo6bDj9M2nwGtfQnjlZbMsmnBasmQJ9ezumFCtJqkEamfe4/eKIE+6P1IWKFmoDMlUq1YtGvTb73LI1UIU69zZYDVqaw6OCK/sk/OYEOhZxOLPotxeOYlXUKjEgg0LN5xcJbzOnD2HChYsKPusW6e2DI4kDz69bNm2nVKmTCmPAhNey5QpS/7jxsm6jjDRxwnKvjOfubql4by5c6l/v742h4wUOZLkzxVcJbyy4JvdM6uxX+67SdNmxO4ZOFkT2mXBp5dRwk1B+fKG5ey2/P9y1aPHjktrbBaWs2fLaiLQ8v11VAjALPhysiW8cvnZ8xdkne3i+rdsYXhoJTOsvOhW700bNaJ9+/dZqUUycBnf19bSshUriIObqeRM4CjVRm3ZanX16LPyfS/g7iVq1q+EKpLbmX47ySNxOnr77jVVaGvqgqnnT2OppHdVWe9LCK/cMbNlxnrANjmgAy+6QO3ogyruFsKrA3BRBQRAAARAAARAIMQJQHgNceTWB1y9dh1lymRYNjZn9iyaMnkK3b9/z3rlT7lBEV5nzZkrIxBzF+uE/zf22cdL39r80pbYB6FK9oTXLl270k8/N5dV2Sftr50707Vr12wuLw5J4VXNPzRsgyK8spXPAhE5fs/mJeK6fEsthW9XzzwGK60Lpw7S6L4GCxB1ftYsXrmMo9MPmb6DYsSOJ6uy39OVc0apZtTUd4jwGWr4cfvXs0c0278XPbp/i6rUb0sczEulLyG8ct9KFP1PRGmeP8GPjh3YTG9evVDDmmyTp85EPUcslXnvxRL0JdOGEIuTKqVK70mVf2hHmbLnozH9WhiFWTXG9mD6eOVxWMCc7d9biN8fqUz1n4gDU3F6LXzqdm5s3/JpyIydFDN2fFn/4pnDtHruaHrz+oUUiR8/uCPzdVcD74RvxslDOxgtm9ktBLuHUMme8JosZUbqNcqwhJ0DjU35ozNdvXDMRFhX/fC2Qu1WVLFeG5nF5zLh93Z09fxxecz3n1fB0lS+VnPheza10aI6uMLrH77ziQWDOWtH06Ez2+QDBR4rp1jeOqT9POnzlaN3l2qZUpbJyYgXttxiCy5Ob/9+Rc0HlqU7DwMoTowENKbrCqOlLJd/CeGV+1UPyJwVS6qLqOu/DzFY0zliWcdjcQop4ZWty6pUrUYLFywQnz2TjNa4LDZPFJ9F8eIZ3kd827ejdcLXq73kiPDK7YcPH0GVqlSRXT189JC6dekqBJob1EG4A6hQwfDexIWuEl47is+pli1byfGuX79GbVq1ktbDkYU1+TThu9Nbs5oMTHjlZeeHDhss0Dlq+wohps0QwZvYZ+qLv/4itsJ0ZXLmM5eFrj+FKBklShT597Ns2VLq27u30fI1ceIk1LZ9e6okVtawD1jla9hVwiufN/uErVq5kryP+HvKbPG9g+fFn2+FhDWzPT587UeOHiPxcSCusf7+tGO74cHWw4cPjEGalBUwV2Qxd8CA/sRuDFJ4pCAOABY/nuE9l8ttCa9cpr6fsGDcp3cv2rhxo7yGXGaeMgvXSuxqiRNbHw8aNJDYClyl7NmzU4dOnahggYL0YxPhlsOKMOus8JpSCKdsmbp273xauGECPXv5SA7HLgfa1RtodK+yatdsGj3P8PBOzad38/H0fZ7K8nD5tmk0dlFfuWqiSvHGsq2q96WEV/2BgbVAeGp8822cuHHo4KEjcq7OrALjfiC8mtPEMQiAAAiAAAiAQGggAOE1NFwFMQd9mb/5lLYK34KtW7U0z6agCK9ZsmallcJVgEr8Q4gTW4rykjf+scbJnvDKrgqOHBVRycUPKfPEP6jMl/2pHzYhEVzLfD7uPA6K8Krm+/HDe2G1+628LpzHFon92la0cENgS3jlNrykv8+YVaKPb+QP3mHdG9C1iye5SPoo9Ru33hiIS2Z+emFxk33QcbsvJbzq7hP0sXl/+siudGS3qbhTr0UvKlq2rrEq37ds3cqWmHzvqqRbxLpKeOWxeAzD3wrvf6OGI2tuAYyFn3Zy5vehFl0/i96qnPvTffr2GrWckqXMoIrlNf9GXgfD2B+FH0C2TrUnvHLj/uPXUcIkBss9Y2efdlpVy2aeRb1Hr6CkHumN+Swu8/3GbFXivNbVDVZawRVeWUTgZa4qsYgaOXJUo7Uq58/f4E/sk9U8De+4mLwyGawWuYx9wUaMYHgf4ijfykfslxJe2Uco+wrlxEvuddFFZtp42b5jFyVPkVw+nMopxBkWbh1JKiCRqmvNl6UqC85Wd6PA/bCoJG50k/d4FkcLFyhgMYzua9Oi0Cxj2tQpNOR3g/VsjBgxZORzJerqVXl8vtf5oaCrhFf+3Dokgmax0KoSWyWy1ScntrhVZYEJr1x/yNChVK16Dd41SXrQKZOCYBw4+5nLFrmjhWCp+17mc40Q0cBUTUUP8uZK4VX1z9ao+vcEa751VV19u3PXbkqaLJmeJfd1a1kWyufOm29SR7+e+vcZe8Kr34CBVLdePZN+1IE1C3PzvxV+H/9HfBZFMvsssmUR66zwmjZ5ZprSZ4uaknzPey8CEEb5LroxjwMSNuhRyMLvdfKEaWj2wN3GevxAixOvDHj55jnFiBpbHn8p4VUXQffu20vNGjeW4wX2ogffc9aVhz6mrUBvgY2PchAAARAAARAAARBwNQEIr64mGoz+2O9d519/pfTp05v8YLIlvHp5eUnLDh7y999+o+nC4saR1LpNG2IfdbpgxYE4qletKn4IG3zVKWtYW/2xb7RewjokX/4CJj+srAmvyn+trSXIKohKYGPamktozXdUeFXCFwtqe7YsoZKVGplcG7aOHNq1Pj24E2BxqkqsM3c1oCrqgbS4n04NPotWLKy16zuJUmfIIUU2/gH5/Ml9ISb2oPZ9p0jhg60fh/VoqLpz2ZbFy6oN21OR0rXpu6jRTMRMa8IrD8x+VZt1GiYeDkSzmAeLxQGXTtHUYZ2JLXg5KeF16+pZtGzGHzJvzKKj0l+qvpx/1PzDFDmKEGV2raGZo7rLerxcn5ftc+Il+w3b9JeuGWSGeGHe7BLi+IHPP4hVmbVtdu8S1KBVX4oeK47xXM2F12gx44jrMZk80mQ26YLPbc643sLytKWwPE0lRLs35FvP26SOfsAByRq1HUgZPfMJUek7k3vJmvDKbSvUaU3lajaX11zvi/ffvn0tA7TNEII4J3PhVS2hl4XiJTAfr40q+lKtUj9TtCgxVRPjlgWEBRvG0aw1I4x5+g67FBjdZTmlSJTWmM1iwtKtU2R/FQrXIz72aeFhLFfBtSYvG0wLN42X+evGXJDCBY+jxlL+EBdvmUQTlwwwttd3WJjjJfIRI0UijmzOQbYCS/rDrp07dlDzn02t1m2154cf7FNSvU+ziJVbvOc7Ktra6tdaPvvC7NOnH8WKHcuimO/TQ4cOUbu2baRFoXkF3fLQvMz8mFdzDPDzM2az6Dl9+kwRJMlLCqA81v3798Uqik40Y+Ys+dly7OhRYtcAKumWq8WEn817wt+mniZMmkwlS5aUD0oypk+nF0n3BRMmTCK2qNMTW6nWFFbJ64W1I7s/cDR4UqfOv1KDhg0pWrTP70nB8f+pz8l835nPXG7LQv+MmbON7hP0/pjz1atXaZC4Fsoqc9WatZQ5c2a6ePEiVapQXlZfKYKQZcmajXR3OQsWLpIPfe/euUPFixWV9QoIQZ5X03CaOmWyEDLrU/Ton4VBzje/9pxnK/Hf2URheZ3H29sohnNdc7cODRo2ou7CWpv/HvXE5zDAr79RmLX3/YjF6Y6dOlO9evUompizLlZbE155HP6uNnLUKItz5DJ+aMDfdTqIFUT8sMI86UvouSwwH69s2Tqs40JKkTitycMp1S/7b/19RgdiVwPWUqWiDaj9D4NN2j578ZhaCT/ZC38/LJsoa1g+UA+3Tl06SB2G1ZTlvEohd+aiJn5k/VpNpcJeZenanQv0U38fWc/ai3LPwBbFuXLmMFrTW6vLecz/1Omz8v3g2dNnlM87j62qVvMhvFrFgkwQAAEQAAEQAAE3E4Dw6uYL4K7healk4cJFKFGixNK61fzHq7vmFZ7GVcKrfk4rli+jrl26yCwVXEsv53229MqRryTFjpdI+g41D7ZlXt8Vx+yS4NVfz4RY8VEKg+OXn5LdHti+Qi6xd8UYruqDhcUM2fJS0hTp6Mmju3Q74CLdvm7w0+eqMXTh1feH/PT3m1eUXoyZRojU7C6ARd4vlRIk8aCM2bylIH3y8A56dO/mlxrKot/4iZIJtt4UK05CenAvgG5cPkNPHt4xqWcuvJoUOnEQP3ZiSpU0IyWOl1z6ILx5/wpdv3OR3n/4N9BeePlt1rR56PajABl9++PHD4G2cVWFtu3aG92ycBAhDiZkL80RVnn5hHUeL0nPn8/b5jJm8z70YE9cFpi/TvP2QTnmz4U8ufNQylSphdX7N0KEuyREpONWBdeg9G+vDS8Nf/rsqbQKZvHlwqXLsjovle8u3Nu4MrELBa9cuen1q5e0ZeuWEDk/V87fmb5Y3M4tzjVnzpz014sXdOnSJTp16qSJD1Zn+rNWVxdeefn9LOG6gYVin1I+YryLtG/vPqOrA2vtg5PHIm1e8fflKfy8Xr5yhXbv3uXSc7M3N/57yeedn9JnSE937tylCxfOSwtte22CWvatCDCZPkU2ShI/BcWMFofuPLoh3i8v0JO/HgTaJbt24ffLuLES0OHTO4zuCgJt6IIK+oMnR8R33R+wM9auyp+sPmVYvOo0sA8CIAACIAACIOBOAhBe3UkfY4drAir4h36S+lJJW8KrXt8d+yUqN6JaTQ3i8MIpg2nX+vkUSViZRor4eYmuo/NiIff1y+eOVg819awJr6Fmcm6eiKuEVzefRrCG/1O4WokZKxYdEMGvGjdsYLMvtlplQYCFxJkzptPgQYNs1jUvGDlqNFWoWFFmsxWdl1eOEBOUzOcS0se6+OLXX1guzpkd0lMI9nhx48UNUh+8+sRWYKYgdRgCjawJryEwLIYIIwRmzJpNhcTqgJdC+M+dyxC409bUd+zcTcmSJ5MPCCqWL2ermkU+P6jRrZW5wsgRw2nCeMMqB4sGyAABEAABEAABEACBECQA4TUEYWMoENAJuFt4HTH3AJ0+ups2Lp1M925dlVPLKwJuNW47SFrd/iMi3PvWzy8s0D5Q37FrKHGy1Pr0Hd63tbzd4Q7cUBHCq23oEF5ts3FlyZ79+ylRwkSyS16+PXSIpc9bV47njr744RS7X5gwYbwMdMVzYLcHHIiMfYOyWwUvYZ36Qfg3DkuJLWp5SXlQ0lbh7oct/cJSgvAalq4W5goCIAACIAACIAACIBDSBCC8hjRxjAcCnwi4W3idsOKM8Vqwzz9Oyp8k78+f0J/2bF7Cu9Rv3FrpX1QeOPkC4dVJYKG8OoTXkLlA7Bs7YqSI0idiHmElFtbER0coKf/eXNfae1DvXj1p0cKFjnQVquro/tedndi2bduoVYvmzjZza30Ir27Fj8FBAARAAARAAARAAARCOQEIr6H8AmF64ZeAu4XXPv6rKGHilCYBlVj8eCGCU00Z1ok4sJZKqdJ7UrxEydWhw9uPH947HIDK4U5DoGL9ln2oSBlDQJ/29fPRPyLAFJKBAIRX3AmuIrB+4yYZ/ImtW1Xi9yAOStS+bVviwFphMbHfUfZvGpR0XrimuHbNsAIhKO3d0SZP3rw0f4FBIA+rriHcwQ1jggAIgAAIgAAIgAAIfB0EILx+HdcZZxkKCbhbeFVIokaPSfETe9C7t6/owZ0AlY0tCFglAOHVKhZkBoMA+8v18PCgVy9fUUDA9WD0hKYgAAIgAAIgAAIgAAIgAAIgELoIQHgNXdcDs/mKCIQW4fUrQo5TdQEBCK8ugIguQAAEQAAEQAAEQAAEQAAEQAAEvgoCEF6/isuMkwyNBCC8hsargjkFRgDCa2CEUA4CIAACIAACIAACIAACIAACIAACBgIQXnEngICbCEB4dRN4DBssAhBeg4UPjUEABEAABEAABEAABEAABEAABL4iAhBev6KLjVMNXQQgvIau64HZOEYAwqtjnFALBEAABEAABEAABEAABEAABEAABCC84h4AATcRgPDqJvAYNlgEILwGCx8agwAIgAAIgAAIgAAIgAAIgAAIfEUEILx+RRcbpxq6CEB4DV3XA7NxjACEV8c4oRYIgAAIgAAIgAAIgAAIgAAIgAAIQHjFPQACIAACIAACIAACIAACIAACIAACIAACIAACIAACLiYA4dXFQNEdCIAACIAACIAACIAACIAACIAACIAACIAACIAACEB4xT0AAiAAAiAAAiAAAiAAAiAAAiAAAiAAAiAAAiAAAi4mAOHVxUDRHQiAAAiAAAiAAAiAAAiAAAiAAAiAAAiAAAiAAAhAeMU9AAIgAAIgAAIgAAIgAAIgAAIgAAIgAAIgAAIgAAIuJurjk4cAAAQhSURBVADh1cVA0R0IgAAIgAAIgAAIgAAIgAAIgAAIgAAIgAAIgAAIQHjFPQACIAACIAACIAACIAACIAACIAACIAACIAACIAACLiYA4dXFQNEdCIAACIAACIAACIAACIAACIAACIAACIAACIAACEB4xT0AAiAAAiAAAiAAAiAAAiAAAiAAAiAAAiAAAiAAAi4mAOHVxUDRHQiAAAiAAAiAAAiAAAiAAAiAAAiAAAiAAAiAAAhAeMU9AAIgAAIgAAIgAAIgAAIgAAIgAAIgAAIgAAIgAAIuJgDh1cVA0R0IgAAIgAAIgAAIgAAIgAAIgAAIgAAIgAAIgAAIQHjFPQACIAACIAACIAACIAACIAACIAACIAACIAACIAACLiYA4dXFQNEdCIAACIAACIAACIAACIAACIAACIAACIAACIAACEB4xT0AAiAAAiAAAiAAAiAAAiAAAiAAAiAAAiAAAiAAAi4mAOHVxUDRHQiAAAiAAAiAAAiAAAiAAAiAAAiAAAiAAAiAAAhAeMU9AAIgAAIgAAIgAAIgAAIgAAIgAAIgAAIgAAIgAAIuJgDh1cVA0R0IgAAIgAAIgAAIgAAIgAAIgAAIgAAIgAAIgAAIQHjFPQACIAACIAACIAACIAACIAACIAACIAACIAACIAACLiYA4dXFQNEdCIAACIAACIAACIAACIAACIAACIAACIAACIAACEB4xT0AAiAAAiAAAiAAAiAAAiAAAiAAAiAAAiAAAiAAAi4mAOHVxUDRHQiAAAiAAAiAAAiAAAiAAAiAAAiAAAiAAAiAAAhAeMU9AAIgAAIgAAIgAAIgAAIgAAIgAAIgAAIgAAIgAAIuJgDh1cVA0R0IgAAIgAAIgAAIgAAIgAAIgAAIgAAIgAAIgAAIQHjFPQACIAACIAACIAACIAACIAACIAACIAACIAACIAACLiYA4dXFQNEdCIAACIAACIAACIAACIAACIAACIAACIAACIAACEB4xT0AAiAAAiAAAiAAAiAAAiAAAiAAAiAAAiAAAiAAAi4mAOHVxUDRHQiAAAiAAAiAAAiAAAiAAAiAAAiAAAiAAAiAAAhAeMU9AAIgAAIgAAIgAAIgAAIgAAIgAAIgAAIgAAIgAAIuJgDh1cVA0R0IgAAIgAAIgAAIgAAIgAAIgAAIgAAIgAAIgAAIQHjFPQACIAACIAACIAACIAACIAACIAACIAACIAACIAACLiYA4dXFQNEdCIAACIAACIAACIAACIAACIAACIAACIAACIAACEB4xT0AAiAAAiAAAiAAAiAAAiAAAiAAAiAAAiAAAiAAAi4mAOHVxUDRHQiAAAiAAAiAAAiAAAiAAAiAAAiAAAiAAAiAAAhAeMU9AAIgAAIgAAIgAAIgAAIgAAIgAAIgAAIgAAIgAAIuJvB/AAAA//9/ua5EAABAAElEQVTsXQWYFEcTreBOcLfg7u7u7u7BghMguBMgBAtOkASCJri7u7s7BHeX/+/Xez3Xuzt7t7u3p6n6vrvpaZ83vT0zr6urvokaI+7/iIURYAQYAUaAEWAEGAFGgBFgBBgBRoARYAQYAUaAEWAEGAFGwGMIfMPEq8ew5IoYAUaAEWAEGAFGgBFgBBgBRoARYAQYAUaAEWAEGAFGgBGQCDDxygOBEWAEGAFGgBFgBBgBRoARYAQYAUaAEWAEGAFGgBFgBBgBDyPAxKuHAeXqGAFGgBFgBBgBRoARYAQYAUaAEWAEGAFGgBFgBBgBRoARYOKVxwAjwAgwAowAI8AIMAKMACPACDACjAAjwAgwAowAI8AIMAIeRoCJVw8DytUxAowAI8AIMAKMACPACDACjAAjwAgwAowAI8AIMAKMACPAxCuPAUaAEWAEGAFGgBFgBBgBRoARYAQYAUaAEWAEGAFGgBFgBDyMABOvHgaUq2MEGAFGgBFgBBgBRoARYAQYAUaAEWAEGAFGgBFgBBgBRoCJVx4DjAAjwAgwAowAI8AIMAKMACPACDACjAAjwAgwAowAI8AIeBgBJl49DChXxwgwAowAI8AIMAKMACPACDACjAAjwAgwAowAI8AIMAKMABOvPAYYAUaAEWAEGAFGgBFgBBgBRoARYAQYAUaAEWAEGAFGgBHwMAJMvHoYUK6OEWAEGAFGgBFgBBgBRoARYAQYAUaAEWAEGAFGgBFgBBgBJl55DDACjAAjwAgwAowAI8AIMAKMACPACDACjAAjwAgwAowAI+BhBJh49TCgXB0jwAgwAp5CIGzYsLTsn+UUJXIUGjduLK1ZvdpTVXM9jAAjwAgwAowAI8AI+AsCOXPlotGjf6HPXz5R7Vq16OWLF/7SDlfKCDACjAAjwAgEBwSYeA0Od4n7aIVA1WrVKU/evJQwQXz63zffyLQunTrxS50VSiHrZFTDbJQ0diSri/r69X/Uatohevfpi1V8SDoZMnQY1atfX15SkUKF6N9/77t8efnz56fWbdvKcvw7cQ2+YsWLUZNmzemb//2P2n7fhj58/OBaBVruCBEi0shRowhT1l8LFtChgwe11MANRo0aleb+8QeF8ppPVW/u3L1LHTt0UKd8ZAQcItBRPINLlChhlz527K+0Z/cuu3iOYAR0BFq1bk0F8Iy7f5/69O6tJwVaGPN1vPjxad+ePTRr5kyP9KNRpyEULmIk+vTxPf05rp9RZ+mazSlJqozyfNUf4+nx/TtGmjOB8vXaUJa8xejZ439pxvCuzhTxNU+m3EUpT4nKMt/RXevp5P6tMhwzTkKq1qKbDN+5fp42LfndtC48806cOkWhQoWiXTt3UKuWLU3zcWTAIFCufEWKHCUqXbp4nk6fOumnRtNnzEgpkn9Hr1+/Fvd2u5/q8nThnLlyU/IUKemN6NuG9Wv8VH3BQkUpevRodOvmTTpz5pSf6goqhT05DvRrypY9B6VMlYZevnxBmzeu15P8FK5UpTrFiBHDqo7/iXfyxX/Np0+fP1nF84nzCCRNmoyKFi9pV+D8uTN05PAhu3hPRPjX2PNE3wKqDiZeAwrpENRO/PgJKG7cOPT27Vu6cuVKgF1ZuPDhaOu27RQvXny7NsuVKUPXrl21iw+pEWt7F6VEMSO6dHmX7r2mOuP3uFQmqGS+OK4iRY0Y1q47mX9cR09efbSL92RE7GjhKVbkcPTm4xe68+StJ6v2sa6YsWLSvv0H5UfLubNnqFrVqj7md5TYuUtX6vDDDzK5QrmyHv/NgrRLkSIFfRUvQmdOn3bUjWAZ369/f2rStJnsewGx2PP4yWO3ryNBwoS0c9duWf73WTNp1M8/u12XpwsmSpyItu+wJ8fevXtHWTNn8nRz/8n6QD5kymTB8tq1a/KDNSQBAc38LFmy2F3SuF/H0tQpU+ziPRkRkucgT+IUkHW5ek9Wrl5D6dOnl4tbmTNkCMiuOmzr9LlzFD5ceDovjlWrWAhIh5mdTJi3+45YfLMoDDQplMgoNe6fwxQrbkJ5PmVgOzqwdZWR5kxgyKz1lDxdFkHofqSWJVI4U8TXPG37T6QCZWvKfId3rqVJfb+X4ewFS1PXUXNl+PmTB9Spag4ZNvs3fcYsKl6iuEzyj/cPszYRFzduXMqZKy+9eeNNDKZLn0G8q6SkO7dv0unTfifRmjZvRXFEO0rev39Pjx89kgvkN65fI/wFJek3YCiFCRuGLl44TwsX/OGnrjVs3JRSp0lHHz99ohFDBvipLk8XbtG6LYFU+vzpMw0b0t9P1f/UdyCFjxCBbt64TnN+n+GnuvyrMN4tOnf9kUKHCS2b2LVjm1jYP+CwOU+OA72Rxk1bCOI1NX0Uc9CIoQP1JD+F1T2wrWTMz8PE7/uNbXSQOA8XLhx9++23BIL4kZgTXJFvBckcTux2fCM4Fiwe+JfkyZuPKlSy/668dPEC/TV/nr80619jz18660+VMvHqT8CG5GpXrlpN6cWLMbS/AvIFGdoHNWvWktB+/vxZEK3X5KSLia1tm9b0/NnzkAy71bVdHl+JIkcIYxXn2wkIShCVwVHqF0xGcaOHl10vliEe5U0VS4YDgnhd0qUQFUoXm968/0ypu/ht9dwV7Cf+9huVK1deFmnUsIHbGpL+Tbx27/EjtfHSqC1ZohjdvnXblcsM0nn/K8QryIWevXsZ96Ka2FUQNVo0YuLVgMTPgVSpUtG6DRtlPZPFb3vC+HF+rjMoVVCxYkXKkTOn7FLcePGobNlyMhwQxGtInoOC0j12pS+u3hMmXkMm8ZosWTLavHWbHDrHjx+nurUt7/CujCV38latXpOy58glvgue0fhfR8squnTrSSA1jh87QiuX/+1OtVZlfuzVV2iQRrGK00+uC2WQJYsWyOeoHh9YYU+SHky8BtZdtG83bbr0VL9hEyPh0aOHNHmi4/cLT44Do1ER8C/iNYf4HUcRCh6QlKlTU7JkloWloEy85itQiKDdCfl1zM9SC1ieOPGvT//BBOL26pXL9Oe82U6UcC9LzFixhTJAZqNw8ZKl5aIgE68GJP4SYOLVX2AN2ZUGFvG6c/ceSpAgAX39+pUypEsrjyEbacdX16tKBkrwbQSrDJmTfUvpE0WTcWduv6Bz4k+X649f04R1l/SoYBnuUDYN9a1u0YgJqcQrVrBPnzlLYcXD96F4iSokzAW4K0y8uosckSeJ1yjiA23adIvGxKxZM2jH9h3ud8yfS65Zt57SpEnDxKsHcQ7pxKsOVQaxDXXFSovGHhOvOjL/nTATr+b3+r+m8QoUsOCE+Q9KErlyZKdXr16Zg+PB2K7de1F0oXF27OhhWrXiHwobJiz1HThEtrBAaHNdFlpdfhVFvOK6Dh/cL9qLSbFix6KYMWPJnUqo/8uXLzR+7KgAuWbfrseThBvIsFRp09Krl69o/VrXtLN966df0z2p8VpWkGcYR9evXqXDhxxrkfq1z34pX7d+I6EMZTFTouqBxik0T83Ek+NAr9+/iFe9jUKFi1KpMpZFXSZedWT8HlbjgolXv2PpUw1MvPqEDqeZIhBYxOupM2cINqNuCls7pUuWMO3bfzmyVcnvaEhty1bPngtO0PzdN0IkHP8F4hXb20H6QYYPG0rz5s6VYXf+MfHqDmqWMp4kXt3vRcCXZOLV85gz8ep5TFWNrpJ8qhwf/Q8BV+8Ja7yGTI1XjDDYSp8x02IHdu6c2TRi+HD/G3iiZiuS9U9Bsl66QDAzUK9BY9nu0EH9JCHq104o4tV2SzucoTZs3IwSJLKYkjh/7iwtXjjfr835ubwiVjxhasDPnfHHCjxJvPpjNz1WdZ8Bwm602Jr+6tVLihrVonyzSmh0HxOa3WbiX+OAiVdvtIODxqt3by0hNS6YeLVFxrPnTLx6Fk+3a4P90pYtW1HWrNmFjZSUFCZ0GLp7944wDL6e5s//02G9tWrVphIlS8rVZGS6eOkibdywwVfv5xmFennHjp0ocZLEYjUvurQj8uDBQ1F2Pf29dJmVExloavXq/ZPRhwoVKshtqNA8XbpkiRGPwFWxKogXK09I1qxZqVbtOkZVtevUkavI8Iy6XuCiy8gRw6XNWRUHsil27Nh06NBB2rplCzVo2JBKlixFCcWL0I0bN2jO7FlBWuNMXYcrR3eIV5gaq50/KeUTW/czJfmW3gtHVceuP6Ml+27SubsvrZpPmyAqVcmVmJ69/UA3H72ldqVTUehQ39CCPTdpyf5b1LzYd1QrXxL6+Pkrzd1xjVYeuWtVHvmjRAhL+y8/ohuifMOCyalYxjiiza+07+JjSRTff/7OqozZiavEawahBVwjbxKpDZwwRiR69/EzQSP4yPWn9PeB2/RFOOnSJWK40PSD0KpV0rCwMHMQLYLwzPuVJm24rKLl8fqj17RM1GEmqeNHkXjlShlTaCdHpAv3XtLBy0/oj13X7dq0Lb9k2d+ULVs2GZ0pY3r6+MF85VovFylSJIKDm9x58lLsWLHolLBhtvivhZQrTx4fbbzCvmfjxk1Ee9kpTpy4FDp0KLoufiOwgbbgz/n04MG/ejMyrH5fOIHnYpBKkA1i/njx3FvTGiZBBg+yt/WELcl169alVGLbUCyx3eXjhw/S9uzRo0fl/AEtkaAgtsRr6bJlqKww/wCbttevX6ft27b6SIoDm5JifraVNWvW0LmzZ22j5TmcB+YS5R4+fECTJk4knJcvX0FoNKQXcQ9p86aNNGP6dNOynop0h3h191mEPrvz/AsdWvxOxTMsf4ECFF9sbYc8f/6Mzp47T/P//EPaZZSRgfhP3Ut0IWbMmFRa2CKHXLx4kU6Ibbe6zJgxzaGZDtz/UqVLU4aMGYTNyQh06dIl2rhxAy3/x3q7LOxq9uxlcUy0Yd066tCxI8Em+/4D+2lAv77CdEk5ai7eM2LGiEl79uymAf29nfugL/UbNKAMQnPmzp3btGD+fGFCpB0VKVxYPO+jCw38U7Rk4SLau2+v3m3TsKsar4ExB6HjscXc07R5c8qWPbuwCZiUHj9+JJzOnKYpwhQEdho4kuAw9rp07Sbm1li0adMmqlevHmUUWsgXLlyk4cOHUORIkcU46UXfpUwltzP26NGdnj19Zne52HnRvEVLyiOeKanFXP1BOIQ6J3ZiLPhrgdAkPGqX3y/PBVvi1Z15z905CMRg7dp15dh//vwp7dy5i6ZNnUqHjx0NcjZeEyVPTeXrt6VUmXLJbaHnj++n9QunUodBU3208Zo6c24qXqUBJUqelqLFjC1swX6gu9cv0eXTh2nDkpn01eSZ6wkbr2qQXLh0Wb6/wxQRTBJ5WkCsRhROyyCY8/LmLyDDa1YtFyTrV2EGJRclEXY/YZN0/RqLhiZsvbpqf1FW6vXPEfGKZNjx/anfILllGOcwdwCzB7YSMWJEypo9p5x/4sSNJ96fnov59xYdEnM2/GjoAru1GTNlpbfv3oi6nlKBgkXoG/EbPXbkkHieHBNOh/NTVvEe9/nLZzp84ICdMyhFrIB4XbdmJWXPmVv8rtPI3YM3hA3To6Iesz6qPsAmZJgwYdWpPMIcEUw3OJI8+QrI+eb27Vt08/o1ypQlK6VJm45ix4kj3i3vi+s8IBxX3XBUXCrbFCpSlBIkTCSdXH368IleCo3pa9cu06kTx03NOPhEvGJOK1CwMIUNG062uXfvLvn+qTqA+wETFbbyQDj9u3ot4Hya2Lbv6DxhosT0fdsOMhn3tGz5SuIdPrS0Lzx39kzTYn4dBzDXkTNXHkqePIX8TV++fEmMwcME8x6+2Xh1Zbybdd4ZjVds04dTNAgcyRUqXIy+jRmDroj3pu3bNlOK71KK98aC0tEcfgs7tm0xa4qwgJIzd27BkySlaNG/lb+NO2IcHzl80HTcqbGOylKkTCntDCN8SGjDv3vr/W37v/99FfzDViRJUb9rdV64aDGJK4j0Y0esf1tXr152+HuJI35TmB+SiHeZaNGjy2+3W+JbDv0FX+ObqHHhCvGa8rtUlFr8nhMlTizsR4el+/fv0cXzZ4UdafMdBaoNd+cg364hOKQz8RoE7lJh8VCZJF70QZyYCRy6wLGLLsi74K+/xI/M2z6Hng6P2S1aNDMlbMb88ov8mNfz6+ED4kHYpFFDI0rX1DEiHQSePHlC+fPmcZDqWnSPH3vS923aOFXI1rkWPr6xTRtOEWKKrT/xxAuNrYwb+wtNFS/XIUVcJV6TxYlMS7sUpMSxzMfdyBXnBNF4yYCnXZnU1L+G9XYWlXjg8mPKlzq2OpXHhpP20/azD4y4W5OriAWFUHTq5nNKI8jQCGFCGWkIvBeEbc1fdtPxG/Yvp3pGV4jXue3yUZms8fXiVmE4y6o6ZjfphG+S2JHo4DALQWKV2eQE5fP03WSX0q1SWupRKb1dPCJQpvrY3XT3qfeD2DbjydNnxEdEROkoI6Mg3HwT2FH7Z/kKuSBimxcEaubMFk1oW+cW7YXHenygO5JP4iOlc6eOtGXzZqss6vdlFengJI1YSNJl0ZKllCNHDj3KKow5pE7tmg5JKKvM/nyiE6+YF/Ply2fX4tkzp0V/axOwspVffhlLVapVs40mn5xr6QTEbkEAgHCzlf3791PTxo1soz127grx6pdnETrszvMPz6Tlq1ZJUsTRRefIljXQHVipe+moj3r8jz160MoVy/Uo+U4wTyx+YBHSTGAzsYlYVIS9dUi6dOlo1Zq1ZlnlgiPmCeXYB5nWrl1LXTt3MvJv3bZDvLQnkR8Vr4VTmjix4xhpKoDFgEkTJ6hT06MrxGtgzEHodOUqVejnUaPFB7g1kYA0/JZ7dOsmFnjtbaIHl7HnaI5+9fKleDcKKwkNXCsEi2uFCxa0nHj9h6kRjD2Qt2Yyb+5cuRtDT3PUpp5HhW2fC+q3grHs6rznlzmo/8CBcuFR9Usd7wuiBQuY6j0yKDjXylO8MnUYPEWSbaqfOH4W4/WFcHIVK35iU+da/aetpNSCqHUkL589psFtKtOje7essniSeD1y9JgkA0AApEuT2qodT5worT9X6jp0YB+tW7valSJWeX0iXpGxdNnyggAqIsvs2b2TtmzaYFU+Veq0VE9sE4fDK1uBFu3C+fOsyD7UhTrNBM6fkgkiTJf5f8yhK4IUU6JID5AjcWLHtWsX9wY2JWGb1kwGDhlh9fxAHt+ca6n7gjphNz62yTNl9cp/BOl72K7JDBkyUe16DezaVBnheGjMqOHq1Dg6Il5BSLZq3c7QRD596qRQNFpklEMgabLk1KKV/XdnUHWuVbFyVaFsYXkvHT1yKNWp15CSp/hOEm3Q7IYZDFvxyzgA0dawaXNJDOr1Yhw8e/pEOr925FzL1fGu16/CzhCvMcW83alLD1XE6nhPKLSBxNffgw7u30fr11nPA3AcV69BI0liW1UgTnCtf/051855nhrrtvnNzgf191Zmy1+gkCDMK5pls4tTplNsE4oVL0nFSpSyjZbnWEyZ8/t0eiGU1nwSNS6cIV6xq6BO/QbSwZ5ZnSBelyyab7ezQLXh7hxk1lZwi2PiNZDvGDSiFi5abPQCJOvF8+flYE2VKrXU0Hz//h1l8fKGrDIu/fsf42MM2nDHxcqfUF6k7EJzAy+KkL1Co6V5s2YyrP7hI37K1GnyFA/ZmzdvCM2rc3IlMbV40Y4XL7504gNnPkpiiJWiKVMsZRCXKUtm+cGLCd1W6wGaPIMGDlBF/XSEFkKbNu2MOqAlh8kSeJwVWhe6tGvXRqxGeTvXsv0AAK4XxESQQhjlhnYNBN5fswiP3X7VrkuZowQVq28+yet91MNb5g6lm2f361F+DrtCvEaLFJZOjS5P4bzIz+sPX9NeoXX6beSwVCZLAiP+h9lH6J9Dd2TfdOIVJOnpm88od0rvjzJouh65Jlbh01gI2C2nH1CTyd7XqIhXdaFoc7/QAIVGarbkMWQ0tErTdl0rtFIdazy6Qrwu71FYOuJ6++Eznbr1nC7/+1q2A+dcaYQGLwROs9J0XSNeUOQpRY0YlsY38SYGi6SPIx2ZfRUZNp6w1v48d/cFjV1zwVLQ6//QOpmFV2EL2Yjr2XbmoSR284g2lQ3ehy/fU/ZeG4w29QqgtXb0+AkZ9UhoYBU0Ifv0/AgfPnJMaq4jDOLy5ImT4uUrGX33nTXpaUu89unbl5o1byFfzm7euCE13V68eCk0oVJKD9OoD1JdkIcgGJVMmDSJ4grtWEjS5MkMgua80OJ8KzQglHz6/NlqEQfxitTDvHVdfCzcEqZDIJkyZ5Y2nBHGx3dWMec5s0qL/P4lOvGKNtCfkydPSk2U3LlyS01NxO/Yvp2+b90KQSupI7R6GzZoKOPCR4xg3A9niFdVEea7kydPUdQokYXGYyYVTbVqVKdTp04Z554MqHvkjHMtd59F6K+7z7/de/fKZxXqwLx/QdjreyS0gZMlTy7HLci0XDlzEHZHBKb8IDROCxYsJLsQKXJk4zcFbcrbN61JjqFDh9hpQevXiXtx7OgRQQp+Fh9aeSiyqA+iL5TqxCuezxfEu0RaQcZCy0cJnoMg1RBne38V8aryYuwdOXxYantkFr9P9bHSvl1bu8UYVQZHV4jXwJiD4Ahs3ISJRpfx3nJNEAPJhUZceqEZCgF+ZcX7EjTBdNHvSVAee/o70A2hnZ8gUUKrhYp7d+9KR0Nqwb9okcJ0/949eakxYwmN6L37hXabhRDCeD0lnikgTnKK9zAVb2sGxy/PBUW8KqxdmffcnYOwE2rQ4CGyScztmE/hJTtX7lxWWGEBXxGvhet0pTS5S6tuOnWc17cmff5oeS46tPH69yGKFc/ybvpb/7Z0aLs1ERAzTkIa988h4zd47+YVenDnOqXMkJ2ixbC8c6EzeK9tWcKagBvxxzZK/F1amfbv7WuyHPKmSJ+VYsVNiCB9ErtOWoldSf8TOChp028CFSxXS54e2rGGfutnIaSyFihF3UfPk/HPBeHbqar3+5Iqa3tUzxTE16hejc6c9n6fsM3rzjm0/qDlBYkSxfJuB4Lk44f3Yq4LbSi2QIv061fL++XuXTsIpIu74hvxmjhJEmr1fXtZva25AWgGYmu2EhB7//77L8WOG4dAbkEwB8E+rCJMdOIVxOy9+3cNrTrkx7fM7Vs3xbvfdzgV2n7W3skV6SETxb9nT5+Kd7BrUjElUeIkMhptgsDDs8FWYEs0XITwMjpJoiTi/Se808Srqgtt3rlzm+IKZZh48ePLaNynn4cNsnrfwxwDJ0Pq2QWHUbi2r2KHWjyxwwVaiLiXsPNpK2bEK+pr076j3NWF/EcOHyJoQ9sKtDkrV6thRH+XIqX8zQVV4rVHrz5yvEM7cuzokVLruUKlKrL/tsS7uih3xwEcyfXo2ceYg3A/8I0CjICbEjPi1Z3xrurTj64SrxjPN65fk4sSaiyhPsSBZEfc+3fv6ecRg41mcC1wxKcEu4/xfonxmiCBZb5Evb+MHiF3C6t85StWoWjiGQkBlwICGAJN6Y/vLYvjOP8i5p9lixciKAX9APmqBNr7eNf68P69fC9R8TiePnmCzp07o0dR+QqVDQ1/PMcui53PL1++kNeHfkBev34lxwf67UjUuLCdN8zy/9AZu4ot34DA79Kl82LXxFep/areTc+cOWV1nahHtaHqdHUOUuWC85GJ10C+e3uE5pIiMGbNnEGjR42y6hG0gTp17ky1a3o/CHQNVLwkli5RgkAsQhIkTEgbxdYy2ELFD6yo2Cb477/3jTrxYoxti5B+ffvQksXepC/ioEGbWGzHxzZGRxJYNl7PnD0viQ4QQCCCfBL9o8OWFJm/4C/xcMori3fv1pVWC80pv0i+qm2pZNN+LlWxdnIPOrHVeqXVpQpMMrtCvM74PjdVymF5yR++/BxN3ui9Kh47Wng6IDQ+I4kt9yAsM3RfK8wH/I904rXooC2SxFzQMT8VzxhP9qb8yJ10UpCx01rnpio5E9Hjlx8oS8/1Rk914nXjyfvUfOpBI6131QzUqXwaeQ4HYKNWnTPSbAOuEK+tS6akx68+0IrDd8TvwbqmQbUz0/ciHaITzNa5iJZ0KUSF0sWWBG3qLmtsk63OE8WMSAeHl6FQ4qH55NVHKjVsGz148d7I009oDLcvY9H2sMVdZcJvcPmKFfIUJJ/+21d59GONmjWl5hbizguipWrlSkZyr969qWWr1sa5LfGqPJGP+/VXO+1AeCWfNHmyLKuTO0ZlXgFXbfl1E5p9jx8J0xJiO7gtsTp27K9UuWpVWbPtR71tuwFxrhOvmE8bNqgviSi0jReazVu3GHNt3jzwoOy9+GPbP8zNO3ftltHOEq94qcX8rrYcthDbxHv/ZFkphxYyCDD/EPWRbEvM2bbll2cR6nLn+QfTN8cECQQB3nly55Rh9Q+ka/MWLYQ5mdmmWsgqX0Afdawmix0uE8aP87ELWBABKQkB8VNbaIErkyO4xo2btkhTQUivV7eOXATVidc/5s2lYUOHCvMjnaUJEuRbunQp9f2pNzVt1oz69uuPKMqZPZvh+EUnXkFalyhR3CCv9UVb3+ysu0K8BvQchA+tI8eOi4/VKPId6fvWrWnnju0SC/wrUbKEcII3U57DpEOlCuWNtOA09tQ70NWrV6h82bJyrGzbvlNei9ruDaIKmoiQ4cOH0bw5c2T4T/GOlNfrHcnWJie2cW/dtk0u8GM8YvwojWtZ2Oufq88FnXh1Zd7Tf1euvg8fPHSEoFiAub1F06aGGQ2YoNgiFtMUKa0Tr42GLKVkmfLrl+pr+Ncmmejda8uzIWKUaFKLCiTZu9cvjbLhwkcUpFYEef7m1QsrAhSR3QTRmU0QnpB1f02lRVMshBO2mg+ds4mSpkwv08yI19ptetPzp49oy99z7OptN2AS5S9j+b6YP3EAbVryu6wH/0ILraaIYrst5J3QgP/y+ZMM41+U6Bai5aMgBz5+sCfpjIxeASh8qN0b3bp28dUcmm15Z89BsPUbOFRmX7hgntzyqnt995R9VzTgG/EaTZho6fZjb9kXaHhNnzJJhkGqgMACkYWxN2fWdLolSCwl0Fxt3vJ7eXrz5nWRPkOGdeJ18sRfpZmERk2aC5NNlnfnGdMmEzT6atWtL7yVZ5GkkK4RqpMeVy5fpPl/zFVNUtFixal4yTLyHE6k1q5eaaSZBRo2biq13UCajhjiWNlG1wI8IUx3rFi+zKiuTv2GwrxHJnmOvqBPSjJmzCy1XXF+8vgxYVZnqUqSR+wIg3ISdnTZii3xiq3nbdt3MoiwvXt20eaN3t8mtuX185/6DqTw4ncZFIlXfXzB3MPK5X/LMYVxCTlz5qQgvuy/M90dBzAloMwwbNqwjvbttbzPYjw3bd7KIPxtiVd3x7t+H1TYVeJ165aNYgfFDitCGueIz5w1G9WsVVdWrTsjU2MbCdCE1RdnipUQmqXFLfOwmca06mdA2XiNLp7hXbr3kkQtnn/TJk8w3ufQF13rHhr30Lx3JGpc+Ea8ZsmWnWrUrCOrgSY7CH6lwIb3q9ZiEUwR1FNFfx6IBSUlqg2c+3UOUnUGtyMTr4F4x/QXfPVy7Ex3oKmBjxXIzyNH0uzfZ1kV69qtO7Vrb1llXSjMEQwcYPnAQiZdMwAOqvAB5aoEJ+IVxA62nCriAteqa1lNnTKF4HXZL5I8c0EqWMt7u6Yzde1YMIruXrJ88DiT35k8zhKv0Oi8OM4yfk6Ibf0VfrafiHVSst74vbTrwiMr4jVhWwsx2Ld6BgIRCknUboUkNztXSEO9qmSQpG2qzt5EpU68Zuyxjp69/mhcFmzFXp1YWWragrDM/OM6I8024ArxaltWP48UPgxdmWAhKf/cfYN6CYdkZuIK8Tq1VS6qKuzgQsoM3y5tyep1wrzCJdEmTC5A47fggC16sgzrhCdsOPbq2dMujx6hSDLE2RKriDstSJvw4cIjaJouExz8A8EFssEnzVtXP7AdNCWjdW3fzWIBqUP7dj5l9/c0nXg9euQI1a9neUlTDevE9rRpU+lXYcbFkbhDvH7fuqWdLepzwk4jPi6hXVy1ahVHzfkpXo0p34hXvzyL3H3+YcfC9h275PU5swjnJyA8WFgniJwhXo8KchAahiBScgrTHNAA1EXHD1viOwvtWp147SjMiGABtVDhIjTbi1DDXII5JUuWLLTsH4u2j26mRydeQdqCvNVl0+Yt4uMqhYzKlzc3PX3yVE82wq4Qr0YhBwFPz0FNmno7LvxrwQLTHTo7d++R2vcgRdKntdhARPeC09hTxOu6dWupi7D9Dbl4+Yr8QNu2dRu1bWNZkDt7/oI0t6DmLxCRICQh0JQtU9rykSkjvP7pC2QYd2YmGVx9LujEqyvznrtzkD5GzeYRfcFCJ16x0J4yR3EdDl/DS4Y3Fb9j7wVYXwuYZJiz44YkQqGZ2rKkRaNRZUuQNBWN+svyHmdGvKp8ZkcQwdM3nJdJR3aup4l9W5ll83OcjucvY0b7m51yaPjXb9hU9nfY4P4EO/NVBGGUQ9jtxJZb2Fr1lPhGvIKEGDB4uGwOpIjSzsycJSvVrF1Pxu/YvkXYmNxq16UOnbpK7UzMQUMG9pUErU68qq3K8PAOMgoyeEAfma9I0eJUolQZ6dUehJISnfQYK7T1XglbqbooktSWONPzqLAip5wlXvEtNnLoIPqkkfcgZ6CFCrEluGBPtkIlyyI8zEHALISzohOvIJ7b/9BZ7Aj7VhaHPU/dvqZvdQZl4lUny/+c87thlkJpwcJ3wohhg+wu0d1xoMqZ1Qt8uwoCEGI7ftwd73YdFxGuEq/z5sySpjN07XO1IAPbqu07dpXNjINmubCvDFEmNfTfrEzw+ten3yCp7Q2yEQs5ZhJQxGutuvXEIktW2QUs7GCBRxddc/ypUNCbON4x36Hur2/EqzG+xKLL6BFD5Byrt6kvHB0UtqrXr/VWblNtIL9f5yC9zeAUZuI1EO8WnBu0av297AHsrMHemjPy9/Llhs1GfBSolQZVVtfKsNVUGzV6NFWvUVNmffDwAY0R5xvER5vSpFF1+HQMTsQrrrGwcL6iC7QYTpw6LaOcIbb0skE57CzxClMAy7oVkpfyr9DGPCrMA3zjdWHfeIViRAlr2Gz9dc1F+mXNeYN4xfb5pB0sE6kiWbENP3E7ywq56oeeD9Ur4vXWozeUr/9mrxa9D4rg1OvyTvUOuUO8ZhemDAqkjUMp4kamOFHDG1tlSmWOJyteeeQOtZtl+dj0bskSUv2CSQLfNF53DRKO7uJbtrmtPX7PwBU1KWyLZohDIH1t8VHtwiYobINCHBEDKi+Ohw4fFdt8vpVbJLNnzaInyTDs9OXPb9HQMSNmkQkmCaqKdpMJswHxhSZnqNChZdmMGTJIzSbYBcyZI7uMs/3n6ge2Kl+wUGEqWrSIdHgBx0NYFYcop2L+bcdU9cOno068QlMQGoO6QPtr1549MmqLcOLXvm0bPdkq7A7xamsHERUqIgpbhYsJ/PxDnCVe/fIscvf5h+tVBBI+SpctW0a/z5xptyXLP3DxS52uEq/qGkEcwKQPPuKVqN8KFhEhN27coDKlSloRr7ABjN+QTrKCbAPpllxoVG0S4xUCs0KwCQ/RiVezdwv9t95COKXas9tCgMvC2j+d1MLCJhY4fZOAmoPGjZ9AFStZFtyg0QoyRmGrcAW5rGybNqhfz9ByxzWo+xLUx54iXpWWM/quSNbVK1dS9+7dEEVqJ9HiRYuov3DApms2Q+sZpils8YkizOGkTZtWll+0cKGdkzYk6GOlZIlivtrs1olXV+Y9d+cgmIEZNnyEvAYzBQb9PVEnXmWBAP4H82G/b7suW70gnGmN6FjLrgfTNpyjSFGim5oaUJkz5S5KWfIXp7gJk1G0b2MZz9yUGXPILOeO7qWfO1s0mVQZTx2x8wYLlRDYiIataP8QM5IV24axfdiRfUR3++Eb8Yp6Bw0dKavHtuGRwwfLsL41GBqtIHi++Z/XW7jXAaSk2r6tCBVFvILEBBkLUSQr5iMQrxA4FkMbej7EK9LjxYvnNO6XUYiyEkWmIlKRuFYZtBOV11niFY4Lf5vwq1YDEexE9h04RMbZaqHCEVrL1pYdPSDyNq5fK52FAUffRBGvwOSN0NRWpids2/CtHqQHZeJVJ+dBAOJ+Q6pVr0XZcuSU4am/CY1DYcNbF3fGQWjxTdB/0DBZDba6L1m4QK9Shg1CTtwvnfB3d7zbNSAiXCVelRa4TrLO+X2G1GCGtmjXHpY5afrU34SpnbsE5Y/uQhsdAmdzq1daFqhlhNc/newcLrS9zfw7BBTxqm/5x30x5hH01WsugZkHaH3bzgf6NSGsxoVvxKsipsE9Xbx43rTN9BkyyuqhgY97oES14Yk5SNUZ3I5MvAbiHYMWCrRRIEUKFbIyCeBTt5SNMfzYM6ZPZ5pVfRyoDzKVCWYNduzebdjoUvHwRA7NiBHDhpluG1P5cAxOxKujF+ZLV67KS9K1QfRrDI5hRXii7z2F9ub83TdMLwPb66HR6qwsO3CbOs09ahCvsO/63Q8W4lXVpZOIDQslozGNspMtgaqI14NXnlB14UTLViY0y0G18yWV0SA4QXSaiSvEK0jQee3zCsI1illVRhxI0tbTDxnnesAV4hUatCBVnRUQ2MBOl1zCi+Zfwns4xHbhRM+nwupjGs5Aiha2EOoqDUc4kIE5Aogt8YpFmvlC60u3HSoz2vzDh4EZqYtsrn5gw5TCdGFWRZlYsWnKOAUZpNuaNhICMKATr2o7t23zai7xTQPVVeIVi2GZMlq2j+ptqu2xZotKej6/hJ0lXv3yLHL3+YfrGvvrOOkcSb9GaHpdExp6w4WtVPxugpq4QrzqeZ25Djy/c+fKYUW8KjuKel2KZMVvD2YeIIqMRVgRr47eLXwjq1AHxBXiNaDnIPX+Yump7/9BRoKUVBJcxp4iXqG1DO1liC3JijjlyFGRsfp8jnTfBOQ7SHhb0espWcJ54tXVec/dOQimNmByA6L/BmSE1z/1Hu3oPVLP65/h5Omy0JBZ62UT+zf9Q1OHdLRr7telByh2giSmxCvKdxs1l76NZVlotivsFeGI1HWU35V43amv2SKmK3X5lNcgWcXW61Vi67VOGC2YP48uX7zgU3GX0nwjXkHe9/zJsuPw8eOHgngcJ+vHtuwUYrHbWQHJBVJFEa+w7zpsiKVeRfDopEpOYX++ctUaUvtVkbFoS5EesFk5UyNDVD90R026BqBK14+uEq/YkgztQ1tRxLSZozNFLOplYE8SW5Q3blhrp7Gr8iniVZ2ro34PVJxvx6BKvIJIgw1cyH2xCD992m/Gpej2VA/s2yuUq7x3HiKTO+MA9jxB8kEO7Nsj6rRXFGvXobO0g2qr8erueJeN2fxzlXhVJjl0u62KZNV/n4qMxe8S/YU42pqva5mrRRGbbpL6XSL+1zE/S5urtnkcneO+4v5evXJZOrtzlA/xKq9PefQ0LNgogl6PR1iNC5+IVx1H2/Jm57A1i+tXotrwxByk6gxuRyZeA/GO+bZS76hryjsoth7aOt1SZRQZA6cIhby03VQaPBtPnPQb2TrdQDo+uEaOGCHtL6r8tkf14QK7XpmFRlxAifpoMNsWZtsH9dEB+z81q1e3TSZFlniCeA0XMQp9GzexXRs+RTy9f9NwtuBTPlfSnCVedfMAm07+Sxfvv/Sxmd0XHtKeC49NiVfYUB0sSFydeK1fMBmNbeyYeN129gE1mmT56NcbHt0wGzUqnFxG5RcasTeFZqyZOEu8RhQ2ao/9XJaiRwonq4FDq33Cgdjdp2+lzVpEdq1o0dpZf/w+tZxu0fqybdMV4vXO1KrSvuurd59o7k6Lhoptfeoci9OjV5+T5hlUHI66FuXdO3epeDHL4oyeRw+rj8M7t+9QieKWLWd6uk4e2hKvG4Wd0BRejhjw2z8tnIvcFS9xyjRHFWFvFba0cJ5NONUzE1c+sEGy7N1/QNaJuqBJe0o42YANILQPqVuvnjyabe2XCQH4zyfsVDcU/raLXCpdHV0lXh3Nr0GJePXLs8jd55/Cs1LlytSnXz/heTy2ijKO169fo8qVKrq0k8Mo7E8BnQD1zdSAbh4A2iq7xWKpTwLHeNOnTbMiXpVDPGiSbhBmOyBKexOY7fPSctVJJ0W8Onq3qFyliiS9UZeZTXrEQ1whXgN6DoKZCuVgc9kyaw12S++t/8+eNYuuXLliFRkcxp56B5o3dy7BXjZEvUPpWqq2xKu+UHfs2DFfNcl3bt9h6hPAlecC+qY0Xl2d99ydg/TdX0o7HP3QRb1H68RrlBjxKFK0GHo2H8NwVvXo9iUf8/iWmDlvcfpx7HyZbdfaRTRrZHe7Ij8v2EkJk6WyI14jRo5KE1ceE3YqI8kyb1+/oGsXTtGzh/fFFlHLM7d4lYYy7dKpQzSsvf37sl1jbkTAtAm07yHNmzQx7Om6UZVVkVy58xhb0pGgtLMRVgSDioMGJP4+i3cNsy3YKOOK+Ea8wnt6m3Y/yCp1e4aKoEICHHz5JtC8g2a+OfFakMqVr2SlzQazCtD81bVg0YYiPRyRoKgnX4GCsjuOCCXVV1eJ1yuXL0lbkKq8OvpEvOK+5cmXX9gaLy23dqsyOOLaDmEbs7DBaSs68Yp82EKutIdd1XoNqsSruse4dmge4l1ayTfCdFv06BbTCmaahe6MA10DGWN26+aNqjnjCA1l5LMlXt0d70bFWsBV4hWLHSDcdVMIamzj26ZXnwGydkW86raFYecY9o5tpXCRYlSydFkZ/ee82ZIgtc0TUMSr0j6FJvghk77q/cJvYfvWzfK3o8ersBoXPhGvuskG4Ipno0/y7MkTOiYWwZSoNjwxB6k6g9uRiddAvGP6lrdqwlbfOWGzzxnZLLYKgjzFS0W6NKlNiyhi0dbZjp4ZK8EFhMflRo0aU6FCBeWWYqRja2PWzJkMIkQvgzATr9aIBDfnWnXyJ6XxTXPIi+gy7xgt2X/L+oIcnCnnWrrGqzvE66mbz6ncyB12regOv5IJTdBPNpqgqoCzxCtIXJC5kBlbr9KgpadVFfIYMWxoujqpsgx7ing9PaYCxYoazs6xmFXDTpwoO56+2dhEVafOnJEOnuBgr4CXQxS9Cd2hnk686kQQtq2XLFHczmyJ+qj1FPEK29OwQQ1RGlZ6X/XtnUGNeG3dqpWVEx70G06O8HEO8U1DNyQSr355Frn7/JNga/9AolWpUpXqCltXCRMlMlL0LdZGZCAG9N+bb8QrTIfAhAjEt3GlX5Ju49UvxKujd4tmzb0dfpk551R9cZZ41TEJqDlId64J+++vX79W3Xb5GJTHnrvEq+7Az2wLvrMgBRTx6u4c1F7YQO7StZu8nO7dzJ2sGu/R4uOyahXLu4JfnWs5i5+eL2achDR++WEZdXTXBprQp6WeLMMgV6HRamvjtUrTTlSrtcX2opm2bPiIkWnmZgsx7J/E616xCyFO7Diyr1AYsbVZbXdBTkYULFRUOJAp52RuSzZbQtKlwlpm34hXteUfRXSNTt2plKOtylozRtBTxCsW87AF3Vaq16hNWbNbvg1ATMOWpyMJCOJVbztOnDjC+XNWypUnj2E6AOkzp0+hu3du61lJJ15h+/T23dvU48efDPJWkWxWhRycBFXitVmL1pTcS2nCQdeN6F9+Hk6vhckFJYr8cmUcwBEcxjvE0Rb8Tl26Cwdmse2IV3fHu+qvfvRv4lVfLNm1cztt22JZtNb7UL5iFcorFgQgsBmNRRFbCSji9cfe/Shy5Mh2jvRs++PMuRoXPhGv4cNHoJ/6WexGOzI54VNbqg1Xxp5P9QXHNCZeA/GutRLedHv2stgX8e1DTO/mH/MXUL58+WQUtOGgFadLeqGFCnIUsnXrVmrXxmJHVs9jFtZfjBxtq0W5lStXUfqMGeULXsYM9lthzer2RJzS1ghqGq/BjXjNkCgabelfQt6S6Vuu0OBlZ5y6PZ4iXl+8/Ujpu62za3Or6FN60bePwpRBci9TBnaZRESL4ilpWF2L9mXNX/fQ/kuPzbKRbrogSfuV9OXr/6zy5Re2bv/2snXrE/G6uEtBKpwuDr39+IVSdbJfXdcrXde7KGUT9mShAfxdpzV2ZgT0vD6FdSc2Zvbu9LK+bbVcvXadYY9PJ171+adHj+60asUKvVrpkOuUWAyC3UOfiNduPXpQ27btZFm9fqvKvE5+nz2bChexaOWa2ZAsVaoUTZk2Xeb2iXiF5l2NGjWMJlasWEkrV9jbYjIyuBnQNV7N5mjdLMQ/f/9NvXv1dNhScCJel4uxAJMQ+EDNkC6tHSGvLtIvzyJ9/Jlhq9pw5ajbR3bkGEjVh3EWMUJ4efrhwyfD2ZBK9/RR1zydMX06wcGMT6IWX+7du0fFihT2KauR5iniFRUWMTF/pG8Xrl2zBp08edJoWw8kSZpEmi1A3OpVqwjElpnoYyCg5qBBg4dQg4YWDT+zxRSzfjoTF9TGnrvEa46cOWnR4iXykvFMwH1xR1x5LqB+dzVe3Z2DypQtS79NniIvTdcKVteq/5Z0jdfAIF7Rp3m778hn8d0bl+mnRsVUN43j7O03KIxYCLQlXqEpC41ZSLOiSemr0I7TJUfhstRl5GwZ5Z/EqxqPz54+o7x5culd8FM4QoSIFCt2bFlHufIVpcYdtrcuFtvzIU2atpBe6WEKaM+enTIOC0uw5+hX8Y147fZjb4Lnecjc2TOkszqEdc/os2dOo1u3biLaV/EU8WrmHAmNf9+2g1i8TGynKWvWsYAmXvU+VK5aXThJziOjzJyTKeJVN8mgO/yBRubY0SPpw4f3erWmYVeJV2hWlixVxqgLu7mgZetJwTs57K1CIxj38thRb41C1U68+PENcxabN6636oMiv1wdB0q7EuMV49ZWHDlnc3e829aP8zz5ClCFipZFsLmzZ4rf1DW7bDFjxaJOXXrIeFc1XnUTDo4IyOYtvxf+MFLI+h1t3YfmODTIIY7IWZlo8k+ZD7h+7ZowzzHTJId3VGvxm00kfrOY0+BMEEd3RTkNeyR2Sk+eaDGLYlYXxh4U9x4+fEhTJjnOZ1bW3bFnVldwjWPiNRDvXHLxw1UOLrD6mz1rVtMPXNhjg8kAJbomgdlHzYyZs6hYccuL1qiff6bfZ/n8w1X1zvr9d2GovZg8hfduEB9moufz5Mq1WVt6XFAlXsOEi0jR4yTSu+pr+OWjO+IF2feHvq8VaRmcNTUQJnQouiRskUYIE4qgvZpB2FPF0UzCirxK89RTxCvaqTRqJx27/sxoMna08HRqdHl5fun+Kyo2eKuRZhsolC42Yfs/xCfieEqr3FQtl+W+lBq6jc7dfWlV1YafilGWZJbtOD4Rr9AOhpYwBLZtHWGF9G6V0lKPSpbFCDgkg2MyR6Jja5un/4AB1LhJUxntaBukKqP/Hm3Ji2jCePzhI0cNJxo6MdqocRMaMNCycmnmxGvYiJFUp04d2YxPxGvt2rVp+EiLDR/lNV31zfY4948/qYCXszuzxR2lvYRyPhGvuhYv8m4RJhPat2uLoEdFJ16xQlu4YEGr+nU7pd26dqE1qx0T88GJeB0vHJ9UqFBRXquZh3EFgl+eRe4+/1TbZkdoisIUAz5MfCMslTabqse3BQ6Vz92jrh2te5V3VJ++Bd+nrbnhwoczTCroZJFfNF7RJ7OFhOMnT0ntCrzcZxVaa9gW7kgUvj7dh8CYg/KIXQHQeoVcv36NypYu7egShIaUN7YOM3klBLWxp4gunVRU71A+mRrAOIXzURxh/iVn9uwOtRN9wseV5wIgdJd4dXcOihEzBh04eFjOFY9NdotgYQYLgRCdeI0UPRZFjBJDxjvzD6YGnt63JwecKavnmbL2DEWJHkOSYm3LZ6B3r73fZwqUrUlt+0+U2W2J117jF1PGXJb3paHtqtHl0xbNWVX3mEV7KV7i5PLUv4hX7NDDsx3iijKILODCv649eskt1kcOH6I1q5ZbOW+a/8ccYRvUbyYfbLviiHjF86dsuQrSziPKgHybOtlbw1TXqoO2JrQ2HQkIDuVA2VPEK9rSiWCcg8Du3XcAgvRUbA+eOP4XGXb0LzCJ13TpM1C9Bo1l1/YLe6NwvKWLGfGKdFsnT3NmzdCLmYZdJV5TfpeKGjf31kh/9vQpTRg3xrRudyN1G64njh2lFcuX2VUVJXIU6tG7r4yHp3tsr1eiyC+cuzIO1O8LC/IjhwmNaEFgK0mdJh1hTEBsTQ24O95V3fpRt8Fqdu+R1y/EK8or4hPvOXAShl3ASsJHiEC9+wyQzw34vhjz8zCVZHXUx+jCBfPoonBS6awonKFJC9LWJylWvKRYyLE8p3Zs20I7tjv+dtbnErM6f+jcjWKLXQm4vyCUcTST1m3aC3NNSWQSbEXDXquZmLXn7tgzqz+4xjHxGsh3btr0mVSipEX78Il42DVv2kR6kUW3YsaKKb2b58iZy8q+Il52jx8/KU0D4IcxYvgwwss1RN8+BTI3m7CppK+ArBDebCNGikRTxEr/6lUrZRp+HCXFCybsvmIFDXVCG00vJyv3+qd7o4b26Y9C4+2aWJlxlF8v65ew+mgIahqvfrkmT5Z1lnhFm02LpqCR9bPK5u88eUfNpuw3iMnQwj5QobRxqIuwf5pVaG8qR1qeJF5hA7XU8O10+/FbihoxLG3uU4ySxoks+9N86kHaePK+DJv9ixIhLF0YV0HaUoV27LTNV2jB3hty3L4WDrmev/kkiykzCDg5fuMZtZl5mO48eUvhwnxDk1vmporZExrV+0S8tiudivrXzCTz7jz/UDouQz1mzySQ2qfHlJN2ZeFcbPLGyzRm9QVD8xUEcyuhsdu8WAppA3bkinNGH/SA/lHoyE6xyq9rl8ExSd26dQi/EZCua9eto3jx4qusVs619G2+MGnQQZgBUF7Ke/zYk75v08Yo5xPxqpM9cPLTpVNHOiIWbcxIGV0L6rogPTq0ayftJ4YPF55+F84GQYooCWrEK/q1ds0aqb2HuU7fdg3v37ly5lBdNz0GJ+K1YsWKNG6C5UMeL5e/TZpE27dZPpwfPnxgbM/2y7MIILnz/MuUOTMtXLyYNq5bL+yNjhWaS/ck3tj2PWbMWIIWMmTjxg3UUWwndiSKGFTp/k28oh1FhmH8DOjfjzZs2EAYO2ai71wBmTJcPOexQKIE9hK7dO9OBYQH65bNmkmbifpv0a/EK94DfurdSxKweEeYNXsOFfRaeNixfTt937qV6orpUd9Bc0BsMx439hd68eIlffz0gWCPGhIYcxDaXfr3P5RVLHRDML+2ER7XQb5BYIe6YaNGwsFGc7F97w2V9no/Q1pwGntqrLlKvOI6f+jYkTp17oIgQUOxXbs2QqvKYvoCY6FcuXLUrsMPwj54CocOXvWx6NtzAe24S7z6ZQ6CE0t9vugsrhu/TTjdgvMtJTrxquIC+lihfluq18HSpycP7lKfpqUk+fpd+mzUb8oKqe2KPtkSr7Xb9KbKjTvK7t6/dZUmCjMF0JoNK565P45dQOmyW7bMIoN/Ea/TZ8yi4sKUEQQmG3yzCygzuvgPCwV9BwyRpZTdRUV+YC6DNpgiMF2s2mF2RbxizCxc8Kf8ZsP7Vuo0aYV39GhGOeVZ3YgQAUVcIg6E8N9LFxHewyC4lsyZs1LhosXpvYhTjpM8SbxC23Ha1N8EyfqYsH24TbsOcps42l+2eCGdOXMKQYei+v9RLM6MEJ7dHYnSgnTVxitMSOTOk5f2CWL1+JHD9Omz5b0e3ukbNGpm2GxV91pv3xHxCkIcmpAxYsaU2eEgCo6ifJKgSLzWEmaVMgmzCxCz61fXo8Ynxj9MWigCUSe/XBkH2XLkpGrVa8nqoe04Sr1VyAAAQABJREFUa/pkSbLinrRq+wOFE+MWYku8Ik6NF4SdHe/IaysYq1ggwL3E73nfnt109Ogh+f2Ha8FvyK/EaxHxuyvhpbUM7c9Z06dK7WiYQmvdpoMxftatWSVMQe237aI81/sgNfD/mi8dqDszB+lmJGDq4OjRw9KUgFlD4Gx69u5PESJGkBjs2b1T2nHFnASBiYh8+QqKb6t80gasmW1eVa/uXA8O2zZtWk9Pnz6RybAhrOqEOQmYlYDg97/y76V09uxpeY5/GA+Fi5aQu+Z+nzHViph1d+wZlYeAABOvgXwT8UPeuWuPMPwc3egJJkdMlHj4QkCg2jrR6tipE3Xs1Nkoo34Q+BEqwYfaPEFm6KJvYUY8yJFwYcPJSUzlg8OJPr17q1O7I/p8+Ogxo396BjPNAT3dL2EmXn1GzxXiFTUt71GY8qaKZVSK7fEgMiOFD2MVl1TYW4V4knhVDWD7fiThBEuJb9quKl+/GhmpfZnU6tQ46uVhw/XUmPIUOYL39bz98Nm4vjeCpFVpPhGvqOfsuIpSQ9hoyCtwSzgAyyccgekCjdy/OhYgkLBK0G44oWGsx03acIkcEa8op0x6YC4oLLREda13Va866h82iMPHV1jhFdNWdI1XpOlmCHAODacwYcLI+QDtYi7CPOQT8Ypym7ZspeTJkyNoJzqhhbnjoCBlQbQqAVmMj2cI5iOV5hPxOnX6DCpZsqSqgjYL50Ed2lvMHRiRHgjoGq+qOuCClyfgpMTMS7PtHK3ymh31D3t3CQizev0St2PnLiubqaou210Wttfp7LMI9bnz/NO3QqMOjNEvX78Y4wZxGMflypam27du49ROQB6dv2it/aSPU7sCHooYMnQY1atf37Q2MzuT+rZ4FMLY+/hJ/F5sntlKI1Ynu/xKvKpOAl/ghQ8dCLAtJchIRXirfLZHfSu3noZrSJs6lREV0HMQGgY5Ao1ijD8luC6Ieu9C2NZhYXAae34hXnHta8TCRpo0aRCUgt81tu6quRqRiHPkZwDpzj4XkNcv8567cxCI/1Vr1hpzudncjr7p8zPOA0O+Ee/2k1Yep2gxLNvq0Qc4iYJ5AV1siVfYcJ2yRmgwh/d+5urvB58EWaHS/IN4xfP8pLBDj2+T+/fvU9HCFu1bvc+eCMP8Wd16jeQcqUhWZbPUGQ1Od/qgiC1HZd+/e08L//qDbt64bpcFdhk7dOpmNQfh9wUJE9b73ULXVvQk8ao6BOJEEWaIAxE7cfxYlWwce/7U36qvRoJJQG3vRpK7xKu+PR31oJ+h6BsrbBz11RHxinpgCqBz1x8NJaNpkycSdjNBYBYC5iGcEUfb9FOnFZqfjZoaVfjH2FNbwjFfDR3UzyDEjEa9AtWEzd5sXjZ7/162mE6fPCFTdPJLlXFmHOAdANgpR2Uoa1tOxonvD2iK6uLOeNfL6+HSZctLR3N6HMJqi7xOeqqx6KxzLdSD951uwiYw+qzE9jrhtGz82NFyvlF5bI/KdIdtPM4H9f/JLFrGJUqUmGBCwEzM7OtCC7ixMKmi8z8gv/GNosc5coqm2gGpjTlNn39Umq1ZB9vfJ8aieq6od0WUtdWIdXfsqX6EhCMTr0HgLuJHPnr0GKok7BbqAxZdw8fAypUrTIlQ2BQbKbYD2xIsIC+6du4st9/aXt7AQYOpZq2acluJbRraWrZ0KQ0c4L3Sb5tHnX8nfuj9+veTBqb1D5WAIF5PCc/rtWpUV10xPSqSFjboYIvOVpS2EzTYunbxJrBt8wWnc932afc/j9PCvTd97X4zofk6oHZmU1Lx8csP9M/hO4ZTqjalUtHAWpmsbJ22LJGShtbJbGWXtW6BZDSuSXaCxmfidiuNPtyaXEUSj2uP36NYUcJRvtTeHxDIBG3SJr8dMEwbGAUdBL4vmZI6lksrnVmpLBfvvaLiQ7aqU4I927nt81PiWBGNOAT+ffGeKgtzB3uHCG+pghBFn1pPP2SVRz9B+Z6VM1AlYboAJhqUmBGvSIsXPQLNa5/PMGWg8uMIXI5ee0oDl56hE0IT15HoW2KdGacjR42imjUtq9GqTmjRr12zWtg5ayajygjN9hvaRwA0a+fOmSdtNqsyOOIB+lOfn6iD0BhMIQz4Q+sxe1aLR2I9nwpjm+3PP4+h/AXyi7klgtU8ZktogbyYOnW6WDWOoYrLIzT/atWsSeuEFiBeGHxyKrRz9x5KkCCBUd43cwxGRhcDffr2lZqtKAbN/hEjxXyrfeiClPqxezdau9Z6qxvyw4kYnIk5I1evXqHywuYgRBHuZgtuSN9/8BDFEjaszEwfIN1Tgg/maTOmS2cWigxH3WZ2H915Fql+uvr8g2brXwsXU3xhw8z2eYk6b968Sd2F2Qc8JxwJdplA21YJyuiajSre00e8BHfr3oPqC/IVmgj6S7EZ8Yr2ixYrTuPGj5eamLb9we8Uz7guYiEWCzO6BqnSLNO3+SrzHthNg23WEN3O6dZtO4SNxCRSoxkEe/0GDayafP7suZhjqjkktK0yixNs1R4yfDjFjBHTuFZb4jUw5iD0EwTib79NEfgWMx1HD4Rm95zfZ9Ps32cZlxWcxp4iXtF/OMmCnBZOovBb1k3LwKwACGjYyMYcpwsIzbbt2lvNeSodTsm2Cx8C3cX850hceS74dd5zdw7Cb2bJsr+tfl8Yo9OmTqXmLZrLd2XYB61atYqjywyw+HDhI9KgmWsp8XdprdqE+YDQYcIStF8xJ7QskcIqPXXm3NKOa9RvY1rFv3n1nAZ/X5lGzt8uyIYwdOH4fhrR0fodwqqAGyf67hkodECxwz9E2f3UyTiQRNBuhGdyeCj3tPTo1cfK0RPGzVvxrgQtMbxnYeuvTxpuePZVrlJdOrQye5Y9fvyI9uzaQSeOH5Ndz1+gEJUtX1GSXUrLVDnwQjsg4SDZc+SiqtVrSlJo8IA+Mg7/FOlx4fw58Y4VmlKlth5H8DQOkwxmfVbbr43KfAjA7iM0IiGq3OVLF2jBn/PsSg0aapmbDu7fR+vXrTbS0bcq1aobNnKNBBEAztCwWy3mLDM7rcoGp27jVS+fQ+BTReADefXqpbT3inB0sUusaw/niFdHdcPOMBwrKdm5fZvYLWStnKHS3DnGiBlLkJ+WeVon5c3q0k0SXLxwXmhl/yGz+WUc4N28cbMWwsG39RyjjykzjVc07Op4N7smFQeMCxcpZkWOKpujIIa7dOsps2IRAXOCTqrD7AfMf+jmNWxtLYcV82ndBo3Eb8R78VG1jefBsqULTX8nKg+OIDLLCpNdGdJnEnamw1u9Z/hEvKJs0qTJqGTpstJmtf6eaEa8In/UqFGF7fqmlCBRIpxaCX4vt2/fErvE1lhpn1pl8joBTrXrNaAE8RNaEbCzZ02nWzdvWBVBH+vWbyTfZa0SxAmI6quXLomd1f9IxR2V7pexp+oI7kcmXoPYHYSGQT6xdRCT27mzZ4SK+VFJvvrUTZCghQoXlkbzd+/eJT88fcqPNHxcZcmchZIK20tv3rylc+fOig/Vk4atON/Kc3rIQgBEIZxCxRFb4UEmXhR2Vh8IctKToojXVUfvUlux7R8mBkpkjEvvPn2hvRcfEzRQ/UvSJohKmYU9V5gi2HPhsThatJv8qz1VL+y4ZkgcnTIliUYv336mGwLbC/deOk0u/718udhylkXOAVkyZfT1QQ8yoYhwXpU8eXK51dqRxp/qnzqCnMkrHPZFiRKVtm7Z7NQcosq6e8RW3+w5cootNK9os2gTpI4zgpc3OB5SHyrXr/tsp9GZOl3JkzNXLsojtrPv27fPoXMhV+oLSXndeRbp1+/K8w8EeJ7ceYQDie+EBsa3BEcEJ4RGh62zSb1+FR776zjxwetNpDSoX4+OHLYQkSpPUDviGvPmySe2saYWL8/3hEmi8x7fsqsTrzmyZZXkZOlSpSm22DqGeUGZCPAPbAJjDsJ14KMmXfr0YltrHgodKjRdvnxZmB846eN89F8be4mTJKZ8efNTnLhxhDOTG3RK4OPM78w/xolvdbo7B2H8lRRj/c6d29KsitKA9q29wEiHrdecwikWyNaDW1cTCFRnJGWG7JQ6Uy569/YVHd29kV6/cLzw60x9zuRRdqF9svXsTD0hOQ/eZWIKQg12E0MJU19YMH/44IEpqehJHEAMpUqVWu4YuSZIV2hxBjVBH2GmCWQaNF5BRj8IAGzcxaFDp64UR/hlgYB8GjV8sK/v7e625aly7owDlMG7l3xmXrnk0tgJrPHuDl7gYvC7hO1TmNm6J+yZmi1MuFO3f5TB91G8+AmkYgo07rEIhH77Z58xFhIKwhcYvXz5XGgeP5ZktzPX587Yc6beoJyHidegfHeCed+gVeOOQJMC249ZQhYCtsRryLo6/7kafPCCDMGLyrChQ+mPeXP9p6FgVGsp4QxnytRpRo/r1q4lbF4fN87/awGQQFGjRXXrskF2K9MAblUQTAvt3iscyojt5pArV65I28fB9FI82m1b4tWjlXNlEgEeezwQ/isIFBaLwL/Pni0vV2nb/1euna/zv4cAFvHg8V0pBcCeJrZ3szACjAAjoBBg4lUhwUePIgBtNjiwcEe2bNlC7du2cacolwnCCDDxGoRvTjDq2viJE6mC2L4DuSA8hVapZAkHo0vwaFf7DxxIjRs3cavOHj26S9MBbhUOpoVAVJ85d974OILZGp/MEgTTy3Sr20y8ugWb04V47DkNFWdkBBgBRiBYIQBbm02bt5J9xnb7n4W2639xYTtY3TTuLCMQwAgw8RrAgP9XmsuePTstXrrMrcvdKuyGtWvzvVtluVDQRYCJ16B7b4JTz+AMJW3atNLOV43q1YRJlrPBqfse7yvsdsMLuzsCm46w7fhfEjybFi2x2BkE4WpmA/y/hId+rUy86mh4Psxjz/OYco2MACPACAQFBGBztESpMrIr64U9zUMH9gWFbnEfGAFGIAghwMRrELoZIakrcOBQqnQpty7p/PkLBHtDLCELgRu/VZGOrFYcuUvtZwVte4ohC3m+mpCMABz+ZMuaza1L3L1nD8GpGQsjAAQ2bd5CyVOkkGMiV84cDAojwAgwAowAI8AIMAKMACPACHgAASZePQAiV8EIMAKMACPACDACjAAjwAgwAowAI8AIMAKMACPACDACjICOABOvOhocZgQYAUaAEWAEGAFGgBFgBBgBRoARYAQYAUaAEWAEGAFGwAMIMPHqARC5CkaAEWAEGAFGgBFgBBgBRoARYAQYAUaAEWAEGAFGgBFgBHQEmHjV0eAwI8AIMAKMACPACDACjAAjwAgwAowAI8AIMAKMACPACDACHkCAiVcPgMhVMAKMACPACDACjAAjwAgwAowAI8AIMAKMACPACDACjAAjoCPAxKuOBocZAUaAEWAEGAFGgBFgBBgBRoARYAQYAUaAEWAEGAFGgBHwAAJMvHoARK6CEWAEGAFGgBFgBBgBRoARYAQYAUaAEWAEGAFGgBFgBBgBHQEmXnU0OMwIMAKMACPACDACjAAjwAgwAowAI8AIMAKMACPACDACjIAHEGDi1QMgchWMACPACDACjAAjwAgwAowAI8AIMAKMACPACDACjAAjwAjoCDDxqqPBYUaAEWAEGAFGgBFgBBgBRoARYAQYAUaAEWAEGAFGgBFgBDyAABOvHgCRq2AEGAFGgBFgBBgBRoARYAQYAUaAEWAEGAFGgBFgBBgBRkBHgIlXHQ0OMwKMACPACDACjAAjwAgwAowAI8AIMAKMACPACDACjAAj4AEEmHj1AIhcBSPACDACjAAjwAgwAowAI8AIMAKMACPACDACjAAjwAgwAjoCTLzqaHCYEWAEGAFGgBFgBBgBRoARYAQYAUaAEWAEGAFGgBFgBBgBDyDAxKsHQOQqGAFGgBFgBBgBRoARYAQYAUaAEWAEGAFGgBFgBBgBRoAR0BFg4lVHg8OMQAhAoFnzFtS4cRN6+PAB1a9XNwRcEV8CIxA8EQgVKhSt27CBwoYJR0OHDqId23cEzwvhXjMCjAAjwAgwAowAI8AIMAKMACPACLiFABOvbsHGhQILgQrZE1KBNLHo0asPNGHdpcDqhlPtpk8UjRoWSibzjlx5nt68/+xUOb9kihQpEh0+eozChg1L+/bto2ZNGvulOi5rg0DVatUpT968lDBBfPrfN9/I1C6dOtHLFy9scvJpSECgUOEi1KJVS/rmf/+jjj/8QK9fv3b5snbs3EUJEyWi58+eU57cOV0uzwUYAUaAEWAEGAFGgBFgBBgBRoARYASCLwJMvAbfexfkez6xWU7K9V1M2c97z99RrV/32PV5YK1MVDZLAhn/4fNXKj5kq10ePeLPH/JRyUzx6e3HL5Sq02o9KciFmxZNQSPrZ5X9KjBgM914+MbXPiaOFYkihwtNT958pMcvP/ia3zbDxN9+o3LlysvoShXK06VLQZuctu2/b+fx4yeguHHj0Nu3b+nKlSu+ZfdYerjw4Wjrtu0UL158uzrLlSlD165dtYv/r0REjRqVUqRIQV8FOXnm9OkgfdnQQM2UKZPs47Vr13wlUnv82JO+b9NG5i9RvCjduX3H5eurUbMm/TxqtCw3buwvNHXqVJfr4AKMACPACDACjAAjwAgwAowAI8AIMALBEwEmXoPnfQsWvd43pDQljxvZ6GvJodvo/N2XxnnoUN/Q1YmVKVyYUEZcwrYrjLBZIKQTr1cmVKJI4cPQzvMPqf6EfWYQOIyLEiUKHT1+gr4Rmpg3btygMqVKOswbXBNWrlpN6TNkoA8fP1BmcQwoGTlqFNWsWUs29/nzZ0G0XqM3b97Q/wTZ2LZNa6nNGFB9CWrtdO/xI7Vp21Z2q2SJYnT71u2g1kWjP6lSpRJb/zfK88likWLC+HFGmlnAE8Qr6j15+gxFjBiR3r17R1kzW4hfs/Y4jhFgBBgBRoARYAQYAUaAEWAEGAFGIGQhwMRryLqfQepqbInXBXtu0o/zjxt9LJs1Ac1pl9c4R8A34rV+wWRUIlM8evD8PfVbfMqqbFA7yZY8BnUom1p2q/ufx+nl20++dtEvxGufvn0J9l0hXTt3orVr1/raXnDLEFjE687deyhBggT09etXypAurTwGN+z8q79MvPqObN9+/alps2YyY0j9bfqOAudgBBgBRoARYAQYAUaAEWAEGAFG4L+HABOv/717HmBXbEu8vnr3idJ29SYDF3UuQEXSx7Xqj2/Eq1XmEHjiF+L16LHjFDVaNLl9Okc2i4mDkAZRYBGvp86coQgRItLNmzepdMkSIQ1W43qSZcpPafOUo8tHttD1U7uNeJ8CTLz6hI4lDWPnxKlTBFMHMP8BMyAsjAAjwAgwAowAI8AIMAKMACPACDACIR8BJl4D6R5Xr1GTcuTIQSdPnKCUqVJSmTLl6NHjR4Ttr0ePHBYesIdRzly56OGjRzR61M905PDhQOqp+80q4vXOk3cUO3p4iiBMCpQfuZNO3nxGYUKHomsTK8njkWtPDVuwZsRrM2ErNaKwe6rL0zefaPG+m3qUVbhF8ZQUK0o4Oirq3n/pMVXJnZjKZI5PKeNHEeYOXtCcHdfp0JUnVmVwUjxjPMqSLDo9fPGBFu61r79qrkTSfMK1f9/Q6mN37cqXzhKfUsWLYhc/V7T37tMXu/i0CaJSlVyJjfiO5VJLTP598Z4WCg1hXWB+wKzPyJMgYULauctClO3etZNatrBovurlHYVhv7Rly1aUNWt2ORbDhA5Dd+/eoQ3r19P8+X+aFoPzrrbt2ssxmjRJUnr1+hWdO3eWFv31F508edK0jIrMmCkzdezYiRInSUzRv41Ob4TDogcPHtLGDevp76XLpBkBlRfmE3r1/kmdUoUKFSS5DM3TpUuWGPEIXL16lebOmW0V5+5J1qxZqVbtOkbx2nXqSNIMTrTWC1x0GTliuLQ5izi9v4sWLaKXL59TgwYNqWChwhQ5UmS6eOkijRwxLMhuxy/3/QjKWa4Jndi6iNZO7qFfplW4c5euFDt2bBmHeQpb+CEbxD188dzb0RjMMgweNFCm2f7DNv7o0aPTgf37pHY2MK9bvz7ly5ufPn76QKcFUTlCYPvs6TNZNFPmzFS9enVp3mGMsJkKcxO6FC5SlIoVKyq287+nX8ZYbKoiHQ7Rcok+QmLGjEmlhU1eyMWLF+nEcW8NfMTNmDHN6t7YmhqAjeFatWrLcf/hwwc6IebvIYMH0scPH1HcR9m8dRslS5ZMakunS2PRhPexACcyAowAI8AIMAKMACPACDACjAAjwAgEewSYeA2kW7h67TpKmzatXesglB49emjlxAfkRaGC+enpk6d2+YNyhE68nrr1jCpkT0hLD9yiznOPEQjMqa1y05NXH2nrmX+pTv6k8lLMiNc7U6tSKC8P8up6fXOudUXYjo0kyNo9Fx5TghjhKWW8qKqocYTZA5g/0GVp10JUMG1sevP+M6XuskZPkuFDw8tS4lgR6eqDV1R4oL0jsO0DSlLahPZtOXKu1aZUKoKDMWfkL0EE9xAmC8ykXbt21LW7hSibNXOGIOtHmWWziwNZNUmQ/ZEiRbJLQ8TjJ4+pQF5rcxAg2RYuWiJJU9tCsHk6c8YMK+JLzzPml18kEabH6eEDBw5Qk0YNjSjdJqcR6SDw5MkTyp83j4NU16J1ws23krpzLb2/K1cspwoVKxFIal3we27UsAEdO3pUjw4SYWeJ17PnzlPYcOGc6nMasbBkJucuXKQwYcKIhaYjdO/uXapctapdNtiLLVmimIzX74mZo6vpM2ZR8RLFZV69zZWr11D69OllvG//fuzRg3DflOhtYlGsww8/qCTj+PzZcypSuBC9f//OiDMLzJ43T8zjhWQSxjjGOgsjwAgwAowAI8AIMAKMACPACDACjEDIRoCJ10C6vzrxCg2xD0LDK24c7233cNzz4vlzSpgokezhuF/H0tQpU9zubcSoMajBgAUulT+7ZxUdWDnNpTJ6Zp147fbnUVrSpRC9/fCZUnVeQ/90L0T5Usem37ddpagRw/pIvP7eJi9FiRhGVp1D2E2NHCEMOUu8qv7cevSGjl5/RmkTRaMM4g+COtIKcvXL1/+pbORX4rVHpfSUO1VMWV+KOJEFSWshNB0Rr3lSxaI2JS3agihUNlt8STLDLANIY13+OXSb1h6/p0cZ4T/mL6B8+fLJc2dtSEJTceGixUYdIFkvnj9PX758ERqMqeXYA5mUxcsLPDJiq/Txk6ekoyCcQxvx7NnTUpMwfYaM0rEX4gcO6E8LhfarLqVKl6YpUy3jCQsMN2/eoHNnzwmtx2iUOk0audhw6OBBSUqqcjFixqApU7zHYKYsmSl8uPBS69GWuIQG46CBA1RRPx2LFS9Gbdq0M+rIkTOnvDbgcfbMWSMegXbt2hjOtXTiVWW6du0q3bt/n7Jny06RI1uczQWF7eb1+/8pcVw1qSu9fWHR/jYjXiNG+ZYqdxpHYcNHogUD68rLmjBpkjFfJU2ejOLEjiPjz589S2+FAyklnwTJrBPpKh5HRby+FhrP0BSGQKMYWv7QhEadd+/cpeLFisg0nQR1hXj9oWNHKuhFeEYS+CsS9qFY4Lp985asW/0bOnSIGJPe91dvE3kwbs+ePUPv3r4jjAkQxxBoWo8YPlyGHf3TbTD/MW8uDRs61FFWjmcEGAFGgBFgBBgBRoARYAQYAUaAEQghCDDxGkg3UhGvnz59oozp08lenD53TpJK+LhXDnyOnTgpSQlbTUBXux0jfjJqP2WvS8UuHd5MS0c2d6mMnlknXvP03UhKC7XO+D20qHNBSTAWGrCFOpVP4yPxqtf55w/5qGSm+C4Rr0v23aIufxwzqpnZJg9VFNq3kEaT9tO2sw+MNL8Sr0ZFItBUmEgYWT+rjHJEvOr5EXbXxis8tYP0gxQtUpju3zMnaGUGr3979u83yDMzLVlow3bq3Jlq16xhFGvfoQN16dpNnp8TBFQNsfUb4xVSqlQpmiyI1W+EdjIItFw5c8h49Q9kXfnyFeRpv759aMlib9IXkTBBkFgsNGzcuEEVsTsGlo3XM2fPE0wynD1zmqpXq2bXLxVhS7zq14ny+/cflKYSkB/bzRV2qnxAHaPFTkgdZxySzX398pl2LRpL+/75jcq2Hm5laiBftXZUvGEvCiXMT0CmtC9Iz/611hJ318arIl5RL+bBzp060pbNm3EqJX2GDGJMlaZJEyfIc50EdYV49apOHvT7Aw3WCePH6cl2Yb1NaCpXq1JZ2mhFRpgN2LRlqxzvZprhtpVVrlKFxv5qaW/zpk3Uob03sW+bl88ZAUaAEWAEGAFGgBFgBBgBRoARYARCBgJMvAbSfVTE64OHD6hwgQKyF9t37KJEiRORvmV6/caNlDJlKoImWdWqVdzuLbTWavw43aXyF/evoyMb5rlURs9sS7xObZVLmBhITNDmhJbrw5fvKVvPDTS+aQ5/I14/f/kqtFrXWtlXzZQkOm3qa9mSPGDpKZq19ZrR7eBKvO7et4/ixY0nNRjTprYQsMZFmQRKCAdR06bPlClXr16h8mXLmuSyj9q9d69hBsOM4F25chWlz5hRFqxfr67cRq5qWfr3P8KOrIWIhoMqOKpyVYIT8XpPkN/FBAmuy+AhQ6l+gwYyqowgqm/cuK4nB2g4UZocVLnjrxQrkWW8vHr2gN48fUDxU2ahB9fOUKRvY1PUmPFln57dv0HQjL1zwd7WtCeIV2gq/7XAZ418nQQNDOJ11YoV1KNHd6t7tGnzFkqeIoW08ZopY3qrNNsT2DTetn2njIa2dr263jaEbfPyOSPACDACjAAjwAgwAowAI8AIMAKMQMhAgInXQLqPinjVbRgqkvW+2JZcVNgMhCgiKzh6U7clXrGtfkUPbyJq+pYrNHjZGX8lXs1ssUYMG5quTqos8Z2y6TIN+8d7a3FwJV73iS36sWPFJmjlQVvaN+nZqxe1av29zOasaQJkVlrZjjT8mjRtRv3695f1Dh82lObNnSvD+Ddq9GiCUzkIFhzGiPMN69c55ZhIFhL/ghPxum7dWurSqZPqujw2bdaM+vaz4AMHaHCEFtiSJk8ZqtBuNEWObnGWpfcHJgjWT/+JLhxYp0dbhf1KvNqas7CqXDsJbOK1o9D2ttXGViY+YNvYtwWPb2N8S4cOW+z6nhKOw2rVqK5dHQcZAUaAEWAEGAFGgBFgBBgBRoARYARCIgJMvAbSXVXEq65tqEglnWRdLLy8Z8+enXQyNpC67HKztsQrKlBb6RHO228T3X781l+JV9hJhWkDW7k3zbJdfPb2q9Rv8WkjObgSr9jynDx5cnkdObJlJdjN9Elmz5lDhQpbbGcWKVSI/v33vk/ZjbSLl6/IrdWObJSiTtQNWbRwIQ3o388oCxvGO3bvNuxiqgTYOAZJOWLYMDtP9SqPOqrfCDzaZxZb0QNK3DE1MH3aNBr7yxirLtaoWZN+HjVaxpkReVaZA/AEpgTaTNhOMROmMFp98eguTe1QiL58/mTEmQX8SrzqdlzN6ldxgU28VihXlq5cuaK6I4+OHHpZZfI6KVqsOM2cNUue7dq5g1q1bGmWjeMYAUaAEWAEGAFGgBFgBBgBRoARYARCEAJMvAbSzVTEKz7k8UEPUdqtN27coDKlSsq4RUuWUo4cOfxMvMLuZpykaWWdzv578/wxvXlh7eDJ2bLIZ0a89qmWgeoVSEZXH76m6r/sltX5p6mB7cJ+a0Nhx9VWQhrxqm/jb9G8Oe3Zvcv2kq3O/16+nDJnziLj0qdNIx1qWWUwOYGNUhCQkJMnT1rZflXZYad1udiSDdmwYT11svECD7uYEyf9RmnTpZOOulQ5HGHnc+SIETT/zz/0aKtwcCJeJ02caNgnVRcRFInXbCXrUekWgyhcRIuDK9VXHD+9f0Nb5g6lY5vm69FWYb8SrydOnKA6tSya0FYV25wENvHqrnkDdRkdhfZzx06d5emyZUupT+/eKomPjAAjwAgwAowAI8AIMAKMACPACDACIRQBJl4D6cYGNPEaFJxrOYI6KBGvi7sUpMLp4tCb958pdZc1dl0+PaYCxYoajsxMGNhmDkjnWgMHDaaGjRrJLoz7dSxNnTLFtjtW5+PGT6CKlSrJuGrCdrDuyd0qo83JhUuXJWGqa2XrWeA8C060IDOmT6dfxli0O/U8CIcOHZoKFCxEjRo1pkKFClLYcOFkFphKyJo5kyRhbcvgnIlXM1Tci0uZowRVbD/asOP65N5VevXkASXPXIBunTtAkaLFotiJU8vKXz9/SGsn96QrR7fYNeZX4vXokSMEe8C+SbcePahtW4tDqpIlihHMtOjy18JFlCt3bhmVJlVKPckI+8W5ll+J18lTplLpMmVkX3r36kn//P230S8OMAKMACPACDACjAAjwAgwAowAI8AIhEwEmHgNpPvKxKs38EGJeJ3TLi+VzZqA4JQraYdV3p30Ct2aXIXChA7l78Tr3ouPqfY4exMJdh3yisiRMyctWrxEnq0XdlM7d+zoKKuMb9W6NfXsZdG4c8a7u6rs2ImTFCVKFHr37p0kSFW8Ovb+6Sdq0bKVPP1REGUrVyxXST4e9x44QHFix5F54HQIzofMRGmFf/r4kTJm8NmZkVl5d+PcMTXgF41XaHdmzOhtSmG4MMNgu83d3WtBuWixE1LHGYdkFZ8/faCNM/rS/9m7C+gorj0M4B+ShECQ4EWKBQlOcHd3bSlWrFiBAn1ocStSKO4OLe4EKO7B3d0dgkuQN/+7neludhM2yUKE777zsjN37szc+U1457wvd+89smk+yv00CDnLNVTba8b9iqwl6mh1A7Vg3FW1HdcqP3zvWgae5oGora/jqxNt/Dh15qyadsLe4PWnFi0gLlIa1q8HH+13xrzIwlWygJWUgILX1KnTYN0//6g2gf1hQDXQfjhilK1+Lf1/82U/e9YsePnypX6InxSgAAUoQAEKUIACFKAABSgQQQUYvIbSi9X/T/iXnGrAPXEqRIoc2e4nfqlNM/Dqua/d7f03tDXVgP82sh+Wgtf+dbKgaQnTaDl9Dlq9z5W9kmLST6YRdZ9rxOuBwWWRxN0VNx6+RJ4epoBIv/+nPk+ePgMnJyc1ElBGBAZWUqZMhX82mkYvyuJGObJlszndgMzLeu/+PeNS+ohTqWjdsgU2/nsNvcHefQfgHtdd7RYvVgQyf6c9Zeq0aShStJhqKqMfJYyzVczbZc2cGdL3L1G+dPC6c88eiL1eOnXsgFUrrf8QoB8Pzmf1TuPxXpveYe3k7mpKAbmG/+BV6qJqoWt5LXx1ju6GJUNNC7JJvV5q166NgYN/V7tdOnfGsqX2jeQMavBapmxZjB1nGsk9ceIEjBg+XO8CEiVKjO07d6r5h6UyoOBV/n3IvxMpmzdtRssWzdV2QD8cGbweO3EC0aK54uHDh8ifN09At2Q9BShAAQpQgAIUoAAFKEABCkQgAQavofQyv3TwGhqPGR6D1+p5kmFck1yK68T1J6g6bDtevX2PXKnjYr42DUF05yjq2OcKXhd3LIQC6Uyryw9ZeQrzdl7Fg6dv7Hp95qGkPSMPJ06aghIlS6hrSxjUuFFDnDljCqXixouL4cP/gFfOXGp0nt6BnLly4e/5C9Tu2zdvUe+H79V8rxJoTZk2HQUKFFDHjh8/hprVLVdtX75iBVyjR8d4LTxbtXIFPnz4oKYcKFmqlJr3NbL2RwFZHV7mnJVjtkrnLl3QrLkp/Dt54jhkVO2lS5cCbG/rGsGpi4jBqy0HW8GrrXbmdRm0+XpXrl6jqmShtF/atcUBLTiXBdACK0ENXiWIlkBaily7do0a6vf1myRJsHjpUmPEtBwPKHiVYydPnVZTW8jvmCz+tm7dOjx98kQOWRVHBa/mc/vaM9LWqiOsoAAFKEABClCAAhSgAAUoQIFwKcDgNZReG4PX/+ADG/F6cngFuLuZ5v/87wzbW0X6bMKFO8/UwQujK6uQNKiLa2lrkOH8n5UQ3SWqcROZdkCmF/ighYIfPnwMcKqB2W3yo1SWRMZ5gW30X3oSE/45b9Uke0p3eHctalUvFXN3XEHneUdsHpPKdOnSYbX3WnV8566daNKoUYBt5UB0LQTdtn0nYseJbbSTOVYl/JQgVYqMKJWRpeZFX/BNr5NFsfT2UifXqFalMs6dO6c3UZ//bNiIlKlSGXUSnjk7ORujFOXApxYdkj7vP3jI4n76BR88fIACefPquw79/NLB6+69exE/nimAlwfp2OEXrF61yqHPZOtiwQle5Tr/bNyElClT2rpkgCFoUINXufiKVavh6fnfFBPyuxY1qunfqkw/oc8VHFjw2q//AHxft67NvvofWeyo4FWfBkHC3uxZs36xkdo2H5KVFKAABShAAQpQgAIUoAAFKPDFBBi8fjFqyxvpAcLZs2dRuWIFdVBGBGbMlBlXLl9GmdKlVJ2MLpRRhrdu3kSxokUsLxLG93b1K4VUCd0++bX5EQ1z4PsCKdTTJGm53OKpLoyyDEEtDvrbKd53E87e/jd4/fe8TSfuoMFYy7kg5bRbE6ups6duuoRei45ZXEnCTxl5qo9ulYOv331Ayyn7MKBOViSLF10FvBL0mhd9YS7zuoC2ZTTrKG/LYFJvmztNPHSr5qlG2Urgq5dPBa/Sbv2GDUiVKrUaAeqVPdsn55GURa6GDh2GSlWqWASgci0JVFesWG5z9fW+/fqr8CqSJNVmRaYlqPtdHauFj6SJLABWU1u9Xr5u7b/IvRYvWoTevXr6P2S1L/N0/qaNVMybL79FAPslgtdjx46hVg3LkbzmHTSfQ3T0qD8x9t+FxvQ2VatVx7B/vyLfulVLbNTel/8i70RCSd1WbHLmyPFFwrokHtmRKlthXDm+CzfPHfLftQD347jHwe+/D0P+Avm19xvN6LucEFAIqgev+7SQuX69HwK8tvkBmVJg8bKlSJTwvz9wyB8KVmq/p24xY6FkyZLqDwfp03qYn2axLSOrO3b6FXW18DWGNl+x7OvFf/BqPn9t0SKFcfvWLb2p+pwwafIn75kxUyYsX2GaJmLrli34qXkzi2twhwIUoAAFKEABClCAAhSgAAUirgCD14j7bvlkIRBw0gLPLN/GhmfSWNh34SHO33kegqt9uVPNQ545s2ehf79+dt9cRszmy19AjSA8dfIEDmoLXEnoF1CRwCq7Fgjm1laSv6UFUjt37sDjR48Dam7UJ/82ObJmyYpvU6TAixcvcerUSRw7dhQydQELUEqbemH8xEkGxby5c9G3T29jnxtA5ixZ1LQWFy6cx7at22zOTxxWnObM+wt5tZHYMjo3nza3a0DTGoSV/rIfFKAABShAAQpQgAIUoAAFKOA4AQavjrPklSgQJgRmzJqNggUL4tnTp8jplSNM9OlLd0LmqA1Oef78eagHwCP/HIWKlSqp7svX53PkyBbqfQqOJc+BmsNYFvOSP1LMnDEdgwYOJAsFKEABClCAAhSgAAUoQAEKfEUCDF6/opfNR6XA1yCQLVs2LFqyNFiPunHjRrRu2SJY5zrqpB27dxtfpZ86ZTKGDhniqEvzOhSgAAUoQAEKUIACFKAABShAAQp8QQEGr18Qm7eiAAU+v0AObfqDBYsWB+tGmzZtQqsWPwXrXEedJAt5OTk7qfl5c2kjlt+/f++oS/M6FKAABShAAQpQgAIUoAAFKEABCnxBAQavXxCbt6IABT6/gIuzC0r9uzhdUO92Wvta+KVLF4N6GttTgAIUoAAFKEABClCAAhSgAAUoQAErAQavViSsoAAFKEABClCAAhSgAAUoQAEKUIACFKAABSgQMgEGryHz49kUoAAFKEABClCAAhSgAAUoQAEKUIACFKAABawEGLxakbCCAhSgAAUoQAEKUIACFKAABShAAQpQgAIUoEDIBBi8hsyPZ1OAAhSgAAUoQAEKUIACFKAABShAAQpQgAIUsBJg8GpFwgoKUIACFKAABShAAQpQgAIUoAAFKEABClCAAiETYPAaMj+eTQEKUIACFKAABShAAQpQgAIUoAAFKEABClDASoDBqxUJKyhAAQpQgAIUoAAFKEABClCAAhSgAAUoQAEKhEyAwWvI/Hg2BShAAQpQgAIUoAAFKEABClCAAhSgAAUoQAErAQavViSsoAAFKEABClCAAhSgAAUoQAEKUIACFKAABSgQMgEGryHz49kUoAAFKEABClCAAhSgAAUoQAEKUIACFKAABawEGLxakbCCAhSgAAUoQAEKUIACFKAABShAAQpQgAIUoEDIBBi8hsyPZ1OAAhSgAAUoQAEKUIACFKAABShAAQpQgAIUsBJg8GpFwgoKUIACFKAABShAAQpQgAIUoAAFKEABClCAAiETYPAaMj+eTQEKUIACFKAABShAAQpQgAIUoAAFKEABClDASoDBqxUJKyhAAQpQgAIUoAAFKEABClCAAhSgAAUoQAEKhEyAwWvI/Hh2BBcoUbIEevXua/GUb9+8QZnSpSzqvqaddOnSYfLUaZaP/PEjqlWrAt/Hvpb13KMABShAAQpQgAIUoAAFKEABClCAAl+pAIPXr/TFmz92suTJULv2d0ibNi2iRXdVh3bt2IlpU6eYN7ParvPddyhQsCAePniA/v36WR0PqxUxY8bE6DFj8DFSJEybMhW7du4IsKtNmjZD127drI6n80hjURc3QRJUa9JR1d28cgbrF0w1jtdv1w/OrtHh9/Y15oz8zagPzY3SNRsjuUcm1YVVc0bh/q3rajtz7qLIU6Ky2t6/dQ2O791i1c2ChQpjxsyZVvXFixXBzRs3repZQQEKUIACFKAABShAAQpQgAIUoAAFvkYBBq9f41s3e+YfGzdBt+7dEUkLIc3L6ZMnUbVqFfMqq+1FS5YiW7ZsWqD4FpkyelodD6sVyb9Njk2bt6ruTZo4EX8MHxZgV82D1zlzZuPyxUt48+Y1Fi1aZHFOtgKl0GnoLFX35NE9tK2Swzg+a8cNw7dhoaRGvaM2IkWOjJa/jULG3IURK058ow9Hdm/G9CG/2rzNyCX7EC+RqS/je7eCz6aVql2rXmOQv0wNtb1v62qM/a2F1fkSXFetWk3VlytfHnny5lXbjg5eXWO646dRm6zu/6mKIxvnY9tfQz/VjMcpQAEKUIACFKAABShAAQpQgAIUoMBnFWDw+ll5w/bF3dzcsO/AQUSNGlV1VL4mfvnKZbW9Y/s2jNVGhQZWvrbg9fvv6uDQwYM2SUIreI0cJQr6T/8HydNksNmvCycOol9L6wA9JMGr+Y06d+mCZs1/UlWODl5jxfsGbafsN7+dXdun96zB0mHWgbFdJ7MRBShAAQpQgAIUoAAFKEABClCAAhRwkACDVwdBhsfLlCpVCuMnTlJdlxGcPbp1DdJj/NSiBYoUKYqHjx6ifdu2QTo3NBsHd8RrWAxe2w+ahpxFyinOF898sX6RNveqNt9qxR9awcU1hqrfvmY+pg7uZEEeHoJXp2gxUK5Zf4t+y07a3KUho2GlSMjq9+qF2tZ/nD+wEWd8vPVdflKAAhSgAAUoQAEKUIACFKAABShAgVARYPAaKuxh46at27TBLx1M85LWr/cD9u3dGzY69pl7EVGCV5liYPrmS4gS1Qnv3/mhU+0CeHT/ltL75lsPDPlrm9p+8+YVmpf0sFAND8GrRYfNdn7o/TdSZSusakY2zoaXTx6aHeUmBShAAQpQgAIUoAAFKEABClCAAhQIGwIMXkPpPVSvURNeXl44euQI0mgLNZUpUw73H9zHuLFjcfDAfvTvPwA5c+XCvfv3MXTI7ziwP+hfubb1aO1/6YD48U3zgMr1PTxMgdy6dWvxxPeJccqBAwewYvkyY1/faNuuHVxdTQtw6XWPHj3C1Cm2F+Jq2qw5UqZMiffv32PwwIF48/aNfprxWbt2bWTNll3tjx8/DrdvmcJDo4G2Ub58BZQqXRoZM2WEi3M0nDt3DuvXr8OypUvMm1ltN2rcGCVKlFR9uHz5MtZrz7lTW0wrOHO8fo4Rr16FyyJb/pKq35uWzMC1i6etniFd1jwoWK6Wqj+w1RvH921V28Uq/4AmXYap7YPb12FU96ZqW3783H8i8hSvbOzLMWmjl68teM1b+Se4xIiF66f34/LRbUiQPB0yFamONF4l8F5b9OzG2QPYsXAU3rx8qojiJ/NAhnwVtMHDH+GzYqIKtnU7+UyWPhdSZikAP22+372rJpsfMrblGp4FqyB5hpyIGS8J7l07g+sn9+LQ+jn48OG90Y4bFKAABShAAQpQgAIUoAAFKEABCkRMAQavofReV63xRvr06a3u/uHDB9y/fw+JEiU2jr179w6FCubHo4ePjLrgbpw8dRpOzs6fPD2gxbXOnr9gLBSlXySwxbUkqG3brr1qKiNqZWStecmfPz9mzZmrqiT4LZA/L/z8/Iwm0aNHV8dlES9b5fDhw2hYr55VoOvs4oxFCxfDM1Mmq9OkH/qCUEFZXOtzBK9pMuZAr0mrlOnL50+0Rbmyq8XK9E67usXC2BVH4OTigo/a70b3hiVw88p5dbjzyL+QOXdRtT26R3Mc2Gb6en2qDFnRd+pa/RLqc9+WVRjbs6VR97UFr10XXlYjg8/6rMOT+9eRp3Jzw0LfuHvpBKb+apq2QYLaUo17qUOjmubE88d39Wbqs9LPw5GtxPdqe2CNZBbHZKdwnQ4o8r3l9A56oyf3bmD2bzXw9IH1Hxj0NvykAAUoQAEKUIACFKAABShAAQpQIPwLMHgNpXdoHrxK4PjG7w0SJkho9ObFixfaCFRfJElqWnl+5Ig/MGH8eON4cDdGaQtm6ff5NmUKJIifQF1KgtaXr14Zl92xYzvGjxtn7Osbf89fgOj/jnhNndZDG33qooLCTBk99SZWn4uXLkPWrFlV/cAB/TFr5ky1LYt77fbxQbRortoIwA+oUqmiGslqfoEdu3YZIfQrrX+HDh7Qgtl3yJ0nD2LEMM1h6qNdo2H9euanYfqsWVpYXUjVySjb/dqI4ZhuMVU/IkWKZLR1WPCqjVrtNGy2uq7vw7toV9XLuMesHTeMsLphIdP7NA5qG9WadESNJqaQ7uSBnRjyy3fG4f4z/kGKtKbweN6Y3li/YKpxbMDMDfjWI6Pab1xMG1WsTTcgZfSKQ4gTLxFevXgG1xgxVd25Y/swoHV1tS0/Ri7ei3iJTYHh+N6t4LNppTrWsudoFChbU237D2tVpb8f9iyuJfOx/tBrnr8zA989uXOlGmlqq1VwphrQg9cXTx4gRmzTiO9nWpj65O41bT8B3L9JibtXT2Nqh9LqliEJXss07YvcFU2jjz+8f4cLh7bg2cPbSO6ZBwlTmBZBe+57D6O1QFdG1LJQgAIUoAAFKEABClCAAhSgAAUoEDEFGLyG0nvVg1cZ3ZnJ0xTGHD91SgWZEkJmzJBehZGHjhyFBJS2wsWQdr3Tr/9Di5amUZAlSxTD9WvXg3TJRUuWQkaiBjbiVS4oo1Z3++xVn/JsFcqVw6VLF7Fk2TJkyfJvIDtwAGbNmGFx/x8bN0H3Hj1U3WnNpnbtmnj75q3ad3Jywvp/NiJZclN4aD4aNW68uNjjs880ivTlS5QoXtQYLVywUGFM1+6jh6+OCl6lU26xTQs+vX39WuvnfyG2jFqNEiWKmm7h1XPTV9nVQ5j96DNlDVJ7mqZbmPVHN2xaNluFsRLKSjl1cBd+b1/H7AwtPF26H/ESJlHhXaPCJoeazTqj6o+mEcZ9f6qE3pNXq3PuXL+EznVN86JKhbOLK5yjRVPHXjx7okbTyo7MF+saw03Vv3rx3AhzVYWNH/YEr+6JU6D1+F02zg646tz+DVg0uLHNBiEJXuWC77Q/cszvXx9XT+wxrh83SSqkzlYUB9bOVHXBDV5jxU+Cnyf6QObflblnp3QsYzFatmTDHshXrZW6x+Y5g7FnmfUfN4xOcYMCFKAABShAAQpQgAIUoAAFKECBcC3A4DWUXp8evN69dxeFCxRQvdiydTuSJkuKhw8fIn/ePKpu7fr1SJPGAwF99T8k3f9Swav0MUeOHJi/cJEKPOX55syeZSzsFVCofPDQYcSMFUsFuzm1+XBfv/4vzJRrlihZAhMnTZFNrF3rjfZt26ptCWsltJUic+aO+nOk2tZ/mAe+jgxe9esH59PFNQbGrjwM+ZQpBcb1bo02/SYorxfPfPFz5exWIeik9WfUiFYZ6SojXuMm+AYyhYCEfns2LMOEvj9DH2379PED7Rq2p2sITn/1c+wJXl3d4qDG/ybpp9j1eXaPNw6sm2WzbUiD16XDW+L0blMgbfMGWmVwg9fqncYjozavq5RpncrizuWTalv/EdXJBf/76ywiR4mKR7cuY8LP/4Xheht+UoACFKAABShAAQpQgAIUoAAFKBAxBBi8htJ71INXGWUqo02l6CHr7du3UbRwIVW3YsVKNU/p1atXUVoLGh1ZvmTwKv2Whb3a/PyzxSM8faLN61ognzGS1fygPp+szHF76OBBRNYCRb3oI1ZlgTApV65cQZlSpkWqpk2fjsJFTHOf5srpBbmHeWnY6Ef81rOnqgorwat0xiNzTvScsMIYjSt1EsL2bFzG5qJbUzaeh0u06NoITj80KZ4S/aavR8p0mfH65XO0qpBZBbWztl9XQeyLp75anfV8t3KPkBR7gteQXN/WuSEJXmXxrOH1TdMz2Lq2Xhfc4LXlmK2Il9S0YN0ZH2/tcpH0S2pbpu3U2QvDKVoMyDQEg2unNI5zgwIUoAAFKEABClCAAhSgAAUoQIGIJcDgNZTepx68Xrx4AeXLllW9WLFyFTwzZoR5yLpg0WI1WtQ8jHVUl7908Cr9Xr5iBTJmyqweQea3rFq5Es6cOWP1SB4eHvBet96qPqAKmSc3dy4vdVjOk/Pl+um1eWj9l0KFi6jpBqQ+LAWv0p8azf6Haj/+Ipuq/DW6D9YtNI3q1ev0zzHaCNnYcROq55w0oD1kflYpf/yvIY7u2aS2Z++8qT7v37qOTnXyqW1H/ghvwav5PK6BOQQ3eO2sjWaVUNXeIsGrBLAsFKAABShAAQpQgAIUoAAFKEABCkQ8AQavofRO9eD1woUL2pyn/wav/45uNR+9KV/P99K+Zh9Rgld9Xlhhl/leK1UoDzHwX8zD0bt372DHjh3+m1jsX9VGvEqIKmXrtu1qUTK5foZ0aS3ayU7mLFmwdNlyVR/WgtcqjdqhVvMuRp9nj+iBjUtnGvvmG7/P24YkKUzBst+bN3BycbGYC1bmlp207rQ65fLpo+jdvIL56Q7Ztid4ldHJCb5NH6T7vfB9AFkIy1YJyYjX8wc2YOGgxrYua1EX3OC1++JraoSxjKw9sHaWxTX978gfBrb/PYwLbPmH4T4FKEABClCAAhSgAAUoQAEKUCCCCDB4DaUX6ajgVRZtMv8K/vv371Wgac9jfekRr63btDHmddX75/vYFwW1qQZkkTHzEsc9DvbtP6iq9u3di/r1fjA/HOi2ebibziONVdvy5Stg1Jgxqj4sBa+yuJYshqVPoyAdlKkGujcsgZtXzls9R/cxi5EhR36jXqYcaFMpC169eKbqMucuis4j/1Lbh3dtwMguPxptHbVhT/AalhbXOuuzDouHNvvk4+ep3AylG/dR7UY3y4Vnj+5YnFOz8xRkyFde1Q2skcw41mHGUUSPHU+Fxn82Ni2WZhzkBgUoQAEKUIACFKAABShAAQpQgAJflQCD11B63Y4KXo+dOIFo0VyNpzhy5Ajq1Kpp7Ae28SWD16xZs0ICUQkVnz9/jmXLlqJBg4aqe7t27ULjRqZt8/6eOnMWUaNGxa1bt1CsiP2LEI0cNRoVK1ZUl6perRpOnjhufll06doVTZs1V3VhJXh1dnHF2FVHEC26m59iZYUAAEAASURBVBoBOXd0bzRo30/18fmTx2hbNYfV4lrft+mJCnVbGs82fcj/sHWVKWiVyla9xyJ/6erq+MKJg7F67lijraM2Imrwmr3k96jYZrhimt65Am5fOGZB1vSP9UicyjRnrnnw2njoaiTxyK6mDxjyvQenEbBQ4w4FKEABClCAAhSgAAUoQAEKUODrEmDwGkrv21HB6/FTp+Di7GI8xdGjR1G7Zg1jP7CNLxW8SjC8Rxu1GiNGDBUqSv+OHTuGdf/8g9SpTSNSBw7oj1kzZ1p0d/2GDUiVKrWqa9ywIXbt3mVxXN9xdnG2WJyrdu3aGDj4d3V448aNaN2yhd5Ufe7W+hI/Xny1HVaCVxnpmiZjDtWnpdP/wPLpI9CgwwCUrmn6WvzJAzsx5JfvLJ4jRsw4GO99QoXZ79/5oVmptEY4GyWqEyZox1SQq42abVbKA35v31ic74gde4JXCdvdE6dSX8G3954vtWkGXj33tdk8JFMN2DviNWWWgqjXd4G6/4YZfbBv1VSjLzKi9Zdph43nMQ9eC9fpgCLfd1Jtt8//AzsWjjTO878h70jeGwsFKEABClCAAhSgAAUoQAEKUIACEVOAwWsovdevKXhdvHQZZMSrlIkTJ2DEcNNIQve47ti5czecnJ3V9AhVKlXEuXPnjDciC43JgmNS/N6+xcCBA/DXvHnGcbnmL506oUD+Amj6448Wwezho8dU0CuN+/Xpg7lz50CmZRgzbjxKlSplXCMsBK/VmnREjSamsO7KuRPo1aSs0b9h83chUbKUan/u6F74Z+E045hsDJy1CcnTZFB1508cwJ9dTUFtxyGzkCaTabExqe/fsqrFeY7asSd4ddS99Ot8ieDVNaY7Os4yjZR+++o5pv5aDo9vX0GM2AnQaNAyuH+TUu8OzIPXyFGiosMMbeSyWxw1TcTuZeMgAay+gFaM2PGRu1JT5CrfSM0Bu3XeEOM63KAABShAAQpQgAIUoAAFKEABClAgYgkweA2l9xkeg9cjx44jevTodonpX/Fv26492rZrp86RUFUW0zIvpUqXxvgJpkWxnvg+QcGC+SxGr/bp2w8/1KtnnCILEr31ewtnJ2eLuVD9j4itX78BemmBq17evXunglfz+VPlWGgHrx6Zc6LnhBXqWWSBrJ+rZtdGej7Vu43Y7gkwcul+RHVyUkFejx9L4cals8bxpCnTot+09WphLaPSbOPN65fo1qA4Hty+YVbruM2IGryKUL2+C5EySwEDS0anyihVKX5vX2l/MDBN8WEevMoxGS1bt9c8SAirF7/XLxDFycWibteSMWDwqgvxkwIUoAAFKEABClCAAhSgAAUoEPEEGLyG0jtdsWo1PD09cfbsWVSuaFptfvmKFciYKTOuXL6MMqVNozL/nr8AOXPlwq2bN1GsaBGr3oZkjtcOHTuhVevW6prFixXBzRs3ra5vXnHi5GnI1/rtKbVqVMfTp88g0wVI2Pn2zVsUKpQfspiW//LHiJGoXKWKqt60aRNatfjJoknRYsUx8s8/4ebmZlEvOzISVqZX+EULd+/dv2dxvHqNmhg4aJCaJ1Y/IIt49fytB34fMlRVTRg/HiNH/KEftvps0rQZunbrpuq//64ODh00Lfhl1TCYFZPWn4FrjJjq7GEd6+H4vq1WV8pXsgpa952g6p8+foCfK2ezaCMjYntPWg232O4W9U8e3UPvphXw6P5ti3pH7oRO8DoPqbIVVY8xomHmAKckMH/Orgsvq9D0jI83lgy1/P0yb2e+LVMKNBy4FPGS/LdAmyx2tm/1FLhEj4XspeqqMHxQrW/NT1Pbbu6J8F33GUicxjTS27yBXOPmuYPYML0vbl04Yn6I2xSgAAUoQAEKUIACFKAABShAAQpEIAEGrxHoZUb0R4njHgd58+RD2nRpcfPmLZw5cxqntTluP1W8cubUzssDHx8fHD58+FPNLY6bB6/6gQ9acJZB60NYKxK85ileSc0bum+rt8XIWUf2NU/evJg7779FvPRr2xPe623D02f8ZB5Ilj4XHt2+ghtn9mvTYry3u/syQjZhSk9tIa7MeP3iKR7fuYL7185yble7BdmQAhSgAAUoQAEKUIACFKAABSgQfgUYvIbfd8eefwGBRtrcsT1+62lxJ5nuIH1aD4u6r2knX758mD33v7l29WcvUqgQ7tz5fKNr9fvwkwIUoAAFKEABClCAAhSgAAUoQAEKhAcBBq/h4S2xjxSgAAUoQAEKUIACFKAABShAAQpQgAIUoEC4EmDwGq5eFztLAQpQgAIUoAAFKEABClCAAhSgAAUoQAEKhAcBBq/h4S2xjxSgAAUoQAEKUIACFKAABShAAQpQgAIUoEC4EmDwGq5eFztLAQpQgAIUoAAFKEABClCAAhSgAAUoQAEKhAcBBq/h4S2xjxSgAAUoQAEKUIACFKAABShAAQpQgAIUoEC4EmDwGq5eFztLAQpQgAIUoAAFKEABClCAAhSgAAUoQAEKhAcBBq/h4S2xjxSgAAUoQAEKUIACFKAABShAAQpQgAIUoEC4EmDwGq5eFztLAQpQgAIUoAAFKEABClCAAhSgAAUoQAEKhAcBBq/h4S2xjxSgAAUoQAEKUIACFKAABShAAQpQgAIUoEC4EmDwGq5eFztLAQpQgAIUoAAFKEABClCAAhSgAAUoQAEKhAcBBq/h4S2xjxSgAAUoQAEKUIACFKAABShAAQpQgAIUoEC4EmDwGq5eFztLAQpQgAIUoAAFKEABClCAAhSgAAUoQAEKhAcBBq/h4S2xjxSgAAUoQAEKUIACFKAABShAAQpQgAIUoEC4EmDwGq5eFztLAQpQgAIUoAAFKEABClCAAhSgAAUoQAEKhAcBBq/h4S2xjxSgAAUoQAEKUIACFKAABShAAQpQgAIUoEC4EmDwGq5eFztLAQpQgAIUoAAFKEABClCAAhSgAAUoQAEKhAcBBq/h4S2xjxSgAAUoQAEKUIACFKAABShAAQpQgAIUoEC4EmDwGq5eFztLAQpQgAIUoAAFKEABClCAAhSgAAUoQAEKhAcBBq/h4S2xj+FW4MfGTdCgQUPcu3cXdb//LtDnGD9hItKnzwBv7zX4Y/iwQNvyIAUoQAEKUIACFKAABShAAQpQgAIUoEDYFmDwGrbfT5juXWGv8sieLj8eP32Aud6jw3RfHdW5ZjW6IlHcZDh4egfW7VoQ6GWjR4+O/QcPwcnJCbt378aPDRsE2n7I0KGoXqMmPn78iKKFC+POnduBtudBClCAAhSgAAUoQAEKUIACFKAABShAgbArwOA17L6bMN+zwW1nIW+Wknj99hUq/Jw2zPfXER1cM/oMXKO54dCZXfh1ROAjWEePHYty5cqr21aqUB7nzp0LtAvucd3hs3c/IkWKhMOHD+O72rUCbc+DFKAABShAAQpQgAIUoAAFKEABClCAAmFXgMFr2H03Yb5nDF4DDl7d3Nxw8PARFaJeuXIFZUqVtOt9zl+4CF5eXqptyRLFcP3adbvOYyMKUIACFKAABShAAQpQgAIUoAAFKECBsCXA4DVsvY9w1ZsKBb9Hniwl8PDJXYz5u2e46ntwO2vviNfuPXpA5neV0qF9O6xZs8auW2bNmhWLly5TbdevX4e2bdrYdR4bUYACFKAABShAAQpQgAIUoAAFKEABCoQtAQavYet9sDdhXMDe4PXgocOIGSsWnj9/Dq/s2YL0VFu370CSJEng5+eHTJ4ZgnQuG1OAAhSgAAUoQAEKUIACFKAABShAAQqEDQEGr6H0HmQRJflK+dEjR5DGIw3KlCmH+w/uY5w2L+jBA/vRv/8A5MyVC/fu38fQIb/jwP79Ie5pjZJNESuGO/af3Ioy+WshU5pcOHPlCGauGA4X52hoWKkD0n6bBeeuHsOY+b3w4tVTq3tWLdZIa+tqUf/0xeNPLjQlJ5TOVxP5s5ZCqqQZcOH6Sew45I09xzagWrHGiBQ5MnYdXY+bdy9bXFt20n6bGQWzl9O2PmLOmlGIGsUJhbKXRfHcVZE0YUrcun8FyzbPxIFT2yzOTZPME6Xy1UBq7X4J3JNqc9G+VPc9efEgNvgswYcP7y3am+9k8cijzs2YOqe2eNg9+BzfjNXb5mLZiKOfnOP1Gy003aaFp1J2bN+Gpk1MI1/Nrx/Y9oBBg1GnTh3VpFGD+tizZ09gzXmMAhSgAAUoQAEKUIACFKAABShAAQpQIAwKMHgNpZeyao030qdPb3X3Dx8+4P79e0iUKLFx7N27dyhUMD8ePXxk1AVnw3vseUTzF5rKdR5pwaKLUzTEcI1lXPbanQv4sVcxY1/f2DjpGiJHiqzvqs9PLa4VJUpUDGk3B16ehS3Okx0JQCWQlTJ+YV8s3jhFbZv/aFS5I+S/Uhr+VgRT+2yAc1QX8yZqu/WgSipIlp0BbWagQLbSVm30irsPb6DtkGp44HtHrzI+G1Rsj8ZV/2fs6xtXb59HonjJlGFgi2u1atUKHTr9qk6bOmWyFpwP0S9h1+cP9eqhT99+qu3ChQvxW/dudp3HRhSgAAUoQAEKUIACFKAABShAAQpQgAJhR4DBayi9C/Pg9YnvE7zxe4OECRIavXnx4gWe+PoiSdKkqm7kiD8wYfx443hwNsyDVxnpmiKxhxq9qV/r0s0ziB87EWK5uauqmp1y4PGz+/ph9dmv1VREjxZDbXumyqHO/1Tw2rXxn2qErZwkbWWUq1MUZzX6VUJZvdgTvN7XgtIEcRLj7bs3uKGNjn3r9xopvkkLV5cY+Pn3Kjh16ZC63J//W4KsafPi1ZsXOH/1OK5qQbIUqZP2Ul69fo5K7T3x8eNHtS8/iuWshF4tJqr99+/fYd/JLVq7l1pfS1pYBRa8zp47D/ny5VPXCMr8ruoE7UfGTJmwfMVKtXvx4gWUL1tWP8RPClCAAhSgAAUoQAEKUIACFKAABShAgXAiwOA1lF6UHryaz+N5/NQp7Wv8LtpX4D8gY4b06vPQkaNwc3ODj48PGtavF6Le6sHryYsH1GjPeFrIumjYQXXN89dOoMWAcipclHlMpQya3g4bfZaqbVs/BredhbxZSqowtcLPpjDTfzu36LGxfORxNUpWpi5o2LOI9tX9B6qZTAUwqed6YwStPcGrnLjj0FoMmNoafu/81HUiRYqEWiWbY8uBlcYI1pqlmsFXu8/m/SssglU5oXWd3qhVqrk6d+C0tti017SYlVT8PXivNqo1KT58/ICfB1cxRtDGjBEHc/rvMELpwIJX73Xr4eHhoa5ftEhh3L51S23b+yNKlCg4ffacai7TTxT8N8S193y2owAFKEABClCAAhSgAAUoQAEKUIACFAh9AQavofQO9OD17r27KFyggOrFlq3bkTRZUjx8+BD58+ZRdWvXr0eaNB44ffIkqlatEqLe6sHrss3T1RyucjF96gDvXfMxfJbp6/Hrxl9UX+Uft7APlmycGuA97Qle65Zrg+Y1TF+VH7ugN5ZummZxPRlBWyiHzN9q31QDD57cRZ3/5bS4RlB3ZHTsmjFn1Wmrts/FyLld1XayhKkxe8B2tS3zxXb+0zLorlb8R7SrO0AdDyx43bF7NxIlTKQC3/RpTQGsOikIP/QQ/uXLl8ieNUsQzmRTClCAAhSgAAUoQAEKUIACFKAABShAgbAgwOA1lN6CHrxev3YdJUsUU73QQ9bbt2+jaOFCqm6F9pVzT+2r51evXkXpkiVUXXB/6MHrPO8xmLbcNO+oHrLK3Koy4lSKhJISTs5e/Sdmrhwe4O3sCV67NRllzOFasV0G9fV+8wuaf7XfnhGvo/7qgRVbZ5lfItBtmQ4he/oCSKItwhU3ZgIgkmlagfxZTfO/yijZ/pNbq2sU9iqPvi2nqO0hMztg/e5FFteWeXDXjjNNWRBY8Lp7717EjxcfMjevjFwOTjl89BhixIiB169fIWvmzMG5BM+hAAUoQAEKUIACFKAABShAAQpQgAIUCEUBBq+hhK8Hr+ZzeK5YuQqeGTNahKwLFi1Gjhw5YB7GBrfLevAqoauEr1Jshawr/jyBmNHjqIWu9DDW1j3tCV7HdFmOTGlyqa/ul2rxrdVl0qXMiondvVW9PcGr+TyuVhczq/hWm7924M8zkDRhKrNa683th7zRZ+JP6sAP5duiWfUuavuX4bVw7JyP1Qn6COHAgtd/Nm5CypQp1ble2bPh+fPnVtf5VMXZ8xcgUyj4PvZFntwhG+H7qXvxOAUoQAEKUIACFKAABShAAQpQgAIUoIDjBRi8Ot7UrivqweuFCxdQoZxp8SR9dOuVK1dQplRJdZ35CxfBy8vLocHr1GVD8Nda/8HrSG106x/qno4MXidrc7h6JM8EWaiqdKuUVjZyTNpIsSd4rdEpG3yfPbS6jnmFi7MrFg7dr8JjqX/09B6OnNmDu49uGPPCNqz0izpl5+F16DWhmdpuUasHvivTSm23HFQB564cU9vmP/QRwoEFr4uWLEW2bNnUaU0aN8bOHabpC8yvE9i2TDch005IuXH9BkoULxpYcx6jAAUoQAEKUIACFKAABShAAQpQgAIUCIMCDF5D6aU4KniVhZgiR45sPMX79+/VolxGhdmGPuL1Swav/VtPR8HsZVQvSrVMofXtvVmPgNyZimNI+zmqzp7gtXL7jJBFugIrlQrXQ8cGpqkUzKdQ0M8xnzLAPHitXKQ+OtT/XTXrOroh9p3YrJ9ifG6efENtBxa89u7TF/Xq11ftRo74AxPGjzfOt2ejUuXKGDHyT9V0y+YtaPGTKRi251y2oQAFKEABClCAAhSgAAUoQAEKUIACFAgbAgxeQ+k9OCp4PXbiBKJFczWe4siRI6hTq6axb74RGsFry9o9Uad0C9WNDsNr4+i5PeZdQpNqnVG/QjtV56jgtWvjP1Emfy11TVthb7Z0+THyV9P8rebBq1eGghjecYE6zzyc1jucVJsnds6AnWo3sODVK2dOzF+wULVbu9Yb7du21S9h12fXbt3QpKkpbO3etSsWL7aca9aui7ARBShAAQpQgAIUoAAFKEABClCAAhSgQKgKMHgNJX5HBa/HT52Ci7OL8RRHjx5F7Zo1jH3zjdAIXmVxq3HdVqluyJypMneqXiJHjoLFww4hTsx4qspRwetvzcejRO4q6prN+5XGxRun9Vuqz4k9vJEuRVa1bR68xnCNBZlmIXKkyLh9/xrq9ShgcV6nBkNRsfAPqi6w4FUanDx9Bk5OTjBfPM3iYoHsmE9VkD1rFrx8+TKQ1jxEAQpQgAIUoAAFKEABClCAAhSgAAUoEBYFGLyG0lv5WoJX4Z3RdwtSfJNWSW85sBIzlg+Hs5Ozmg4gY+qcxhtwVPBas1QztKnTR1339OXD6De5Fe4+vAGnqE7o0WwcinhVMO5pHrxKZd+WU1DYq7w6vmLbbIz+qwc+fvyIknmro0fTMcZ5nwpep06bhiJFi6n2MoevzOVrT3GP6w6fvfvVwlqnT59G1cqV7DmNbShAAQpQgAIUoAAFKEABClCAAhSgAAXCmACD11B6IeExeF0+4jhiubnbJfZjr2K4dscUNsoCWmO7rYRz1P9G5uoXefDkLuLHTqR2HRW8yhyuS/84Atdobvpt8OrNC7i6xFD7r14/N475D14TxUuG2f13qJBWGn/4+EFbGOy9sa9f8FPBa7p06bDae61qvnPXTjRp1Eg/NdDPwUOGoGZN06jg1i1bYOPGjYG250EKUIACFKAABShAAQpQgAIUoAAFKECBsCnA4DWU3suKVavh6emJs2fPonJF0wjM5StWIGOmzLhy+TLKlC6levb3/AXImSsXbt28iWJFi1j1NjhzvE5eMgjz15sWfFoz+owKIWetGgH5rxQ9YF24YRImLupv3HPNmLNGeGlUBrDRpE8JXLl1zjiaMG4S9Gs1FWmSZUSUKFHx9t0bnLp4CBOX9MfE7t6q3fBZv8J713zjHH2jYaUO+LFKJ7VbqZ0nXr5+ph8K8DNNMk8MaDMTieIltWgjQe/Pgytrc7XuUmHq9kPe6DPxJ4s2ieMnx7iuq+AeK75RLwGsBMONtX7IlASHTu/AryPrGsdtbazfsAGpUqVWi515Zc/2ySkDZJG0Y8dPwtnFGY8fPUbePLlsXZZ1FKAABShAAQpQgAIUoAAFKEABClCAAuFAgMFrOHhJEa2LMqer77OH6rHyZSmFQW1nqu02WiAqUwM4sqRMkg5pv82ijXh9roWlu+0KbfX7J3D/Bl6ehXD/0S0cPb9XG/n6Tj9k12fGTJmwfMVK1XbO7Fno369foOf92LgJuvfoodpwtGugVDxIAQpQgAIUoAAFKEABClCAAhSgAAXCvACD1zD/iiJ2B3u3nISiXhXVQ1ZslwEyDUBEKjNmzUbBggXx7OlT5PTKEeijbdm6HUmTJcW5c+dQqYJpntlAT+BBClCAAhSgAAUoQAEKUIACFKAABShAgTArwOA1zL6aiNOxrOnyoUujEVi6ZTrW716E5y+fqOkG6pRugeY1uqkHPXBqGzr/WS/iPDSfhAIUoAAFKEABClCAAhSgAAUoQAEKUOCrFmDw+lW//i/z8ObTCcgd5Sv7Ms+rXmS+1/rdC+KB7x29ip8UoAAFKEABClCAAhSgAAUoQAEKUIACFAjXAgxew/XrCx+dT5HYA31aTUHyxGkQOVJko9N+7/xw9Nxu9JvcWo2CNQ5wgwIUoAAFKEABClCAAhSgAAUoQAEKUIAC4VyAwWs4f4Hhrfux3NwRP3Yi3NdGtz574Rveus/+UoACFKAABShAAQpQgAIUoAAFKEABClDALgEGr3YxsREFKEABClCAAhSgAAUoQAEKUIACFKAABShAAfsFGLzab8WWFKAABShAAQpQgAIUoAAFKEABClCAAhSgAAXsEmDwahcTG1GAAhSgAAUoQAEKUIACFKAABShAAQpQgAIUsF+Awav9VmxJAQpQgAIUoAAFKEABClCAAhSgAAUoQAEKUMAuAQavdjGxEQUoQAEKUIACFKAABShAAQpQgAIUoAAFKEAB+wUYvNpvxZYUoAAFKEABClCAAhSgAAUoQAEKUIACFKAABewSYPBqFxMbUYACFKAABShAAQpQgAIUoAAFKEABClCAAhSwX4DBq/1WbEkBClCAAhSgAAUoQAEKUIACFKAABShAAQpQwC4BBq92MbERBShAAQpQgAIUoAAFKEABClCAAhSgAAUoQAH7BRi82m/FlhSgAAUoQAEKUIACFKAABShAAQpQgAIUoAAF7BJg8GoXExtRgAIUoAAFKEABClCAAhSgAAUoQAEKUIACFLBfgMGr/VZsSQEKUIACFKAABShAAQpQgAIUoAAFKEABClDALgEGr3YxsREFKEABClCAAhSgAAUoQAEKUIACFKAABShAAfsFGLzab8WWFKAABShAAQpQgAIUoAAFKEABClCAAhSgAAXsEmDwahcTG33NAk5OTli8dBncYrhh5Mg/sHrVqgA5cubKhaFDh+Pdez/UrlULT588CbAtD1CAAhSgAAUoQAEKUIACFKAABShAAQpEXAEGrxH33dp8sha1eiB+nG+w78QWbPBZYrMNKy0F+vUfgO/r1lWVRQoVwp07ty0bmO1Fi+aKI8eOIXLkyNi+bSuaNW1qdpSbFKAABShAAQpQgAIUoAAFKEABClCAAl+LAIPXr+VN//uc3mPPI5qzK/af3IIuoxp8ZU8f9MeNGy8udu/Zq4LUUydPoFrVqp+8yKTJU1G8RHHVrkK5srhw4cInz2EDClCAAhSgAAUoQAEKUIACFKAABShAgYglwOA1Yr3PTz4Ng9dPElk0GD12LMqVK6/q6tf7Afv27rU4bmsnRYoU2LBpszp0+PBhfFe7lq1mrKMABShAAQpQgAIUoAAFKEABClCAAhSIwAIMXiPwy7X1aAxebanYrpPpAo6fOAknZ2fcu38PhfLnt93QRq33uvXw8PDAx48fkcsrB549e2ajFasoQAEKUIACFKAABShAAQpQgAIUoAAFIqoAg9eI+mYDeC4GrwHA2Khu2OhH/NazpzoycEB/zJo500Yr21XFihfD5CnT1MGZM6Zj0MCBthuylgIUoAAFKEABClCAAhSgAAUoQAEKUCBCCjB4DaXXWr1GTXh5eeHokSNI45EGZcqUw/0H9zFO+2r7wQP70V9b0ClnrlzaSMv7GDrkdxzYv98hPTUPXnuNb47ieaqiQNbSSJ44DS7dPI3lm2fi+IV9gd4rp2dh5MtSEhlSZYeLNl/suWvHsevIOuw5ujHQ875N7IE6ZVsiWcJUcI8VH89e+OLuo5vYcdAbu46uh987P5vnR44cBVWLNYLcN3H85KrN46f3cObyUazbsxA37162eZ5UxowRB2Xz10Ymj1xI+U063Ht0A6cuHcayLTPw9PnjAM+TAwsXL0H27NlVm8yZPPH2zdtA2/s/eObceTU37PVr11GyRDH/h7lPAQpQgAIUoAAFKEABClCAAhSgAAUoEIEFGLyG0stdtcYb6dOnt7r7hw8fcF/7WnuiRImNY+/evUOhgvnx6OEjoy64G3rweujMLiRwT4zkidJYXeqPOZ2xZsdfVvUuTtHQp+Uk5NVCV1tFgtc+k5rbDFBb1u6JOqVb2DpN1W09sAr9JreyOp4oXjJM770RrtHcrI7pFeV/Tos3b1/pu8Znnswl0K/1FDhHdTHq9I23796gx5gfcfD0Dr3K6vPo8RNwdXWF39u3yJTR0+r4pyoOHDyEWLFjQ95phnRpP9WcxylAAQpQgAIUoAAFKEABClCAAhSgAAUikACD11B6mebB6xPfJ3jj9wYJEyQ0evPixQs88fVFkqRJVd3IEX9gwvjxxvHgbujBq37+7fvXcOryIaRMkh5pkpnCxddaiFmpXQYtMHyvN1OfM/tthYxalfLspS/2HtuM9x/eqSA2Tsx4qt5WgJo9fX6M6LRIHX///p0aIXv60iE1GjV9ymzqmtsPeaPPxJ9UG/Mf5ve8//g2Tl48gIe+d7URuqmRPUNBFapW1Pr66vVz89OQK2NRDP1lnlF37JwPLmojelNo/ffSRs5K+fDxA37olk8bBXvLaKdvxIwZEwcPH1G7MhK5YL58+iG7P1d7r0W6dOlU+xrVq+HE8eN2n8uGFKAABShAAQpQgAIUoAAFKEABClCAAuFbgMFrKL0/PXj18/NDJs8MqhfHT53SvrrvokZIZsyQXn0eOnIUbm5u8PHxQcP69ULcW/Pgdf3uhRgys6NxzT4tJ6OIVwW133V0Q+w7sdk4VjpfTXRrMkrty2jZrqPq491709QAUaJExYTua+CRPJM63rxfaVy8cdo4t23d/qhevLHa7z2xOXYcWmsckw0Jc+PHSQS5rnmRaQzWjj2vqiR0/a5LbvPDkPuWzVcL630WQwJdvUSKFAmLhx1W0xlIuPrLsJo4ceG/qRqypsuHP39drJofO79XHdfP1T8zZc6CZcuXq92jR4+ids0a+iG7P8dPmIhSpUur9h07/ILVq1bZfS4bUoACFKAABShAAQpQgAIUoAAFKEABCoRvAQavofT+9OD17r27KFyggOrFlq3bkTRZUjx8+BD58+ZRdWvXr0eaNB44ffIkqlatEuLe6sGrBJUyqvWN32vjmhKcTu65Xu2PXdAbSzeZFoeSisXDDyFurISQ0bDVfskM+aq+eTEPM2X+1DF/9zQOD247y5ieQMJTCVHtKfFiJ8KiYQdV0wOntqHzn/YFzyXzVEOPZmPVebNWjYD813+Z0XcLUnyTVo16Ld0yBT5+/GjRpGzZchgzbpyqW7Z0Cbp07mxx3J6dtu3ao227dqrp8GFDMXnSJHtOYxsKUIACFKAABShAAQpQgAIUoAAFKECBCCDA4DWUXqIevJovvKSHrLdv30bRwoVUz1asWAnPTJlw9epVlC5ZIsS91YPX63cvolHPohbXkzlc1467oOoW/DMBkxYPNI5vnHQNkSNFVvO37jm2AZG0/+hFRphKKZSjnPo8d+UoWg6qqLblR4taPfBdGdP8rXLf8Qv74eCp7caIWaOhjQ39vjJy9e+147B6x1zcfXjTRsv/qn7+ri9qlGyqKmREq++zh0Z/9b6m/TYzZP5YKS0GlMP5ayfUtv6jSrVqGD78D7X717x56NO7l37I7s+mzZqjS9euqv2Y0aMwZvRou89lQwpQgAIUoAAFKEABClCAAhSgAAUoQIHwLcDgNZTenx68Xrx4AeXLllW9WLFyFTwzZrQIWRcsWowcOXLAPIwNSZf14FW+1v/riO+sLrV58g1Vt2zzdIyZbwobJaD8e7CPVduAKu773sF3nXMZh2O5uWPR0ENwiupk1MmGtPPWFvH6a+0YmwtySZs2dfqgZqlmsmkUGXUr4e74xf20z2NGvb4xvOMCeGnzv9pbZG5ZmWPWvOTKnRt//T1fVQV3modhw4ejarXq6ho9unXFokWmeW7N78NtClCAAhSgAAUoQAEKUIACFKAABShAgYgpwOA1lN6rHrxeuHABFcr9G7z+O7r1ypUrKFOqpOrZ/IWL4OXl5fDgdf/JLegyqoHV09sKXjOm9sLYritV22t3LmDnYcs5Wv1f5Na9q/DeZQot9WMJ3L9Bl8Z/IlvavGpuVr1ePmXagiEzOmDLftM9zI/Jdu5MxfHLDwPxTYJv/R/C6cuH0X5oDYvRs1N6bTAWCpNQ91Nl1fZ52ihaU+Cst02c+Bts37lT7d68cRPFixXRD9n9uXjpMmTNmlW1b9ywIXbt3mX3uWxIAQpQgAIUoAAFKEABClCAAhSgAAUoEL4FGLyG0vtzVPAaJUoURI4c2XiK9+/fq0W5jAp/G/qI16AEr9GjxcTq0abFsmRkqIwQDW6JHDkKPFPlQIVC36N47qqIpi2gJcXvnR8qtE1rsUiW/3vInK/5s5ZCtRKNkTppBuPwPO8xmLZ8iLFvvkhY+Z/T4o02QjY45dSZs4gaNSpevXqFbFkyB/kSu7QF0RLET6DOy5o5M16/Dl4/gnxjnkABClCAAhSgAAUoQAEKUIACFKAABSgQ6gIMXkPpFTgqeD124gSiRTOFl/IoR44cQZ1aNQN8quAEr3Kx9eMvq6kCrtw6hyZ9Qj7XrN7BOQN2ImnClGq3eb/SuHjDFPDqxwP6zJulJGTRLilnrhxB60GVjKaNKneE/FdKu6HVceLCfuNYUDb+2bARKVOlUqek80gTlFNV25OnTsPJ2RmPHz1G3jz/Tb0Q5AvxBApQgAIUoAAFKEABClCAAhSgAAUoQIFwJ8DgNZRemaOC1+OnTsHF2cV4iqNHj6J2zRrGvv+N4Aav47pp889qI1WlSMgpYaetEjWKk8XX/m21Ma/r8uNIlC1QW1X91L8sLlw/aX44wG0Zhbty1Em14Jf/MDhtiiyY1GOtOlemImgzuHKA1wmsvz179UKDho3UuY0a1MeePXsCvI7/AylSpMCGTZtV9aZNm9CqRfBHCfu/NvcpQAEKUIACFKAABShAAQpQgAIUoAAFwr4Ag9dQekfhLXhNmigV5vTfobRkcauh2pysWw+uNvRSJkmHehXaoVjOSmg7pJpFMDusw1+QoHTO6lHYe2ITPn78qE2PEAXZ0+XDkPbz1JyvHz5+QOmWKdQx/aIpEntgfPfVWL3zL8xfOwGPn91Xh2TKgXZ1B6CwV3m1v2LbbIya110/TX3KaFgZFStFplUYMLUtnr3wVfsu2vQGJbVpDqS/z176ouXACqre/w/3uO7w2bsfkSJFwvHjx1CzummhLP/tbO1PmjwVxUsUV4eqVqmM01pAzkIBClCAAhSgAAUoQAEKUIACFKAABSjw9QgweA2ldx3egldhMv8Kv+xLWPrmzUu4uERXI0+lTor/EbESnmZImd10UPv56vVzq3NkEaypy/6bp1Uap0nmCVkoSy8yD+w7bSEu12huepVamKt+94J44HvHqJONODHjYWbfrYjl5m7UyyJeUpyj/jdCWEbYykjbgMqKfxc8k7C4cIECuHf/XkBNjXoZgXxUmwJC5t69ffs2ihYuZBzjBgUoQAEKUIACFKAABShAAQpQgAIUoMDXIcDgNZTe84pVq+Hp6YmzZ8+ickXTiMvlK1YgY6bMuHL5MsqULqV69vf8BciZKxdu3byJYkWLWPU2qHO8rhlzFq4uMbD3+CZ0G2P6Gr35RTdPvqF2l26ahrELepsfUtuZPXKjb8spcI8V3+qYjITdf2Ir/pjbGU+fPzaON6zUAbVLN0cM11hGnb4hYejfa8dh1qoRepXxKSNbh3ecj+SJ01gEu3qDc1eP4fcZv0CmGrBVZBqBTg2GoHT+WjbPv373Iv5aOxbrdy+ydbqqy5M3L+bO+0ttr1m9Gh1+aR9gW/3Ar//rjJ9atFC73bt2xeLFAV9fP4efFKAABShAAQpQgAIUoAAFKEABClCAAhFLgMFrxHqfX+xpZOqADCmzInmiNLjnewvX7lzEzbuXA71//DiJkTJJeiSOlwyv3rzQzrmAyzfPfnJO2ChRoiJt8sz4Jn5yxIrhjpv3r2rnncHDJ3cDvZ9+UKYKSJogFTKkzo4o2hQHN7R+yn1fvn6mNwn0c8myZciSJSv8/PyQNXMmvH//PtD2h48eQ4wYMXDr1i0UK1I40LY8SAEKUIACFKAABShAAQpQgAIUoAAFKBAxBRi8Rsz3yqdyoECy5MmwafNWNdfrgP79MXvWzACvXrhIUUybPl0d//67Ojh08GCAbXmAAhSgAAUoQAEKUIACFKAABShAAQpQIOIKMHiNuO+WT0YBClCAAhSgAAUoQAEKUIACFKAABShAAQqEkgCD11CC520pQAEKUIACFKAABShAAQpQgAIUoAAFKECBiCvA4DXivls+GQUoQAEKUIACFKAABShAAQpQgAIUoAAFKBBKAgxeQwmet6UABShAAQpQgAIUoAAFKEABClCAAhSgAAUirgCD14j7bvlkFKAABShAAQpQgAIUoAAFKEABClCAAhSgQCgJMHgNJXjelgIUoAAFKEABClCAAhSgAAUoQAEKUIACFIi4AgxeI+675ZNRgAIUoAAFKEABClCAAhSgAAUoQAEKUIACoSTA4DWU4HlbClCAAhSgAAUoQAEKUIACFKAABShAAQpQIOIKMHiNuO+WT0YBClCAAhSgAAUoQAEKUIACFKAABShAAQqEkgCD11CC520pQAEKUIACFKAABShAAQpQgAIUoAAFKECBiCvA4DXivls+GQUoQAEKUIACFKAABShAAQpQgAIUoAAFKBBKAgxeQwmet6UABShAAQpQgAIUoAAFKEABClCAAhSgAAUirgCD14j7bvlkFKAABShAAQpQgAIUoAAFKEABClCAAhSgQCgJMHgNJXjelgIUoAAFKEABClCAAhSgAAUoQAEKUIACFIi4AgxeI+675ZNRgAIUoAAFKEABClCAAhSgAAUoQAEKUIACoSTA4DWU4HlbClCAAhSgAAUoQAEKUIACFKAABShAAQpQIOIKMHiNuO+WT0YBClCAAhSgAAUoQAEKUIACFKAABShAAQqEkgCD11CC520pQAEKUIACFKAABShAAQpQgAIUoAAFKECBiCvA4DXivls+GQUoQAEKUIACFKAABShAAQpQgAIUoAAFKBBKAgxeQwmet/06BL75Jgk80qVDvHgJECVKFPXQPnt24eaN658FIFGixMiZK7e69saN/+Dtmzef5T4R4aLOzs6oVKUaIkWKjM/5TkLbKknSZMhfoJDqxqqVy0L9d6J02fKIFSs2zp8/i2NHDoeIxzNTJqRKmRrPnz/H9m1b7LpWpEiRECN6DLx89RIfPnyw6xw2ogAFKEABClCAAhSgAAUoQAEKBEeAwWtw1D7TOQULFVGBxNGjh3Hr5g0V1JUpW0HdbfPmDXjz+vVnujMv+zkEqlSrAa+cphDU/Prr1q6Gz+5d5lUO286dJx8qVq6qrjf6z+F49PChw64d0S4k4V/H/3VVj7Vu7RrtneyMaI+onidPvgKoULGy2v5zxFD4Pn4cqs/ZvVc/ODs54cL5c5g7e0aI+lKvQSOkTZcBb/38MKhfrwCvlTJVahU+p9I+nV1cjHbyh4lTp07Ce83KUA+kjU5xgwIUoAAFKEABClCAAhSgAAUijACD1zDyKqNGjYrfevdXvfl73iycPXMG6TNkQN16jVTdwL694PfOL4z0lt34lEDyb1OgafOWqtnHjx9x795dLfDyVfu7dm7DtatXPnWJYB1n8Go/G4NX+60c2fJLB69pPNKiQaMmgT7C+/fvMW7MSP6hIlAlHqQABShAAQpQgAIUoAAFKECBoAoweA2q2Gdqn8EzI77/oYG6ev8+v0GCgKrVayKHVy41Qk1GqrGEH4Fy5SshX4GCqsOTJ45TI5i/RO+Tal8rL1ikqLrVymVL8fr1qy9x23B5DwavofPaHBm8emn/++iRPj2ePX2GtdqoVVvFPHi9evUyLl+6hLt3b6tvFxQpUhwx3NzUac+ePcXI4UM4/YAtRNZRgAIUoAAFKEABClCAAhSgQLAEGLwGi83xJ1WrURvZc3jh8aNHGDVymLpBh1+7IHbsODh4YD9WrVjq+Jvyip9NQP8KtMwh2a93j892H144+AIMXoNvF5IzHRm82tOPRIkTo3DR4tiwzhtPnjyxOCVy5Mj4tUsPRI8eXdVP0f5IclOb5oWFAhSgAAUoQAEKUIACFKAABSjgCAEGr45QDMY1YseJg9SpPYwzZcEZ+T//9+7dw55dOxBJO1JFG/EqRRaguXz5Et5pUw0cP3ZU1YX0hyy2Ey2aK65du4KLF84jYcKEyJItBzzSptPu8w7Xr13Ftq2bw+W8snnzF0B01xi4cOEcsmX3QvJvv1VhytZNGxHVKSqKFSuJxEmS4rYWsHh7r3LIMzppc1YWKlzMeC05c+eGm1tMNXpux7atRr1snDxxVL1n2ZbpJJIkSY7bt29qC3DFR+as2fBUC4d27tiGO7duoWTpMkiVxgNPfH2xZdMGrd0tOc2iyDVk8S7/Zf9enwCnp0ibPgOSJU2OFy+eYZ/WTvY9M2ZC8uTfaiOsH+H0yZM4dOiA/0s6ZD8kv3tptH8z0tekyZJp79JJeZw9fVJNzRFY57Jqv9vpMqRHokTf4O6dO9rzncD169cCnOM1QYIEmkdmfNT+s3vnDjUC3fz6MpWEzBfqp80tuieQuWFlcbUMnpmQJGkSuMeNi+fPnuOO9g5379qJp08tQ0D9+rL4UzbtjzApUqREYu38d9o9ZDG2w4cPqr7r7fx/OkV1Qp58+ZEqdWrE1OavvXrlMo4ePoSk2jv93HO8yu9g6tRptf5+g+gxYmi/r4/VyNJ9e/coI/O+mgevC/6aq37n02nvNL5mLiNR9/n4BDoVR568+RBVe1bz8urVKxwO5u9r8RKlUbR4CXW5DevXYtfO7eaX5jYFKEABClCAAhSgAAUoQAEKUCDYAgxeg00XshMlfCpbvmKQL9KnZ7cgn2PrhJ59BqjFu05rC8tISJJP64//IiHfpPFj/FeH+X092PHf0efPn0HCKZdo0YxDDx7cw9hRI4394G7EcXfHLx0723W6+eJajZv+hBQpU1mdJyNlHz16gPjxExrHZPqJYb8PtJo+oHXbDio4Nxr+uxHY4lqNGjdXAZ0sLnT8+FHkzJXH/+k4oQXEixfMt6oPaUVwfvfkvdWp+4NaSMnW/WVO5IXz51oFpFGiRMEPDX+EBLb+y6lTJ5BRC1el+F9cy/zf5x9DB+HZs2cWp+vTgEilrX+Tct+KVapBvgofUFmg9VcCbvPiHjceGv3YFPL7ZKts2rAeO7ZvtToko3d/atVGhf3+D8oiVvIHFSmOXlwrZsyY+EGbh/qbpEn931bty+/x0MEDLH5n9X+fly9d1ALiWNrvuPUfDWSEv4z0t1V69xsECafNy6cW1zJv63+7WPGSKFailKo2/7fpvx33KUABClCAAhSgAAUoQAEKUIACQRVg8BpUMQe1z5QpC8pXMq00Hs3FVY3ElEtLOCglRgw3FS5IcPHy5QtV5/fWz5iGQFWE4Icefr14/txijsPH2ornbtq948aLp0bXTRg3Kth3kRG8DRoGvqiN/4tLCLh71w7/1UHa14MdOUm+NpxAC3bMVzK/e/cOYsaMZXy9eLgWZj5/8TxI9/DfWMLcatVrGdVptFGqck9ZWOvM6VNGvWzIiOZr2ohiKebBq4yAlNGNcePFV8fkx4sXL9TvRKJEiVXdqhXLtEBqn3FcNiQ0Sp4ihaqL5x7PCO3sCV71C715/RoXL57XQmlXSN/1Ml5bcEhGYTuyBOd37+f2HYwQ+vWr1zh37jQ+vP+gRr/G0EZYSjlx4pgWFP9t0dWatb9HFm0UsRQJmc+ePaON9HbRgsj0FuGdo4NX8/cq/4Zl9Kk4xo8fXxuBnQLOzs5Ys2oF9u/zMforI9D/17WH+oOIVD56+ECNdHd1ddVGRmc06pcsXoDjR48Y58lGx/91VXOWyrav9m/40uWLSJAgoRrBLHV6cWTwKuFyl+691LPI9eV36PLlS9rv63NtZHEibVRycshX+f3/+zL/9ynnyfQqN25c1/54kAgyLYAUCVJ/H9DH5nyr39WtD2ftHUpJro3aln9nIQlezd/V6D//UO7q4vxBAQpQgAIUoAAFKEABClCAAhQIoQCD1xACOuJ0mVJARsZJYKIvotWhkza/qzYdwaGD+7FyuePnd9XDL+n/O793mDtnOq5cvmw8joR/Htpq4PJV4eAWGb3XvsOvQTr97JnT+Hve7CCd47+xHuzIdAnTpkzUQtaY6NS5u2qmj+KVsKb7b31U3dLFC3Hs6GH/lwnRfqPGzbQRpWlU2DdoQJ8Ar6WHPvIOBvTrqdpJv6R/EtjJQmsS3v5Pm4dSFgGyFS6aXzx3nnyoWLmqqrI3eH308CEmjB1lTEsgcw3LnMNSJOSVsNeRJai/e1mz50CNmnVUF2SU5NzZM4yRrRLsNW/ZBvKVfinyhwKZSkCKBJlduvdUAevLly8xeuRwY+SlhILNfmplhK+ODF7NF3OSMH3qpAkW0wpIYFmhUlWcP3fGIpSv8/0PyKj9QUbKxn/Wqekm1I72Q959e21EtbM2vcLbt28xZFA/wyB9Bk/UrddQNZWFo2bNmKKfhoKFikCmMdGLI4PX8hWrIK82tYGUC+fPav9u5xh9kjr5d1erTl1Vb77Im/7vU9ocOXQQy5ctlk1V6tStZ4xCnjt7prqufszWpz6XcnCDV1mMTn5/pMjvyNDB/W3dhnUUoAAFKEABClCAAhSgAAUoQIFgCTB4DRabY0+Sr6jLV4tlTs2Vy5Zo8xdGxW+9TQHAvLmzcF4bpefoYh5+LZr/F06ePO7oW0BG6tX5vl6Qrnta+/q3zDkakqIHO/t8dsN7zSp1Kf3rybqxVP7Wq78aafw5vl4c1OD1wYP72pQHI1RfW7Vpr0b+mQfxTZu3VCMlL166gDkzpql2tn4EJ3idPnWS1Zya+u/Hp+5nqw+fqtOvLe3s+d37tUt39RV6CdeGaoGjzEFsXmSqBgmwpez12WOsbl+ocFGUKlNO1cvvgfw+mJf6DRsbX8F3ZPDapl0HNdpU7mUeBJvf2/+2jJju1qO3qpZR2rLIk/9SrnxFY0oQ+R2QdyOlcTNtuooUpukqbAWrepAvbW0dl/rgFP3flLyXIQP7WoSugV1P//cpf1gY3L+PEfjLORKgt2jdVp2+1nsV9u6xfGf+rxuS4FUCcPmDjL6wlvyRRv5Yw0IBClCAAhSgAAUoQAEKUIACFHCUAINXR0kG8zrmIevf82apRYJk8aB69RupK8qIR5nb09FFD7/k68GDtdAkIhU92JFFrTZtXK8eTQ9ZfbSFkCRkk9K9Z1/1NeltWzZjy+YNqs5RP4IavOojceX+esh6//49jBs9UnWpQeOmap7S2zdvYtLEsQF2MzjBq605SvURtjItg4yGdWQJ6u+eHvDJv4OzZ08j0sdI/3Xn301ZGEzKLS20nPxvaFldG7Uri1RJkVHHMtWAeZEpCGQqAimODF713z+ZKkC+um5PSZkqFX5sYgqPnz17qhb+Mp7z32eUgFCfD3jrlk3YunmjunSHX7XR8bHjqGkphv0+wOp2tb77HpkzZ1P1jgpezUezy6h479Urre4bUIXuY/7HBr2tzOXbo3c/tSuLXMliV4GVkASv+rlyfZnyQaZ+YKEABShAAQpQgAIUoAAFKEABCjhSgMGrIzWDcS1ZDbyutjiNlAF9e6rRfJWr1tAWO8ptMfVAMC4d6Cl6+CVfyw7JPK6B3iSUDurBjoSuEr5KsRWydu3eG9Fco8E8jFWNHfAjqMGrPi2C3Fo/1zxkld8R+V0xD2NtdTOowat8bX1Qf9NIS/Pr6VNd2ArHzNsFZzsov3tBWbRM+iJf7R8x7HfVrSbaKOFvtflUZaqGvr1MU02Y9zdZcpluoLWqclTwKqMo5fmkyFQC8+bMUtuf+iGL28mIVnvLsSOHsXTJQtVc/6NCQL8bMupXRv9KcVTwKouSybQAUlavXIYD+y3nHVYHAvih//uUaSNmzZhq1apP/8GqznzEulWjfyv08DSoUw1UqlIduXKbFpSTEcZTJ41XvycB3Yf1FKAABShAAQpQgAIUoAAFKECB4AgweA2OWgjP6dS5m1o8Sy4jq3PrK3TLV2+lyLyVetHrtm/dDBnl5qiih1/ntGkM/pprXzgU1HvLc8mCOUEpssiVLPgVkqIHO+YrwOvBq/lIwbAUvMpiW9O1rzpL0Ue3mo/elDk8ZS7PgMI13SvIwas2CtTWHLRfIni153fPPBx98OAeTp+yXKhMf27987E2X61MJyGl1c/alA3aomTyb6hf7x56E+MzQYIEaNOuo9p3VPBqPp+weThq3DSADfNwVOY5vnfvbgAtTdWXLl6ABJdS9BHB5qOmTa1MPwsXLYaSpcqqHUcFr3ny5tfmqa2irrnw73k4pU0RYm/R/31eOH9Ozdfr/7zPHbwWK1ESxYqXUreV+Y3HaQvIfY5vFfh/Lu5TgAIUoAAFKEABClCAAhSgwNcnwOA1FN65HjwE5dY+u3dpX4deHZRTAm2rB6+nT53Egr/nBto2uAfNv45s7zUcubhWSINX8wBc+q+H4PY8iz5qVb7ebivY1K+hL64VHoPX4PoE5XfPxUWb+/Q304hcCfck5LO36KMhpb2t6RTSpPZQIbcc9x+85itQUBuBWkkOqRG0MpLWvHz3fX14ZjJNb+D/2noQevXqZcyYOtn8tAC3zRc0W750EY4cPhRgW/8HZG5YmSP28aNHGDVymP/DMF8Ey1HBq/nUCP4XArPqgL8K/X//QiN4zZOvACpUrKx6JH/gkakg3rx57a+H3KUABShAAQpQgAIUoAAFKEABCjhGgMGrYxyDdBUZhRdVW53c2dlZfa1cTpaFZG5cv44MGTJCRqhJkcVe9LDP1/dxiEeCqov++yMo4Zf5eUHZDs/Bq/nIUf2ZZf7MFy9e6LuBfv6/vfOAk5r44vhTEUGKdFB6770IIopU6SJNBUVUpEiRYqU3AQGR3gVUOlIFqdKL0jvSFRFpAvoHRFH/85tl1tnctrvbW7nj9/hwSSYzk+Sb7Gbzy5v34rrwmjhRYun8rqcX6eKF82XH9sBDziN77Zn658+fl9HKOzFYq1a9ljxa5jFdfeSwoQKPWdvKPv6EVK5aTRc5hddixUpI7br19DrEjIX3sW1IAIVEUDCn8Pr2e910wiaI7oifjFAHgSxtunSCpGqwLSoO8fLbcYgDtcP6Nu07SKpUaeTWn7ekb+9uEZoYcR8rQiW8JkiQUN7t0l1v6/ixo/LZ1E8ibNdXwX8lvBYqUlSerddQ7xZiWw8fNiSk36m+jpflJEACJEACJEACJEACJEACJEACdy8BCq//4bnCBeLXAABAAElEQVTPkzefPPfCi1qYQXxXDHd9pm59KVKsuGAI7PCPB8fY3hkxKyY9XhFqIEWKlCqUwr+hEwId0LVrv8mNGzcCVfO73gg70fF4tYdSm40NHtBPEAohGIvrwqs9pN7wQHIiJCkKZJG99pq3aC3pM2TU3U5QIihicnozxFe1h4ybzxfq7ti+TRYvnOfRrH2HtyR5ihS6zCm8Zs2W3f1SBJ7m8Dg3lihRIun8Thd3iBCn8IrPNLYNW7pksSBWqdOwr/fFi+dO+AXv4fe79lIvZOJpAXXAB710vGdnOyw7j/MZlUQMHrMwxJRFbFlj8R94QOARa8KZhEp4Rf9GYMY8PEeRTMxpEGjhUWqLz+bzGU6PV4TpQLgOGOIajxr+kVy96unF7Nx3LpMACZAACZAACZAACZAACZAACZBAdAlQeI0uwWi0N1nXbZHVZChHshokrYkpi6z4FVP7ERP9GmGHwutgLeB7Y9y0WXPJmi2bFv68hUIIFOM1nMJripSppN2bnfRhIInSwi/myIED+9yHlSZNGuUlXkHyFygok8aP8RBm33q3q4qnnEjXnTtrhuzfv1fHUK5R6xmdwM504hReH3zwQS0sYj08V8eOGaFZwtMXSbtSpExpmkbweE2UOLF0eus9d6xmJHnbtGG99l6HAJo9R06p3+B5QbktVNte1levXJHp06YKkt/BIMxCDH6i/FOS/pGMHp6tSZM+JB3felfXg6g4fswo7d0L0fX1lq21N6xeqf6EUni1xUx4285UIUuOHf1ObwricEkVB7aK8ij+6MP+Hi8szOczXMJr+vQZ5DUl3hvxec3qFT4/F/CqPnfOxdww45QESIAESIAESIAESIAESIAESIAEokqAwmtUyYWgnRFZv/1miyz9cpHcr8IPdOneW/eMobsYwhtTRuFVxF9yrdji8fpCk6aSK3eeoC6Tlcu/kk0b1+u6sUl4xQ7bCZGwDA/KP5XIeL8K12EENZQ7PWILFCgk9Rs9j1Xa4BELEdNugxVO4RVlhhHmYWgLQREGATi++rzCnB6vKCv1aGmVfKoOZt0GARdiqDFvHsLNXntdMmfOaqposfbWrVs6LIkp9JYsrE7delJUhUcwZu+fKcM0lMIr+mv4fGPJl68AZrXp8wI26rwYc3qKR0d4tb1sTf++pia8xGNly0mVp6v7quZRHpMjADw2xAUSIAESIAESIAESIAESIAESIIG7ggCF1//oNEP86d6rn976Z5MnyfETxyRnrjyChEAQL0zogZjaPSO8RjZhUUztTyj7NcLOyuXLlNC4Tnf9fteeWvRau2aVrP16tS4zIs7mTRtkxbKlHrtgex+aFZGJ8fpis1cFyZsQSxJxPn2ZEfe+P6USMU1yJWJ68WXVNnsO7bkJIRHW6HmVzClffu2NN2bkMHd3ZjvuAj8zX69aIevXrdE1TDtf+/dmx7clWfLk2nMSApbTQhHjNbLXXqZMmTUHeJQ6DULj8SNHZPGieXL9+nWP1bnz5JGGKhmWEU2xEh6ac2ZPdw8/R4zlb7Z4hgSAp2yz11ooj9HU7v7w2UQM1gQqmVWx4iX1Z7VX9/fd6+0ZxIBF2IGHkiWzi/U8vCq/mD1D4GHpNIi2VarW0GEHnOuQEGrf3t1aKHauq1S5qjz+RHmP4iuXL8uOHd9KxUpVdfnQwQNCPsS+YKHCUuuZem4h2uwAWB0/dkRmTv/cI2zC+916aWEWIREQGsFpPfv010U4Hzgvtpm2dpmvecQDBt/Sjz2uEqXV8FXNozyy16RHYy6QAAmQAAmQAAmQAAmQAAmQAAmQgIMAhVcHEC6SAAnc2QQeeCCBPJI+vRZEf/31ily4cNFrfFHnUSCBVQYVKxZJ7CIznDx16tSSMWNmufTLJTn9w/fuhHfO/n0tw5MdMWpTpUqlRM9f5eezZ+S3337zVd1djnAOaJdIhTe48ssvcv7CuYDtIC5nzJRJkidPqT3mf/01fHFMIYhnyJBBEidOKpdUvNeffjrjjmHrPijOkAAJkAAJkAAJkAAJkAAJkAAJkMBdRIDC6110snmoJEACJAACCHlwbySS3hlqf/11S/5U3sU0EiABEiABEiABEiABEiABEiABEiCBwAQovAZmxBokQAIkEKcImFAjkT2oy8rzdtjQQZFtxvokQAIkQAIkQAIkQAIkQAIkQAIkcFcSoPB6V552HjQJkMDdTCCqwitixiJBF40ESIAESIAESIAESIAESIAESIAESCAwAQqvgRmxBgmQAAnEKQKZMmcRxJ6NrF2/dk3Onv0pss1YnwRIgARIgARIgARIgARIgARIgATuSgIUXu/K086DJgESIAESIAESIAESIAESIAESIAESIAESIAESiEkCFF5jki77JgESIAESIAESIAESIAESIAESIAESIAESIAESuCsJUHi9K087D5oESIAESIAESIAESIAESIAESIAESIAESIAESCAmCVB4jUm67JsESIAESIAESIAESIAESIAESIAESIAESIAESOCuJEDh9a487TxoEiABEiABEiABEiABEiABEiABEiABEiABEiCBmCRA4TUm6bJvEiABEiABEiABEiABEiABEiABEiABEiABEiCBu5IAhde78rTzoEmABEiABEiABEiABEiABEiABEiABEiABEiABGKSAIXXmKTLvkmABEiABEiABEiABEiABEiABEiABEiABEiABO5KAhRe78rTzoMmARIgARIgARIgARIgARIgARIgARIgARIgARKISQIUXmOSLvsmARIgARIgARIgARIgARIgARIgARIgARIgARK4KwlQeL0rTzsPmgRIgARIgARIgARIgARIgARIgARIgARIgARIICYJUHiNSbrsmwRIgARIgARIgARIgARIgARIgARIgARIgARI4K4kQOH1rjztPGgSIAESIAESIAESIAESIAESIAESIAESIAESIIGYJEDhNSbpsm8SIAESIAESIAESIAESIAESIAESIAESIAESIIG7kgCF17vytPOgSYAESIAESIAESIAESIAESIAESIAESIAESIAEYpIAhdeYpMu+SYAESIAE4hyBocOGS6GChWTtujXSp1evOHd8PCASIAESCAWBTz+fJpkyZfLoavq0z2X8uHEeZdFd+HLpV5I4cWKPbgYNHCBLlizxKPO2MHrMWMmdO48sXbpEhgwe5K0Ky0iABEiABEiABEggWgQovEYL353TuGjRotK0WTO9Q927dZNfr169c3YuGnsyavQYeeSRhz16+Puff+TFxo3l+vXrHuV32kI4zknbdu2kQoUKEQ59yJCPZOOG9RHKgy3oP3CgpE2XTjZv3CgTJ0wIthnrkUCsI5DwgUTSoXF/uefee2Xe6kly6OQuv8dQ9rGyMvnTT3Wd3kp0/fwz17zfRtFc+e5770m6hx+W7d9uk88//yyavd0ZzZMkSSJTFMd777nHY4d+PHNG2r7xhkfZnbjQsFEjeaxsWbl08aL06d07RnYxJu5/ZcqUkeYtW+r9fVPdP+LKb4UYOQEh7PTJ8k/Jm2+2j9DjypUrZfSoURHK40rBrj17JVGiRB6HA4ET114o7fCRo3Kv+g63bcTwYTJi+HC7yOv8wA8/lLrP1pN/1G/LJ8uVk59/Puu1HgtJgARIgARIgARIIKoEKLxGldwd1q5N27bSrv2beq9q16whhw8fvsP2MGq7s3f/fkmQIGGExuXUA++5cz9HKL+TCsJxTubOmy+FChWKcNhDPxoiY0aPjlAebMG+gwflgfgPyCE1rVO7VrDNWI8EYh2BVMnSyewPt+v9Hj27l8xd5f9Fw8YtWyRN6jRy84+bUjBfvrAcr/ke/O6776RWjeph2WZMbyR9hvSyZu36CJu5ceOGFC5YIEL5nVYw54t5UrhwYfnzjz8kf768MbJ75rw7O4/O/a/9mx3kjTZtdJfVn64qx44dc3bP5RgggJekbdtFFF53794tDevXi4Et3hldGuH1yuUrMnzYx3qnduzcoX9b+NrDxMnTSsWXukj6XMV0lf0bFsj6mYN9Vdflz9arJw8mfFAeSf+IvNb8dV0WrPCaPEVy2frNNrlHvQTatWuXNGpQ3++2uJIESIAESIAESIAEIkuAwmtkid2h9cMh8v0Xh95CeeakSZNGb/rR0mUkV65cej46D57hOo5wnJMaNWpIseLF9SGlSZtWqlZ9Ws9TeA3XWeZ2YjuByAiv+LwhzABs5owZ0r1b17AcvhHg4pLwihc7b7/7jpvfM8/UlSRJkwqFVzcSiYn7H4XXf/mGcy6veklTv/6/gl6TF1/SQt/dIryeOnlSqlSu5Bd58nSZpXKzXpKzpGe94zu/lpl9X/Lb1qzEb0SEHYAFK7yi7szZc6RYMZfQW7FCeTn9w2kU00iABEiABEiABEggJAQovIYE43/fCYa/tro9PLNduzbyy6Vf/vudCvEevN+li7zc7BXda2wQXsN9TvLlzy8LFi7SfCi8hvjiY3dxlkBkhFc80OPBHkNSSxQrKr/99ltYuAwePESHGti6dYuMHDEiLNsM90YM29givL7eooU88cSTcumXS9JejTiJaQvV/Y/Ca0yfqeD6P3DosNx///1C4dXFq0SNV6Tqq95DdoRDeMXIIYwggi1fvixWhDtxkeNfEiABEiABEiCB2ECAwmtsOEvcR00gVA+ecRUnhde4emZ5XDFJIFjhFeEFEGYAtnXrVnmpSeOY3K27ru/YJryG+wSF6v5H4TXcZ8779ii8enKp8movKVnjVV145rsdsm7GYHmh5wy9HA7hFRtau36DyinwiPz555+SP28evW3+IQESIAESIAESIIFQEKDwGgqK0ewjRcoU8vbb70qePLklZapU8vvvN+WXX36RLZs3y+cq+cjFSxe9bgHJAHLmzBFhHTyiAiWegudohYoVJXPmzHL8xHFZ/tVXskC97W/bvr1KUHCPLF682CMGF2LZ1W/QUHt6fdCvnxRQMfjq128gxUuUkJs3b2qvjd69esgfN/+IsD8owHD4RioZSY6cOSVlylSq3k0dW27Hjh0yZfIn8tdff3ltZxeG6sHT7tOeb9CggRQqXERu3bolvXr2sFd5zL/WvLnilkWfI3iW2hadc4LEEM1eeVVKlXpUndecKobk73Jw/wGZNn2a7FScAllUhNfyT5WXBg0aSb58+eXKlV9k3br1MnbMGNmmYrD5i/F63333SZu27aTMY49JOhXiAHblymU5cPCQTjaE2LCx2aJ6vadS13b7Dh30oU+dMlkefiS9PPfcc5JfeSOfv3BBCXbwWBzu83MSVWaITVc87xPyZImakj51FknxUGq5dOW8HD29T7YfWC/bD67z2nX54jUlS/o8cv7Sj7J620Kp9UQTKV2wgiRNnEL2HftWVm75Qg6f2h2hbZJEyaRexdd0+bLNsyTlQ2mlSpn6kj97CTl36bTsPLxJFq6ZKrf++jNCW1OAPqqWaSD5c5SQLA/nkvO//CgHT+yS+Wsmy6//u2yquadZHskl5UvUVsv/yPSlIyXzIznVci113OXk9z9uyN6j38ini4f63Wal0s9KmUKVJFv6vHL8x0OycedS2X98e1AxXlu1bi0dOnbS+9O1y/sye9Ys9775m8lfoKC0VZ+VDBkzyEPJHpJr//ufik99XpYv+0q+mDNXx4p1tsd19MprLhHCXrdv7z756quldlGEeWT2RpiT0qVLy0MPJZc9e3fLLBUW4fLly1K7Th1df7gKl/D77zfcbeuoYf4l1Hf5+fPndDIaLFerVl3yqtil58+fl5UrlvvMQo7vrWrVqknN2nUkffr0kjx5MvXdeFmOfHdY1q5ZE1RWcexITAuvnTq/JcmSJZOTasjzJ5Mmuo/dnsGxdO/RU/D9tmvXTpn3xRf2ahWjs50kTOgZcxz36mASEOKcIgFmEZUIE1neL168IDifo0eOVN8N5z22420hsve/Bx98UO9vSXU/SZUypezdt1dmTZ8hJUqVChjjNaq/Sbztt78y3C8xvHuPinOaPUd2qVLlabmguIxSTHZs3yZ9+vTVvzHw3fmhylC/fds2f90FtQ4cE6pYoHv37JY5c+Z4bZMu3cNuRgsWzFf7st1dD5+vho2ekyfLl5e0adPoxFE//XRWDh44IAvmz5M9e/a46/qbCVZ4LVCwoNStW1f/9ho08MMI3xfllNd1+fJPqhAdv8vgQR963WRUr71QXAcmxmugUAPlGnaQTPlLy4qJ3eTC6SMSP2ESeWvaIX084RJe+37QXxo2bKi32fTFJrLl9os2r1BZSAIkQAIkQAIkQAKRIEDhNRKwYqJqIyXK9FYPFxBOvNn/1EN6sSKFva1yv513rvSXXAtD2+bO/ULyKiHIaRs3rJfHyz2hi8eNHStDBg9yV+n81tuCoZUwPBSZ5BzuCmoGyROeKPe4xwM91tuxs+z6Zv7SpUvSsEG9gDG1IvvgafoPdjpAPdQgQQPsnbfflvnzPB+6UY4kDN9863oI+/7776VyxQoodpvxmHAX3J7xd05QBcOXp372uRKlUzqb6uWpU6ZIv759vK4zhZEVXrv16CEvqjhzTjt79qx+UL8/fnyvybVy5Mgh8xct0sKss61ZxjWLaze2WlSvd2QMx3mEIUlHUSWyOA3Xe52aNYMSW5xtfS0v/Hi/JHkwma/Vsmn3Cuk1rkUEUXJc12WSM1MB+e36FSV2XpH0abJE6GP4jK6yYM0Uj/JcWQrJ2PddAuCWPaukTGHPmHyofE6JuS36VfMqopYqUEF6t54g8eM94NEvFv64dVO6jHhZdhza4LGuQaXXpVXD7rpsxMzu0va5iMNSL1w+Ky92eVz3YTeOd9/9MqDdp1JMibROW6/E1yeKuRJW+UuuNUuJpOZ81qxeTY4cOeLsKsLyoMGDBSKmL/PlOYsXIuMnTIrQLFCM14yZMsqCBYt0rFRnY4hHeFEGcyZVWrj4S8mbN68WdTaoly+VKld2NtciBMQIp+3Ztz+CGGnXwUujl15qEvBlQ0wLr0jkhYReCBNRskRx+fXqVXs39XxD9XKwb78P9Pzs2bOl6/vvedT57uixCPfqYJJr1apdW3B/wf3XafCu69yxY0BBPTL3P7xQnTd/gdfrYJ8SYAsWdCVkdF4H2Lfo/CZxHlug5cVLlkru3LkjVPv777/lghKj06ZN516HF6KPly0T7TBKuH/jPu7vvH0wYIB+sYyNt27ZQlatWqX3A/e+pcuWu/fJ28ykiRNkoGofyIIVXu17UYWnnpQfT//o0fW48RPlqQpP6bJcSrx2WlSvvVBdB8EKr879/i+E1xcaN5aevVz3FW+ff+c+cpkESIAESIAESIAEgiVA4TVYUjFQL0GChLJ7717lYXqv7h2C10HlKfi38v7Mlj2bZMuWXXuuFi0cMWs9GkCwLXw7o32adOncop0/kW/SJ58IPCRgePDYrh6K46uHwaLK68TsB9b5E16xHg9GBw7slxvXb2hv1njx4qFYe6/CI9Y280ANb9iTp07KD0qwhMGT4+GHH9bzyBBeuEAB3a8u8PInMg+eXpoHLIKXy/qNG3U9XwJHl67dpOnLL+s6vXv10t6ddsdROSfwKtm4aYsYhvB+2rt7j35oLq48hU05hFcIsL4sMsKr/YCBc7lXXYfXrl2TEiVLeAiq8FytU7uWxyY3bNrkfiCG2H5YebZdUF5xmbNk0eINxIUSxYt5FTY8OgpiAV4wuUpGFIH8NZ3apZ7cUh6Q0TH7YRf9BHu928Kr2T6upZ/O/KQ9u+DxCMNn/Un1kiJUtmz0cS1iXrx6Tk6cPiA/njspiRIm1d6dSRMn15vZqYTMzkOf99ikEV5N4bUbv8rmPSvlIdWmRP7ycu89ru+mjkMayO7vtphqYguvpnDvka1y5sIp3S51Mpdg8v3Zo9Ksh0sUMPVK5HtSPnxzmlkUtDt+5pBkTpfDLYz+/c/f8sJ7pZUX7E/uerbwisK//rqlPGs3yI2bN9RxVpb7492v606Y119mLBvlboeZLq+NlIqlntFlN37/n2zeu0oSK4+qkgWech8jVvoTXneqzyS83WB5cuX0+12FOhAvR48Zi1ld9/vvTymvuIPKCzWp5FQvWiAqffvNN9Kk8Qu6jv0HAs+QIR+5i/KoxDx4Oefre8lU/HbbDkmmPE5hV69clZ07d+os305xyym4GeHV9ANv2D179kqSxIkkX/4CpljqP1tXf1e4C9SMEZAgZJ5S3+2nf/hBkiRJrL5LSgm8LmGHlDdgnTrwVvZt5j4RUzFe4W3apUtXvQPweB3Qv3+EnYGoBvawx9VLFKcn6oyZs1TmdJfHazY12gSjAvwJeOjHTsiGZZzDE2qUSZZMmd0vQCEGV1XXyyl1f/Rlkbn/bdu+U3tXoy+86Nmjrt0sWTPr3xR2/87rILq/Sey+g5m3hVdcrzf/vCkI6WEM96SrV66oazi9Lopu7HJ00qNnL2ncxPUCAbF5vXmQG374XVJQffaM2ffYc+d+lu9PfS/nfv5Z8PurZMmS7t9QY0aPFudoGNOHmZrPTaAYr/a9KLLCa1SvvVBeB7FJeLXP7/Hjx6Ra1armdHFKAiRAAiRAAiRAAtEiQOE1Wvii19gWvzasXyevvvKKR4cYHvZ09eoRxD2PSrcXMLS0Xfs39ZIv4RUC35at3+oHeDxYV6lUWX7++axug1AAeKg0nrf+hFd4njyjxDjj8QXvmhWrVuu2CIvw2KOPeuxix86d5eKFi/o4IGDZBnGh1u3hr4GExcg8eNrbiMz88pUrJWvWbNor6tFSJbQXr93eCBvwUiqYP59f8SWYc4K+P5s2XR69zQxhF2zhGmLw6q+/FnifQrguXrRIhKGGZv/sh4ZAD6jG6wcP/K80bSqbNm/S3eCaW6WGB7sFE4fwCuEJAhQMomupksX1vPkD0bWZuo4nK4EfjKJrTXrPkcwFykSqm49eKiA3lPdmdMx+2I3M9e4UXuE1js8SDMOXl61YqcN7YDmUQxnh/bnqm/ly6OQudO02fJ4n9VgtGKYPe6ZjQQ8PVFt4hWjbtJsasqqESViR3GXko06uobhHvt8rLfu5vEKxzim8Dp7aWZZumolVSny4T0a/t1hyZXa9MGr5QXU5cmqvXof9mTtolyRPmkogrr45qJ7sP7ZNr8OfQrlKy8ed5+plhA7AemO28PrnrT+VoFtefrrgeomTOvnDMmPAN1pEPXvhB2nc5THTTBI/+JAsGLpPr0MIgyZdH5f/XXd5O+bNWlRGvLvQLb76E16NUILvzkLqJVEgG6ZCvmC4PsxbaAKEIMigBCUkcglke/fvF4gh/oRXDNse+OGHuiuIBjXVvcOEcGmtEi++2aGjezNOwc0WXjHUu3KFCu5wNa+8+pq8+957uu0q9f3YulVLdz+Y+Xj4cJmjMoJv2ujpoYwXeV+vXadjJqKeNyET5cZiWnjF52+vCt2C76jLKhQCvt9tg2CN70Vco8GILnO+mCcISeJPeAWD7Tt3acEe37WvqzA169aucW+2ghoxMXbcBL2M+yk8qX1ZsPc/jNqAdy3s0KFDUqdWTXeX77z7rrz6WnP3svM6COVvEvdG/MwY4dWOqblP3XMgaOO3Qj4VfglT89LDl4e4n01EWIUXHnh5CIM39nONXEPLTcW8SmhduGixXly9erW0avG6WaVF4Z69eyuP1v6CES+24d65XvWLF6X+RiqZNub7JKaE1+hce6G8DmKT8IrviEPfuUYy4HuwrArXQiMBEiABEiABEiCBUBCg8BoKilHsA/Hi2rZrr1tj+P6wj4dGsSfRMf0CCa/2g5s3jwwIr2Yoqj/hddGCBdK5cyePfV2xcpVkyZpVi4MF8uf1WOdvIUmSJLJj125dZeWKFfJG61Y+q9v7X65sWRUn8WefdaO6AnFrMcwQ5hzeDw9dDN+EIXbh681f0/O+/gQjvNqhC3zFQLPFaV8eOtiHYIVXu96B/fuk7jPPeBwCrklcmzCnxyuG6mLILsxbW70ihH9K12kp2Yt5ekwG6n52v6ZKDPk9UDW/623hNTLXuy28/vbrr1K8WFGP7eDzhc8ZzJe3o0eDECxUfLSudHl1hO7pnWEvyrYD/wo/tvDab2IbWf2t6/o2mx39/peSJ0sRvVj7zfxuwdIWXn/59bzU71zMNNHTHBnzy/huy/U8hvL3HOsSL+B1Cu9T2NTFH+n/esH6M7nXGsn8sPIoVcJs5ZaZ9UsQrLaF1zmrxsuY2b2tVspb9fa+3rh5TWq0ze1e9/zTb0jzZ13CIUIUzP/6E/c6zAxs/5mUzO+6xvwJr0eOHdftfjpzRso/+YRHH94WjDCHdQhJ4hRqvLXxVRaM8GqES/ThLRTCbhVP1LxQcQputvD6evNX1ffbWo9dOXj4Oy0oBeO5ajfE6ACMEoB17PCmfKlih/sys/8x5fGK7Y6fMFHKP+U618/WfUb279vn3h37/vK+EijnznW9dHBXcMyY8+tPeH2p6cvStZvr+KdPmyY9e7hCZdhdrduwUY/8gDCbN3cuny/z7P3zd/8zHLEN53lGmRE2va0P5W8S9B/IjPB67vw5KafihcNMSAh46pZ5tJQu+2r5csmePUdQntO6QYA/a1U4DXjR4qVaARXH2H4hjBcJ1avX0D148/D21/Wnn0/TsZVRx9uwf7ttTAuv0bn2QnkdxCbhFefHfD6QJ6FIoYL2KeM8CZAACZAACZAACUSZAIXXKKOLfkMM+cfQfxi8GUeNGiEzZ6okKMobJ7IWjMj3yeTJ7hiu3oaCP//CC9Krdx+9aX/Ca1vlPeX00jIPHHh4zK2GYHqzso+XkyeVYJFRDbFMkSKF27u2SBGXsINEBt5iCJq+gn3wNPWjOt1/4JDEfyB+BI9O+6Edw+8DJZAK5pzYw5ExVPfw4cPu4YrwvIIlVuK0GSo8UyXJ6d7NNVzWeXy2oOrP49WOY4jhts5EMxBnINLAnMIrykycQ5zruXPnyqQJE/TQWayLK2YLr5G53m3h1Zt3IPiY6+vMj2fkqfKBBbxgmeJ6KVukimTPkF8n2Er0YBLdNGXSNMpDtbCed4qrtvBaSYmcf//9l8fm6ldqLq0b9tBlbQbUVsmvdup5W3j9csM0+eizdzzaYWHJiO8k4QOJdBKr5r0r6/VtGvWSZyu+qufh0Xrlt0tyj/oHM9c7Ys6mTZlBl7Xo+7Qc/WG/nreF184fNdIJvPSK23+6vz5GJ9uCYFupRSb3qnebfawTf6GgRrs8bo9eU8EWg4MRXn29IDH9mSm8T+GFCoOwNEgtL1OJsXwlIDTtvE2DEV7N8GgMz/YWnmbylCmC72CYU5CzhVdvgpHxOPQlOsO7rp7ytCygYodmUnFmEyV2XXtIZpUlSxa9zb59+sinU6foeW9/jGAYk8Kr7c3oHGViRgH4E1Lt/Q5GeB368TCpoeI5w+DRekUlOAMrmLne8cLSxPZ+4fnnfCaQCvb+Z0Zl+LoOEIMa31Mw53UQyt8kegMB/hjh9fQPp6VihfK6thFZ7XAsCxcu0mEZvMVVD7AJr6vte7NTZDcvKLy9ODOd4YUxvEKzZcumEygmSJBAr8qaJas7xAO84u0Edqatmca08Bqday+U10FsE17N/gY7ssGcT05JgARIgARIgARIwB8BCq/+6IRhnfF2sTeFB0/E5uva5T2BOBOM2Q8SvkINmAcaX+KoLRr5E16dD2vYP38JHjCkdtyE8R6x27wdUyAPwGAfPL31HZkye4hwg3rP6izFeFjeh2Gqash/sEPQgjknyLTdoqXn0F1/+4oEaK+oWIXeLFjh1Y5T27JFc/l69dcRujPiqjfhdchHQwUJO2yDWHFCZQvv16e3YDhobDdbeI3M9W5/hpxhIwyTQMKIqReZKZJDvdV0sI7r6q/dwCkdZPnmfz35jPCKhFZPt84eoWm5YtWkV0vXUGi7rS28eoupio5mDdwmCAEAcfXZTi7hd3DHWVIsT9kI2/FVAE9ZeMzCbOH1eRX/Fcm7bMPxVyv7nC6q8LpLuMXC8LfnS4EcJbUHrS3Imrb5shWTke8u0ov+hNfDR45q0SyYYcToDLEq127Y4I7RbLaHWJZLly6RD/r29Rk2xNQ102CEVyPk/PTTT1L+CZfAatpj2q//AGnQoIEucl7TRniFKOxtxIIRJW3PRNM3kvB06dpVh0IwZd6m3l7y2PXCIbxiexvVCz6cGztcDO5R89VIDhheKuJlSyALRnjFkHWIvcFat65dZNbMmV6rB3v/M9eBLVzaHdpJJJ3XAeqF6jeJvU1f80Z4tUM7GGa2yGoS2/k6Jl/9+yrHy0UIbBC/bS/uEipO6/QZLv7weIYo6zS8UEHCPCOgO9ebZW8vt806TM15iqlQA4ajvU1/885rL1TXgREyg31hZfbxv0iuhW2b3z7eQimZfeOUBEiABEiABEiABCJLgMJrZImFuD5iSrXv0EHHxURcM9sgkC5dskQ6vNneLvY6H4zI9/WadZIhYwY9rA7JYZxmD4P2J7xGJsEDYoJu2rLVnfUaXiR71fBOJKQwMUDx4A5D1u3nn2vk3C33crAPnu4GUZxBzNqVt8VIxC1spobL2nHzRqihiCOGDwvYezDnxH4IhtiOpCv+bJ0aAuz0Njb1gxVebU88X3FGzUOhN+EV26tZq5a8r8QWxLVz2smTJ6RWzRpR8uxz9pU4eVp5MGlyZ7HP5X9UPMALp10x2nxWCmKFLbxG5nq3hVdcI7hWnLZZJVQCt2A965ztncvwEB3TZak7TumJM4flqIrJevHKOflLebA+kiqTVCr9rG724dROsmyTK9QBCozwiqRatdpHFIhKFaggA9p9qtuOndtXZq8Yq+dt4XXY9C6ycO1UXW7/mdZvszycOpP8rhKdVW/j+r6Z0H2l8sh1hSKZ/tUIu7rX+cXrp7kFVlt4bfBWcbmkYtLa5kt4ndhjlWRLn0cn46rcKovdRM8jqdfk3mv1vD/h1Yifvl5cRehYFeC7ZPiIkZI7T54IQg2+//p/8EFQMbzNtv3FeDXCsC1Y2fuExH/PPf+8LnIKbkZ4dSYTMu19Ca8QqqZNn+H23oRHLDw7L1y8qJNEZlChSYyX7YcDB8hE5R3vy8IlvNrxbnt07yYzpk/3eHH4dJUqAb+HcQzBCK9m2DzqBwpdgDqfTJwox44dw2wEC/b+Z4SjH0//KPjuchpCH2AYOsx5HaAsVL9J0FcgM8Irjhn7AjPeradOnVJx6CvqspkqhnAxlQA0VMIrOjXbRpiBQgXz6/uVParF2/e+nZgL3wP4PCJpHkQ62GOPlVUjejLqecQQ9jd6ydxjY0p4je61F6rrIDYJr3YoJV+fH31y+YcESIAESIAESIAEIkmAwmskgcVkdcQQbdCgodRUQxOTJE3q3hSEP2fiEvfK2zPBiHwzZ80WJNGCIZacSbxyuwstpn009GO9GCrhtVXr1tKhYyfd5+KFC6VTp45mc3pqD2u/U4RX7Jh5aIE4UqhAflmgPJcw3B8PaUUKFfI7hNAcYDDnxE5cE8gjzPTraxqs8GoLD506dpDFi1zefna/Jp6lL+HV1MWDSu3adaRRo+fcmaexbs6cOdLlvYjeQqZdsNM7IbmWtwdwXx7etvA6e/Zs6fr+exEO1TyI+vOoQQIg28xLCrvMzPdrM1nKFKqsF50xXFH4VIla0k0Nw4f5El7/+uuWeBMlK5euJ++94nrJ0GNsc9mw8yvdjy28fr50uHyywJXMR6+8/WfekD2SLElKuXD5rDR6p6Qu7dlyvMA7F1ZNibE3lSgbrEVVeO3fdqo8WtAl4NiesGa7xfOWk0EdZuhFf8KrSbyHiv5ibJp+7SlEjMfKPi5Nmrwojz9eVnvOYz1iTBYuWMD9EspuY88HI7yaIdLeEkehr1Gjx0hlJSrCnIJbVIXX2XO/EBMqxlsMVxxv95499TbvFOEVYWT27jughXC8JKpaubIcOHhIn5PICHvBCK+fq8SJpW4nTixWpLBOuqRhROFPsMKruVa8JbrEZu0RHc7rwLlb0flN4uzL27IRP6MrvOLzZXug4rcN7tX+zA6t1K9fX5mqQjGZMDDnL5zXyeCc7c16vDSrWrWyQJyzbfLUT6Wsij8PC5XwiuSkLVu20n0iHAPCMtgGD128AIHZYUJCee1F5zow97vY4PGKF8rmN/Car9dIi9dfs1FzngRIgARIgARIgASiTIDCa5TRxWzD0WPGCuJ/wnwl5bD3IBiRb9DgwXqIHNq1btlCVq1aZXchfT/oLw0bujL8hkp4RQxbxAuDeRN7K1WqJKPHjtPrAwmv7d/sIG+0aaPrett/vSJEf5qq4fxdunTVvSEzfcdOnbVXl7csyL42Gcw5gRAOQRzmLYmTr769lcPTZvXXa/UqiKkQVb1ZlapVZeSo0XqVM4EYCvMo77xFXy7R6wMJr7rS7T+1VZKuwYOH6KXIPmTZ/djzsVl43bVrlzRqUN8+HJ1Rfd+Bg1okgHczvOucZl83Zp0/oc8M6T974Qdp3MWVoMa0w/SNhj2lXiXXA6Qv4RX16nUuIpd/vYhZt7Vs0E0aVm6hl1/pWUFO/eTyJraF1y17VkmXUS+722DmvvviybKRx/T04Ikd0mZAHb2+aa2Ogv+wdh/Wlf3Htun5YP5EVXi148q+3L28/PDzMY/NNarSSlrU76LL/AmvPXv11nEdUdFfkjuPzn0sbFLhOFKnSq3XIqs6vlf8mRHT/Hm8moRBvl4OwYsfHrgwp+AWVeHVhM3wJfLZYUkCCa8Y6o8h//AkRDZ754tBf3wiu87EJEc7vPB69z3XC5LBgz6U8eNc96NAfQYjvNrXTPPXXpN1a9cE6tbn+mDvfxs2bZK0adNpMT9/3jwR+jNiJ1Y4r4MIla2CYH+TZMuWXbopT2JjiFs+8HbCSlNmpmZfoiu8ms+H6TeQFynqQazFd3G8ePEEoQ4GfThQxo5zeWTjGsC1YJudCBO/nfAbxGn28PxAwqtJ4hRI7H+9RQvBCAzYS00aRwjlY0YyYb0tvIby2kPfxoK9Dkz92CS84nsAL8Nhzti/5ng4JQESIAESIAESIIGoEKDwGhVqYWiDWHyIyQcLRpCzxRpfMV4x5BMJVmDOB3g8hGzfuUsSJUqk14dKeJ3y6Wdq+J1LDPImMNhiQCDhtWrVp2XEqFF6/4JhoitG8Q947EVMV4fnYbOXXpJNmzcF1Wsw5wT9w1MNU3g1Fi9a1Kc3LTy1AiXmMZ6qvuI8YsfxALn1m21aSPYmmEAIhyAOi4zwmix5MsGQZMTN87d93XGQfx58KKUkTBy5UAO/nD0RZO++q4Ui1AAEMDOE1Wzp5WavCDzXYL7E8bbt2guyStv2pIrZeVbF7vRmcwfvlBQqgRbitFZvg6zof7mrxY/3gCwaflAwhfkTXmcsGyWI12qb8VqFR2z1tjnlz1t/6tW28Ip18F699ZdrHSrYnrJfrJooo2b31O1yZlbxnru4vGYPndwlb/Svpcu9/Yl33/0efUZVeH28aFXp3WqS3sSSDdNlyGcuEcNs04REwLI/4bVw4cJ6eDnqRdeje+KkSfLEk+XRlQ6vgu8+f2aEJef3tt3GjuE6aeIED7HLfimDNk7BLarC6w51z8DoDDMywBZLEyRIKDvUywfzHRpIeLWzyb/e/FVZu2atfXghnbdfeJmO8XktmD9fQO9jUz8Y4RXervA8hJ287V1r2jungb7fg73/2ddW586d9O8Hs62kDz0k27bvcIeGcF4Hpp63abC/SapVq669ak0f3u4xZl2ohFcjYpp+9+zZI4jPHshmzJwlCLEEsR9tjPe2t/isCJuEJHMwby8Wy6owA5M/dYVlQZ1AwuuGzZslbZq0ett4KY3rz5vZL0rHjh0jH6kX6MYgsK/fuNF9Pm3hNZTXntkepsFeB6ZNbBJezWca+16kUEG5fv26OQxOSYAESIAESIAESCBaBCi8Rgtf9Brj7TqSNCBT/YTx49w/8vCAP3b8BHem4w7t28kSFevVnwUj8qG97ZGxRSUZGTigvzwQP770HzhQZejN7t5EqIRXe5gcHjzfaNVKx7BDPNtJamifGYaJDQcSXm1hD0N058+fL5MnTVQPLP/Ir1evCh7wQmn2Ayz6DTapjtmHYM+JXQ/DhFu1auH2gIMA/PTTT0urN9pIVpX92psHk9keprYnHZJcDR0yWK5e/VX++POmx7BIe3giYsbCgw8Pfk1VWAsk3zLmFF4x5HDGrFmyfOlXMuSjIW4xECEHBg0a4h7yGGyCGrOdO20aCuEVx4Q4hc/UrqU/23jA/1RlFIcQhQf9sqVLe71mIyu8DlbD5Iup4fIwiJyTFw2R67//JqmSpZNhb83TcVb1SvXHn/D69z9/S/fRr8rmPSuVR+598v4rw6VCKZen6vLNs2XgFJenKvqyhVcsHzm1R9oPqic3//xdcmTMLyPfW6TFXvRZt2Mh+e2aKwYi6tpD/7cdWCN9J7Z1r38gfkKpWLKONK7eTn67fkVa9nOFJUC7qAqvaGsEZMz3Gd9K1mxfrI+xQ+P+UqPcCyjW5k94RQXj4RlMxusFKrRKQpXEZ7TyLl+8aKH+fOHzXFG91Biu4r5iaDSuA3+ii2uvRL0E2q+TV/kTXiEM4eWZGXL9ifpu/PzzzyRfvvwySHmiJ0yY0HQXMuHVxONEx3iR0KdPLx3vEkIvEiLZMaADCa81atSQocOG6328du2ajBwxQtZ87Ur8d/78uWgN03cfuDVjzqUpwvclPAqDNSPSBIrVbOqh33379kqL15q7P/c4Z42bNBGMsLj2v2tSuWIFn5sP9v5ni+x4UddIeVQf2L9PILouWbpUe8OajTiF11D8JolNwqs94sYw8SaqmnUm1ACWe/boLnNUOBm8dMDopGHq2kXyTWOBhFe8RIaYDkNcZnjcHjvq8sb//vtTbo9vJIJDQjgYYjA3ePZZgRfxw488InPnzXN7zmO9LbxiOarXXiiuA2wfFhnhNUPuEpIkZTrdLn7CRFLzDdcImktnjsm6Gf8Kzsd3rZM/bvym6zn/5MqVSxAvGuYrzrqzDZbtF9KHDh2SOrVqeqvGMhIgARIgARIgARKIEgEKr1HCFppG9lAw9IgHOOW64PYQQpmvWGN2bD3U82e295Mt/jjbQLzEwxksVMIrYrh+o7y57MRheBiEdw8MDxJmXSDhFfXtxFBYNhZouJ6pF5kpslEjM7AxXzE73euteIemzNfUPieoYxLLmPoQQW/9ecvNCeUo85YUzbTB1PaOscsh8OTOmcNdlCNHDh1OAMMsYVgPbzWzbCo6hVenpxgEcCRwMucQ7fAg+nTVyhFi0Zk+Y8M0VMKrOVYwMZ5/KPMW79jUjazwanuRmj5u3LwmCR9wea9DwEzyYDK9yp/watrCqxUC4b333KuL4En7/Dul5fJvF0yVCMKrWYG6xrsWZXNXTdBepGY9poj7OqXXWklqeTKjHcxue+z0AXm9T1Vdjj/REV7tOLfoy3mMKIMFEl4Rrxpxq2EQXhAGxpetWLlKsqiXJcbwXRf//vhu7zSUe8ucbif3M219TdFnQfU9ZaxFy5bSqfNbZtFjisSGJna4U3CLqser7VVnNmZ/v9+4ccMt+AYSXtHehEswfZmpL+9wsz4qU/szjvbehnHb/ZoYunaZr/m6KuwKxE4YvBKXr1wpuBcaw/cBzP5OCCaZT7D3PzsGNbaD3xa2KIgymPM6iM5vElePol8mI6yRsQsXL+iXTGbZnv7XHq/YF6e37Af9+smUyZ/Yu+met4eioxD3ZPw39028kIGnNyyQ8AohfdPmrR7XgG6o/jhDKZnPp1mP+67Zpn1uncJrVK+9UFwHZl8jI7y+MWazJEubyTT1OZ3e83k5uXeD1/VRFV7hfFCvnis0kJO/1w2xkARIgARIgARIgAQiQYDCayRghbpqrdq1pXv3nvJQMpfYafcPIewblf28Xds33Blz7fW2p5Fd7m3+s0+nSp/evd2rsmTJKhPUUNeMGTNq7yg8BB4/flz6I8GE8siDOWPd2Z6r3oY9jxk3XipWrKgFPFvgQ18Q68aMGac9CrBsDEJv/Xr1ZOmyZfoh4lt1vE0a/+t9Zuo5pxAWmrz4ojssAtaHami7c1vbd+x0i9H+4myiXXTOCdpjeHnLVq29PojB23bN6tURkpOhndPgxdNbPTymSJ7C7f3mFF7RBuIrBHx4XRlDvbFjxkizV5rpB8hDBw5InTq1zWqBZ+v0GbMkXbp0HgKSqQDPnU4d3pS9e/eaolg5jer1bifXmjhhvMoi/4IHX8Bwfh6dgGwPaLMu0LX3VMna8lbTIZJAeYzatvfIVhk1p5d7eP/AKR1k+eY57irjui6TnJkK6Niui9Z96o6/aiogMRbCAVy88rMp0lPb43Xs3L7SqEpLSZ40lUcdJNxC4i1vhjACnV4cKJXL1HcLvHa90+eOy/SvRnrsK+LUIl4trF6noh5CMMo6vTRIajz+vMDLtlKLiA/vZQpXkp4tJsj98e5HdW0QfHuPayl935isl0fO6iHzVrvCEtyu4jHBC4adu3drEevcuZ91ki2PCtYCMqDXq1/PLcRYq/TLibkqAV0PKxamWY/v5xWO+NtmnXOK726nFzw8R7v36CUQdhD2A+Ln+vXr5OezP2uPdvRR+tGS8sulX9zdme8uX568W775Vo/A8HbMTV58Sd5Tozecwh68c/v07uUeah9M8kDwHatGf5QoVcrjZU5MhJaxh44HM5rB9nZ0g/MxU//Zuh7fgXjROHLkaHmyfHmv35vnlEfv5EmfCLyUA1mw9z9bSDJ9Xrp0SZZ8uVheavqyLqqi7hWnTp00qyU6v0lMJ0OGfCS16rg85VE2a+ZM6da1i1ntMTWCou3JDU/xfPkLeAznNyEBfjpzRso/+YRHH1gwHuFmRTAxXk1d89sFyxBRneFhTD0zRRxzHB8+W8bQbv78efL7jd+1BzPKS5Us7vW3m2mDKbyTJ0zEb7FMHvd9Z6gNCKhzVf8ITWAM9+pFCxdI4iRJff72Qt2oXHuhuA7MfkZGeG09aqMkfziLaepzOq1HIzm1z3vIp6gIrxglgIR7YOUrOaHPneEKEiABEiABEiABEgiCAIXXICDFdBU8IJcoXkIyqwfu++67V8VfPaLije0K+KM9FPuFH/R4mIYh7IHxVGmmhpxv2ujdoyCq20UIhaLFiqshlb/JylUrw3J8Ud1XtEuRMoVs2fqtfsDyN/wwOtvw1jZDxgxKGCkjqdOkVg+fp9QDwR458+MZb1VDUgYPu4qVVIbmH0/rob3GG8tf5/DUKlWylGTNlk0LPCdPnJDde3bH6H762587ZZ0tvJpM2dmyZVdDUSvJkSPfqc/UpqBjSEb2mCAo5sxUULKmzyNnzp9Uiau2e8RI9dafLbwiuRYE0SK5H5NkSVPKrkOb5NLVc96aeXi8fvBJO1m1VYkCKdNL8Tzl5PS5E3Lw5E7lQX3La1u7EOJF+tRZJU+2InKfCm/w47mTcvLMdzpUgl0vlPPZM+SVPFmLyqETO+XEmcOR7tr2SEbyNCRR82cQVwoVLCSZ1Ofs2rXrcvDgASXK7QkYr9lfn8Gsw2c0SdIkboHVCEwQiQJ5zgfTv10HgmlJFc+0YIH8cvTYMS30BopHbbf/L+YbNmokfft9oDcdTALLUOwjBJ48efNKSSUs43o/evSoCj+wJ8buhRCSnlDJLbNkySII/3L6h9NBHUZ0fpPY4YzgjVmsSBE9siWoDceSShiW/liZx/RnGi/IAyXHC9VhIdQPYuYfO3ZU1q1d5w5HEEz/Ubn2onMdmH0ywqtZxnT+vC/knbc9Y23b66Myf+DQYQ/xGn0EG2rAjr1Ob9eo0GcbEiABEiABEiCBQAQovAYidBet/0wlAXlUPTzDvCWXiA0oIJZGxeDx5BQKEG8Q3mOwrl3el9kqtimNBPwR8Ca8+qv/X69zCq/B7o/t8WqE12DbxoV6xhMecbKbvtgkVhySEUAQcqB4saKxYp/tncRQ/QQJE9hFQc1DaL5y+d8Yw6bRhk2bdBgAeA7CAxiebrToEUCIkoOHv3N7g06dMkX69e0TvU7ZOlYTMAn47IOIidAhh48cdY/wMdsaquLQjxk92iz6nK5Zu16P5jly5IjUrF7NZz2uIAESIAESIAESIIGoEqDwGlVysbRdBZW8o+8H/QXDXBHHDMNN4Rn1lvI+wFt/GGLTIUZdbDM763hk932VGtoLTwckg3kk/SNqSG4zqVmrln6AxFDdwgULRLZL1r8LCVB4vQtP+h10yPhuL168mEz+5BM1DHmRIHQAvNbGjh2vQ75gV0eNHCnDPh56B+11cLuybMUKjwSQwbVy1TKxLzGaIHv2nIJwHrhfwJDNvkG9Z10V+TdaBJAsCkmjYHiRWbRIoRjz8I/WjrIxCZAACZAACZAACZAACYSRAIXXMMK+EzZlhxPA/sAbyGTBxjKGmcfWxEhFixbVmbRxHJG11Sp+aqsWr4uJZWjawxuqc6eOOmO3KeOUBHwRoPDqiwzLw0HAhBMw23J+v/tK1mjq38lTJKjKmjVblHbRCK9Hjh33aA9xsFq1KkEPwfdozIUIBLp07abixzbV5aOVABsbBf4IB8UCEiABEiABEiABEiABEogmAQqv0QQY25ojRtio0WMiJEdCltzvDh+SV199xR0TMLYdG+IMIpZmVOyQig924sRx2bR1q6ROlVonCTuvEp4MHjRYFi6YH5Uu2eYuJFCiZEmVfGymPvLevVRioc8+vaMpjH7/S8mTpYhcVLFcG75VPOh9RUIuhCmA9ZnQWtZsWxR0W1aMOQJImtS2bbsICRsRa3Pp0iU6riLE2NhohQoV0gkhI7vvt279peObop0RXvGC8fTpH6RN69YqXuaxyHbJ+iRAAiRAAiRAAiRAAiRAAiQQNAEKr0GjinsV06ROo+NaIeHGxUsX494B8ohIgARI4C4kgFibCJmC0Cl4qYSQAzQSIAESIAESIAESIAESIAESIIHwE6DwGn7m3CIJkAAJkAAJkAAJkAAJkAAJkAAJkAAJkAAJkEAcJ0DhNY6fYB4eCZAACZAACZAACZAACZAACZAACZAACZAACZBA+AlQeA0/c26RBEiABEiABEiABEiABEiABEiABEiABEiABEggjhOg8BrHTzAPjwRIgARIgARIgARIgARIgARIgARIgARIgARIIPwEKLyGnzm3SAIkQAIkQAIkQAIkQAIkQAIkQAIkQAIkQAIkEMcJUHiN4yeYh0cCJEACJEACJEACJEACJEACJEACJEACJEACJBB+AhRew8+cWyQBEiABEiABEiABEiABEiABEiABEiABEiABEojjBCi8xvETzMMjARIgARIgARIgARIgARIgARIgARIgARIgARIIPwEKr+Fnzi2SAAmQAAmQAAmQAAmQAAmQAAmQAAmQAAmQAAnEcQIUXuP4CebhkQAJkAAJkAAJkAAJkAAJkAAJkAAJkAAJkAAJhJ8AhdfwM+cWSYAESIAESIAESIAESIAESIAESIAESIAESIAE4jgBCq9x/ATz8EiABEiABEiABEiABEiABEiABEiABEiABEiABMJPgMJr+JlziyRAAiRAAiRAAiRAAiRAAiRAAiRAAiRAAiRAAnGcAIXXOH6CeXgkQAIkQAIkQAIkQAIkQAIkQAIkQAIkQAIkQALhJ0DhNfzMuUUSIAESIAESIAESIAESIAESIAESIAESIAESIIE4ToDCaxw/wTw8EiABEiABEiABEiABEiABEiABEiABEiABEiCB8BOg8Bp+5twiCZAACZAACZAACZAACZAACZAACZAACZAACZBAHCdA4TWOn2AeHgmQAAmQAAmQAAmQAAmQAAmQAAmQAAmQAAmQQPgJUHgNP3NukQRIJtp79QAAA/lJREFUgARIgARIgARIgARIgARIgARIgARIgARIII4ToPAax08wD48ESIAESIAESIAESIAESIAESIAESIAESIAESCD8BCi8hp85t0gCJEACJEACJEACJEACJEACJEACJEACJEACJBDHCVB4jeMnmIdHAiRAAiRAAiRAAiRAAiRAAiRAAiRAAiRAAiQQfgIUXsPPnFskARIgARIgARIgARIgARIgARIgARIgARIgARKI4wQovMbxE8zDIwESIAESIAESIAESIAESIAESIAESIAESIAESCD8BCq/hZ84tkgAJkAAJkAAJkAAJkAAJkAAJkAAJkAAJkAAJxHECFF7j+Anm4ZEACZAACZAACZAACZAACZAACZAACZAACZAACYSfAIXX8DPnFkmABEiABEiABEiABEiABEiABEiABEiABEiABOI4AQqvcfwE8/BIgARIgARIgARIgARIgARIgARIgARIgARIgATCT4DCa/iZc4skQAIkQAIkQAIkQAIkQAIkQAIkQAIkQAIkQAJxnACF1zh+gnl4JEACJEACJEACJEACJEACJEACJEACJEACJEAC4SdA4TX8zLlFEiABEiABEiABEiABEiABEiABEiABEiABEiCBOE6AwmscP8E8PBIgARIgARIgARIgARIgARIgARIgARIgARIggfAToPAafubcIgmQAAmQAAmQAAmQAAmQAAmQAAmQAAmQAAmQQBwnQOE1jp9gHh4JkAAJkAAJkAAJkAAJkAAJkAAJkAAJkAAJkED4CVB4DT9zbpEESIAESIAESIAESIAESIAESIAESIAESIAESCCOE6DwGsdPMA+PBEiABEiABEiABEiABEiABEiABEiABEiABEgg/AQovIafObdIAiRAAiRAAiRAAiRAAiRAAiRAAiRAAiRAAiQQxwlQeI3jJ5iHRwIkQAIkQAIkQAIkQAIkQAIkQAIkQAIkQAIkEH4CFF7Dz5xbJAESIAESIAESIAESIAESIAESIAESIAESIAESiOMEKLzG8RPMwyMBEiABEiABEiABEiABEiABEiABEiABEiABEgg/AQqv4WfOLZIACZAACZAACZAACZAACZAACZAACZAACZAACcRxAhRe4/gJ5uGRAAmQAAmQAAmQAAmQAAmQAAmQAAmQAAmQAAmEnwCF1/Az5xZJgARIgARIgARIgARIgARIgARIgARIgARIgATiOAEKr3H8BPPwSIAESIAESIAESIAESIAESIAESIAESIAESIAEwk+Awmv4mXOLJEACJEACJEACJEACJEACJEACJEACJEACJEACcZwAhdc4foJ5eCRAAiRAAiRAAiRAAiRAAiRAAiRAAiRAAiRAAuEn8H+8tvbOMYlV6AAAAABJRU5ErkJggg==;" vertex="1" parent="1">
          <mxGeometry x="280" y="-140" width="401.63" height="190" as="geometry" />
        </mxCell>
        <mxCell id="Sk6FEX_UIBld3xIUa4Sr-19" value="" style="endArrow=classic;html=1;rounded=0;exitX=0.633;exitY=-0.044;exitDx=0;exitDy=0;exitPerimeter=0;entryX=0.423;entryY=0.263;entryDx=0;entryDy=0;entryPerimeter=0;" edge="1" parent="1" source="Sk6FEX_UIBld3xIUa4Sr-2" target="Sk6FEX_UIBld3xIUa4Sr-17">
          <mxGeometry width="50" height="50" relative="1" as="geometry">
            <mxPoint x="400" y="200" as="sourcePoint" />
            <mxPoint x="450" y="150" as="targetPoint" />
          </mxGeometry>
        </mxCell>
        <mxCell id="Sk6FEX_UIBld3xIUa4Sr-20" style="edgeStyle=orthogonalEdgeStyle;rounded=0;orthogonalLoop=1;jettySize=auto;html=1;exitX=0.75;exitY=0;exitDx=0;exitDy=0;entryX=0.1;entryY=0.789;entryDx=0;entryDy=0;entryPerimeter=0;" edge="1" parent="1" source="Sk6FEX_UIBld3xIUa4Sr-3" target="Sk6FEX_UIBld3xIUa4Sr-17">
          <mxGeometry relative="1" as="geometry" />
        </mxCell>
      </root>
    </mxGraphModel>
  </diagram>
</mxfile>
